<?xml version="1.0" encoding="utf-8"?>
<!-- Generator: Adobe Illustrator 19.1.0, SVG Export Plug-In . SVG Version: 6.00 Build 0)  -->
<svg version="1.1" id="Calque_1" xmlns="http://www.w3.org/2000/svg" xmlns:xlink="http://www.w3.org/1999/xlink" x="0px" y="0px"
	 viewBox="0 0 612 792" style="enable-background:new 0 0 612 792;" xml:space="preserve">
<style type="text/css">
	.st0{fill:#0047BA;}
</style>
<g>
	<path class="st0" d="M576.7,616.8c-8.1-3.1-15.1-5.7-22-8.3c-31.2-11.9-62.5-23.8-93.7-35.8c-3.1-1.2-5.3-1.1-8.1,0.8
		c-52.4,34.3-110,48.2-172.1,42.2c-118.5-11.4-215-98.8-238.5-215.1C12.7,254.4,107.7,111.2,253.6,82.2
		c146.6-29.1,288.5,64.6,318,211.1c13.9,69.2,2.2,134.4-34.6,194.9c-2.3,3.8-2.8,6.8-1.3,11.1c13.1,37,26,74.1,39,111.1
		C575.3,612,575.8,613.8,576.7,616.8z M526.9,565.8c-0.7-2.4-1.2-3.9-1.7-5.4c-7.7-22.5-15.3-45-23.1-67.5c-1-2.9-0.7-5,0.9-7.8
		c7-11.7,14.3-23.2,20.3-35.4c19.7-40.2,26.9-82.8,22.4-127.2c-4.8-46.3-21.1-88.4-50.8-124.4c-57.5-69.7-131.8-99.6-221.4-88.5
		c-59.7,7.5-110.2,34.9-148.5,81.4C62.7,266.6,48.6,352,87.3,442c37.6,87.4,107.3,135.1,202.3,144.1c51.5,4.9,98.9-9.1,143.2-34.4
		c6-3.4,11.4-8,16.9-12.3c2.4-1.9,4.4-2,7.2-0.9c15.3,6.2,30.6,12.1,45.9,18.1C510.7,559.7,518.4,562.6,526.9,565.8z"/>
	<path class="st0" d="M160.1,358.3c-16.5,0.1-30-13.1-30.1-29.5c-0.1-16.7,13.3-30.3,29.9-30.4c16.5-0.1,30.2,13.6,30.1,30.2
		C189.9,345,176.6,358.2,160.1,358.3z"/>
	<path class="st0" d="M334,358.3c-16.7,0-30.1-13.4-30-30.2c0.1-16.4,13.6-29.8,30-29.8c16.6,0,30.1,13.7,30,30.3
		C363.9,345.1,350.5,358.3,334,358.3z"/>
</g>
<path class="st0" d="M333.7,412.6c-49,14.3-98.4,16.9-147.3,0.3l-15.5,26.7c59,20.2,118.3,20,177.2-1.2L333.7,412.6z"/>
<path class="st0" d="M307,257.3c-1.7,10.5-3.3,19.9-4.7,28.5c28,5.1,56.5,10.2,84.5,15.2c1.6-10.2,3.2-19.8,4.6-28.6
	C363.7,267.5,335.2,262.3,307,257.3z"/>
<path class="st0" d="M194.7,257.3c1.7,10.5,3.3,19.9,4.7,28.5c-28,5.1-56.5,10.2-84.5,15.2c-1.6-10.2-3.2-19.8-4.6-28.6
	C138.1,267.5,166.5,262.3,194.7,257.3z"/>
</svg>
