<?xml version="1.0" encoding="utf-8"?>
<!-- Generator: Adobe Illustrator 19.1.0, SVG Export Plug-In . SVG Version: 6.00 Build 0)  -->
<svg version="1.1" id="Calque_1" xmlns="http://www.w3.org/2000/svg" xmlns:xlink="http://www.w3.org/1999/xlink" x="0px" y="0px"
	 viewBox="0 0 612 792" style="enable-background:new 0 0 612 792;" xml:space="preserve">
<style type="text/css">
	.st0{fill:#0047BA;}
</style>
<g>
	<path class="st0" d="M401.4,126.1c-59.3-26.9-123.1-26.9-189.7,1.1c-99.5,41.9-155.5,141.6-142.7,249c8.2,68.6,41,123.7,96.5,164.5
		c53.1,39,113,53.1,178.2,43.3c35.1-5.2,67.7-17.5,96.4-38.5c8.9-6.5,16.6-9.3,26.2-3.1c0.8,0.5,1.8,0.8,2.8,1.1
		c18.7,7.3,37.5,14.6,57.2,22.3c-0.6-2-0.8-2.9-1.2-3.8c-7.8-22.8-15.5-45.7-23.4-68.5c-1.2-3.4-0.9-5.9,1.2-9
		c35.7-51.7,50.3-108.7,41.5-171c-4.6-32.8-14.8-62.9-30.8-89.7l16.4-29.2c19.7,28.9,34.1,62.2,41.4,98.8
		c13.9,69.6,2,135.1-35.2,195.7c-1.9,3.2-2.3,5.7-1,9.2c13.2,37.3,26.2,74.7,39.3,112.1c0.6,1.7,1.1,3.4,2,6.4
		c-2.8-1-4.5-1.6-6.1-2.2c-35.9-13.7-71.8-27.4-107.6-41.2c-3.8-1.5-6.6-1.1-10.1,1.1c-52.6,33.3-110.1,47.3-172,41.4
		C160.4,604.2,63,514.3,41.2,395.2c-26.4-144.4,68.7-284.6,212.4-313c62.1-12.3,123.3-2.6,175.5,23.8L401.4,126.1z"/>
	<path class="st0" d="M327.8,373.8c-19.6-19.6-39.5-39.6-59.3-59.3c6.5-6.5,13.3-13.3,20.4-20.3c12.7,12.7,25.7,25.8,38.9,39
		c13.1-13.2,25.9-26,39.1-39.2c7.4,7,14.3,13.6,20.9,19.8C367.6,334,347.6,354,327.8,373.8z"/>
	<path class="st0" d="M107,314.7c6.1-6.1,12.9-12.8,19.8-19.8c12.6,12.7,25.5,25.7,38.5,38.8c13.3-13.6,26.1-26.8,38.6-39.6
		c7.8,7.8,14.6,14.6,20.8,20.9c-19.3,19.3-39.3,39.2-58.7,58.6C146.9,354.5,126.8,334.4,107,314.7z"/>
</g>
<path class="st0" d="M182.9,204.2c-20.8,20.8-41.3,41.3-61.6,61.6c6.5,6.5,13.3,13.3,20.4,20.4c20.1-20.7,40.4-41.6,59.8-61.5
	C195.8,218.3,189.2,211.1,182.9,204.2z"/>
<path class="st0" d="M308.3,204c-7.5,7.5-14.3,14.3-20.4,20.4c19.8,20.5,40,41.2,59.8,61.7c7.3-7.4,14.1-14.3,20.4-20.6
	C348.5,245.4,328.3,224.6,308.3,204z"/>
<path class="st0" d="M316.1,479.4c13.4,0,26.5,0,40.3,0c-2.2-36.9-17.6-66.2-48.5-85.7c-36.7-23.2-75.1-23.7-112.4-1.4
	c-32.3,19.3-48.3,49.2-50.6,87.1c12.2,0,23.7,0,35.9,0c1.3-10.2,5.7-18.8,14.8-24.5c5.7-3.6,11.9-5,18.6-4.3
	c14.3,1.5,24.6,12.3,27.1,28.8c5,0,10,0,15,0c4.3-19.1,15.1-29.1,30.9-28.9C302.8,450.6,312.1,459.9,316.1,479.4z"/>
<path class="st0" d="M400.6,122.5c-20.6,20.6-29.3,48.8-25.9,75.7c-12.6,23-5.7,52.2,16.5,66.9c10.5,7,27.7,12.5,43.8,14.1
	c9.8,1,18.5,0.4,25.9-1.6c24.6,1.1,49.5-7.8,68.3-26.5c35.5-35.5,35.5-93.1,0-128.6S436,87.1,400.6,122.5z M507.9,229.9
	c-13.9,13.9-32.9,19.6-51,17.3l-0.3-0.2c0,0-0.1,0.1-0.1,0.1c-0.8-0.1-1.6-0.2-2.4-0.4c-2.7,1.1-8.2,2.1-17.2,1.2
	c-12.4-1.2-24.4-5.6-29.8-9.2c-9.6-6.4-11.6-20.1-5.2-29.8l4.5-4.5c-3.6-11.9-3.5-24.6,0.3-36.4l5.7,5.7c4.3,4.3,11.3,4.3,15.6,0
	c4.3-4.3,4.3-11.3,0-15.6L417.9,148c1.2-1.5,2.5-2.9,3.9-4.3c2.5-2.5,5.1-4.7,7.9-6.6l9.8,9.8c4.3,4.3,11.3,4.3,15.6,0
	c4.3-4.3,4.3-11.3,0-15.6l-3.9-3.9c19.8-4.5,41.4,0.9,56.8,16.3C531.7,167.5,531.7,206.1,507.9,229.9z"/>
</svg>
