<?xml version="1.0" encoding="utf-8"?>
<!-- Generator: Adobe Illustrator 19.1.0, SVG Export Plug-In . SVG Version: 6.00 Build 0)  -->
<svg version="1.1" id="Calque_1" xmlns="http://www.w3.org/2000/svg" xmlns:xlink="http://www.w3.org/1999/xlink" x="0px" y="0px"
	 viewBox="0 0 612 792" style="enable-background:new 0 0 612 792;" xml:space="preserve">
<style type="text/css">
	.st0{fill:#0047BA;}
</style>
<g>
	<path class="st0" d="M576.8,616.9c-17-6.5-32.7-12.5-48.3-18.5c-22.1-8.4-44.1-16.8-66.2-25.4c-3.3-1.3-5.7-1.1-8.7,0.9
		c-48,30.7-100.6,44.9-157.5,42.9C171.3,612.4,65,520.8,41.8,398C14.7,253.9,104.6,116.4,247.4,83.6
		c147.1-33.8,295,61.7,324.2,209.9c13.7,69.6,1.9,135.1-35.3,195.7c-1.8,3-2.2,5.4-1,8.7c13.2,37.3,26.2,74.7,39.3,112.1
		C575.2,611.9,575.8,613.7,576.8,616.9z M526.4,565.9c-0.6-2-0.9-2.8-1.1-3.6c-7.8-23-15.6-46-23.5-69c-1.1-3.3-0.9-5.6,1.1-8.6
		c41.4-60.4,54.5-126.4,36.5-197.4C510.1,172,400.6,96,282.6,108.2c-46.2,4.8-88.1,21-124.1,50.4c-70,57.4-100.1,131.9-89,221.7
		C77.1,440.6,105.4,491,152,530c58.3,48.8,125.5,66,200.3,52.6c35.4-6.4,67.6-20.9,96.4-42.7c2.9-2.2,5.2-2.4,8.6-1
		c10.8,4.5,21.7,8.5,32.5,12.8C501.6,556.2,513.5,560.9,526.4,565.9z"/>
	<path class="st0" d="M336.8,452.3c0,10,0,19.6,0,29.4c-59.8,0-119.4,0-179.4,0c0-9.6,0-19.4,0-29.4
		C217,452.3,276.7,452.3,336.8,452.3z"/>
	<path class="st0" d="M396.8,332.3c0,10,0,19.6,0,29.4c-38.1,0-76,0-114.2,0c0-9.9,0-19.5,0-29.4
		C320.6,332.3,358.5,332.3,396.8,332.3z"/>
	<path class="st0" d="M195.1,332.4c0,9.8,0,19.4,0,29.3c-33.2,0-66.3,0-99.7,0c0-9.7,0-19.3,0-29.3
		C128.4,332.4,161.4,332.4,195.1,332.4z"/>
</g>
</svg>
