<?xml version="1.0" encoding="utf-8"?>
<!-- Generator: Adobe Illustrator 19.1.0, SVG Export Plug-In . SVG Version: 6.00 Build 0)  -->
<svg version="1.1" id="Calque_1" xmlns="http://www.w3.org/2000/svg" xmlns:xlink="http://www.w3.org/1999/xlink" x="0px" y="0px"
	 viewBox="0 0 612 792" style="enable-background:new 0 0 612 792;" xml:space="preserve">
<style type="text/css">
	.st0{fill:#0047BA;}
</style>
<g>
	<path class="st0" d="M167.6,115.7c24.1-14.4,50.9-25.4,79.8-32.1c147.2-33.9,295,61.5,324.2,209.9c13.7,69.6,1.9,135.1-35.3,195.7
		c-2,3.2-2.1,5.8-0.9,9.2c13.2,37.3,26.2,74.7,39.3,112.1c0.6,1.7,1,3.4,2,6.4c-15.2-5.8-29.2-11.1-43.1-16.5
		c-23.8-9.1-47.6-18.1-71.3-27.3c-3.2-1.3-5.7-1.1-8.7,0.8c-48,30.7-100.6,44.9-157.5,42.9C171.4,612.4,64.9,520.7,41.9,398
		c-9.7-51.4-4.4-102,12.8-147.3l25.6,16.7c-11.6,33.8-15.6,70.9-11.1,108.8c8.2,68.6,41,123.7,96.5,164.5
		c53.1,39,113,53.1,178.2,43.3c35.1-5.2,67.7-17.5,96.4-38.5c8.9-6.5,16.6-9.3,26.2-3.1c0.8,0.5,1.8,0.8,2.8,1.1
		c18.7,7.3,37.5,14.6,57.2,22.3c-0.6-2-0.8-2.9-1.1-3.8c-7.8-22.8-15.5-45.7-23.4-68.5c-1.2-3.4-1-5.9,1.2-9
		c35.7-51.7,50.3-108.7,41.5-171c-8.4-59.8-35.3-110.5-82-148.8c-75.7-62.1-160.7-75.4-250.8-37.5c-10.8,4.5-21.1,9.8-30.8,15.6
		L167.6,115.7z"/>
	<path class="st0" d="M215.1,340.4c-20.3,20.3-40.2,40.3-59.9,59.9c-6.4-6.4-13.2-13.2-20.3-20.3c12.6-12.6,25.6-25.6,38.6-38.5
		c-13.3-13.3-26.2-26.2-39.2-39.1c7.8-7.2,15.1-13.9,21.2-19.6C174.6,301.2,195,320.9,215.1,340.4z"/>
	<path class="st0" d="M332.3,280.7c0.4,0.4,1.5,1.4,2.6,2.4c5.8,5.7,11.6,11.4,17.4,17.2c-13.4,13.3-26.4,26.4-39.9,39.8
		c13.6,13.6,26.7,26.6,39.5,39.3c-7.1,7-13.9,13.8-20.4,20.3c-19.6-19.6-39.6-39.5-59.2-59.1C292,321,312.1,301,332.3,280.7z"/>
</g>
<path class="st0" d="M312.4,469.5c-43.6,0-87.3,0-131.4,0c1-23.8,10.6-42.8,30.7-55.3c23.6-14.7,47.8-14.2,71.4,0.5
	C303.5,427.6,313.5,451.3,312.4,469.5z"/>
<path class="st0" d="M491.7,229c-29.1-1.9-57.4,30.7-75.4,51c-25.5,5.7-43,30.1-39.4,56.5c1.7,12.5,8.9,29.1,18.3,42.2
	c5.7,8,11.9,14.2,18.3,18.4c15.4,19.2,38.5,32.1,64.9,33.9c50,3.3,93.4-34.7,96.7-84.8C578.3,296.2,541.7,232.3,491.7,229z
	 M480.3,401.1c-19.6-1.3-36.4-11.8-46.6-27l0-0.3c0,0-0.1,0-0.2,0c-0.4-0.7-0.9-1.3-1.3-2c-2.6-1.3-7-4.8-12.3-12.1
	c-7.2-10.1-11.9-22-12.7-28.5c-1.5-11.5,7.5-22,19-23.5l6.4,0.4c6.6-10.5,17.7-39.4,29-44.3l-0.5,23.1c-0.4,6.1,4.2,11.3,10.3,11.7
	s11.3-4.2,11.7-10.3l1-29.5c1.9-0.1,3.8,0,5.7,0.1c3.5,0.2,6.9,0.8,10.2,1.6l-0.9,28.9c-0.4,6.1,4.2,11.3,10.3,11.7
	c6.1,0.4,11.3-4.2,11.7-10.3l0.4-20.5c16.4,11.9,25.2,52.3,23.8,74C542.8,377.8,513.8,403.3,480.3,401.1z"/>
<path class="st0" d="M22.2,138.9c-23.9,44.1-7.4,99.4,36.6,123.3c23.3,12.6,49.7,14,73,5.9c7.6-0.2,16.2-2.1,25.3-5.8
	c14.9-6.1,29.8-16.3,37.9-26c17.1-20.4,15.4-50.4-3.2-68.8c-4.4-26.8-11-69.5-36.6-83.4C111.1,60.2,46.1,94.8,22.2,138.9z
	 M48.6,153.2c10.4-19.1,39.3-48.6,59.5-49.9l-10.6,17.5c-2.9,5.3-0.9,12,4.4,14.9s12,0.9,14.9-4.4l14.6-24.9
	c3.2,1.1,6.4,2.4,9.4,4.1c1.7,0.9,3.3,1.9,4.9,3l-14.9,25.4c-2.9,5.3-0.9,12,4.4,14.9c5.3,2.9,12,0.9,14.9-4.4l11.8-19.8
	c7,10.2,1,40.6,1,52.9l5.7,3.1c8.9,7.4,10.9,21.1,3.5,30c-4.2,5-14.5,12.6-26,17.3c-8.3,3.4-14,4-16.8,3.7c-0.7,0.4-1.4,0.7-2.2,1
	c0,0-0.1-0.1-0.1-0.1l-0.2,0.2c-16.7,7.4-36.5,7.3-53.8-2C43.6,219.7,32.6,182.7,48.6,153.2z"/>
</svg>
