<?xml version="1.0" encoding="utf-8"?>
<!-- Generator: Adobe Illustrator 19.1.0, SVG Export Plug-In . SVG Version: 6.00 Build 0)  -->
<svg version="1.1" id="Calque_1" xmlns="http://www.w3.org/2000/svg" xmlns:xlink="http://www.w3.org/1999/xlink" x="0px" y="0px"
	 viewBox="0 0 612 792" style="enable-background:new 0 0 612 792;" xml:space="preserve">
<style type="text/css">
	.st0{fill:#0047BA;}
</style>
<g>
	<path class="st0" d="M536.4,489.1c-1.9,3.2-2.3,5.7-1,9.2c13.2,37.3,26.2,74.7,39.3,112.1c0.6,1.7,1.1,3.4,2,6.5
		c-8.1-3.1-15.1-5.7-22-8.3c-30.9-11.8-61.9-23.6-92.7-35.5c-3.1-1.2-5.4-1-8.3,0.9c-52.7,33.6-110.2,47.4-172.4,42
		C164.9,605.7,66.8,518.1,42.9,403.1C13.9,264,95.4,127.6,231.3,87.8c151.6-44.4,309.2,50.5,340.3,205.6c6.7,33.2,7.4,65.5,2.3,96.8
		L546.8,354c0.3-11.8-0.3-23.8-1.7-36c-6.1-51.2-26.8-96-61.8-133.7c-68.8-74.1-172.6-97-266.6-59.6
		c-101.2,40.2-163.5,148.6-147.3,256c9,59.7,36,109.8,82.1,148.9c52,44.1,112.6,62.6,180.4,56.1c41.4-4,79.3-18.3,112.9-43.1
		c5.8-4.3,10.4-4.8,17-2c21,8.8,42.4,16.7,64.7,25.4c-0.9-2.8-1.4-4.5-2-6.2c-7.6-22.4-15.2-44.7-22.9-67.1c-1-2.8-0.7-4.8,1-7.3
		L536.4,489.1z"/>
	<path class="st0" d="M308.1,414c13.4,0,26.5,0,40.3,0c-2.2,36.9-17.6,66.2-48.5,85.7c-36.7,23.2-75.1,23.7-112.4,1.4
		c-32.3-19.3-48.3-49.2-50.6-87.1c12.2,0,23.7,0,35.9,0c1.3,10.2,5.7,18.8,14.8,24.5c5.7,3.6,11.9,5,18.6,4.3
		c14.3-1.5,24.6-12.3,27.1-28.8c5,0,10,0,15,0c4.3,19.1,15.1,29.1,30.9,28.9C294.8,442.8,304.1,433.5,308.1,414z"/>
	<path class="st0" d="M225,348.6c-6.1,6.1-12.9,12.9-19.9,19.8c-12.6-12.6-25.6-25.6-38.6-38.6c-13.4,13.4-26.4,26.5-39.1,39.3
		c-7.4-7.4-14.2-14.2-20.6-20.6c19.6-19.6,39.6-39.6,59.1-59.1C185.2,308.8,205.2,328.8,225,348.6z"/>
	<path class="st0" d="M387.7,348.5c-6.6,6.5-13.3,13.2-19.9,19.9c-12.8-12.9-25.8-25.9-38.6-38.8c-13.7,13.7-26.7,26.8-39.3,39.5
		c-7.6-7.6-14.4-14.4-20.6-20.6c19.5-19.5,39.5-39.5,59.2-59.2C347.6,308.5,367.6,328.4,387.7,348.5z"/>
</g>
<g>
	<line class="st0" x1="454.3" y1="368.1" x2="454.3" y2="181.7"/>
	<rect x="439.3" y="181.7" class="st0" width="30" height="186.4"/>
</g>
<rect x="373.8" y="179.7" transform="matrix(0.7071 0.7071 -0.7071 0.7071 250.6361 -217.3632)" class="st0" width="27.9" height="28.4"/>
<rect x="346.8" y="133.6" transform="matrix(0.7071 0.7071 -0.7071 0.7071 210.1602 -211.7613)" class="st0" width="27.9" height="28.4"/>
<rect x="505.1" y="69.8" transform="matrix(0.7071 0.7071 -0.7071 0.7071 211.3748 -342.3922)" class="st0" width="27.9" height="28.4"/>
<rect x="504.3" y="130.2" transform="matrix(0.7071 0.7071 -0.7071 0.7071 253.8937 -324.1642)" class="st0" width="27.9" height="28.4"/>
<rect x="345.6" y="42.7" transform="matrix(0.7071 0.7071 -0.7071 0.7071 145.5432 -237.5938)" class="st0" width="27.9" height="28.4"/>
<rect x="434.3" y="69.8" transform="matrix(0.7071 0.7071 -0.7071 0.7071 190.6458 -292.348)" class="st0" width="27.9" height="28.4"/>
<rect x="373.8" y="238.5" transform="matrix(0.7071 0.7071 -0.7071 0.7071 292.2582 -200.1228)" class="st0" width="27.9" height="28.4"/>
<rect x="320.7" y="190.5" transform="matrix(0.7071 0.7071 -0.7071 0.7071 242.7694 -176.6949)" class="st0" width="27.9" height="28.4"/>
<path class="st0" d="M503.5,511.7c50.1,0,90.9-40.8,90.9-90.9c0-26.5-11.4-50.4-29.5-67c-3.8-6.6-9.5-13.2-17.1-19.5
	c-12.4-10.2-28.5-18.5-40.9-21c-26.1-5.3-51.7,10.5-59,35.6c-21.4,16.6-35.3,42.7-35.3,71.8C412.6,470.9,453.4,511.7,503.5,511.7z
	 M503.5,481.7c-21.7,0-40.9-11.5-51.6-28.7h5.5c6.1,0,11-4.9,11-11s-4.9-11-11-11h-13.9c-0.6-3.3-0.9-6.8-0.9-10.3
	c0-1.9,0.1-3.8,0.3-5.7h14.5c6.1,0,11-4.9,11-11s-4.9-11-11-11h-8.1c5.7-11,14.6-20.1,25.5-26v-6.4c2.3-11.3,13.4-19.7,24.7-17.4
	c6.4,1.3,18,6.7,27.6,14.6c7,5.7,10.2,10.4,11.3,13c0.7,0.5,1.3,0.9,1.9,1.4c0,0.1,0,0.1,0,0.2l0.3,0.1
	c14.5,11.1,23.8,28.6,23.8,48.3C564.4,454.4,537.1,481.7,503.5,481.7z"/>
<path class="st0" d="M468.3,181.7c35.7,17,72.4,34.3,108.1,51.5c1.6,0.8,3.2,1.7,6,3.2c-7.9,3.6-14.7,6.6-21.5,9.7
	c-30.2,13.5-62.4,27.1-92.7,40.5V181.7z"/>
</svg>
