<?xml version="1.0" encoding="utf-8"?>
<!-- Generator: Adobe Illustrator 19.1.0, SVG Export Plug-In . SVG Version: 6.00 Build 0)  -->
<svg version="1.1" id="Calque_1" xmlns="http://www.w3.org/2000/svg" xmlns:xlink="http://www.w3.org/1999/xlink" x="0px" y="0px"
	 viewBox="-205 -12 612 792" style="enable-background:new -205 -12 612 792;" xml:space="preserve">
<style type="text/css">
	.st0{fill:#0047BA;}
	.st1{enable-background:new    ;}
</style>
<g>
	<path class="st0" d="M371.7,604.7c-2.8-1-4.5-1.6-6.1-2.2c-36-13.8-72.1-27.5-108.1-41.4c-3.2-1.2-5.6-1.3-8.7,0.7
		c-52.7,33.6-110.2,47.4-172.4,42c-116.5-10.1-214.6-97.7-238.5-212.7c-29-139.1,52.5-275.5,188.4-315.3
		c151.6-44.4,309.2,50.5,340.3,205.6c13.9,69.6,2,135.1-35.2,195.7c-1.9,3.2-2.3,5.7-1,9.2c13.2,37.3,26.2,74.7,39.3,112.1
		C370.3,600,370.8,601.8,371.7,604.7z M321.3,553.8c-0.6-2.1-0.8-3.2-1.2-4.2c-7.8-22.8-15.5-45.7-23.4-68.5
		c-1.1-3.1-0.9-5.3,1.1-8.2C342,408.2,354,338,330.9,263.1c-38.6-124.8-170-194.8-295.5-158.7c-119.2,34.2-193.3,155.2-168.9,276.5
		c13.8,68.7,51,122,110.6,158.8c49.3,30.4,103.2,40.9,160.6,32.4c38.4-5.7,73.4-20.1,104.5-43.3c4-3,7.2-3.2,11.7-1.4
		C275.9,536.3,298.1,544.8,321.3,553.8z"/>
	<path class="st0" d="M98.2,421c0-9.9,0-19.5,0-29.4c21.8,0,43.6,0,65.5,0c0,9.6,0,19.3,0,29.4C141.9,421,120.1,421,98.2,421z"/>
</g>
<path class="st0" d="M146.4,301c-15.1-3.7-29.8-2.2-43.8,4.5c-19.9,9.6-31.6,25.7-36.3,47l-0.1,25.1c7.2,34.7,40.3,58,74.9,52.7
	c30.4-4.7,54-30.9,55.8-62.3C198.6,337.2,177.1,308.6,146.4,301z M130.7,406.3c-22.7-0.1-41.2-18.7-41-41.5
	c0.1-22.7,18.8-41.1,41.5-41c22.7,0.2,41.1,18.9,40.9,41.6C171.9,387.8,153.1,406.4,130.7,406.3z"/>
<path class="st0" d="M31.4,319.8c-9.7-43.8-50.2-70.3-91-63.6c-38.4,6.2-67.4,40.5-67.1,79.3c0.4,39.1,30,73.1,67.9,78.6
	c39.6,5.7,80.8-18.4,90.2-63.8V319.8z M-46.9,384.9c-27.3,0.3-50-21.8-50.2-49c-0.2-28.1,21.7-50.6,49.4-50.7
	c27.5-0.2,49.7,21.9,50,49.7C2.6,362.1-19.5,384.6-46.9,384.9z"/>
<path class="st0" d="M36.9,235c-10.4,0-20.7,0.1-31-0.1c-1.3,0-2.9-1.4-3.8-2.6c-24.3-31.7-69.1-31.6-93.6,0.1
	c-0.8,1.1-2.2,2.5-3.3,2.5c-10.4,0.1-20.8,0.1-31.4,0.1c8.1-30.9,45.8-56.5,82.3-56.3C-8.5,178.9,29.5,205.2,36.9,235z"/>
<g class="st1">
	<path class="st0" d="M220.2,188c0-10.9-8-17-21.8-17c-13.2,0-24.6,5.4-35.5,16.3l-21.8-23.9c13.7-15.1,32.2-25.5,57.9-25.5
		c34,0,57.2,17.5,57.2,49.2c0,30.3-20.8,42.6-46.6,47.8l-2.6,14.4h-24.1l-5.4-38.3l1.2-1.2C208.6,208.6,220.2,200.8,220.2,188z
		 M175.3,305.5v-37.8h38.3v37.8H175.3z"/>
</g>
</svg>
