<?xml version="1.0" encoding="utf-8"?>
<!-- Generator: Adobe Illustrator 19.1.0, SVG Export Plug-In . SVG Version: 6.00 Build 0)  -->
<svg version="1.1" id="Calque_1" xmlns="http://www.w3.org/2000/svg" xmlns:xlink="http://www.w3.org/1999/xlink" x="0px" y="0px"
	 viewBox="0 0 612 792" style="enable-background:new 0 0 612 792;" xml:space="preserve">
<style type="text/css">
	.st0{fill:#0047BA;}
	.st1{font-family:'Gotham-Bold';}
	.st2{font-size:236.4443px;}
</style>
<g>
	<path class="st0" d="M576.7,616.7c-2.8-1-4.5-1.6-6.1-2.2c-36-13.8-72.1-27.5-108.1-41.4c-3.2-1.2-5.6-1.3-8.7,0.7
		c-52.7,33.6-110.2,47.4-172.4,42C164.9,605.7,66.8,518.1,42.9,403.1C13.9,264,95.4,127.6,231.3,87.8
		c151.6-44.4,309.2,50.5,340.3,205.6c13.9,69.6,2,135.1-35.2,195.7c-1.9,3.2-2.3,5.7-1,9.2c13.2,37.3,26.2,74.7,39.3,112.1
		C575.3,612,575.8,613.8,576.7,616.7z M526.3,565.8c-0.6-2.1-0.8-3.2-1.2-4.2c-7.8-22.8-15.5-45.7-23.4-68.5
		c-1.1-3.1-0.9-5.3,1.1-8.2c44.2-64.7,56.2-134.9,33.1-209.8c-38.6-124.8-170-194.8-295.5-158.7C121.2,150.6,47.1,271.6,71.5,392.9
		c13.8,68.7,51,122,110.6,158.8c49.3,30.4,103.2,40.9,160.6,32.4c38.4-5.7,73.4-20.1,104.5-43.3c4-3,7.2-3.2,11.7-1.4
		C480.9,548.3,503.1,556.8,526.3,565.8z"/>
	<path class="st0" d="M303.2,433c0-9.9,0-19.5,0-29.4c21.8,0,43.6,0,65.5,0c0,9.6,0,19.3,0,29.4C346.9,433,325.1,433,303.2,433z"/>
</g>
<path class="st0" d="M351.4,313c-15.1-3.7-29.8-2.2-43.8,4.5c-19.9,9.6-31.6,25.7-36.3,47l-0.1,25.1c7.2,34.7,40.3,58,74.9,52.7
	c30.4-4.7,54-30.9,55.8-62.3C403.6,349.2,382.1,320.6,351.4,313z M335.7,418.3c-22.7-0.1-41.2-18.7-41-41.5
	c0.1-22.7,18.8-41.1,41.5-41c22.7,0.2,41.1,18.9,40.9,41.6C376.9,399.8,358.1,418.4,335.7,418.3z"/>
<path class="st0" d="M236.4,331.8c-9.7-43.8-50.2-70.3-91-63.6c-38.4,6.2-67.4,40.5-67.1,79.3c0.4,39.1,30,73.1,67.9,78.6
	c39.6,5.7,80.8-18.4,90.2-63.8L236.4,331.8z M158.1,396.9c-27.3,0.3-50-21.8-50.2-49c-0.2-28.1,21.7-50.6,49.4-50.7
	c27.5-0.2,49.7,21.9,50,49.7C207.6,374.1,185.5,396.6,158.1,396.9z"/>
<path class="st0" d="M241.9,247c-10.4,0-20.7,0.1-31-0.1c-1.3,0-2.9-1.4-3.8-2.6c-24.3-31.7-69.1-31.6-93.6,0.1
	c-0.8,1.1-2.2,2.5-3.3,2.5C99.8,247,89.4,247,78.8,247c8.1-30.9,45.8-56.5,82.3-56.3C196.5,190.9,234.5,217.2,241.9,247z"/>
<text transform="matrix(1 0 0 1 341.5254 317.5386)" class="st0 st1 st2">?</text>
</svg>
