<?xml version="1.0" encoding="utf-8"?>
<!-- Generator: Adobe Illustrator 19.1.0, SVG Export Plug-In . SVG Version: 6.00 Build 0)  -->
<svg version="1.1" id="Calque_1" xmlns="http://www.w3.org/2000/svg" xmlns:xlink="http://www.w3.org/1999/xlink" x="0px" y="0px"
	 viewBox="0 0 612 792" style="enable-background:new 0 0 612 792;" xml:space="preserve">
<style type="text/css">
	.st0{fill:#0047BA;}
</style>
<g>
	<path class="st0" d="M312,616.9c-10.1,0.2-20.3-0.2-30.7-1.1c-45.9-4-89-20.1-125.9-45.1l26.6-19c37,22.8,76.5,34.4,118.2,35.2
		L312,616.9z M447.2,540.8c4-3,7.1-3.2,11.7-1.4c22.1,8.9,44.3,17.4,67.4,26.4c-0.6-2.1-0.8-3.2-1.2-4.2
		c-7.8-22.8-15.5-45.7-23.4-68.5c-1.1-3.1-0.9-5.3,1-8.2c44.2-64.7,56.3-134.9,33.1-209.8c-38.6-124.8-170-194.8-295.5-158.8
		C121.2,150.6,47.1,271.6,71.5,392.9c3.9,19.3,9.6,37.4,17.1,54.3l-28.6,9.4c-7.5-17-13.3-34.8-17.2-53.5
		C13.9,264,95.4,127.6,231.3,87.8c151.6-44.4,309.2,50.5,340.3,205.6c13.9,69.6,2,135.1-35.2,195.7c-1.9,3.2-2.3,5.7-1,9.2
		c13.2,37.3,26.2,74.7,39.3,112.1c0.6,1.7,1.1,3.4,2,6.5c-8.1-3.1-15.1-5.7-22-8.3c-30.9-11.8-61.9-23.6-92.7-35.5
		c-3.1-1.2-5.4-1-8.3,0.9L447.2,540.8z"/>
	<path class="st0" d="M273.8,395.7c5.1,20.8,15.1,30.5,31.3,30.4c16.4,0,25.8-9,31.2-30.4c4.6,0,9.4,0,14.1,0c4.8,0,9.6,0,14.4,0
		c3.6,16.1-10.2,41-28.6,52c-20.7,12.4-53.3,13.1-76.7-11.4c-24.4,24.5-54.7,23.3-74.6,12.5c-19.4-10.5-33.3-33.9-31.1-52.9
		c9.5,0,19.1,0,29.1,0c0.4,2.2,0.8,4.4,1.3,6.6c3.2,14.3,16.5,24.1,31.8,23.4c14.1-0.6,26.4-11.8,28.1-25.9c0.4-3.7,1.6-4.7,5.2-4.6
		C257.2,395.8,265.4,395.7,273.8,395.7z"/>
</g>
<path class="st0" d="M271.1,298c0-43.7,36.3-79.9,80-79.8c43.7,0.1,79.9,36.5,79.7,80.2c-0.2,43.5-36.3,79.5-79.8,79.6
	C307.4,378,271.1,341.7,271.1,298z M301.1,297.8c-0.2,27.5,22.2,50,49.7,50.2c27,0.1,49.8-22.3,50.1-49.4
	c0.3-27.4-22-50.1-49.5-50.3C323.8,248,301.3,270.3,301.1,297.8z"/>
<path class="st0" d="M254.3,298.2c0,43.9-36.1,79.9-79.9,79.8c-43.8-0.1-79.6-36.3-79.5-80.2c0.1-43.6,36.1-79.5,79.7-79.5
	C218.3,218.2,254.3,254.3,254.3,298.2z M224.3,298c-0.3-27.9-22.4-49.9-49.9-49.7c-27.8,0.2-49.6,22.6-49.4,50.7
	c0.2,27.1,22.9,49.3,50.2,49C202.5,347.6,224.6,325.2,224.3,298z"/>
<path class="st0" d="M298.8,350c3.3-9.4,6.4-18.5,9.6-27.8c20.6,7.2,41.2,14.3,61.9,21.4c-3.1,9.1-6.3,18.3-9.6,27.8
	C340.1,364.4,319.5,357.2,298.8,350z"/>
<path class="st0" d="M119.7,350c3.3-9.4,6.4-18.5,9.6-27.8c20.6,7.2,41.2,14.3,61.9,21.4c-3.1,9.1-6.3,18.3-9.6,27.8
	C161,364.4,140.4,357.2,119.7,350z"/>
<path class="st0" d="M74.7,443.7c-26.7,11.8-44.9,35-51.4,61.4c-20,16.9-24.1,46.6-8.7,68.4c7.3,10.3,21.4,21.7,35.8,28.9
	c8.8,4.4,17.1,7,24.7,7.8c22.6,9.8,49,10.6,73.2-0.2c45.8-20.3,66.6-74.1,46.3-120S120.5,423.4,74.7,443.7z M136.2,582.5
	c-18,8-37.7,6.5-53.8-2.2l-0.2-0.2c0,0-0.1,0-0.1,0.1c-0.7-0.4-1.4-0.8-2.1-1.2c-2.9,0-8.4-1-16.5-5c-11.1-5.6-20.7-14-24.5-19.3
	c-6.7-9.4-3.5-23,5.9-29.6l5.9-2.6c0.9-12.3,5.6-24.2,13.4-33.8l3.3,7.4c2.5,5.6,9,8.1,14.5,5.6c5.6-2.5,8.1-9,5.6-14.5l-5.9-13.3
	c1.7-0.9,3.4-1.8,5.1-2.6c3.2-1.4,6.5-2.5,9.7-3.4l5.6,12.7c2.5,5.6,9,8.1,14.5,5.6c5.6-2.5,8.1-9,5.6-14.5l-2.2-5
	c20.1,2.9,38.3,15.7,47.1,35.6C180.9,532.8,167,568.9,136.2,582.5z"/>
<path class="st0" d="M279.5,513.6c-20.3,45.8,0.4,99.7,46.3,120c24.2,10.7,50.7,10,73.2,0.2c7.6-0.8,15.9-3.4,24.7-7.8
	c14.4-7.2,28.4-18.6,35.8-28.9c15.4-21.7,11.3-51.5-8.7-68.4c-6.5-26.3-24.7-49.5-51.4-61.4C353.6,447,299.8,467.8,279.5,513.6z
	 M306.9,525.7c8.8-19.9,27-32.7,47.1-35.6l-2.2,5c-2.5,5.6,0,12.1,5.6,14.5c5.6,2.5,12.1,0,14.5-5.6l5.6-12.7
	c3.3,0.8,6.5,1.9,9.7,3.4c1.8,0.8,3.5,1.6,5.1,2.6l-5.9,13.3c-2.5,5.6,0,12.1,5.6,14.5c5.6,2.5,12.1,0,14.5-5.6l3.3-7.4
	c7.8,9.6,12.5,21.5,13.4,33.8l5.9,2.6c9.4,6.7,12.6,20.2,5.9,29.6c-3.8,5.4-13.4,13.7-24.5,19.3c-8,4.1-13.6,5.1-16.5,5
	c-0.7,0.4-1.4,0.8-2.1,1.2c-0.1,0-0.1,0-0.1-0.1l-0.2,0.2c-16.1,8.7-35.8,10.2-53.8,2.2C307.2,592.5,293.3,556.5,306.9,525.7z"/>
</svg>
