<?xml version="1.0" encoding="utf-8"?>
<!-- Generator: Adobe Illustrator 19.1.0, SVG Export Plug-In . SVG Version: 6.00 Build 0)  -->
<svg version="1.1" id="Calque_1" xmlns="http://www.w3.org/2000/svg" xmlns:xlink="http://www.w3.org/1999/xlink" x="0px" y="0px"
	 viewBox="0 0 612 792" style="enable-background:new 0 0 612 792;" xml:space="preserve">
<style type="text/css">
	.st0{fill:#0047BA;}
</style>
<g>
	<path class="st0" d="M576.7,616.9c-13.3-5.1-25.4-9.6-37.5-14.3c-25.6-9.8-51.3-19.6-76.9-29.5c-3.2-1.2-5.6-1.2-8.7,0.7
		c-52.7,33.6-110.2,47.4-172.4,42C162.9,605.4,63.7,515,41.9,398.1c-26.4-141.4,58.8-277,197.7-312.5
		C392.2,46.5,540.2,143.2,571,291c14.7,70.4,2.9,136.7-34.7,198.1c-2,3.2-2.2,5.7-1,9.2c13.2,37.3,26.2,74.7,39.3,112.1
		C575.3,612.1,575.8,613.8,576.7,616.9z M526.3,565.9c-0.5-1.9-0.7-2.7-1-3.4c-7.9-23.3-15.9-46.6-23.7-70c-0.7-2-0.4-5,0.8-6.7
		c48.7-71.9,58.6-148.8,26.5-229.5c-38.8-97.6-138.5-159.1-246.7-148c-46.5,4.7-88.7,21.4-124.8,51.2c-66.7,55-96.4,126.3-89,212.3
		c4,46.4,20.9,88.6,50.9,124.4c64,76.3,145.5,104.4,243.1,84c31.9-6.6,60.6-21,86.6-40.6c2.5-1.9,4.7-2.3,7.7-1
		c6.6,2.9,13.3,5.2,20,7.8C492.9,552.8,509.1,559.1,526.3,565.9z"/>
	<path class="st0" d="M146.7,426.4c64.9,0,129.7,0,195.2,0c-1.4,35.4-15.8,63.6-45.6,82.1c-35,21.8-71.1,21.2-106-0.8
		C159.9,488.7,145,453.4,146.7,426.4z"/>
	<path class="st0" d="M146.9,393.1c-3-3.4-5.5-6.5-8.3-9.3c-16-16.1-32.1-32-48-48.1c-10.2-10.3-12.8-25.4-7.2-38.4
		c5.5-12.6,18.2-20.7,32.3-20.2c8.6,0.3,16.3,3.2,22.6,9.2c3,2.9,5.5,6.2,9,10.1c3.4-3.7,5.8-6.7,8.5-9.3
		c14.2-13.5,35.6-13.4,49,0.1c13,13.2,12.8,34.9-0.7,48.6C185.4,354.7,166.6,373.4,146.9,393.1z"/>
	<path class="st0" d="M341.7,295.7c3.7-4,6.3-7.2,9.3-10c13.4-12.5,34.9-12.1,47.9,0.8c12.7,12.7,13.3,34.4,0.7,47.5
		c-18.7,19.2-37.8,38-56.8,56.9c-0.2,0.2-0.6,0.3-1.1,0.6c-0.4-0.3-0.9-0.6-1.4-1.1c-18.4-18.4-36.9-36.6-55.1-55.1
		c-19.1-19.5-10.5-51.5,15.6-57.8c11.7-2.8,22.5-0.3,31.6,8C335.4,288.3,338,291.6,341.7,295.7z"/>
</g>
</svg>
