<?xml version="1.0" encoding="utf-8"?>
<!-- Generator: Adobe Illustrator 19.1.0, SVG Export Plug-In . SVG Version: 6.00 Build 0)  -->
<svg version="1.1" id="Calque_1" xmlns="http://www.w3.org/2000/svg" xmlns:xlink="http://www.w3.org/1999/xlink" x="0px" y="0px"
	 viewBox="0 0 612 792" style="enable-background:new 0 0 612 792;" xml:space="preserve">
<style type="text/css">
	.st0{fill:#0047BA;}
</style>
<g>
	<path class="st0" d="M352,111.2c-36-6.8-74.1-5.6-111.7,5.2C121.2,150.6,47.1,271.6,71.5,392.9c13.8,68.8,51,122.1,110.6,158.8
		c49.3,30.4,103.2,40.9,160.6,32.4c38.4-5.7,73.4-20.1,104.5-43.3c4-3,7.1-3.2,11.7-1.4c22.1,8.9,44.3,17.4,67.4,26.4
		c-0.6-2.1-0.8-3.2-1.2-4.2c-7.8-22.8-15.5-45.7-23.4-68.5c-1.1-3.1-0.9-5.3,1-8.2c44.2-64.7,56.3-134.9,33.1-209.8l23.4-24.7
		c4.9,13,8.9,26.5,11.8,40.6c14.6,70.4,2.9,136.7-34.7,198.1c-2,3.2-2.1,5.7-0.9,9.2c13.2,37.3,26.2,74.7,39.3,112.1
		c0.6,1.7,1.1,3.4,2,6.4c-15.2-5.8-29.2-11.1-43.1-16.5c-23.8-9.1-47.6-18.1-71.3-27.3c-3.2-1.3-5.7-1.1-8.7,0.8
		c-47.8,30.6-100.2,44.8-156.9,42.9c-124.8-4.1-231.7-96-254.8-218.8c-27-144.2,62.7-281.6,205.5-314.4c33.1-7.6,66.2-8.7,98-4.1
		L352,111.2z"/>
	<path class="st0" d="M150.5,422.7c10.4,0,20.7-0.1,31,0.1c1.3,0,2.9,1.4,3.8,2.6c24.3,31.7,69.1,31.6,93.6-0.1
		c0.8-1.1,2.2-2.5,3.3-2.5c10.4-0.2,20.9-0.1,31.4-0.1c-8.1,30.9-45.8,56.5-82.3,56.3C195.9,478.8,157.9,452.5,150.5,422.7z"/>
	<path class="st0" d="M321.4,358.3c-16.9-0.3-29.7-13.7-29.4-30.8c0.3-16.5,14.2-29.6,30.6-29.2c17,0.5,29.7,13.9,29.4,30.9
		C351.6,345.8,338.2,358.6,321.4,358.3z"/>
	<path class="st0" d="M147.4,358.3c-16.9-0.3-29.8-13.8-29.4-30.7c0.4-16.5,14.1-29.6,30.5-29.2c16.9,0.5,29.8,13.9,29.4,30.8
		C177.7,345.5,163.9,358.6,147.4,358.3z"/>
</g>
<path class="st0" d="M433.2,151.3c-9.3-0.2-16.4-7.6-16.1-16.9c0.2-9.1,7.7-16.3,16.8-16c9.3,0.3,16.4,7.6,16.2,16.9
	C449.8,144.3,442.2,151.5,433.2,151.3z"/>
<path class="st0" d="M473.2,151.3c-9.3-0.2-16.4-7.6-16.1-16.9c0.2-9.1,7.7-16.3,16.8-16c9.3,0.3,16.4,7.6,16.2,16.9
	C489.8,144.3,482.2,151.5,473.2,151.3z"/>
<path class="st0" d="M513.2,151.3c-9.3-0.2-16.4-7.6-16.1-16.9c0.2-9.1,7.7-16.3,16.8-16c9.3,0.3,16.4,7.6,16.2,16.9
	C529.8,144.3,522.2,151.5,513.2,151.3z"/>
<g>
	<g>
		<path class="st0" d="M293.9,210.1c-24.9,0-45.1-20.2-45.1-45.1s20.2-45.1,45.1-45.1c24.9,0,45.1,20.2,45.1,45.1
			S318.8,210.1,293.9,210.1z M293.9,139.9c-13.8,0-25.1,11.3-25.1,25.1s11.3,25.1,25.1,25.1c13.8,0,25.1-11.3,25.1-25.1
			S307.7,139.9,293.9,139.9z"/>
	</g>
</g>
<g>
	<path class="st0" d="M232,250.5c-16.3,0-29.5-13.2-29.5-29.5s13.2-29.5,29.5-29.5s29.5,13.2,29.5,29.5S248.3,250.5,232,250.5z
		 M232,204.5c-9.1,0-16.5,7.4-16.5,16.5s7.4,16.5,16.5,16.5s16.5-7.4,16.5-16.5S241.1,204.5,232,204.5z"/>
</g>
<g>
	<path class="st0" d="M508,292.7c-24.3,0-47.1-9.5-64.3-26.6c-10.1-10.1-17.6-22.2-22-35.5c-3.2,0.5-6.5,0.7-9.7,0.7
		c-16.9,0-33.6-6.6-46.1-19c-21.7-21.7-24.8-55.1-9.3-80.2c-1.2-1-2.3-2.1-3.4-3.2c-25.3-25.3-25.3-66.5,0-91.9
		c24.3-24.3,63.2-25.3,88.7-3c0.6-0.6,1.2-1.3,1.8-1.9c35.5-35.5,93.1-35.5,128.6,0c17,17,26.4,39.5,26.6,63.5
		c0.2,19.4-5.7,37.9-16.8,53.5c11.1,15.5,17,34.1,16.8,53.5c-0.2,24-9.7,46.5-26.6,63.5C555.1,283.3,532.3,292.7,508,292.7z
		 M444.9,189.6l2.7,20.2c1.8,13.4,7.7,25.5,17.3,35.1c11.5,11.5,26.8,17.8,43.1,17.8c16.3,0,31.6-6.3,43.1-17.8
		c11.4-11.4,17.7-26.5,17.8-42.5c0.1-16-5.9-31.2-17-42.8l-10-10.4l10-10.4c11.1-11.5,17.2-26.7,17-42.8
		c-0.1-16.1-6.5-31.2-17.8-42.5c-23.8-23.8-62.4-23.8-86.2,0c-3.7,3.7-6.9,7.8-9.5,12.3L442.3,88l-12.9-22.4
		c-1.5-2.7-3.4-5.2-5.6-7.3c-13.6-13.6-35.8-13.6-49.4,0c-13.6,13.6-13.6,35.8,0,49.4c3.1,3.1,6.7,5.5,10.7,7.3l21.6,9.5L388.9,140
		c-0.7,0.6-1.3,1.2-1.8,1.6c-13.6,13.6-13.6,35.8,0,49.4c10.3,10.3,26.1,13.1,39.3,7L444.9,189.6z"/>
</g>
</svg>
