<?xml version="1.0" encoding="utf-8"?>
<!-- Generator: Adobe Illustrator 19.1.0, SVG Export Plug-In . SVG Version: 6.00 Build 0)  -->
<svg version="1.1" id="Calque_1" xmlns="http://www.w3.org/2000/svg" xmlns:xlink="http://www.w3.org/1999/xlink" x="0px" y="0px"
	 viewBox="0 0 612 792" style="enable-background:new 0 0 612 792;" xml:space="preserve">
<style type="text/css">
	.st0{fill:#0047BA;}
</style>
<g>
	<path class="st0" d="M576.7,616.8c-8.1-3.1-15.1-5.7-22-8.3c-30.9-11.8-61.9-23.6-92.7-35.5c-3.1-1.2-5.4-1-8.3,0.9
		c-52.7,33.6-110.2,47.4-172.4,42C164.9,605.7,66.8,518.1,42.9,403.1C13.9,264,95.4,127.6,231.3,87.8
		c151.6-44.4,309.2,50.5,340.3,205.6c13.9,69.6,2,135.1-35.2,195.7c-1.9,3.2-2.3,5.7-1,9.2c13.2,37.3,26.2,74.7,39.3,112.1
		C575.3,612,575.8,613.8,576.7,616.8z M526.5,565.9c-8.6-25.2-16.7-49.2-24.9-73.1c-1-2.9-0.8-5,1.1-7.7
		c41.5-60.3,54.5-126.2,36.9-197.3c-28.5-115-139.1-192-257-179.6c-47.2,5-90,21.8-126.4,52.4C87.8,218,58.5,291.9,69.6,380.4
		c7.4,59.3,35,109.2,80.6,147.9c59,50.3,127.4,68,203.6,53.8c34.7-6.5,66.2-20.8,94.5-42.1c3.2-2.4,5.9-2.6,9.5-1.1
		c12.3,5,24.8,9.8,37.2,14.6C505.1,557.6,515.2,561.5,526.5,565.9z"/>
	<path class="st0" d="M239.3,491.8c9.2,9.1,17.8,17.6,26.1,25.9c-6.9,6.9-13.7,13.6-20.2,20.1c-15.3-15.4-31.1-31.1-47-47.1
		c8.2-8.1,16.9-16.8,25.7-25.6c-9.4-9.3-17.9-17.9-26.1-26c16.1-16.1,31.8-31.9,48.1-48.1c6.3,6.6,13.1,13.8,20.1,21.2
		c-8.9,8.8-17.6,17.4-26.6,26.3c9.3,9.2,18.1,17.8,27.1,26.7C257.4,474.1,248.7,482.6,239.3,491.8z"/>
	<path class="st0" d="M166.2,288.6c19.7,19.7,39.6,39.6,59.1,59.1c-6.7,6.7-13.6,13.5-20.6,20.5c-12.3-12.3-25.2-25.3-37.9-38
		c-13.2,13.3-26.2,26.3-38.8,39c-7.8-7.8-14.6-14.7-21.1-21.3C126.3,328.6,146.3,308.6,166.2,288.6z"/>
	<path class="st0" d="M328.5,288.9c19.4,19.4,39.3,39.3,58.8,58.8c-6.7,6.7-13.6,13.5-20.6,20.5c-12.3-12.3-25.2-25.3-37.9-38
		c-13.2,13.3-26.1,26.3-38.8,39c-7.8-7.8-14.6-14.7-20.8-20.9C288.7,328.8,308.8,308.7,328.5,288.9z"/>
</g>
</svg>
