<?xml version="1.0" encoding="utf-8"?>
<!-- Generator: Adobe Illustrator 19.1.0, SVG Export Plug-In . SVG Version: 6.00 Build 0)  -->
<svg version="1.1" id="Calque_1" xmlns="http://www.w3.org/2000/svg" xmlns:xlink="http://www.w3.org/1999/xlink" x="0px" y="0px"
	 viewBox="0 0 612 792" style="enable-background:new 0 0 612 792;" xml:space="preserve">
<style type="text/css">
	.st0{fill:#0047BA;}
</style>
<g>
	<path class="st0" d="M84.2,499.7c-19.7-28.7-34-61.3-41.3-96.6C13.9,264,95.4,127.6,231.3,87.8c151.6-44.4,309.2,50.5,340.3,205.6
		c13.9,69.6,2,135.1-35.2,195.7l-33.7-4.1c44.2-64.7,56.3-134.9,33.1-209.8c-38.6-124.8-170-194.8-295.5-158.8
		C121.2,150.6,47.1,271.6,71.5,392.9c7.9,39.3,23.4,73.6,46.4,102.6L84.2,499.7z"/>
	<path class="st0" d="M166.3,329.7c-13.4,13.4-26.3,26.4-38.7,38.9c-7.3-7.2-14.1-14.1-20.7-20.6c19.4-19.5,39.4-39.5,59-59.1
		c19.6,19.6,39.6,39.6,59.1,59.1c-6.4,6.3-13.2,13.2-20.2,20.2C192.4,355.9,179.5,343,166.3,329.7z"/>
	<path class="st0" d="M289.5,369.2c-7.7-7.6-14.5-14.4-20.9-20.9c19.7-19.8,39.7-39.7,59.3-59.3c19.5,19.5,39.4,39.5,59,59
		c-6.2,6.2-13.1,13.1-20.1,20.1c-12.2-12.3-25.1-25.3-38-38.2C315.4,343.3,302.3,356.5,289.5,369.2z"/>
</g>
<path class="st0" d="M66.9,493"/>
<polygon class="st0" points="450.8,643.8 490.9,642 505.9,648 431.9,598.2 423.2,630.8 385.6,609.2 383.1,607.8 383.1,607.8 
	364.2,596.9 355.9,629 298.4,595.4 289.6,628.3 233.7,596.3 224.3,629.6 166.3,595.8 157.8,628.4 185.3,641.6 242.6,650.1 
	252.1,641.4 308.5,648.7 317.2,641.1 375.2,650 383.4,642.6 415.9,636.4 "/>
<g>
	<rect x="77.8" y="475" class="st0" width="458.6" height="30"/>
</g>
<g>
	<rect x="80.7" y="625.7" class="st0" width="460.8" height="30"/>
</g>
<path class="st0" d="M106.9,641.6c-14.3-49-16.9-98.4-0.3-147.3l-26.7-15.5c-20.2,59-20,118.3,1.2,177.2L106.9,641.6z"/>
<path class="st0" d="M515.5,493.1c14.3,49,16.9,98.4,0.3,147.3l26.7,15.5c20.2-59,20-118.3-1.2-177.2L515.5,493.1z"/>
<polygon class="st0" points="463.3,517 454.6,549.6 417,528 414.5,526.6 414.5,526.6 395.6,515.7 387.3,547.8 329.8,514.2 
	321,547.1 265.1,515.1 255.7,548.5 197.7,514.6 189.2,547.2 132.3,514.2 123.5,547 83.4,523.8 68.4,549.8 142.4,592.6 151.1,559.8 
	208.2,592.9 216.7,560.5 274,593.9 283.5,560.2 339.9,592.5 348.6,559.9 406.5,593.8 414.8,561.4 473.4,595.4 482.2,562.6 
	536.4,591 537.3,559.8 "/>
<path class="st0" d="M328.8,423.6c-49,14.3-98.4,16.9-147.3,0.3l-15.5,26.7c59,20.2,118.3,20,177.2-1.2L328.8,423.6z"/>
<g>
	<rect x="371" y="640.7" class="st0" width="30" height="110.3"/>
</g>
<g>
	<rect x="406.4" y="640.7" class="st0" width="30" height="110.3"/>
</g>
<g>
	<rect x="441.7" y="640.7" class="st0" width="30" height="110.3"/>
</g>
<g>
	<rect x="477.1" y="640.7" class="st0" width="30" height="110.3"/>
</g>
<g>
	<rect x="512.5" y="640.7" class="st0" width="30" height="110.3"/>
</g>
</svg>
