<?xml version="1.0" encoding="utf-8"?>
<!-- Generator: Adobe Illustrator 19.1.0, SVG Export Plug-In . SVG Version: 6.00 Build 0)  -->
<svg version="1.1" id="Calque_1" xmlns="http://www.w3.org/2000/svg" xmlns:xlink="http://www.w3.org/1999/xlink" x="0px" y="0px"
	 viewBox="0 0 612 792" style="enable-background:new 0 0 612 792;" xml:space="preserve">
<style type="text/css">
	.st0{fill:#0047BA;}
</style>
<g>
	<path class="st0" d="M70.7,478.1c-13.2-23.8-22.9-49.8-28.5-77.4C12.7,254.4,107.7,111.2,253.6,82.2
		c146.6-29.1,288.5,64.6,318,211.1c13.9,69.2,2.2,134.4-34.6,194.9c-2.3,3.8-2.8,6.8-1.3,11.1c13.1,37,26,74.1,39,111.1
		c0.6,1.7,1.1,3.4,2,6.5c-8.1-3.1-15.1-5.7-22-8.3c-31.2-11.9-62.5-23.8-93.7-35.8c-3.1-1.2-5.3-1.1-8.1,0.8
		c-52.4,34.3-110,48.2-172.1,42.2c-37.9-3.6-73.5-15-105.2-32.7l14.5-25.4c29.1,15.5,62.4,25,99.7,28.5
		c51.5,4.9,98.9-9.1,143.2-34.4c6-3.4,11.4-8,16.9-12.3c2.4-1.9,4.4-2,7.2-0.9c15.3,6.2,30.6,12.1,45.9,18.1
		c7.7,3,15.4,5.9,23.9,9.1c-0.7-2.4-1.2-3.9-1.7-5.4c-7.7-22.5-15.3-45-23.1-67.5c-1-2.9-0.7-5,0.9-7.8c7-11.7,14.3-23.2,20.3-35.4
		c19.7-40.2,26.9-82.8,22.4-127.2c-4.8-46.3-21.1-88.4-50.8-124.4c-57.5-69.7-131.8-99.6-221.4-88.5
		c-59.7,7.5-110.2,34.9-148.5,81.4C62.7,266.6,48.6,352,87.3,442L70.7,478.1z"/>
	<path class="st0" d="M160.1,358.3c-16.5,0.1-30-13.1-30.1-29.5c-0.1-16.7,13.3-30.3,29.9-30.4c16.5-0.1,30.2,13.6,30.1,30.2
		C189.9,345,176.6,358.2,160.1,358.3z"/>
	<path class="st0" d="M334,358.3c-16.7,0-30.1-13.4-30-30.2c0.1-16.4,13.6-29.8,30-29.8c16.6,0,30.1,13.7,30,30.3
		C363.9,345.1,350.5,358.3,334,358.3z"/>
</g>
<path class="st0" d="M211,347c-20.8-20.8-41.3-41.3-61.6-61.6c6.5-6.5,13.3-13.3,20.4-20.4c20.1,20.7,40.4,41.6,59.8,61.5
	C223.9,332.9,217.3,340.1,211,347z"/>
<path class="st0" d="M286.2,347.2c-7.5-7.5-14.3-14.3-20.4-20.4c19.8-20.5,40-41.2,59.8-61.7c7.3,7.4,14.1,14.3,20.4,20.6
	C326.3,305.9,306.2,326.6,286.2,347.2z"/>
<path class="st0" d="M386.8,425c-10.5,0-20.7,0.1-30.8-0.1c-1.3,0-3.1-1.1-3.9-2.3c-21.5-30.9-69.4-33.1-93.9-0.4
	c-0.9,1.3-2.8,2.6-4.2,2.6c-10.1,0.2-20.3,0.1-30.5,0.1c5.4-26.3,41.6-53.6,73.2-56.1C345.3,365.1,377.1,397.8,386.8,425z"/>
<path class="st0" d="M141.7,420.2c-29.2,0-55.2,13.8-71.8,35.3c-25.1,7.3-40.9,32.9-35.6,59c2.5,12.4,10.7,28.5,21,40.9
	c6.3,7.6,12.8,13.3,19.5,17.1c16.6,18.1,40.5,29.5,67,29.5c50.1,0,90.9-40.8,90.9-90.9S191.9,420.2,141.7,420.2z M141.7,572.1
	c-19.6,0-37.1-9.4-48.3-23.8l-0.1-0.3c0,0-0.1,0-0.2,0c-0.5-0.6-0.9-1.3-1.4-1.9c-2.6-1.1-7.3-4.3-13-11.3
	c-7.9-9.6-13.3-21.2-14.6-27.6c-2.3-11.3,6.1-22.4,17.4-24.7H88c5.9-10.9,14.9-19.8,26-25.5v8.1c0,6.1,4.9,11,11,11s11-4.9,11-11
	v-14.5c1.9-0.2,3.8-0.3,5.7-0.3c3.5,0,6.9,0.3,10.3,0.9V465c0,6.1,4.9,11,11,11s11-4.9,11-11v-5.5c17.2,10.8,28.7,29.9,28.7,51.6
	C202.7,544.7,175.3,572.1,141.7,572.1z"/>
</svg>
