<?xml version="1.0" encoding="utf-8"?>
<!-- Generator: Adobe Illustrator 15.0.0, SVG Export Plug-In . SVG Version: 6.00 Build 0)  -->
<!DOCTYPE svg PUBLIC "-//W3C//DTD SVG 1.1//EN" "http://www.w3.org/Graphics/SVG/1.1/DTD/svg11.dtd">
<svg version="1.1" id="Layer_1" xmlns="http://www.w3.org/2000/svg" xmlns:xlink="http://www.w3.org/1999/xlink" x="0px" y="0px"
	 width="302px" height="273px" viewBox="0 0 302 273" enable-background="new 0 0 302 273" xml:space="preserve">
<g>
	<path d="M254.758,115.416c-2.305-2.304-5.088-3.529-8.32-3.529h-29.662c5.975-10.574,7.086-19.546,3.619-27.115
		c-5.047-11.03-19.18-17.038-42.479-17.812c-14.786-0.499-26.063-2.488-32.008-5.19c-5.904-2.683-8.606-4.995-9.89-7.444
		c-1.948-3.723-0.583-6.944-0.103-8.411l0.295-0.593c1.375-2.743,0.796-5.975-1.662-7.435c-2.643-1.58-5.905-1.039-7.534,1.561
		c-1.807,2.885-3.161,6.362-3.041,11.941c0.072,2.845,0.858,5.507,2.164,7.932c6.035,11.27,23.195,17.396,51.391,18.407
		c18.303,0.652,30.009,4.712,33.078,11.451c3.396,7.452-3.232,18.007-6.066,21.638c-0.296,0.285-0.592,0.684-0.785,1.07H69.849
		c-6.66,0-11.849,5.291-11.849,11.94v101.121c0,6.658,5.189,11.747,11.849,11.747h176.589c3.232,0,6.047-1.201,8.32-3.427
		c2.325-2.271,3.519-4.994,3.519-8.32V123.827C258.276,120.503,257.053,117.708,254.758,115.416L254.758,115.416z M247.416,224.948
		c0,0.683-0.295,0.979-0.979,0.979H69.849c-0.694,0-0.979-0.296-0.979-0.979V123.827c0-0.786,0.285-1.172,0.979-1.172h176.589
		c0.388,0,0.979,0.684,0.979,1.172V224.948z M247.416,224.948"/>
	<rect x="58" y="37" fill="none" width="200.478" height="201"/>
	<path d="M215.011,143.506h-5.282c-2.253,0-4.211,1.958-4.211,4.214v5.18c0,2.251,1.958,4.208,4.211,4.208h5.282
		c2.254,0,4.212-1.958,4.212-4.208v-5.18C219.223,145.464,217.265,143.506,215.011,143.506L215.011,143.506z M215.011,143.506"/>
	<path d="M215.011,170.428h-5.282c-2.253,0-4.211,1.958-4.211,4.208v5.18c0,2.256,1.958,4.214,4.211,4.214h5.282
		c2.254,0,4.212-1.958,4.212-4.214v-5.18C219.223,172.386,217.265,170.428,215.011,170.428L215.011,170.428z M215.011,170.428"/>
	<path d="M196.514,170.619h4.986c2.447,0,4.405-1.958,4.405-4.208v-5.285c0-2.253-1.958-4.211-4.405-4.211h-4.986
		c-2.355,0-4.211,1.858-4.211,4.211v5.285C192.303,168.764,194.158,170.619,196.514,170.619L196.514,170.619z M196.514,170.619"/>
	<path d="M182.707,157.108h4.997c2.345,0,4.211-1.855,4.211-4.208v-5.18c0-2.358-1.866-4.214-4.211-4.214h-4.997
		c-2.345,0-4.201,1.856-4.201,4.214v5.18C178.506,155.253,180.362,157.108,182.707,157.108L182.707,157.108z M182.707,157.108"/>
	<path d="M187.704,170.428h-4.997c-2.345,0-4.201,1.856-4.201,4.208v5.18c0,2.358,1.856,4.214,4.201,4.214h4.997
		c2.345,0,4.211-1.856,4.211-4.214v-5.18C191.915,172.284,190.049,170.428,187.704,170.428L187.704,170.428z M187.704,170.428"/>
	<path d="M169.299,170.619h5.189c2.254,0,4.212-1.958,4.212-4.208v-5.285c0-2.253-1.958-4.211-4.212-4.211h-5.189
		c-2.254,0-4.212,1.958-4.212,4.211v5.285C165.087,168.662,167.045,170.619,169.299,170.619L169.299,170.619z M169.299,170.619"/>
	<path d="M155.596,157.108h5.086c2.355,0,4.212-1.855,4.212-4.208v-5.18c0-2.358-1.856-4.214-4.212-4.214h-5.086
		c-2.349,0-4.215,1.856-4.215,4.214v5.18C151.381,155.253,153.247,157.108,155.596,157.108L155.596,157.108z M155.596,157.108"/>
	<path d="M160.682,170.428h-5.086c-2.349,0-4.215,1.856-4.215,4.208v5.18c0,2.358,1.866,4.214,4.215,4.214h5.086
		c2.355,0,4.212-1.856,4.212-4.214v-5.18C164.894,172.284,163.037,170.428,160.682,170.428L160.682,170.428z M160.682,170.428"/>
	<path d="M137.778,166.411c0,2.251,1.958,4.208,4.213,4.208h5.19c2.344,0,4.199-1.855,4.199-4.208v-5.285
		c0-2.353-1.855-4.211-4.199-4.211h-5.19c-2.255,0-4.213,1.958-4.213,4.211V166.411z M137.778,166.411"/>
	<path d="M128.379,157.108h5.189c2.253,0,4.21-1.958,4.21-4.208v-5.18c0-2.256-1.957-4.214-4.21-4.214h-5.189
		c-2.242,0-4.21,1.958-4.21,4.214v5.18C124.169,155.151,126.137,157.108,128.379,157.108L128.379,157.108z M128.379,157.108"/>
	<path d="M133.568,170.428h-5.189c-2.242,0-4.21,1.958-4.21,4.208v5.18c0,2.256,1.968,4.214,4.21,4.214h5.189
		c2.253,0,4.21-1.958,4.21-4.214v-5.18C137.778,172.386,135.821,170.428,133.568,170.428L133.568,170.428z M133.568,170.428"/>
	<path d="M114.97,170.619h4.995c2.348,0,4.204-1.855,4.204-4.208v-5.285c0-2.353-1.856-4.211-4.204-4.211h-4.995
		c-2.346,0-4.211,1.858-4.211,4.211v5.285C110.759,168.764,112.624,170.619,114.97,170.619L114.97,170.619z M114.97,170.619"/>
	<path d="M204.937,202.239h-93.585c-3.042,0-5.386,2.45-5.386,5.479c0,3.036,2.344,5.382,5.386,5.382h93.585
		c3.028,0,5.476-2.346,5.476-5.382C210.412,204.689,207.965,202.239,204.937,202.239L204.937,202.239z M204.937,202.239"/>
	<path d="M101.266,157.108h5.087c2.356,0,4.214-1.855,4.214-4.208v-5.18c0-2.358-1.857-4.214-4.214-4.214h-5.087
		c-2.346,0-4.212,1.856-4.212,4.214v5.18C97.054,155.253,98.92,157.108,101.266,157.108L101.266,157.108z M101.266,157.108"/>
	<path d="M110.566,179.817v-5.18c0-2.353-1.857-4.208-4.214-4.208h-5.087c-2.346,0-4.212,1.856-4.212,4.208v5.18
		c0,2.358,1.866,4.214,4.212,4.214h5.087C108.709,184.031,110.566,182.175,110.566,179.817L110.566,179.817z M110.566,179.817"/>
</g>
</svg>
