<?xml version="1.0" encoding="utf-8"?>
<!-- Generator: Adobe Illustrator 15.0.0, SVG Export Plug-In  -->
<!DOCTYPE svg PUBLIC "-//W3C//DTD SVG 1.1//EN" "http://www.w3.org/Graphics/SVG/1.1/DTD/svg11.dtd" [
	<!ENTITY ns_flows "http://ns.adobe.com/Flows/1.0/">
]>
<svg version="1.1"
	 xmlns="http://www.w3.org/2000/svg" xmlns:xlink="http://www.w3.org/1999/xlink" xmlns:a="http://ns.adobe.com/AdobeSVGViewerExtensions/3.0/"
	 x="0px" y="0px" width="302px" height="273px" viewBox="-58 -37 302 273"
	 overflow="visible" enable-background="new -58 -37 302 273" xml:space="preserve">
<defs>
</defs>
<path d="M196.758,78.416c-2.305-2.304-5.088-3.529-8.32-3.529h-29.662c5.975-10.574,7.086-19.546,3.619-27.115
	c-5.047-11.03-19.18-17.038-42.479-17.812c-14.786-0.499-26.063-2.488-32.008-5.19c-5.904-2.683-8.606-4.995-9.89-7.444
	c-1.948-3.723-0.583-6.944-0.103-8.411l0.295-0.593c1.375-2.743,0.796-5.975-1.662-7.435c-2.643-1.58-5.905-1.039-7.534,1.561
	c-1.807,2.885-3.161,6.362-3.041,11.941c0.072,2.845,0.858,5.507,2.164,7.932c6.035,11.27,23.195,17.396,51.391,18.407
	c18.303,0.652,30.009,4.712,33.078,11.451c3.396,7.452-3.232,18.007-6.066,21.638c-0.296,0.285-0.592,0.684-0.785,1.07H11.849
	C5.189,74.887,0,80.178,0,86.827v101.121c0,6.658,5.189,11.747,11.849,11.747h176.589c3.232,0,6.047-1.201,8.32-3.427
	c2.325-2.271,3.519-4.994,3.519-8.32V86.827C200.276,83.503,199.053,80.708,196.758,78.416L196.758,78.416z M189.416,187.948
	c0,0.683-0.295,0.979-0.979,0.979H11.849c-0.694,0-0.979-0.296-0.979-0.979V86.827c0-0.786,0.285-1.172,0.979-1.172h176.589
	c0.388,0,0.979,0.684,0.979,1.172V187.948z M189.416,187.948"/>
<rect fill="none" width="200.478" height="201"/>
<path d="M157.011,106.506h-5.282c-2.253,0-4.211,1.958-4.211,4.214v5.18c0,2.251,1.958,4.208,4.211,4.208h5.282
	c2.254,0,4.212-1.958,4.212-4.208v-5.18C161.223,108.464,159.265,106.506,157.011,106.506L157.011,106.506z M157.011,106.506"/>
<path d="M157.011,133.428h-5.282c-2.253,0-4.211,1.958-4.211,4.208v5.18c0,2.256,1.958,4.214,4.211,4.214h5.282
	c2.254,0,4.212-1.958,4.212-4.214v-5.18C161.223,135.386,159.265,133.428,157.011,133.428L157.011,133.428z M157.011,133.428"/>
<path d="M138.514,133.619h4.986c2.447,0,4.405-1.958,4.405-4.208v-5.285c0-2.253-1.958-4.211-4.405-4.211h-4.986
	c-2.355,0-4.211,1.858-4.211,4.211v5.285C134.303,131.764,136.158,133.619,138.514,133.619L138.514,133.619z M138.514,133.619"/>
<path d="M124.707,120.108h4.997c2.345,0,4.211-1.855,4.211-4.208v-5.18c0-2.358-1.866-4.214-4.211-4.214h-4.997
	c-2.345,0-4.201,1.856-4.201,4.214v5.18C120.506,118.253,122.362,120.108,124.707,120.108L124.707,120.108z M124.707,120.108"/>
<path d="M129.704,133.428h-4.997c-2.345,0-4.201,1.856-4.201,4.208v5.18c0,2.358,1.856,4.214,4.201,4.214h4.997
	c2.345,0,4.211-1.856,4.211-4.214v-5.18C133.915,135.284,132.049,133.428,129.704,133.428L129.704,133.428z M129.704,133.428"/>
<path d="M111.299,133.619h5.189c2.254,0,4.212-1.958,4.212-4.208v-5.285c0-2.253-1.958-4.211-4.212-4.211h-5.189
	c-2.254,0-4.212,1.958-4.212,4.211v5.285C107.087,131.662,109.045,133.619,111.299,133.619L111.299,133.619z M111.299,133.619"/>
<path d="M97.596,120.108h5.086c2.355,0,4.212-1.855,4.212-4.208v-5.18c0-2.358-1.856-4.214-4.212-4.214h-5.086
	c-2.349,0-4.215,1.856-4.215,4.214v5.18C93.381,118.253,95.247,120.108,97.596,120.108L97.596,120.108z M97.596,120.108"/>
<path d="M102.682,133.428h-5.086c-2.349,0-4.215,1.856-4.215,4.208v5.18c0,2.358,1.866,4.214,4.215,4.214h5.086
	c2.355,0,4.212-1.856,4.212-4.214v-5.18C106.894,135.284,105.037,133.428,102.682,133.428L102.682,133.428z M102.682,133.428"/>
<path d="M79.778,129.411c0,2.251,1.958,4.208,4.213,4.208h5.19c2.344,0,4.199-1.855,4.199-4.208v-5.285
	c0-2.353-1.855-4.211-4.199-4.211h-5.19c-2.255,0-4.213,1.958-4.213,4.211V129.411z M79.778,129.411"/>
<path d="M70.379,120.108h5.189c2.253,0,4.21-1.958,4.21-4.208v-5.18c0-2.256-1.957-4.214-4.21-4.214h-5.189
	c-2.242,0-4.21,1.958-4.21,4.214v5.18C66.169,118.151,68.137,120.108,70.379,120.108L70.379,120.108z M70.379,120.108"/>
<path d="M75.568,133.428h-5.189c-2.242,0-4.21,1.958-4.21,4.208v5.18c0,2.256,1.968,4.214,4.21,4.214h5.189
	c2.253,0,4.21-1.958,4.21-4.214v-5.18C79.778,135.386,77.821,133.428,75.568,133.428L75.568,133.428z M75.568,133.428"/>
<path d="M56.97,133.619h4.995c2.348,0,4.204-1.855,4.204-4.208v-5.285c0-2.353-1.856-4.211-4.204-4.211H56.97
	c-2.346,0-4.211,1.858-4.211,4.211v5.285C52.759,131.764,54.624,133.619,56.97,133.619L56.97,133.619z M56.97,133.619"/>
<path d="M146.937,165.239H53.352c-3.042,0-5.386,2.45-5.386,5.479c0,3.036,2.344,5.382,5.386,5.382h93.585
	c3.028,0,5.476-2.346,5.476-5.382C152.412,167.689,149.965,165.239,146.937,165.239L146.937,165.239z M146.937,165.239"/>
<path d="M43.266,120.108h5.087c2.356,0,4.214-1.855,4.214-4.208v-5.18c0-2.358-1.857-4.214-4.214-4.214h-5.087
	c-2.346,0-4.212,1.856-4.212,4.214v5.18C39.054,118.253,40.92,120.108,43.266,120.108L43.266,120.108z M43.266,120.108"/>
<path d="M52.566,142.817v-5.18c0-2.353-1.857-4.208-4.214-4.208h-5.087c-2.346,0-4.212,1.856-4.212,4.208v5.18
	c0,2.358,1.866,4.214,4.212,4.214h5.087C50.709,147.031,52.566,145.175,52.566,142.817L52.566,142.817z M52.566,142.817"/>
</svg>
