<?xml version="1.0" encoding="utf-8"?>
<!-- Generator: Adobe Illustrator 15.0.0, SVG Export Plug-In . SVG Version: 6.00 Build 0)  -->
<!DOCTYPE svg PUBLIC "-//W3C//DTD SVG 1.1//EN" "http://www.w3.org/Graphics/SVG/1.1/DTD/svg11.dtd">
<svg version="1.1" id="Layer_1" xmlns="http://www.w3.org/2000/svg" xmlns:xlink="http://www.w3.org/1999/xlink" x="0px" y="0px"
	 width="1024px" height="768px" viewBox="0 0 1024 768" enable-background="new 0 0 1024 768" xml:space="preserve">
<g>
	<g>
		<defs>
			<rect id="SVGID_1_" x="526.844" y="317.281" width="36.312" height="67.438"/>
		</defs>
		<clipPath id="SVGID_2_">
			<use xlink:href="#SVGID_1_"  overflow="visible"/>
		</clipPath>
		<path clip-path="url(#SVGID_2_)" fill="#010002" d="M555.071,362.226v3.424c0,5.836-4.256,10.659-9.828,11.606v3.444h3.02v4.018
			h-10.054v-4.018h3.02v-3.444c-5.57-0.947-9.805-5.771-9.805-11.606v-3.424c0-1.115,0.894-2.006,2.008-2.006
			c1.09,0,2.004,0.912,2.004,2.006v3.424c0,4.296,3.506,7.802,7.802,7.802c4.315,0,7.821-3.506,7.821-7.802v-3.424
			c0-1.115,0.912-2.006,2.006-2.006C554.18,360.22,555.071,361.111,555.071,362.226L555.071,362.226z M543.237,344.817
			c-3.321,0-6.019,2.698-6.019,6.021v13.82c0,3.323,2.697,6.039,6.019,6.039c3.343,0,6.038-2.715,6.038-6.039v-13.82
			C549.275,347.515,546.58,344.817,543.237,344.817L543.237,344.817z M550.674,341.149c0-0.203-0.041-0.385-0.102-0.565
			c-1.236-2.958-4.113-4.883-7.295-4.904h-0.119c-3.206-0.021-6.079,1.841-7.355,4.805c-0.307,0.724,0.016,1.555,0.747,1.862
			c0.732,0.306,1.561-0.021,1.862-0.732c0.815-1.902,2.677-3.098,4.727-3.075h0.119c2.046,0,3.891,1.253,4.681,3.138
			c0.283,0.729,1.114,1.074,1.844,0.768C550.329,342.223,550.653,341.699,550.674,341.149L550.674,341.149z M553.896,336.917
			c0.426-0.266,0.669-0.732,0.669-1.193c0-0.266-0.061-0.529-0.223-0.772c-2.371-3.83-6.484-6.137-11.023-6.16h-0.102
			c-4.541-0.061-8.676,2.206-11.122,5.998c-0.426,0.669-0.246,1.54,0.423,1.966c0.648,0.425,1.543,0.243,1.968-0.426
			c1.923-2.976,5.165-4.719,8.709-4.699h0.104c3.546,0.015,6.769,1.821,8.632,4.818C552.355,337.14,553.227,337.342,553.896,336.917
			L553.896,336.917z M559.428,331.686c-3.404-5.732-9.402-9.177-16.047-9.217h-0.123c-6.646-0.041-12.706,3.306-16.191,8.974
			c-0.426,0.669-0.223,1.563,0.467,1.966c0.671,0.425,1.542,0.203,1.968-0.466c2.956-4.8,8.103-7.677,13.736-7.616h0.124
			c5.631,0.038,10.737,2.979,13.614,7.819c0.405,0.669,1.276,0.912,1.966,0.486c0.445-0.263,0.689-0.727,0.689-1.213
			C559.631,332.175,559.569,331.932,559.428,331.686L559.428,331.686z M559.428,331.686"/>
	</g>
</g>
</svg>
