<?xml version="1.0" encoding="utf-8"?>
<!-- Generator: Adobe Illustrator 15.0.0, SVG Export Plug-In . SVG Version: 6.00 Build 0)  -->
<!DOCTYPE svg PUBLIC "-//W3C//DTD SVG 1.1//EN" "http://www.w3.org/Graphics/SVG/1.1/DTD/svg11.dtd">
<svg version="1.1" id="Layer_1" xmlns="http://www.w3.org/2000/svg" xmlns:xlink="http://www.w3.org/1999/xlink" x="0px" y="0px"
	 width="1024px" height="768px" viewBox="0 0 1024 768" enable-background="new 0 0 1024 768" xml:space="preserve">
<g>
	<g>
		<defs>
			<rect id="SVGID_1_" x="473" y="346" width="76.8" height="77"/>
		</defs>
		<clipPath id="SVGID_2_">
			<use xlink:href="#SVGID_1_"  overflow="visible"/>
		</clipPath>
		<path clip-path="url(#SVGID_2_)" d="M548.375,376.04c-0.883-0.883-1.949-1.352-3.188-1.352h-11.363
			c2.289-4.051,2.715-7.488,1.387-10.387c-1.934-4.226-7.348-6.527-16.273-6.824c-5.664-0.191-9.984-0.953-12.262-1.988
			c-2.262-1.028-3.297-1.914-3.789-2.852c-0.746-1.426-0.223-2.66-0.039-3.222l0.113-0.227c0.527-1.051,0.305-2.289-0.637-2.848
			c-1.012-0.605-2.262-0.398-2.886,0.598c-0.692,1.105-1.211,2.437-1.165,4.574c0.028,1.09,0.329,2.11,0.829,3.039
			c2.312,4.317,8.886,6.664,19.687,7.051c7.012,0.25,11.496,1.805,12.672,4.387c1.301,2.855-1.238,6.898-2.324,8.289
			c-0.113,0.109-0.227,0.262-0.301,0.41h-51.297c-2.551,0-4.539,2.027-4.539,4.574V418c0,2.551,1.988,4.5,4.539,4.5h67.648
			c1.238,0,2.316-0.46,3.188-1.312c0.891-0.87,1.348-1.913,1.348-3.188v-38.738C549.723,377.989,549.254,376.918,548.375,376.04
			L548.375,376.04z M545.562,418c0,0.262-0.113,0.375-0.375,0.375h-67.648c-0.266,0-0.375-0.113-0.375-0.375v-38.738
			c0-0.301,0.109-0.449,0.375-0.449h67.648c0.148,0,0.375,0.262,0.375,0.449V418z M545.562,418"/>
	</g>
	<path d="M533.148,386.801h-2.023c-0.863,0-1.613,0.75-1.613,1.614v1.984c0,0.862,0.75,1.612,1.613,1.612h2.023
		c0.863,0,1.613-0.75,1.613-1.612v-1.984C534.762,387.551,534.012,386.801,533.148,386.801L533.148,386.801z M533.148,386.801"/>
	<path d="M533.148,397.114h-2.023c-0.863,0-1.613,0.75-1.613,1.612v1.984c0,0.864,0.75,1.614,1.613,1.614h2.023
		c0.863,0,1.613-0.75,1.613-1.614v-1.984C534.762,397.864,534.012,397.114,533.148,397.114L533.148,397.114z M533.148,397.114"/>
	<path d="M526.062,397.188h1.91c0.938,0,1.688-0.75,1.688-1.612v-2.024c0-0.863-0.75-1.613-1.688-1.613h-1.91
		c-0.902,0-1.613,0.712-1.613,1.613v2.024C524.449,396.477,525.16,397.188,526.062,397.188L526.062,397.188z M526.062,397.188"/>
	<path d="M520.773,392.012h1.914c0.898,0,1.613-0.711,1.613-1.612v-1.984c0-0.903-0.715-1.614-1.613-1.614h-1.914
		c-0.898,0-1.609,0.711-1.609,1.614v1.984C519.164,391.301,519.875,392.012,520.773,392.012L520.773,392.012z M520.773,392.012"/>
	<path d="M522.688,397.114h-1.914c-0.898,0-1.609,0.711-1.609,1.612v1.984c0,0.903,0.711,1.614,1.609,1.614h1.914
		c0.898,0,1.613-0.711,1.613-1.614v-1.984C524.301,397.825,523.586,397.114,522.688,397.114L522.688,397.114z M522.688,397.114"/>
	<path d="M515.637,397.188h1.988c0.863,0,1.613-0.75,1.613-1.612v-2.024c0-0.863-0.75-1.613-1.613-1.613h-1.988
		c-0.863,0-1.613,0.75-1.613,1.613v2.024C514.023,396.438,514.773,397.188,515.637,397.188L515.637,397.188z M515.637,397.188"/>
	<path d="M510.387,392.012h1.949c0.902,0,1.613-0.711,1.613-1.612v-1.984c0-0.903-0.711-1.614-1.613-1.614h-1.949
		c-0.899,0-1.614,0.711-1.614,1.614v1.984C508.773,391.301,509.488,392.012,510.387,392.012L510.387,392.012z M510.387,392.012"/>
	<path d="M512.336,397.114h-1.949c-0.899,0-1.614,0.711-1.614,1.612v1.984c0,0.903,0.715,1.614,1.614,1.614h1.949
		c0.902,0,1.613-0.711,1.613-1.614v-1.984C513.949,397.825,513.238,397.114,512.336,397.114L512.336,397.114z M512.336,397.114"/>
	<path d="M503.562,395.575c0,0.862,0.75,1.612,1.614,1.612h1.988c0.898,0,1.609-0.711,1.609-1.612v-2.024
		c0-0.901-0.711-1.613-1.609-1.613h-1.988c-0.864,0-1.614,0.75-1.614,1.613V395.575z M503.562,395.575"/>
	<path d="M499.961,392.012h1.988c0.863,0,1.613-0.75,1.613-1.612v-1.984c0-0.864-0.75-1.614-1.613-1.614h-1.988
		c-0.859,0-1.613,0.75-1.613,1.614v1.984C498.348,391.262,499.102,392.012,499.961,392.012L499.961,392.012z M499.961,392.012"/>
	<path d="M501.949,397.114h-1.988c-0.859,0-1.613,0.75-1.613,1.612v1.984c0,0.864,0.754,1.614,1.613,1.614h1.988
		c0.863,0,1.613-0.75,1.613-1.614v-1.984C503.562,397.864,502.812,397.114,501.949,397.114L501.949,397.114z M501.949,397.114"/>
	<path d="M494.824,397.188h1.914c0.899,0,1.61-0.711,1.61-1.612v-2.024c0-0.901-0.711-1.613-1.61-1.613h-1.914
		c-0.898,0-1.613,0.712-1.613,1.613v2.024C493.211,396.477,493.926,397.188,494.824,397.188L494.824,397.188z M494.824,397.188"/>
	<path d="M529.289,409.301h-35.851c-1.165,0-2.063,0.938-2.063,2.099c0,1.163,0.898,2.062,2.063,2.062h35.851
		c1.16,0,2.098-0.898,2.098-2.062C531.387,410.239,530.449,409.301,529.289,409.301L529.289,409.301z M529.289,409.301"/>
	<path d="M489.574,392.012h1.949c0.903,0,1.614-0.711,1.614-1.612v-1.984c0-0.903-0.711-1.614-1.614-1.614h-1.949
		c-0.898,0-1.613,0.711-1.613,1.614v1.984C487.961,391.301,488.676,392.012,489.574,392.012L489.574,392.012z M489.574,392.012"/>
	<path d="M493.137,400.711v-1.984c0-0.901-0.711-1.612-1.614-1.612h-1.949c-0.898,0-1.613,0.711-1.613,1.612v1.984
		c0,0.903,0.715,1.614,1.613,1.614h1.949C492.426,402.325,493.137,401.614,493.137,400.711L493.137,400.711z M493.137,400.711"/>
</g>
</svg>
