<?xml version="1.0" encoding="utf-8"?>
<!-- Generator: Adobe Illustrator 15.0.0, SVG Export Plug-In  -->
<!DOCTYPE svg PUBLIC "-//W3C//DTD SVG 1.1 Tiny//EN" "http://www.w3.org/Graphics/SVG/1.1/DTD/svg11-tiny.dtd" [
	<!ENTITY ns_flows "http://ns.adobe.com/Flows/1.0/">
]>
<svg version="1.1" baseProfile="tiny"
	 xmlns="http://www.w3.org/2000/svg" xmlns:xlink="http://www.w3.org/1999/xlink" xmlns:a="http://ns.adobe.com/AdobeSVGViewerExtensions/3.0/"
	 x="0px" y="0px" width="142px" height="207px" viewBox="-33.69 -30.937 142 207" overflow="visible" xml:space="preserve">
<defs>
</defs>
<path fill="#010002" d="M72.776,102.508v8.83c0,15.047-10.972,27.481-25.339,29.937v8.882h7.785v10.345h-25.92v-10.345h7.784v-8.882
	c-14.361-2.456-25.28-14.89-25.28-29.937v-8.83c0-2.874,2.306-5.172,5.179-5.172c2.809,0,5.159,2.351,5.159,5.172v8.83
	c0,11.076,9.045,20.115,20.122,20.115c11.122,0,20.167-9.039,20.167-20.115v-8.83c0-2.874,2.351-5.172,5.172-5.172
	C70.478,97.335,72.776,99.634,72.776,102.508L72.776,102.508z M42.265,57.622c-8.562,0-15.517,6.955-15.517,15.53v35.625
	c0,8.568,6.955,15.569,15.517,15.569c8.627,0,15.569-7.001,15.569-15.569V73.152C57.834,64.577,50.892,57.622,42.265,57.622
	L42.265,57.622z M61.439,48.166c0-0.522-0.104-0.986-0.261-1.457c-3.187-7.622-10.613-12.585-18.809-12.637h-0.307
	c-8.268-0.059-15.674,4.748-18.965,12.382c-0.791,1.875,0.039,4.017,1.926,4.8c1.887,0.79,4.023-0.052,4.8-1.881
	c2.103-4.911,6.903-7.987,12.187-7.935h0.307c5.283,0,10.024,3.239,12.069,8.092c0.731,1.887,2.874,2.769,4.754,1.979
	C60.551,50.935,61.387,49.583,61.439,48.166L61.439,48.166z M69.746,37.252c1.097-0.679,1.724-1.887,1.724-3.076
	c0-0.679-0.157-1.365-0.575-1.992C64.783,22.31,54.177,16.36,42.474,16.308h-0.268c-11.703-0.163-22.361,5.682-28.67,15.458
	c-1.097,1.73-0.633,3.977,1.098,5.074c1.672,1.097,3.971,0.627,5.067-1.097c4.964-7.68,13.323-12.173,22.453-12.121h0.268
	c9.137,0.04,17.45,4.696,22.257,12.428C65.775,37.827,68.022,38.35,69.746,37.252L69.746,37.252z M84.009,23.773
	C75.232,8.994,59.767,0.112,42.637,0.001h-0.32C25.18-0.104,9.559,8.523,0.572,23.146c-1.097,1.724-0.575,4.023,1.202,5.068
	c1.73,1.097,3.978,0.522,5.074-1.208C14.47,14.636,27.74,7.211,42.265,7.374h0.32c14.518,0.092,27.684,7.674,35.103,20.154
	c1.045,1.73,3.292,2.357,5.068,1.26c1.149-0.686,1.776-1.875,1.776-3.128C84.532,25.027,84.375,24.4,84.009,23.773L84.009,23.773z
	 M84.009,23.773"/>
</svg>
