<?xml version="1.0" encoding="utf-8"?>
<!-- Generator: Adobe Illustrator 15.0.0, SVG Export Plug-In . SVG Version: 6.00 Build 0)  -->
<!DOCTYPE svg PUBLIC "-//W3C//DTD SVG 1.1//EN" "http://www.w3.org/Graphics/SVG/1.1/DTD/svg11.dtd">
<svg version="1.1" id="Layer_1" xmlns="http://www.w3.org/2000/svg" xmlns:xlink="http://www.w3.org/1999/xlink" x="0px" y="0px"
	 width="109px" height="135px" viewBox="0 0 109 135" enable-background="new 0 0 109 135" xml:space="preserve">
<path fill="#010002" d="M65.767,88.868v5.196c0,8.856-6.458,16.175-14.914,17.612v5.228h4.582V123H40.179v-6.096h4.582v-5.228
	c-8.452-1.438-14.879-8.756-14.879-17.612v-5.196c0-1.691,1.356-3.044,3.048-3.044c1.652,0,3.041,1.383,3.041,3.044v5.196
	c0,6.52,5.319,11.839,11.838,11.839c6.55,0,11.869-5.319,11.869-11.839v-5.196c0-1.691,1.384-3.044,3.045-3.044
	C64.413,85.824,65.767,87.177,65.767,88.868L65.767,88.868z M47.809,62.45c-5.039,0-9.133,4.094-9.133,9.137v20.972
	c0,5.042,4.094,9.163,9.133,9.163c5.074,0,9.163-4.121,9.163-9.163V71.587C56.972,66.544,52.883,62.45,47.809,62.45L47.809,62.45z
	 M59.094,56.885c0-0.308-0.062-0.584-0.154-0.857c-1.875-4.49-6.242-7.411-11.069-7.441h-0.181
	c-4.866-0.031-9.225,2.794-11.162,7.292c-0.465,1.099,0.023,2.36,1.134,2.825c1.111,0.465,2.368-0.031,2.825-1.111
	c1.238-2.886,4.062-4.7,7.172-4.666h0.182c3.105,0,5.903,1.903,7.103,4.763c0.431,1.106,1.691,1.629,2.798,1.164
	C58.571,58.515,59.062,57.719,59.094,56.885L59.094,56.885z M63.982,50.462c0.646-0.403,1.016-1.11,1.016-1.811
	c0-0.403-0.093-0.803-0.339-1.172c-3.598-5.812-9.84-9.313-16.728-9.348h-0.154c-6.891-0.093-13.164,3.348-16.877,9.102
	c-0.646,1.015-0.373,2.337,0.642,2.982c0.984,0.646,2.341,0.369,2.987-0.646c2.917-4.517,7.837-7.161,13.214-7.13H47.9
	c5.382,0.023,10.271,2.764,13.1,7.311C61.646,50.8,62.968,51.108,63.982,50.462L63.982,50.462z M72.377,42.525
	c-5.166-8.698-14.268-13.925-24.35-13.987H47.84c-10.086-0.062-19.28,5.016-24.569,13.618c-0.646,1.015-0.338,2.371,0.707,2.982
	c1.019,0.646,2.341,0.308,2.987-0.707c4.485-7.284,12.295-11.65,20.844-11.558h0.188c8.544,0.058,16.293,4.52,20.659,11.865
	c0.615,1.015,1.938,1.384,2.983,0.738c0.677-0.399,1.045-1.103,1.045-1.841C72.685,43.267,72.593,42.897,72.377,42.525
	L72.377,42.525z M72.377,42.525"/>
</svg>
