<?xml version="1.0" encoding="utf-8"?>
<!-- Generator: Adobe Illustrator 15.0.0, SVG Export Plug-In  -->
<!DOCTYPE svg PUBLIC "-//W3C//DTD SVG 1.1//EN" "http://www.w3.org/Graphics/SVG/1.1/DTD/svg11.dtd" [
	<!ENTITY ns_flows "http://ns.adobe.com/Flows/1.0/">
]>
<svg version="1.1"
	 xmlns="http://www.w3.org/2000/svg" xmlns:xlink="http://www.w3.org/1999/xlink" xmlns:a="http://ns.adobe.com/AdobeSVGViewerExtensions/3.0/"
	 x="0px" y="0px" width="109px" height="135px" viewBox="-22.934 -28.538 109 135"
	 overflow="visible" enable-background="new -22.934 -28.538 109 135" xml:space="preserve">
<defs>
</defs>
<path fill="#010002" d="M42.833,60.331v5.196c0,8.856-6.458,16.175-14.914,17.612v5.228h4.582v6.096H17.245v-6.096h4.582v-5.228
	c-8.452-1.438-14.879-8.756-14.879-17.612v-5.196c0-1.691,1.356-3.044,3.048-3.044c1.652,0,3.041,1.383,3.041,3.044v5.196
	c0,6.52,5.319,11.839,11.838,11.839c6.55,0,11.869-5.319,11.869-11.839v-5.196c0-1.691,1.384-3.044,3.045-3.044
	C41.479,57.287,42.833,58.639,42.833,60.331L42.833,60.331z M24.875,33.913c-5.039,0-9.133,4.094-9.133,9.137v20.972
	c0,5.042,4.094,9.163,9.133,9.163c5.074,0,9.163-4.121,9.163-9.163V43.049C34.038,38.006,29.949,33.913,24.875,33.913L24.875,33.913
	z M36.16,28.347c0-0.308-0.062-0.584-0.154-0.857c-1.875-4.49-6.242-7.411-11.069-7.441h-0.181
	c-4.866-0.031-9.225,2.794-11.162,7.292c-0.465,1.099,0.023,2.36,1.134,2.825c1.111,0.465,2.368-0.031,2.825-1.111
	c1.238-2.886,4.062-4.7,7.172-4.666h0.182c3.105,0,5.903,1.903,7.103,4.763c0.431,1.106,1.691,1.629,2.798,1.164
	C35.638,29.977,36.129,29.181,36.16,28.347L36.16,28.347z M41.049,21.924c0.646-0.403,1.016-1.11,1.016-1.811
	c0-0.403-0.093-0.803-0.339-1.172c-3.598-5.812-9.84-9.313-16.728-9.348h-0.154c-6.891-0.093-13.164,3.348-16.877,9.102
	c-0.646,1.015-0.373,2.337,0.642,2.982c0.984,0.646,2.341,0.369,2.987-0.646c2.917-4.517,7.837-7.161,13.214-7.13h0.157
	c5.382,0.023,10.271,2.764,13.1,7.311C38.713,22.263,40.034,22.57,41.049,21.924L41.049,21.924z M49.443,13.987
	C44.277,5.289,35.176,0.062,25.094,0h-0.188C14.82-0.061,5.626,5.016,0.337,13.619c-0.646,1.015-0.338,2.371,0.707,2.982
	c1.019,0.646,2.341,0.308,2.987-0.707C8.517,8.61,16.326,4.244,24.875,4.336h0.188c8.544,0.058,16.293,4.52,20.659,11.865
	c0.615,1.015,1.938,1.384,2.983,0.738c0.677-0.399,1.045-1.103,1.045-1.841C49.751,14.729,49.659,14.36,49.443,13.987L49.443,13.987
	z M49.443,13.987"/>
</svg>
