<?xml version="1.0" encoding="utf-8"?>
<!-- Generator: Adobe Illustrator 18.1.1, SVG Export Plug-In . SVG Version: 6.00 Build 0)  -->
<svg version="1.1" baseProfile="tiny" id="Layer_1" xmlns="http://www.w3.org/2000/svg" xmlns:xlink="http://www.w3.org/1999/xlink"
	 x="0px" y="0px" viewBox="-46 189 193 569" xml:space="preserve">
<metadata><?xpacket begin="﻿" id="W5M0MpCehiHzreSzNTczkc9d"?>
<x:xmpmeta xmlns:x="adobe:ns:meta/" x:xmptk="Adobe XMP Core 5.6-c014 79.156821, 2014/08/29-03:07:50        ">
   <rdf:RDF xmlns:rdf="http://www.w3.org/1999/02/22-rdf-syntax-ns#">
      <rdf:Description rdf:about=""
            xmlns:xmp="http://ns.adobe.com/xap/1.0/"
            xmlns:xmpGImg="http://ns.adobe.com/xap/1.0/g/img/"
            xmlns:xmpTPg="http://ns.adobe.com/xap/1.0/t/pg/"
            xmlns:stDim="http://ns.adobe.com/xap/1.0/sType/Dimensions#"
            xmlns:xmpG="http://ns.adobe.com/xap/1.0/g/"
            xmlns:dc="http://purl.org/dc/elements/1.1/"
            xmlns:xmpMM="http://ns.adobe.com/xap/1.0/mm/"
            xmlns:stRef="http://ns.adobe.com/xap/1.0/sType/ResourceRef#"
            xmlns:stEvt="http://ns.adobe.com/xap/1.0/sType/ResourceEvent#">
         <xmp:CreatorTool>Adobe Illustrator CC 2014 (Macintosh)</xmp:CreatorTool>
         <xmp:CreateDate>2015-11-07T21:32:52-05:00</xmp:CreateDate>
         <xmp:MetadataDate>2015-11-07T21:32:52-05:00</xmp:MetadataDate>
         <xmp:ModifyDate>2015-11-07T21:32:52-05:00</xmp:ModifyDate>
         <xmp:Thumbnails>
            <rdf:Alt>
               <rdf:li rdf:parseType="Resource">
                  <xmpGImg:width>64</xmpGImg:width>
                  <xmpGImg:height>256</xmpGImg:height>
                  <xmpGImg:format>JPEG</xmpGImg:format>
                  <xmpGImg:image>/9j/4AAQSkZJRgABAgEAeAB4AAD/7QAsUGhvdG9zaG9wIDMuMAA4QklNA+0AAAAAABAAeAAAAAEA&#xA;AQB4AAAAAQAB/+4ADkFkb2JlAGTAAAAAAf/bAIQABgQEBAUEBgUFBgkGBQYJCwgGBggLDAoKCwoK&#xA;DBAMDAwMDAwQDA4PEA8ODBMTFBQTExwbGxscHx8fHx8fHx8fHwEHBwcNDA0YEBAYGhURFRofHx8f&#xA;Hx8fHx8fHx8fHx8fHx8fHx8fHx8fHx8fHx8fHx8fHx8fHx8fHx8fHx8fHx8f/8AAEQgBAABAAwER&#xA;AAIRAQMRAf/EAaIAAAAHAQEBAQEAAAAAAAAAAAQFAwIGAQAHCAkKCwEAAgIDAQEBAQEAAAAAAAAA&#xA;AQACAwQFBgcICQoLEAACAQMDAgQCBgcDBAIGAnMBAgMRBAAFIRIxQVEGE2EicYEUMpGhBxWxQiPB&#xA;UtHhMxZi8CRygvElQzRTkqKyY3PCNUQnk6OzNhdUZHTD0uIIJoMJChgZhJRFRqS0VtNVKBry4/PE&#xA;1OT0ZXWFlaW1xdXl9WZ2hpamtsbW5vY3R1dnd4eXp7fH1+f3OEhYaHiImKi4yNjo+Ck5SVlpeYmZ&#xA;qbnJ2en5KjpKWmp6ipqqusra6voRAAICAQIDBQUEBQYECAMDbQEAAhEDBCESMUEFURNhIgZxgZEy&#xA;obHwFMHR4SNCFVJicvEzJDRDghaSUyWiY7LCB3PSNeJEgxdUkwgJChgZJjZFGidkdFU38qOzwygp&#xA;0+PzhJSktMTU5PRldYWVpbXF1eX1RlZmdoaWprbG1ub2R1dnd4eXp7fH1+f3OEhYaHiImKi4yNjo&#xA;+DlJWWl5iZmpucnZ6fkqOkpaanqKmqq6ytrq+v/aAAwDAQACEQMRAD8A9U4qhdVj9TTbhQsTHgSB&#xA;PQRgruGYlZB8NK/ZOKsO/JtrQ+V7kW1414i30wZmWRCjcI/g4ypE42od177UGwVZ3irsVdirsVdi&#xA;rsVU7pZWtpVh/vSjCOu3xU26g98VY9+Xuk6tpflqG01ZSNQU1uGLc+blFDPy9SavJgT1+jFWS4q7&#xA;FXYq7FXYq7FVk4rBIKkVUiq7EbdtxirF/wAtdQvL3y831m8a+FtO9vb3UrxvM8UaJxMpjZxzNa7s&#xA;xIoSd8VZXirsVdirsVdirUkiRo0kjBI0BZ3Y0AA3JJOKpdYa/oWsx3UWj6lZ6jLAoWdYJo7gRmQH&#xA;h6qxsaBqHr1xVKfy80HW9D0WSx1aKxjmMzTK1gaqxkAMhkpBagtzrxPD7PFTUryKrKMVdirsVdir&#xA;sVUL55o7G4khVnmSJ2iSOnNmCkqF5BlqT0qDiryvyB5iur7QPMOsanb3q6r6MDX2oOJLZmmSSZYr&#xA;WLlDbKPQjWMuwjoTIeXhillH5UT/AFjyzLP9Yurn1LqRud6zvMvwpVTzSOgHala9a1JAUMzxV2Ku&#xA;xV5z+dMuqx6PB6MuowaWYrz61LpXq+r9a9D/AEFZWgBmWFpahiu1ePL4cUhMfy21DU9RbWr6R7x9&#xA;HuLiBtJa+R42+G1jS49JJQsgh9VTxqBvUjxKhlWrw2kunTi7iingjUTGO4IWLlCRKhdiGoFZAa0N&#xA;MVYV5LuvL+rx6nPpfltdBuba3RPREcdvNP66s4f0VVY3hJQejK9eRDbLQ1Utfkub5PL95b3lnd2s&#xA;n1t51N1NLcgrJ8HFZJo4JAUaI8kZNqg9GGKC9BxV2KuxV5x+ams6zAdOufLmqafHPbSXlpcR3V/H&#xA;aLHPNbhElcMaSfV/U5mI77qaYpRP5TaXDpsOtW1nq51bTEuoVspGvVv2PG0iE0zOHkMfrT829M0p&#xA;1AocUM21GaKHT7qaUgRRRO8hPIAKqkmpX4unhvirzb8t9R0jV7HWr8LLMl7Da3A0OQz3CwxK88UD&#xA;gO87hp5IGc0AooU0BqSpT78pbMWnlJYzp9xpkrTu89tcwSW7CRlXlwWWSV2jX7KMT0HTbFDM8Vdi&#xA;rsVeafm7Pd6daRw6Na2kFxcQanqc1w9nHcvJNY2glESq6snqT8QC7Aniu2KUT+UuopcyeYLWDVLX&#xA;WrSyuoUg1KytoLWF/Ut1kZP9HUI7IzUJqfo3GKGcaojtp8/C5Noyrz+sAIeIT4jyEiyLxIFG26dK&#xA;HfFWC/lRZw2Gm6vJBp7WEbOsn1toLe2s7hgrEywela6fOU/m9SLj04MwqcUsj8i6nrWqaCt/qzwv&#xA;NcSNJbm3jmij9BgDGR66xuwYfEDx6GnUHFDIcVdirsVea/mPqmp+W3a+fzNrQiuhPPFpem2Wlz+l&#xA;b2sXqzyc7qEfu406l5K70FcUpj+Vl7LLbapZzfpKOeyuEWW31W106zkQyRCQFE04BGVlYHk3fbsc&#xA;UM0urhLa1muXDMkKNIyoOTEICSFHc7Yqwvy5+ZGi+btB1C5hheEWlol1cxLL6nESvOI4zJasx5Ut&#xA;uTKp+yw61xVr8nNNk0/ytcQMsSob2V4TAlxGhRkjoQLn957dSO1Sa4qzrFXYq7FWCfmbHZXFxplg&#xA;NGuNb1W/g1C2trSCdLVBbTW4iuzLLIaKOLqF2rypiq78rNC13TLbVJtdtryPU764SSW6v72C9llV&#xA;IxGgBt0iRFRVpTjv1xVmd8SLK4IMgIjcgwjlL9k/3Y3q3h74q84/LUQXen6zBNcXVxBJb2ty4mi+&#xA;rKXb1gZoOEnNd4Qh+OpMfqVPqc2Uo38lbrT5vLF0lkUaNbyRw6BgXWRVKs/725QNQUASVvhCk7k4&#xA;oL0DFXYq7FXmn5vrbnVPK7X36Vj02Ka7ee50OOZruKT0QkZ9W3VpY425sGCn4ttiBspTv8tpNHex&#xA;vDpl1rd1GJV9RteN4ZQeOwi+uBW4+PHauKGT6nz/AEbd+m7Rv6MnGRK81PE0ZaAmo7bYq88/Jq2u&#xA;o9Huxf3816q28ERs5rS9hMY5Tyuz/XOTSyyNMVfgWFFXriksq8iah5bvtHll8vWjWlglzJEQyBA8&#xA;iUDMpBYMq7IN/h48NuNAoZFirsVdiqxpoVkSJnVZZKmNCQGbj9qg70rviq/FUn12Hy7rNhfaRqBt&#xA;btVjLXFrMkVyYyoDrI0Dh905KwqvhirAPya8sHTNM1m8i0yPTdP1K1s1sJI0jghuooYpQLoslzd3&#xA;IaX1OTCTgVFKVbmcUlkH5RXUdx5andLj6yFuirOHmkAcQxF1rOqPUMTy2A5VoF+yFDN8VdirsVec&#xA;fmEJ9RutNvbRdb02+0O9uEtrrT9OW7aTlCgZgG5AwOsnHcUYg7fCMUp/5CvdXu7S6bUrnULl1kUR&#xA;tqVgmnOBx6IiBeY98UMDsH0e088+Y9Wcw21rJY3r/WbmZ2tV9Zon9RoGjFRNzWqsSeSsoAHDkpX/&#xA;AJKW80Ola3bQR6TBdJbW/O4shaus0jyXT+rPJYx28YXiyqkZPJAKkDkKqlln5QtfHyfGl3Isvpys&#xA;sLo4l+EojNV1ebkfUZvi5kt9o7mmKGa4q8i1P81vPiQa75o07RrCXyN5cvprO7Ms0o1K5ispPSu7&#xA;m2Cj0AqOG4KxqwU9NsVZP5I86+YPN2rTajaaUbDyOsDLp9/eBo7y+nLpxmigNPTtvTD0L/E9VI2r&#xA;iqG/NGGSXUPLwudP1TVNCEtz+krLSfX5cjGvoSTeg0bMiNX4eXU13pTFU38hQaFDaXQ0jStQ0qMy&#xA;KZY9SW4V3bjsU+sPIafLFWGaFNpLfmjqz6nChuhYXTX7m4ku7fgkqGRR6tpb8hGKJRXIWhFKhqKW&#xA;Z6J5t8tavol1NpUEqwJa/WXs/qsglMUjTQoRbqA7czbOAo3NMUKH5W2Wo2XlloL31BS4f6sssMlu&#xA;VgCIqKscoSQAU/aRd6gVUBmVZfirxa7/AC0/NweUvMHlCyutA/QutT6i63E31360keozyTGvFfT5&#xA;L6tOmKs98nQfmZbziDzQdFOmxW/CA6Z9b9cyqVC8/X+Dhw5VpvWmKsd/PCze8sLC1a1k1S3miv1G&#xA;j28qiaW6a34204t2ZDcJA7fEq148g1DTFITr8trbV/8AcxqV5Z3Wm2mpXEMllYXrAzL6VrHDLKYw&#xA;W9ISPHshNdq0FcUJLbvq7+YPNbSpLZ3aLdJp+oXFpqD262irGwoqpDYy1bmwpIZD35b4pQn5M6lo&#xA;4tNensLF7AQQ27y26WEdsp4G4TksUNzfTs/ONgVYqAAvBBViVSzbyJqet6jpE0+sOjXIuXRPTilh&#xA;UR8VKikqRMep34+29KlQxLzp+amseWfN9xY3CWEWkwWzTW8FwZI7u6ZbWWfnDKWEQT1o1gChGYue&#xA;1VqpY1q3lHydcarezy/kvfX0ss8ryXoaxAmZnJMtGu1Ycz8W4BxQjfyRvvy6vvM+rf4T8izeXrjT&#xA;4XtL/Vz6D25f1I2a0WaGaZXfYOQtacd6bVVZj+aU+nmwtLC803Sr8XjSenPrV1FaW9uyAfvAzBpm&#xA;b4tvRFfdcVVfyv0/6ho09v8A4nj8y0l5Awy+tFaKR8MEbvLcTFQOnqSE4qpX3mO8vtW1PyzeRTWk&#xA;qRz3en3Vqbi1eeC29OoEk0Po/akCOVlYUINBWgVYx+U+pS3NjrdvHNw1K8tre7LPFOAJnjcSxcJD&#xA;avI8KhFaUOoaoApxxSyL8m4rSHyxcRQWZsWa6aaWD6vNarWWNCCsc7yNsPhboOQPX7TKCxLz7qer&#xA;S6lqUk2qvoEMsEFxpS30DW8kV5ChWOIXk6yafHF6jepKUk5sPg6YpS3zp5281eZvMN15cv8AQvM2&#xA;keSbJjDfXOm6VeSXerMpKuscsalbe1anVWLOvhU0UPR/y+8y+X544/L2h+W9W0CxsLcvAl9pdxp9&#xA;sEVlXgkkqqrSMX5U+0dz44qiPzE1m20bToL670zT7+0RyskupXUFpHEWpx4tOkgZn8B4YqgPypgW&#xA;aHWdegj062sdbukmtbLSZ1uYIxDCsLM8qLHH6kjLyYKu3epriqR+W9Wng/NTzHLcSwtYpDeMsy20&#xA;gkkFq8PqRRSGBAfq/ICQCZ+TNWnQIpZX5R/MjRvNFjPc2MMsclvBFcSwNxlZVuJJo4gTbGf4j9XL&#xA;ECpCkHFCI8ha9rOuaLLfatAlvN9ZljhjSKaE+klArMswrVjUilRxp+1UYq8n/MG/ub/zA2oWGs32&#xA;mXt28Vta2F5c3Gim3VYSA3p3QggnjM+8oQuxU/DuMUp1H5580Wn5Q6pry3hk1W38wyWUU8qrJxgb&#xA;Xls/TowpQQOVG2KGXT6xqa/nNY6MLhxpcnly7vHtP2DcR31tGsn+sEkYfTiq/wA9Wl8useXdYs7G&#xA;LV5NNmuANKeaKGZzNF/fWxnZIjLCIyaMR8JbcYqh/wAsHW/fX9fjW0todXvlkWwsrmG7ETQwpE7z&#xA;SWzPD68pXk4QntUk4qhIJfy41bW7+90Ln/iX05Ln65bC4jef0PT5qjHgkqkhEZVO9CB9nZViv5S6&#xA;5rUh1OxisbWCzurR7pr+3jvGijuYo4WlikimMDNIPrJVuLqar334qWU/klpUNjoF8VspLCb620Mt&#xA;u8X1cERIpR/SEky8ikgUuGPIKNzSpVLFfzcfWV80yQWnmIpc3yxQWWiR38EXpoYmKyTWVywhkSS4&#xA;FJHZWYLuB8O6qWXei/kyNYvtF8322t+VJbq9mmSPUL+9g0q6lM5m9a2njl+qUMlJAG4kHtXFD0fS&#xA;fy68seWXu/M2iPf3mrNp8trbXE95c6iTFIyyhYlneVfikiQ/2Yqll55X8yeePKGhXqa6+narFHdx&#xA;Xd09tG3qxXQaCUrGjqsbhB+7YE0B98Uso8l+R9P8qy6t9RSKG1vpoWtreBPTSKG3tYoEVh+05ZGZ&#xA;n71xQ880azsrjXdZm1tI21CexmuJpZ7OXTywDrKnryNb28jrGyqoPqCoHTwUph+VeialFbeZtM1q&#xA;aO6M9vb/AARei/KOT6xxkRInk+B1oAHblyVhSlCyqHtPMGqeX/IFrLp93bafcXWoLG76haNbniEj&#xA;E3COES8ihVq8uRUApUstcVRPma+jtPPOs/WLvStKsry2skYa1YSSWWoOqvVjeM0MasiuqBQzj2rU&#xA;BVGa3+Ys/mOS98veUvKU3mhUeS1vb7UkFpoqPG5jkV5bhWafg6/EscZr2OKEs8nflPqPkzTPMera&#xA;hrEcMd/Y3Bk8u6ckiaJaEqHd4oJzcMxonHkFX4Sfh6UVRRPm/T/JvleLRPUPmnnN6FlbwqmmyxGX&#xA;lL9eUFY4o1jIoysH5n4a1IxSyP8ALafWZrXUG8wyXf8AiT1h+k7a4QR28Jp+7WxCFka3p9lwxZjX&#xA;lQ7BQwMQPL+aOtR3OiQyabMl5bape3ENwxigKLcJPKZBJbzqxjXioPwqqg8W4rilN/yu1fTrHR9b&#xA;e/ul0zT4LW0vJxJZppgjjuFlRLmPiq1jljiQKWYvzV9lqFCqVeaf0DYeQrSLyzrTTWRIdtWK3KwF&#xA;Xj9MLLJpUUEHqPz+P1V5sDv1FFXrlvrGnXmp3+jg1vLFImuoHGxjuFJRlr9pTxZa+IIxQxW88lfm&#xA;LNeTzW/5i3trBJI7w2y6bpbrEjMSsYZ4CzBRtVjXFUv0HWvNWiebtQ8n+b9RTzLYy6TLrNjqS2aw&#xA;3PowzLb3FtPb24Mcv96hQogrvUeCqY+Y5PJN3oulyyWOqz6YTKLGPQ4tTjChSFbmmnemyqSPh5j5&#xA;d8VWflZZS28mvvBb6pBo013G2lfpprn6yVECiUKl2xlWMSV48lBO/XbFUg8naTodt59199NBDJDP&#xA;DZ6S6ySQyRMsTNMswjVGWVgBxeRyANtsUpZd+V49K/KPzQZNM/Rl5d2ttJdQXnp2sEbxN8KQzrPK&#xA;/CHpGGk22oNyMVSXTLfypB+WOh2MdoItP1DU5Faa5v7e7l/3i5q5nMmnQKxjjSLgzKQm3E4qnvnD&#xA;SK+a7pLK3v8AUr3TYYFu9UbT3aVRIlURL/TZrO+ZuIBNI5QMVR/nXXvMXlnUWXWPzV0fREuneSys&#xA;LnSEkmWEseFaXgdgoHHnxAJxQr+VPL+m3Oka553m81J521W/0yawXVY0hhtYbaNTI1tFbwsyx1ej&#xA;SBmLVpXFUn8z/pTUfy70JJm1DWoJYNSSa3tZA93NcoHSzleK3YNPFC/2ljrQ8SVoMUs6/LddWlOs&#xA;6hdQXtnp99cQPp9pqPJZ19O1jimcRP8AHDG8ifCjb7E0FcUJbe/mLYDUdY0Xy9YJH5h0pSI0nh5R&#xA;yLHLFDxZbUvPEshlpGzoBT4j8NKqsY8/a7eeavI15dXXluCS502SBR693d2iRC75RyToZre1BdSo&#xA;VAC1OVe3FlLf5c+YIfJn5cre2mlre6SdUuFujptw9/JDbRxBfWmnZY0Zk9IJ9lEKcSPdVZ+YuujS&#xA;/P8Ae3AmGlMlnz9a3vZ7e8vBDZzXEbKkjPZtGJIvRUNC55nqtd1U+/Jaz0m7uPNWv3MaS+bJtdv4&#xA;NUnmX/SYIoZTHaW/xDmkYtlQqOhrihLr+w0vT/zW8yadoEcUMN75Xkv9esYY1eAX8dwi2krxf3az&#xA;yQtJ1G9AxB7qrmTTJ/y28t2Vz5b0+/luBMbP17xba1tOMh/fC7lZrlGYMGpEC/UbUxSnHkHTvO2m&#xA;ajawyeYofMmhTrcfXkRhL9QkHFrdIriSWW5mDbr+8r0rt3VS6ycan5x8y6JeXJkur21mmeH1Jopb&#xA;ePhEoga5t7mSFVjLAHjEDvvWp5KpSLy2m/LXzRfXC2/1e4sLNReQ3sd/K0azSwejLJfTXMPBZEdg&#xA;A3AeoyryZSzKsZg17U5Py5SOQ6XbWr6iki3ukRNc28yrE8l6k9seSc7eCIOyBfTcFVTo2Ks386XU&#xA;f+PI/wBDLptrr0XouzazeJDaXa8UIK2rxyyeoifCssPFhQBqjbFVLzNZfllrkHmbzw1xqvl+68vS&#xA;S2Gs69o1xLYS3bWSqHjRo243AV/3Ss615CnQDFC/8sZfKMNnrXljT9A1LyvreoWB1K4l1t63V5BK&#xA;piF090skz/unejKSChbYbnFU+1aF9F8paSnmDQ9N16W3DrcSySWVtawsxqvpm7ES/ENtgCaVOKt/&#xA;lNbWgfzBqFlbafp1pqF5HLFpem3EF0sPCBY2aR7b90rSspbivT5k4qxXS9U1PWPNOs6bZRWg8xRW&#xA;d0PRnsRa84priKVorxknuJYuQkdYyAK/bPLbFKKb8rPMMX5d+ZNEhs4V1TVLW2tbRm1KS9HCGR3E&#xA;dZrS1WFYzK7LTmSWPxA0OKo2C5Hl/wAqwWnnXy/faxcPdqLWG5kTXTylpElLh4rdEauwQrXfYmpo&#xA;qhvzKubyeDVdBsyF8s21vDFqkj6TDdW2lI0QKvH/AKTbSco46SUWCQICPs4qhJvys8+3EUnk9rrT&#xA;pPIF5rLazd34aX6/LbSXX142ZhC+lUz7eoGpx7dsUMo1Xyzqtx5613zNqi20eh2vl+TSNOjeQ0nF&#xA;wwuLuS4I4mJFMSIKHpU1xViMtsbbyh5F1qHRbHUdN07620+n397BbwQPcn92A918PqxMCoUhiu4q&#xA;T8WKXoH5ea5Dq1ldyRaTY6SIpFUx2F3a3qvVa8na1AVT7NihXPle4tvMN75jimhNx9WnitrWOKSN&#xA;WaQo4a5Yyy+oymIBSiJQFuvZVK/y61vzpqOgz3nmaNrdBbRvBdn6qjSuxmkkkiETyxeksTQhC53I&#xA;NfEqsE1m61O38n6frN/qUk1rds8scl9danBKY7lAwiNvBF8Selx5Ell5VC7MFxSmX5k3U0et68sO&#xA;m6iYUsoXv0tJjaWl9YpE5m9edopk5nl9XiWGkrHqeNKKvR/NhdPKl7HbwzmR7cxxQ2vNZhVeiNGr&#xA;8GAGxPw167YoSnRLptH/ACyWeeJK2dvN6iXbu6S8ZHBZiIg9JftBRFtXjx7YqxHX7uBtA8p+bZNN&#xA;0WbTrJ7s3ltPPHZWIecemjwmdSGlBj+H4f5qdRilnvkq8a5trstpFnpDRSiN4rG4huQW4B/3hhSP&#xA;gwV1+Ft6EHFCR6h+ZNre6hr3ly3iis7zTYpWuLnUaNbLCjJGzyxpyYLIJG9MN9ungcVY9+T+nS2u&#xA;j67ZyxafZzJa25mn0w2YkldnupPVlltIEiVSrKiIylkUElRyFVJSO4upIvI8NhdXEsCxamiQnRLW&#xA;VEa3uoY1hj5IYYlm4zIyxlvi+H4eoVV6lofm3y1Gi+XLzW4r3WNJtFTVppaqrPAIop3eRwI+XqSr&#xA;zXlUFt8UI7ztDLN5W1FEhW5UxN6tq6lllSm6H95DQH9oluldjirH/K89ifyhjmSOCytms7gxrJIp&#xA;hV2kk4sZLj1FALkH4xt3HbFWKxeVde1/8uNEn022t725tINStUtb24EgZL5WiE8c6x8RLAdgGTpy&#xA;HL9oqWceQPL2s6c+ranrENvZ3mrywSGxtXMqxrb26QKXlKoHkfhVuKgdOvXFCQaYBfefNesaGdPq&#xA;99C8L38Vygb1IXCi1IcIv74EepuGLKRwEeKVb8rdYi9TUbCXUpLq+hjj9XTXjiQRywBllMEkUk1u&#xA;4KNCrKszcWFXoXxVuaLWvN2gWj6JpcGk2tpeSk2F7I0McwCurF4YoX29STkK0+IchUULKsG85W8l&#xA;tr2qaTNqNtpWhX6atZ/WNctby3EX6auYJ7qS3uVRrS4Akty8PKSMjlvXjir2bzRoqap5Uv8AR2ux&#xA;aJc2xt/rso58KinNhyjqfkwPgQcUK02n3C+X5rFrxopmhkjN8nqM6cgfjX1JJZOSg7Vc7/diry3X&#xA;PNXmPy95Wt9Lsb+HS7aFb9bHzIwiuEuvqcLSRQoknwQzSSB0ZZAacCF5V2Us48h+Zr3W7vXEkuYb&#xA;6ysriCOyvLcAKfUtY5JYWZaozxSMakeNNumKGE+WbvSZvPvmQyaZLbXU8OoBZ53ST01j9I3USwia&#xA;W1LepMpcqBXoxrzJUpr+Ukts3lNbyS5tpb2OygUn9ISXrQPKp5K8DRRiy5uBWOOoNKfsjFSx1H8x&#xA;2Xk22hvdVj0e81LWKyXNqRZBgkXqTG5me4mWL1Fi4xmM0+yWUliFVa88+btQvx5j8v3OvHT9Ee4f&#xA;TrrUNQ0aSaCDkwqsF/aSPb8+LfD6yKynurYq9H1u/wBD13yDqUlhexatpzWrxyXFvMjq4VRzVpFj&#xA;uVB4/arGfcYoQ3lR0k/K2B57l5IXsp2kubhFBERLk1HHg4RNlbhxcANShpirBRrOo2VhoWm2kWi6&#xA;p5RtEuba5Op6lDaJcTKEZUmt7i2Z4XhZtkCsdxy47YpZ1+WlxfXEGpyzT6StiZ1GnaTos0dzb2cQ&#xA;jHJWlSOGryPVz8OKGP8AlnWdFi/M3zPLMIDfKLh5L2IlJWtrQRK0TQrAvqek9fjaQknpUYpZJoPn&#xA;fQvOmi3y2kUsVLQTT21xQusVw08cXP6tI7AuLZm4q3LiR44oeU3CTT/ltG0Ei6hc3N7JNZ3kdhaX&#xA;zNFwjWGKSdRNBEx9Tb1mDgUUmg3UpnrupyWsPmDy0uq2um+XPME91Ib/AFizu41iN+5a5ktLuPlZ&#xA;zoXdpIeUilSd6gYq9c1TR7dvL97p1vc/oz6zE6vfx0WRWKUaYsOFX4rUtihA2cDWHkmaNb0axFHB&#xA;MYLpFDhomDEbeoQ6oDSgb7IoN8VeXsP0H5O0/UbvWLWK1v8A17uLT7fRI7+TkqmS5l5epUrGiVaR&#xA;uICgDbZcUs7/ACs1Bbq11OPm7TWs6RzRyaWukujNGHAMQZudVYMGPY4oR9v5Qg0abUdcOo3FxfvB&#xA;c8riWK1BAkb1AXEMMLTenxAQSMQBsKYqx38ko9JuPK8hhW053sFvLqMNrPZS1llRuZljsooFiZvB&#xA;q+HY4pKe6t+VPk3VNFi0i4guPq9v6f1eb61cPPGsX2EWaV5H4AVAWtBU064oQGlflt5i02x07SY/&#xA;N91Nolk0DS2kttAJmS3cSelHcRek6RuV4uHD1Sq13xVmmpaXp+p2rWt/bpcwN+w4rQ0I5KeqsATR&#xA;huMVQZtNP8veWZoLCBYrPT7aV44aGQfCrO3LkwZyxqWq1WPfFWOw+X088eWtPvtbmeK8ez1CyuVt&#xA;VMUZW+RraZeMoZ6LxBQ7VIr3piqa+T/Kl/oj6ldanq8utanqksck91JEkCqkMYijRIo6qoAFT4k4&#xA;qmut2gutKuYisjngzJHDPLbMzKKqvqwsjqGIod8VYL+Tra4Rqv6Vt4oSVtmiaGW6kRw/rMGQ3V3e&#xA;lozGUZZEChiSNyuyl6Rih2KuxVLvMhmHl7U/RiaeX6rMI4UUOzMYyAAjVDfKm/gcVSv8to1j8jaQ&#xA;oikh/dEskpUsWMjFmqqorK7VZSBQgg1PXFWS4qp3FvFcW8tvKOUUyNHIASKqwodxv0OKpD5S8lWX&#xA;ls3Dw397qMs8VvbetfyJI0dvZh1ghT00iUKnqNuQWJNSTirIsVdirsVQOvxyy6HqEUULXMkltKiW&#xA;6bM5ZCAorJB1r/vxf9YdcVQXkmwvtP8AK2n2d9EYbuFGEsR41Ul2IHwSTL0PZz9HTFU7xV//2Q==</xmpGImg:image>
               </rdf:li>
            </rdf:Alt>
         </xmp:Thumbnails>
         <xmpTPg:MaxPageSize rdf:parseType="Resource">
            <stDim:w>2.680556</stDim:w>
            <stDim:h>7.902778</stDim:h>
            <stDim:unit>Inches</stDim:unit>
         </xmpTPg:MaxPageSize>
         <xmpTPg:NPages>1</xmpTPg:NPages>
         <xmpTPg:HasVisibleTransparency>False</xmpTPg:HasVisibleTransparency>
         <xmpTPg:HasVisibleOverprint>False</xmpTPg:HasVisibleOverprint>
         <xmpTPg:PlateNames>
            <rdf:Seq>
               <rdf:li>Cyan</rdf:li>
               <rdf:li>Magenta</rdf:li>
               <rdf:li>Yellow</rdf:li>
               <rdf:li>Black</rdf:li>
            </rdf:Seq>
         </xmpTPg:PlateNames>
         <xmpTPg:SwatchGroups>
            <rdf:Seq>
               <rdf:li rdf:parseType="Resource">
                  <xmpG:groupName>Groupe de nuances par défaut</xmpG:groupName>
                  <xmpG:groupType>0</xmpG:groupType>
               </rdf:li>
            </rdf:Seq>
         </xmpTPg:SwatchGroups>
         <dc:format>image/svg+xml</dc:format>
         <xmpMM:DerivedFrom rdf:parseType="Resource">
            <stRef:instanceID>xmp.iid:8e45df68-f7a2-4ed0-ae00-3475f48a33f5</stRef:instanceID>
            <stRef:documentID>xmp.did:8e45df68-f7a2-4ed0-ae00-3475f48a33f5</stRef:documentID>
            <stRef:originalDocumentID>xmp.did:caea9787-507c-434b-98db-4fb1cb4b9110</stRef:originalDocumentID>
         </xmpMM:DerivedFrom>
         <xmpMM:DocumentID>xmp.did:15c1b8a0-9db1-4790-89ba-91e5760183e5</xmpMM:DocumentID>
         <xmpMM:InstanceID>xmp.iid:15c1b8a0-9db1-4790-89ba-91e5760183e5</xmpMM:InstanceID>
         <xmpMM:OriginalDocumentID>xmp.did:caea9787-507c-434b-98db-4fb1cb4b9110</xmpMM:OriginalDocumentID>
         <xmpMM:History>
            <rdf:Seq>
               <rdf:li rdf:parseType="Resource">
                  <stEvt:action>saved</stEvt:action>
                  <stEvt:instanceID>xmp.iid:caea9787-507c-434b-98db-4fb1cb4b9110</stEvt:instanceID>
                  <stEvt:when>2015-11-07T21:23:12-05:00</stEvt:when>
                  <stEvt:softwareAgent>Adobe Illustrator CC 2014 (Macintosh)</stEvt:softwareAgent>
                  <stEvt:changed>/</stEvt:changed>
               </rdf:li>
               <rdf:li rdf:parseType="Resource">
                  <stEvt:action>saved</stEvt:action>
                  <stEvt:instanceID>xmp.iid:15c1b8a0-9db1-4790-89ba-91e5760183e5</stEvt:instanceID>
                  <stEvt:when>2015-11-07T21:32:52-05:00</stEvt:when>
                  <stEvt:softwareAgent>Adobe Illustrator CC 2014 (Macintosh)</stEvt:softwareAgent>
                  <stEvt:changed>/</stEvt:changed>
               </rdf:li>
            </rdf:Seq>
         </xmpMM:History>
      </rdf:Description>
   </rdf:RDF>
</x:xmpmeta>
                                                                                                    
                                                                                                    
                                                                                                    
                                                                                                    
                                                                                                    
                                                                                                    
                                                                                                    
                                                                                                    
                                                                                                    
                                                                                                    
                                                                                                    
                                                                                                    
                                                                                                    
                                                                                                    
                                                                                                    
                                                                                                    
                                                                                                    
                                                                                                    
                                                                                                    
                                                                                                    
                           
<?xpacket end="w"?>
	</metadata>
<g>
	<path d="M58.2,597.9c1.2-5.3,3.1-7.7,6.8-7.7c4.1,0,6.8,3.4,6.8,8.1c0,3.8-1.3,6.9-3.8,9.7l-2-1.7c2.2-2.5,3.4-4.9,3.4-8.1
		c0-3.2-1.7-5.3-4.1-5.3c-2.2,0-3.5,1.2-4.5,6.2c-1.2,5.5-3,8-6.9,8c-3.8,0-6.5-3.3-6.5-7.8c0-3.5,1-5.9,2.9-8.3l2.1,1.6
		c-1.8,2.2-2.6,4.4-2.6,6.9c0,3.1,1.7,5.1,3.9,5.1C55.9,604.3,57.1,603.1,58.2,597.9z"/>
	<path d="M71.8,573.7c0,7.2-5.7,12.1-12.2,12.1c-6.6,0-12.3-4.9-12.3-12.1c0-7.2,5.7-12.1,12.2-12.1S71.8,566.4,71.8,573.7z
		 M49.7,573.7c0,5.4,4.3,9.3,9.8,9.3c5.4,0,9.8-3.9,9.8-9.4s-4.3-9.3-9.8-9.3S49.7,568.2,49.7,573.7z"/>
	<path d="M61.3,536.4c6.9,0,10.5,4,10.5,9.9c0,5.9-3.6,9.9-10.3,9.9H47.7v-2.7h13.6c5.1,0,8-2.7,8-7.3c0-4.4-2.6-7.2-7.8-7.2H47.7
		v-2.7L61.3,536.4L61.3,536.4z"/>
	<path d="M47.6,512.2v-2.9l23.9,10.2v2.4l-23.9,10.2v-3l20.5-8.4L47.6,512.2z"/>
	<path d="M50.1,487.5V502h8.1v-13h2.4v13H69v-14.7h2.4v17.3H47.6v-17.2H50.1z"/>
	<path d="M47.6,464.5v-2.6h23.7v2.1l-19.5,15.3h19.5v2.6H47.6v-2.5l19-15H47.6z"/>
	<path d="M47.6,452.2h23.7v2.7H47.6L47.6,452.2L47.6,452.2z"/>
	<path d="M71.4,428.9l-9.2,6.9v6.8h9.2v2.7H47.6v-10.2c0-5.2,2.8-8.6,7.1-8.6c4,0,6.3,2.7,7,6.4l9.7-7.3V428.9z M50.1,435.3v7.3h9.6
		v-7.3c0-3.6-1.8-6.1-4.9-6.1C51.9,429.2,50.1,431.4,50.1,435.3z"/>
</g>
<path fill="#231F20" d="M28.9,694.9c0-0.9-0.4-1.5-0.9-2l0.5-0.6c0.7,0.6,1.2,1.4,1.2,2.7c0,1.8-1.4,3.2-3.4,3.2
	c-1.9,0-3.4-1.3-3.4-3.1c0-1.9,1.5-3,3.4-3c0.1,0,0.2,0,0.3,0l0,5.1C28.1,697,28.9,696,28.9,694.9z M26,693
	c-1.2,0.1-2.2,0.8-2.2,2.1c0,1.1,0.9,2,2.2,2.1L26,693z M22.2,695.6l-1.8-1.2l0.5-1l1.3,1.4V695.6z"/>
<path fill="#231F20" d="M27.7,689.4c0.8,0,1.1-0.4,1.1-1.1c0-0.3-0.1-0.6-0.2-0.9l0.8,0c0.2,0.3,0.3,0.7,0.3,1.2
	c0,1-0.5,1.8-1.8,1.8l-3.9,0v0.9h-0.8v-0.9l-1.9,0v-1l1.9,0v-2l0.8,0v2L27.7,689.4L27.7,689.4z"/>
<path fill="#231F20" d="M24.4,685.6l-0.8,0.3c-0.3-0.7-0.5-1.4-0.5-2.3c0-1.8,0.9-2.7,2.6-2.7h3.9v0.9h-1c0.6,0.4,1.1,1.2,1.1,2.3
	c0,1.2-0.7,2.4-2,2.4c-1.4,0-2.1-1.1-2.1-2.8c0-0.8,0.1-1.4,0.3-2l-0.2,0c-1.2,0-1.8,0.7-1.8,1.9C23.9,684.4,24.1,685,24.4,685.6z
	 M27.6,685.5c0.8,0,1.3-0.7,1.3-1.6c0-1.2-0.7-2.2-1.7-2.2l-0.6,0c-0.1,0.5-0.3,1.1-0.3,1.9C26.3,684.8,26.8,685.5,27.6,685.5z"/>
<path fill="#231F20" d="M21.7,679h-1.1v-1.1h1.1V679z M29.6,679l-6.4,0v-1l6.4,0V679z"/>
<path fill="#231F20" d="M29.6,675.1v1l-6.4,0v-1l1.1,0c-0.7-0.4-1.3-1.1-1.3-2.2c0-1.6,1-2.5,2.6-2.5h4l0,1h-3.8
	c-1.2,0-1.9,0.6-1.9,1.8c0,1.1,0.8,1.9,2,1.9L29.6,675.1z"/>
<path fill="#231F20" d="M28.9,665.9c0-0.9-0.4-1.5-0.9-2l0.5-0.6c0.7,0.6,1.2,1.4,1.2,2.7c0,1.8-1.4,3.2-3.4,3.2
	c-1.9,0-3.4-1.3-3.4-3.1c0-1.9,1.5-3,3.4-3c0.1,0,0.2,0,0.3,0v5.1C28.1,668,28.9,667,28.9,665.9z M26,664c-1.2,0.1-2.2,0.8-2.2,2.1
	c0,1.1,0.9,2,2.2,2.1V664z"/>
<path fill="#231F20" d="M21.7,654.8h-1.1l0-1.1h1.1L21.7,654.8z M29.6,654.7l-6.4,0v-1h6.4V654.7z"/>
<path fill="#231F20" d="M29.6,650.9v1h-6.4v-1h1.1c-0.7-0.4-1.3-1.1-1.3-2.2c0-1.6,1-2.5,2.6-2.5h4v1h-3.8c-1.2,0-1.9,0.6-1.9,1.8
	c0,1.1,0.8,1.9,2,1.9H29.6L29.6,650.9z"/>
<path fill="#231F20" d="M28.9,641.7c0-0.9-0.4-1.5-0.9-2l0.5-0.6c0.7,0.6,1.2,1.4,1.2,2.7c0,1.8-1.4,3.2-3.4,3.2
	c-1.9,0-3.4-1.3-3.4-3.1c0-1.9,1.5-3,3.4-3c0.1,0,0.2,0,0.3,0l0,5.1C28.1,643.8,28.9,642.8,28.9,641.7z M26,639.8
	c-1.2,0.1-2.2,0.8-2.2,2.1c0,1.1,0.9,2,2.2,2.1V639.8z M22.2,642.4l-1.8-1.2l0.5-1l1.3,1.4V642.4z"/>
<path fill="#231F20" d="M31.6,634.6c0,1.1-0.3,2.1-0.9,2.9l-0.7-0.4c0.5-0.7,0.8-1.6,0.8-2.5c0-1.4-0.8-2.3-2.3-2.3l-0.8,0
	c0.7,0.6,1.4,1.3,1.4,2.5c0,1.5-1.1,3-3,3c-1.9,0-3-1.5-3-3c0-1.2,0.6-2,1.3-2.5l-1.2,0v-1h5.3C30.5,631.3,31.6,632.6,31.6,634.6z
	 M23.8,634.6c0,1.2,0.8,2.2,2.2,2.2c1.3,0,2.2-1,2.2-2.2c0-1.2-0.9-2.4-2.2-2.4C24.7,632.2,23.8,633.4,23.8,634.6z"/>
<path fill="#231F20" d="M24.4,629.1l-0.8,0.3c-0.3-0.7-0.5-1.4-0.5-2.3c0-1.8,0.9-2.7,2.6-2.7l3.9,0v0.9h-1c0.6,0.5,1.1,1.2,1.1,2.3
	c0,1.2-0.7,2.4-2,2.4c-1.4,0-2.1-1.1-2.1-2.8c0-0.8,0.1-1.4,0.3-2l-0.2,0c-1.2,0-1.8,0.7-1.8,1.9C23.9,627.9,24.1,628.5,24.4,629.1z
	 M27.6,629c0.8,0,1.3-0.8,1.3-1.6c0-1.2-0.7-2.1-1.7-2.2h-0.6c-0.1,0.5-0.3,1.1-0.3,1.9C26.3,628.3,26.8,629,27.6,629z"/>
<path fill="#231F20" d="M29.6,622.5h-9.1v-1h9.1V622.5z"/>
<path fill="#231F20" d="M21.7,619.6h-1.1v-1.1h1.1V619.6z M29.6,619.6h-6.4v-1h6.4V619.6z"/>
<path fill="#231F20" d="M27.7,615.4c0.8,0,1.1-0.4,1.1-1.1c0-0.3-0.1-0.6-0.2-0.9h0.8c0.2,0.3,0.3,0.7,0.3,1.2c0,1-0.5,1.8-1.8,1.8
	l-3.9,0v0.9h-0.8v-0.9l-1.9,0v-1l1.9,0v-2l0.8,0v2L27.7,615.4L27.7,615.4z"/>
<path fill="#231F20" d="M28.9,609.1c0-0.9-0.4-1.5-0.9-2l0.5-0.6c0.7,0.6,1.2,1.4,1.2,2.6c0,1.8-1.4,3.2-3.4,3.2
	c-1.9,0-3.4-1.3-3.4-3.1c0-1.9,1.5-3,3.4-3c0.1,0,0.2,0,0.3,0v5.1C28.1,611.3,28.9,610.3,28.9,609.1z M26,607.2
	c-1.2,0.1-2.2,0.8-2.2,2.1c0,1.1,0.9,2,2.2,2.1L26,607.2z M22.2,609.9l-1.8-1.2l0.5-1l1.3,1.4V609.9z"/>
<path fill="#231F20" d="M29.7,594.6c0,1.2-0.6,2-1.4,2.5h3.2v1h-8.4v-1h1.3c-0.8-0.5-1.4-1.3-1.4-2.5c0-1.5,1.2-3.1,3.3-3.1
	C28.5,591.6,29.7,593.1,29.7,594.6z M23.9,594.8c0,1.2,1,2.3,2.5,2.3c1.5,0,2.5-1.1,2.5-2.3c0-1.2-0.9-2.3-2.5-2.3
	C24.8,592.6,23.9,593.6,23.9,594.8z"/>
<path fill="#231F20" d="M28.9,587.3c0-0.9-0.4-1.5-0.9-2l0.5-0.6c0.7,0.6,1.2,1.4,1.2,2.7c0,1.8-1.4,3.2-3.4,3.2
	c-1.9,0-3.4-1.3-3.4-3.1c0-1.9,1.5-3,3.4-3c0.1,0,0.2,0,0.3,0v5.1C28.1,589.4,28.9,588.4,28.9,587.3z M26,585.4
	c-1.2,0.1-2.2,0.8-2.2,2.1c0,1.1,0.9,2,2.2,2.1V585.4z"/>
<path fill="#231F20" d="M23.1,578.5v-0.9l6.4,0v0.9l-1.1,0c0.7,0.4,1.3,1.1,1.3,2.2c0,1.6-1,2.5-2.6,2.5l-4,0v-1l3.8,0
	c1.2,0,1.9-0.6,1.9-1.8c0-1.1-0.8-1.9-2-1.9L23.1,578.5z"/>
<path fill="#231F20" d="M29.6,574.7v1h-6.4v-1l1.7,0c-1.1-0.5-1.8-1.4-1.8-2.6h1v0.1c0,1.4,1,2.6,2.9,2.6H29.6z"/>
<path fill="#231F20" d="M23,556.8c0-1.5,1-2.4,2.6-2.4h4v1l-3.8,0c-1.2,0-1.9,0.6-1.9,1.7c0,1,0.7,1.8,2,1.8h3.7v0.9h-3.8
	c-1.2,0-1.9,0.6-1.9,1.7c0,1,0.8,1.8,2,1.8l3.7,0v1h-6.4v-1h1.1c-0.6-0.4-1.2-1-1.2-2.1c0-1,0.6-1.7,1.3-2.1
	C23.6,558.6,23,557.9,23,556.8z"/>
<path fill="#231F20" d="M24.4,552.2l-0.8,0.3c-0.3-0.7-0.5-1.4-0.5-2.3c0-1.8,0.9-2.7,2.6-2.7l3.9,0v0.9l-1,0
	c0.6,0.4,1.1,1.2,1.1,2.3c0,1.2-0.7,2.4-2,2.4c-1.4,0-2.1-1.1-2.1-2.7c0-0.8,0.1-1.4,0.3-2h-0.2c-1.2,0-1.8,0.7-1.8,1.9
	C23.9,551,24.1,551.6,24.4,552.2z M27.6,552.1c0.8,0,1.3-0.7,1.3-1.6c0-1.2-0.7-2.2-1.7-2.2h-0.6c-0.1,0.5-0.3,1.1-0.3,1.9
	C26.3,551.4,26.8,552.1,27.6,552.1z"/>
<path fill="#231F20" d="M29.6,545.6h-9.1v-1l9.1,0V545.6z"/>
<path fill="#231F20" d="M24.4,542.4l-0.8,0.3c-0.3-0.7-0.5-1.4-0.5-2.3c0-1.8,0.9-2.7,2.6-2.7l3.9,0v0.9l-1,0
	c0.6,0.4,1.1,1.2,1.1,2.3c0,1.2-0.7,2.4-2,2.4c-1.4,0-2.1-1.1-2.1-2.8c0-0.8,0.1-1.4,0.3-2h-0.2c-1.2,0-1.8,0.7-1.8,1.9
	C23.9,541.2,24.1,541.8,24.4,542.4z M27.6,542.3c0.8,0,1.3-0.7,1.3-1.6c0-1.2-0.7-2.1-1.7-2.1h-0.6c-0.1,0.5-0.3,1.1-0.3,1.9
	C26.3,541.6,26.8,542.3,27.6,542.3z"/>
<path fill="#231F20" d="M21.7,535.8h-1.1v-1.1h1.1V535.8z M29.6,535.8l-6.4,0v-1l6.4,0V535.8z"/>
<path fill="#231F20" d="M29.7,530.8c0,0.9-0.4,1.9-0.9,2.7l-0.7-0.5c0.5-0.7,0.8-1.5,0.8-2.2c0-0.8-0.4-1.3-1-1.3h0
	c-0.6,0-0.9,0.8-1.1,1.6c-0.3,1-0.6,2.1-1.8,2.1h0c-1.1,0-1.8-0.9-1.8-2.2c0-0.8,0.3-1.7,0.7-2.3l0.7,0.4c-0.4,0.6-0.6,1.3-0.6,1.9
	c0,0.8,0.4,1.2,0.9,1.2h0c0.6,0,0.8-0.8,1.1-1.7c0.3-1,0.7-2.1,1.8-2.1h0C29,528.5,29.7,529.5,29.7,530.8z"/>
<path fill="#231F20" d="M28.9,524.2c0-0.9-0.4-1.5-0.9-2l0.5-0.6c0.7,0.7,1.2,1.4,1.2,2.7c0,1.8-1.4,3.2-3.4,3.2
	c-1.9,0-3.4-1.3-3.4-3.1c0-1.9,1.5-3,3.4-3c0.1,0,0.2,0,0.3,0v5.1C28.1,526.3,28.9,525.3,28.9,524.2z M26,522.3
	c-1.2,0.1-2.2,0.8-2.2,2.1c0,1.1,0.9,2,2.2,2.1V522.3z"/>
<path fill="#231F20" d="M64.5,694.2c0-0.8-0.3-1.4-0.8-1.9l0.5-0.5c0.7,0.6,1.1,1.3,1.1,2.4c0,1.6-1.2,3-3.1,3
	c-1.7,0-3.1-1.2-3.1-2.8c0-1.8,1.4-2.8,3.1-2.8c0.1,0,0.2,0,0.3,0v4.7C63.8,696.2,64.5,695.3,64.5,694.2z M61.8,692.5
	c-1.1,0.1-2,0.7-2,1.9c0,1,0.9,1.8,2,1.9V692.5z M58.3,694.9l-1.7-1.1l0.4-0.9l1.2,1.3V694.9z"/>
<path fill="#231F20" d="M65.2,680.9c0,1.1-0.6,1.8-1.3,2.3h3v0.9h-7.7v-0.9h1.2c-0.7-0.5-1.3-1.2-1.3-2.3c0-1.4,1.1-2.8,3.1-2.8
	C64.1,678.1,65.2,679.5,65.2,680.9z M59.9,681.1c0,1.1,0.9,2.1,2.3,2.1c1.4,0,2.3-1,2.3-2.1c0-1.1-0.8-2.1-2.3-2.1
	C60.7,679,59.9,679.9,59.9,681.1z"/>
<path fill="#231F20" d="M64.5,674.1c0-0.8-0.3-1.4-0.8-1.9l0.5-0.6c0.7,0.6,1.1,1.3,1.1,2.4c0,1.6-1.2,3-3.1,3
	c-1.7,0-3.1-1.2-3.1-2.8c0-1.8,1.4-2.8,3.1-2.8c0.1,0,0.2,0,0.3,0v4.7C63.8,676.1,64.5,675.2,64.5,674.1z M61.8,672.4
	c-1.1,0.1-2,0.7-2,1.9c0,1,0.9,1.8,2,1.9V672.4z"/>
<path fill="#231F20" d="M59.2,666v-0.9h5.9v0.9h-1c0.6,0.4,1.2,1,1.2,2c0,1.4-1,2.3-2.4,2.3h-3.7v-0.9h3.5c1.1,0,1.8-0.6,1.8-1.6
	c0-1-0.7-1.8-1.9-1.8H59.2z"/>
<path fill="#231F20" d="M65.1,662.6l0,0.9h-5.9v-0.9h1.5c-1-0.4-1.7-1.3-1.6-2.4h1v0.1c0,1.3,0.9,2.3,2.7,2.3H65.1L65.1,662.6z"/>
<path fill="#231F20" d="M59.1,646.1c0-1.4,0.9-2.2,2.4-2.2h3.7v0.9h-3.5c-1.1,0-1.8,0.6-1.8,1.5c0,0.9,0.7,1.6,1.8,1.6h3.4v0.9h-3.5
	c-1.1,0-1.8,0.6-1.8,1.5c0,0.9,0.8,1.6,1.9,1.6h3.4v0.9h-5.9v-0.9h1c-0.6-0.4-1.1-0.9-1.1-1.9c0-1,0.5-1.6,1.2-1.9
	C59.6,647.7,59.1,647.1,59.1,646.1z"/>
<path fill="#231F20" d="M60.3,641.9l-0.7,0.3c-0.3-0.6-0.5-1.3-0.5-2.1c0-1.6,0.8-2.5,2.4-2.5h3.6l0,0.8h-0.9c0.5,0.4,1,1.1,1,2.1
	c0,1.1-0.6,2.2-1.9,2.2c-1.3,0-1.9-1-1.9-2.5c0-0.8,0.1-1.3,0.3-1.8h-0.2c-1.1,0-1.6,0.7-1.6,1.8C59.9,640.8,60.1,641.3,60.3,641.9z
	 M63.3,641.8c0.8,0,1.2-0.7,1.2-1.5c0-1.1-0.7-2-1.6-2h-0.6c-0.1,0.4-0.2,1-0.3,1.7C62.1,641.2,62.6,641.8,63.3,641.8z"/>
<path fill="#231F20" d="M65.1,635.8h-8.4v-0.9h8.4V635.8z"/>
<path fill="#231F20" d="M60.3,632.8l-0.7,0.3c-0.3-0.7-0.5-1.3-0.5-2.1c0-1.6,0.8-2.5,2.4-2.5h3.6l0,0.8h-0.9c0.5,0.4,1,1.1,1,2.1
	c0,1.1-0.6,2.2-1.9,2.2c-1.3,0-1.9-1-1.9-2.5c0-0.8,0.1-1.3,0.3-1.8h-0.2c-1.1,0-1.6,0.7-1.6,1.8C59.9,631.7,60.1,632.3,60.3,632.8z
	 M63.3,632.7c0.8,0,1.2-0.7,1.2-1.5c0-1.1-0.7-2-1.6-2h-0.6c-0.1,0.4-0.3,1-0.3,1.7C62.1,632.1,62.6,632.7,63.3,632.7z"/>
<path fill="#231F20" d="M57.9,626.8h-1v-1h1V626.8z M65.1,626.7h-5.9v-0.9h5.9V626.7z"/>
<path fill="#231F20" d="M65.2,622.1c0,0.8-0.3,1.8-0.9,2.4l-0.6-0.4c0.5-0.6,0.8-1.4,0.8-2.1c0-0.7-0.4-1.2-0.9-1.2h0
	c-0.6,0-0.8,0.7-1,1.5c-0.3,0.9-0.6,2-1.7,2h0c-1,0-1.7-0.8-1.7-2c0-0.7,0.3-1.5,0.7-2.1l0.7,0.4c-0.4,0.5-0.6,1.2-0.6,1.8
	c0,0.7,0.4,1.1,0.9,1.1h0c0.6,0,0.8-0.7,1-1.5c0.3-0.9,0.6-1.9,1.7-1.9h0C64.6,620,65.2,621,65.2,622.1z"/>
<path fill="#231F20" d="M64.5,616.1c0-0.8-0.3-1.4-0.8-1.9l0.5-0.5c0.7,0.6,1.1,1.3,1.1,2.4c0,1.6-1.2,3-3.1,3
	c-1.7,0-3.1-1.2-3.1-2.8c0-1.8,1.4-2.8,3.1-2.8c0.1,0,0.2,0,0.3,0v4.7C63.8,618,64.5,617.1,64.5,616.1z M61.8,614.3
	c-1.1,0.1-2,0.7-2,1.9c0,1,0.9,1.8,2,1.9V614.3z"/>
<g>
	<path fill="#231F20" d="M79.9,736.2c0.5,0,0.7-0.3,0.7-0.7c0-0.2,0-0.4-0.2-0.6H81c0.1,0.2,0.2,0.5,0.2,0.8c0,0.7-0.4,1.2-1.2,1.2
		h-2.7v0.6h-0.6v-0.6h-1.3v-0.7h1.3v-1.4h0.6v1.4H79.9z"/>
	<path fill="#231F20" d="M80.6,732.1c0-0.6-0.2-1-0.6-1.4l0.4-0.4c0.5,0.4,0.8,1,0.8,1.8c0,1.2-0.9,2.2-2.3,2.2
		c-1.3,0-2.3-0.9-2.3-2.1c0-1.3,1-2.1,2.3-2.1c0.1,0,0.1,0,0.2,0v3.5C80.1,733.5,80.6,732.8,80.6,732.1z M78.7,730.8
		c-0.8,0.1-1.5,0.5-1.5,1.4c0,0.8,0.6,1.4,1.5,1.4V730.8z"/>
	<path fill="#231F20" d="M81.1,728.5v0.7h-4.4v-0.7h0.8c-0.5-0.3-0.9-0.8-0.9-1.5c0-1.1,0.7-1.7,1.8-1.7h2.7v0.7l-2.6,0
		c-0.8,0-1.3,0.4-1.3,1.2c0,0.8,0.6,1.3,1.4,1.3L81.1,728.5L81.1,728.5z"/>
	<path fill="#231F20" d="M81.1,720.5h-0.9c0.5,0.4,1,0.9,1,1.7c0,1.1-0.8,2.1-2.3,2.1c-1.5,0-2.3-1.1-2.3-2.1c0-0.8,0.4-1.4,0.9-1.7
		h-2.7v-0.7h6.2L81.1,720.5L81.1,720.5z M77.2,722.1c0,0.9,0.6,1.6,1.7,1.6c1.1,0,1.7-0.7,1.7-1.6c0-0.8-0.7-1.6-1.7-1.6
		C77.9,720.5,77.2,721.3,77.2,722.1z"/>
	<path fill="#231F20" d="M81.1,718v0.7l-4.4,0l0-0.7l1.2,0c-0.7-0.3-1.3-1-1.2-1.8h0.7v0c0,1,0.7,1.8,2,1.8L81.1,718z"/>
	<path fill="#231F20" d="M80.6,713.6c0-0.6-0.2-1-0.6-1.4l0.4-0.4c0.5,0.4,0.8,1,0.8,1.8c0,1.2-0.9,2.2-2.3,2.2
		c-1.3,0-2.3-0.9-2.3-2.1c0-1.3,1-2.1,2.3-2.1c0.1,0,0.1,0,0.2,0v3.5C80.1,715.1,80.6,714.4,80.6,713.6z M78.7,712.3
		c-0.8,0.1-1.5,0.5-1.5,1.4c0,0.8,0.6,1.4,1.5,1.4V712.3z"/>
	<path fill="#231F20" d="M81.2,709.2c0,0.6-0.2,1.3-0.7,1.8l-0.5-0.3c0.4-0.5,0.6-1,0.6-1.5c0-0.5-0.3-0.9-0.7-0.9l0,0
		c-0.4,0-0.6,0.5-0.8,1.1c-0.2,0.7-0.4,1.5-1.2,1.5h0c-0.8,0-1.3-0.6-1.3-1.5c0-0.5,0.2-1.1,0.5-1.6l0.5,0.3
		c-0.3,0.4-0.4,0.9-0.4,1.3c0,0.5,0.3,0.9,0.6,0.9h0c0.4,0,0.6-0.5,0.8-1.1c0.2-0.7,0.5-1.4,1.3-1.4h0
		C80.7,707.7,81.2,708.4,81.2,709.2z"/>
	<path fill="#231F20" d="M81.2,705.3c0,0.6-0.2,1.3-0.7,1.8l-0.5-0.3c0.4-0.5,0.6-1,0.6-1.5c0-0.5-0.3-0.9-0.7-0.9h0
		c-0.4,0-0.6,0.5-0.8,1.1c-0.2,0.7-0.4,1.5-1.2,1.5l0,0c-0.8,0-1.3-0.6-1.3-1.5c0-0.5,0.2-1.1,0.5-1.6l0.5,0.3
		c-0.3,0.4-0.4,0.9-0.4,1.3c0,0.5,0.3,0.9,0.6,0.9l0,0c0.4,0,0.6-0.6,0.8-1.1c0.2-0.7,0.5-1.4,1.3-1.4h0
		C80.7,703.7,81.2,704.4,81.2,705.3z"/>
	<path fill="#231F20" d="M80.6,700.8c0-0.6-0.2-1-0.6-1.4l0.4-0.4c0.5,0.4,0.8,1,0.8,1.8c0,1.2-0.9,2.2-2.3,2.2
		c-1.3,0-2.3-0.9-2.3-2.1c0-1.3,1-2.1,2.3-2.1c0.1,0,0.1,0,0.2,0v3.5C80.1,702.2,80.6,701.5,80.6,700.8z M78.7,699.5
		c-0.8,0.1-1.5,0.5-1.5,1.4c0,0.8,0.6,1.4,1.5,1.4V699.5z"/>
	<path fill="#231F20" d="M76.7,689.9v-0.7l4.5,1.9l0,0.6l-4.5,1.9l0-0.7l3.7-1.5L76.7,689.9z"/>
	<path fill="#231F20" d="M75.7,688.3H75v-0.8h0.7V688.3z M81.1,688.3l-4.4,0v-0.7h4.4V688.3z"/>
	<path fill="#231F20" d="M80.6,684.3c0-0.6-0.2-1-0.6-1.4l0.4-0.4c0.5,0.4,0.8,1,0.8,1.8c0,1.2-0.9,2.2-2.3,2.2
		c-1.3,0-2.3-0.9-2.3-2.1c0-1.3,1-2.1,2.3-2.1c0.1,0,0.1,0,0.2,0v3.5C80.1,685.8,80.6,685.1,80.6,684.3z M78.7,683.1
		c-0.8,0.1-1.5,0.5-1.5,1.4c0,0.8,0.6,1.3,1.5,1.4L78.7,683.1z"/>
	<path fill="#231F20" d="M76.7,678.3l0-0.7l4.4,0v0.6l-0.8,0c0.5,0.3,0.9,0.7,0.9,1.5c0,1.1-0.7,1.7-1.8,1.7h-2.7v-0.7h2.6
		c0.8,0,1.3-0.4,1.3-1.2c0-0.8-0.6-1.3-1.4-1.3L76.7,678.3z"/>
	<path fill="#231F20" d="M81.1,672.6v0.8l-1.8,1.4l1.8,1.4v0.7l-2.3-1.7l-2.2,1.7V676l1.7-1.3l-1.7-1.3v-0.7l2.2,1.7L81.1,672.6z"/>
	<path fill="#231F20" d="M76.7,668.6l4.7,0c0.8,0,1.1,0.4,1.1,1.1c0,0.2,0,0.3,0,0.4h-0.5c0-0.1,0-0.2,0-0.3c0-0.3-0.2-0.5-0.6-0.5
		h-4.7L76.7,668.6L76.7,668.6z M75.7,669.3H75v-0.8h0.7V669.3z"/>
	<path fill="#231F20" d="M80.6,665.4c0-0.6-0.2-1-0.6-1.4l0.4-0.4c0.5,0.4,0.8,1,0.8,1.8c0,1.2-0.9,2.2-2.3,2.2
		c-1.3,0-2.3-0.9-2.3-2.1c0-1.3,1-2.1,2.3-2.1c0.1,0,0.1,0,0.2,0v3.5C80.1,666.8,80.6,666.1,80.6,665.4z M78.7,664.1
		c-0.8,0.1-1.5,0.5-1.5,1.4c0,0.8,0.6,1.4,1.5,1.4V664.1z"/>
	<path fill="#231F20" d="M76.7,659.3v-0.7l4.4,0v0.6l-0.8,0c0.5,0.3,0.9,0.8,0.9,1.5c0,1.1-0.7,1.7-1.8,1.7l-2.7,0v-0.7l2.6,0
		c0.8,0,1.3-0.4,1.3-1.2c0-0.8-0.6-1.3-1.4-1.3L76.7,659.3z"/>
	<path fill="#231F20" d="M75.7,652.7H75v-0.7h0.7V652.7z M81.1,652.6h-4.4V652h4.4V652.6z"/>
	<path fill="#231F20" d="M81.1,650v0.7h-4.4V650h0.8c-0.5-0.3-0.9-0.8-0.9-1.5c0-1.1,0.7-1.7,1.8-1.7h2.7v0.7h-2.6
		c-0.8,0-1.3,0.4-1.3,1.2c0,0.8,0.6,1.3,1.4,1.3L81.1,650L81.1,650z"/>
	<path fill="#231F20" d="M80.6,643.6c0-0.6-0.2-1-0.6-1.4l0.4-0.4c0.5,0.4,0.8,1,0.8,1.8c0,1.2-0.9,2.2-2.3,2.2
		c-1.3,0-2.3-0.9-2.3-2.1c0-1.3,1-2.1,2.3-2.1c0.1,0,0.1,0,0.2,0v3.5C80.1,645.1,80.6,644.4,80.6,643.6z M78.7,642.4
		c-0.8,0.1-1.5,0.5-1.5,1.4c0,0.8,0.6,1.4,1.5,1.4V642.4z M76,644.2l-1.2-0.8l0.3-0.7l0.9,1V644.2z"/>
	<path fill="#231F20" d="M82.5,638.8c0,0.7-0.2,1.4-0.6,2l-0.5-0.3c0.4-0.5,0.6-1.1,0.6-1.7c0-1-0.5-1.6-1.6-1.6h-0.5
		c0.5,0.4,0.9,0.9,0.9,1.7c0,1.1-0.8,2.1-2.1,2.1c-1.3,0-2.1-1-2.1-2.1c0-0.8,0.4-1.4,0.9-1.7h-0.8l0-0.7h3.7
		C81.8,636.5,82.5,637.4,82.5,638.8z M77.2,638.8c0,0.8,0.6,1.5,1.5,1.5c0.9,0,1.5-0.7,1.5-1.5c0-0.8-0.6-1.6-1.5-1.6
		C77.8,637.2,77.2,638,77.2,638.8z"/>
	<path fill="#231F20" d="M77.5,635l-0.5,0.2c-0.2-0.5-0.4-1-0.4-1.6c0-1.2,0.6-1.9,1.8-1.9h2.7v0.6h-0.7c0.4,0.3,0.8,0.8,0.8,1.6
		c0,0.8-0.5,1.7-1.4,1.7c-0.9,0-1.4-0.8-1.4-1.9c0-0.6,0.1-1,0.2-1.4h-0.2c-0.8,0-1.2,0.5-1.2,1.3C77.2,634.2,77.4,634.6,77.5,635z
		 M79.8,634.9c0.6,0,0.9-0.5,0.9-1.1c0-0.8-0.5-1.5-1.2-1.5l-0.4,0c-0.1,0.3-0.2,0.8-0.2,1.3C78.9,634.5,79.2,634.9,79.8,634.9z"/>
	<path fill="#231F20" d="M81.1,630.5h-6.2v-0.7h6.2V630.5z"/>
	<path fill="#231F20" d="M75.7,628.5H75v-0.8l0.7,0V628.5z M81.1,628.4h-4.4v-0.7h4.4V628.4z"/>
	<path fill="#231F20" d="M79.9,625.6c0.5,0,0.7-0.3,0.7-0.7c0-0.2,0-0.4-0.2-0.6H81c0.1,0.2,0.2,0.5,0.2,0.8c0,0.7-0.4,1.2-1.2,1.2
		h-2.7v0.6h-0.6v-0.6h-1.3v-0.7h1.3l0-1.4l0.6,0v1.4L79.9,625.6z"/>
	<path fill="#231F20" d="M80.6,621.3c0-0.6-0.2-1-0.6-1.4l0.4-0.4c0.5,0.4,0.8,1,0.8,1.8c0,1.2-0.9,2.2-2.3,2.2
		c-1.3,0-2.3-0.9-2.3-2.1c0-1.3,1-2.1,2.3-2.1c0.1,0,0.1,0,0.2,0v3.5C80.1,622.7,80.6,622.1,80.6,621.3z M78.7,620
		c-0.8,0.1-1.5,0.5-1.5,1.4c0,0.8,0.6,1.4,1.5,1.4V620z M76,621.8l-1.2-0.8l0.3-0.7l0.9,1V621.8z"/>
	<path fill="#231F20" d="M81.2,611.3c0,0.8-0.4,1.4-0.9,1.7h2.2v0.7l-5.8,0V613h0.9c-0.5-0.4-1-0.9-1-1.7c0-1.1,0.8-2.1,2.3-2.1
		C80.4,609.2,81.2,610.2,81.2,611.3z M77.2,611.4c0,0.8,0.7,1.6,1.7,1.6c1,0,1.7-0.8,1.7-1.6c0-0.9-0.6-1.6-1.7-1.6
		C77.9,609.9,77.2,610.6,77.2,611.4z"/>
	<path fill="#231F20" d="M80.6,606.2c0-0.6-0.2-1-0.6-1.4l0.4-0.4c0.5,0.4,0.8,1,0.8,1.8c0,1.2-0.9,2.2-2.3,2.2
		c-1.3,0-2.3-0.9-2.3-2.1c0-1.3,1-2.1,2.3-2.1c0.1,0,0.1,0,0.2,0v3.5C80.1,607.7,80.6,607,80.6,606.2z M78.7,605
		c-0.8,0.1-1.5,0.5-1.5,1.4c0,0.8,0.6,1.4,1.5,1.4V605z"/>
	<path fill="#231F20" d="M76.7,600.2v-0.6h4.4v0.7l-0.8,0c0.5,0.3,0.9,0.8,0.9,1.5c0,1.1-0.7,1.7-1.8,1.7l-2.7,0v-0.7h2.6
		c0.8,0,1.3-0.4,1.3-1.2c0-0.8-0.6-1.3-1.4-1.3L76.7,600.2z"/>
	<path fill="#231F20" d="M81.1,597.6v0.7h-4.4v-0.7l1.2,0c-0.7-0.3-1.3-1-1.2-1.8h0.7v0.1c0,1,0.7,1.8,2,1.8L81.1,597.6z"/>
	<path fill="#231F20" d="M80.6,588.4c0-0.6-0.2-1-0.6-1.4l0.4-0.4c0.5,0.4,0.8,1,0.8,1.8c0,1.2-0.9,2.2-2.3,2.2
		c-1.3,0-2.3-0.9-2.3-2.1c0-1.3,1-2.1,2.3-2.1c0.1,0,0.1,0,0.2,0v3.5C80.1,589.8,80.6,589.2,80.6,588.4z M78.7,587.1
		c-0.8,0.1-1.5,0.5-1.5,1.4c0,0.8,0.6,1.4,1.5,1.4V587.1z"/>
	<path fill="#231F20" d="M81.1,584.8v0.7h-4.4v-0.7h0.8c-0.5-0.3-0.9-0.8-0.9-1.5c0-1.1,0.7-1.7,1.8-1.7h2.7v0.7h-2.6
		c-0.8,0-1.3,0.4-1.3,1.2c0,0.8,0.6,1.3,1.4,1.3L81.1,584.8L81.1,584.8z"/>
	<path fill="#231F20" d="M76.7,577.3v-0.7l4.5,1.9v0.6l-4.5,1.9v-0.7l3.7-1.5L76.7,577.3z"/>
	<path fill="#231F20" d="M77.5,575.7l-0.5,0.2c-0.2-0.5-0.4-1-0.4-1.6c0-1.2,0.6-1.9,1.8-1.9h2.7v0.6h-0.7c0.4,0.3,0.8,0.8,0.8,1.6
		c0,0.8-0.5,1.7-1.4,1.7c-0.9,0-1.4-0.8-1.4-1.9c0-0.6,0.1-1,0.2-1.4h-0.2c-0.8,0-1.2,0.5-1.2,1.3C77.2,574.9,77.4,575.3,77.5,575.7
		z M79.8,575.7c0.6,0,0.9-0.5,0.9-1.1c0-0.8-0.5-1.5-1.2-1.5l-0.4,0c-0.1,0.3-0.2,0.8-0.2,1.3C78.9,575.2,79.2,575.7,79.8,575.7z"/>
	<path fill="#231F20" d="M81.1,570.6v0.7l-6.2,0v-0.7l2.6,0c-0.5-0.3-0.9-0.8-0.9-1.5c0-1.1,0.7-1.7,1.8-1.7h2.7v0.7h-2.6
		c-0.8,0-1.3,0.4-1.3,1.2c0,0.8,0.6,1.3,1.4,1.3L81.1,570.6L81.1,570.6z"/>
	<path fill="#231F20" d="M75.7,566.2H75v-0.8h0.7V566.2z M81.1,566.1l-4.4,0l0-0.7h4.4V566.1z"/>
	<path fill="#231F20" d="M81.2,562.7c0,0.6-0.2,1.3-0.7,1.8l-0.5-0.3c0.4-0.5,0.6-1,0.6-1.5c0-0.5-0.3-0.9-0.7-0.9h0
		c-0.4,0-0.6,0.5-0.8,1.1c-0.2,0.7-0.4,1.5-1.2,1.5h0c-0.8,0-1.3-0.6-1.3-1.5c0-0.5,0.2-1.1,0.5-1.6l0.5,0.3
		c-0.3,0.4-0.4,0.9-0.4,1.3c0,0.5,0.3,0.9,0.6,0.9l0,0c0.4,0,0.6-0.5,0.8-1.1c0.2-0.7,0.5-1.4,1.3-1.4h0
		C80.7,561.1,81.2,561.8,81.2,562.7z"/>
	<path fill="#231F20" d="M81.2,558.7c0,0.6-0.2,1.3-0.7,1.8l-0.5-0.3c0.4-0.5,0.6-1,0.6-1.5c0-0.5-0.3-0.9-0.7-0.9h0
		c-0.4,0-0.6,0.5-0.8,1.1c-0.2,0.7-0.4,1.5-1.2,1.5h0c-0.8,0-1.3-0.6-1.3-1.5c0-0.5,0.2-1.1,0.5-1.6l0.5,0.3
		c-0.3,0.4-0.4,0.9-0.4,1.3c0,0.5,0.3,0.9,0.6,0.9h0c0.4,0,0.6-0.5,0.8-1.1c0.2-0.7,0.5-1.4,1.3-1.4h0
		C80.7,557.2,81.2,557.9,81.2,558.7z"/>
	<path fill="#231F20" d="M77.5,555.9l-0.5,0.2c-0.2-0.5-0.4-1-0.4-1.6c0-1.2,0.6-1.9,1.8-1.9l2.7,0v0.6h-0.7
		c0.4,0.3,0.8,0.8,0.8,1.6c0,0.8-0.5,1.7-1.4,1.7c-0.9,0-1.4-0.8-1.4-1.9c0-0.6,0.1-1,0.2-1.4h-0.2c-0.8,0-1.2,0.5-1.2,1.3
		C77.2,555.1,77.4,555.5,77.5,555.9z M79.8,555.8c0.6,0,0.9-0.5,0.9-1.1c0-0.8-0.5-1.5-1.2-1.5l-0.4,0c-0.1,0.3-0.2,0.8-0.2,1.3
		C78.9,555.4,79.2,555.8,79.8,555.8z"/>
	<path fill="#231F20" d="M81.1,550.8v0.7h-4.4v-0.7l0.8,0c-0.5-0.3-0.9-0.8-0.9-1.5c0-1.1,0.7-1.7,1.8-1.7h2.7v0.7h-2.6
		c-0.8,0-1.3,0.4-1.3,1.2c0,0.8,0.6,1.3,1.4,1.3H81.1z"/>
	<path fill="#231F20" d="M79.9,545.5c0.5,0,0.7-0.3,0.7-0.7c0-0.2,0-0.4-0.2-0.6H81c0.1,0.2,0.2,0.5,0.2,0.8c0,0.7-0.4,1.2-1.2,1.2
		h-2.7v0.6h-0.6v-0.6h-1.3v-0.7h1.3l0-1.4h0.6v1.4L79.9,545.5z"/>
	<path fill="#231F20" d="M76.6,528.6c0-1,0.7-1.6,1.8-1.6l2.7,0v0.7l-2.6,0c-0.9,0-1.3,0.4-1.3,1.1c0,0.7,0.5,1.2,1.4,1.2l2.5,0v0.7
		l-2.6,0c-0.8,0-1.3,0.4-1.3,1.1c0,0.7,0.6,1.2,1.4,1.2l2.5,0v0.7h-4.4V533l0.7,0c-0.4-0.3-0.8-0.7-0.8-1.4c0-0.7,0.4-1.2,0.9-1.4
		C77,529.9,76.6,529.4,76.6,528.6z"/>
	<path fill="#231F20" d="M77.5,525.5l-0.5,0.2c-0.2-0.5-0.4-1-0.4-1.6c0-1.2,0.6-1.9,1.8-1.9h2.7v0.6h-0.7c0.4,0.3,0.8,0.8,0.8,1.6
		c0,0.8-0.5,1.7-1.4,1.7c-0.9,0-1.4-0.8-1.4-1.9c0-0.6,0.1-1,0.2-1.4h-0.2c-0.8,0-1.2,0.5-1.2,1.3C77.2,524.7,77.4,525.1,77.5,525.5
		z M79.8,525.4c0.6,0,0.9-0.5,0.9-1.1c0-0.8-0.5-1.5-1.2-1.5l-0.4,0c-0.1,0.3-0.2,0.8-0.2,1.3C78.9,525,79.2,525.4,79.8,525.4z"/>
	<path fill="#231F20" d="M81.1,521h-6.2v-0.7h6.2V521z"/>
	<path fill="#231F20" d="M77.5,518.7l-0.5,0.2c-0.2-0.5-0.4-1-0.4-1.6c0-1.2,0.6-1.9,1.8-1.9h2.7v0.6h-0.7c0.4,0.3,0.8,0.8,0.8,1.6
		c0,0.8-0.5,1.7-1.4,1.7c-0.9,0-1.4-0.8-1.4-1.9c0-0.6,0.1-1,0.2-1.4l-0.2,0c-0.8,0-1.2,0.5-1.2,1.3
		C77.2,517.9,77.4,518.3,77.5,518.7z M79.8,518.7c0.6,0,0.9-0.5,0.9-1.1c0-0.8-0.5-1.5-1.2-1.5h-0.4c-0.1,0.3-0.2,0.8-0.2,1.3
		C78.9,518.2,79.2,518.7,79.8,518.7z"/>
	<path fill="#231F20" d="M75.7,514.2H75v-0.8l0.7,0V514.2z M81.1,514.2l-4.4,0v-0.7h4.4V514.2z"/>
	<path fill="#231F20" d="M81.2,510.8c0,0.6-0.2,1.3-0.7,1.8l-0.5-0.3c0.4-0.5,0.6-1,0.6-1.5c0-0.5-0.3-0.9-0.7-0.9h0
		c-0.4,0-0.6,0.5-0.8,1.1c-0.2,0.7-0.4,1.5-1.2,1.5h0c-0.8,0-1.3-0.6-1.3-1.5c0-0.5,0.2-1.1,0.5-1.6l0.5,0.3
		c-0.3,0.4-0.4,0.9-0.4,1.3c0,0.5,0.3,0.9,0.6,0.9h0c0.4,0,0.6-0.5,0.8-1.1c0.2-0.7,0.5-1.4,1.3-1.4h0
		C80.7,509.2,81.2,509.9,81.2,510.8z"/>
	<path fill="#231F20" d="M80.6,506.2c0-0.6-0.2-1-0.6-1.4l0.4-0.4c0.5,0.4,0.8,1,0.8,1.8c0,1.2-0.9,2.2-2.3,2.2
		c-1.3,0-2.3-0.9-2.3-2.1c0-1.3,1-2.1,2.3-2.1c0.1,0,0.1,0,0.2,0v3.5C80.1,507.7,80.6,507,80.6,506.2z M78.7,504.9
		c-0.8,0.1-1.5,0.5-1.5,1.4c0,0.8,0.6,1.4,1.5,1.4V504.9z"/>
</g>
<path fill="#231F20" d="M41.2,700.9c-0.5,0-1-0.1-1.4-0.2l-7.9-2.1l0,1.9l-1.8-0.5v-1.9l-4.1-1.1v-2l4.1,1.1v-4.3l1.8,0.5v4.3
	l7.8,2.1c0.3,0.1,0.7,0.1,1,0.1c0.9,0,1.4-0.7,1.4-1.9c0-0.6-0.1-1.2-0.4-2l1.8,0.5c0.3,0.7,0.4,1.4,0.4,2.1
	C43.9,699.6,43,700.9,41.2,700.9z"/>
<path fill="#231F20" d="M32.2,689.8v-2l13.5,3.6v2L32.2,689.8z M27,688.6l0-2.3l2.2,0.6v2.3L27,688.6z"/>
<path fill="#231F20" d="M43.3,676c1.5,1.3,2.6,3,2.6,5.1c0,3.1-2.3,5.4-5.7,5.4c-4.8,0-8.4-3.6-8.4-7.6c0-2.8,1.5-4.3,3.3-5.1
	l-3-0.8v-2l18.8,5v2L43.3,676z M37.8,674.6c-2.4,0-4.2,1.7-4.2,4.2c0,3.2,3,5.6,6.4,5.6c2.5,0,4.1-1.6,4.1-3.8
	C44.2,677.6,41.1,674.6,37.8,674.6z"/>
<path fill="#231F20" d="M41.8,669.7c-0.6,0-1.4-0.2-2.1-0.3l-7.5-2l0-2l7.7,2.1c0.4,0.1,1.1,0.2,1.5,0.2c1.8,0,2.8-1.1,2.8-3
	c0-2.1-1.8-4.2-4.4-4.9l-7.6-2l0-2l13.5,3.6v2l-2.2-0.6c1.4,1.2,2.5,2.7,2.5,4.7C46,668,44.3,669.7,41.8,669.7z"/>
<path fill="#231F20" d="M40.2,652.6c2.5,0,4.1-1.6,4.1-4.1c0-1.8-0.6-2.9-1.6-4.2l1.3-1c1.1,1.3,2,2.9,2,5.3c0,3.6-2.3,6-5.8,6
	c-4.1,0-8.4-3.3-8.4-7.9c0-3.4,2.4-5.2,5.2-5.2c0.9,0,1.8,0.2,2.6,0.5v10.6C39.8,652.6,40,652.6,40.2,652.6z M38.1,643.6
	c-0.2-0.1-0.6-0.1-1-0.1c-1.9,0-3.5,1-3.5,3.4c0,2.7,2,4.7,4.5,5.4L38.1,643.6z"/>
<path fill="#231F20" d="M44,629.5l-1.1-1.1c1.2-1.2,1.6-2.5,1.6-3.8c0-1.3-0.7-2.4-1.8-2.4c-0.7,0-1.3,0.5-1.9,2.1
	c-0.8,2-1.5,3.1-3,3.1c-1.9,0-3.4-1.6-3.4-4.2c0-1.6,0.7-3.2,1.5-4.1l1.1,1c-0.7,0.9-1.3,2.1-1.3,3.3c0,1.6,0.8,2.4,1.7,2.4
	c0.7,0,1.2-0.4,1.9-2.2c0.8-2,1.6-3,3-3c2,0,3.5,1.9,3.5,4.2C45.9,626.5,45.3,628.2,44,629.5z"/>
<path fill="#231F20" d="M41,618.3c-3.4,0-6.6-3-6.6-6.5c0-3,2.1-5,4.9-5c3.5,0,6.6,3,6.6,6.5C45.9,616.3,43.8,618.3,41,618.3z
	 M39.4,608.5c-2.2,0-3.5,1.4-3.5,3.5c0,2.5,2.5,4.7,5.1,4.7c2.2,0,3.5-1.4,3.5-3.5C44.5,610.7,42,608.5,39.4,608.5z"/>
<path fill="#231F20" d="M42.5,605c-0.5,0-1.1-0.1-1.7-0.3l-6.1-1.6v-1.6l6.2,1.7c0.4,0.1,0.9,0.1,1.2,0.1c1.5,0,2.3-0.9,2.3-2.5
	c0-1.7-1.5-3.4-3.6-4l-6.2-1.7v-1.6l11,2.9v1.6l-1.8-0.5c1.1,1,2,2.2,2,3.9C45.9,603.7,44.6,605,42.5,605z"/>
<path fill="#231F20" d="M34.7,591.9l0-1.7l9.1-1.2l-9.1-6.1l0-1.9l11.1,7.7v1.4L34.7,591.9z"/>
<path fill="#231F20" d="M41.2,580c2,0,3.3-1.3,3.3-3.3c0-1.4-0.5-2.4-1.3-3.4l1.1-0.9c0.9,1.1,1.6,2.4,1.6,4.3
	c0,2.9-1.9,4.9-4.7,4.9c-3.4,0-6.8-2.7-6.8-6.4c0-2.8,1.9-4.3,4.2-4.3c0.7,0,1.4,0.1,2.1,0.4v8.6C40.9,580,41,580,41.2,580z
	 M39.5,572.6c-0.2-0.1-0.5-0.1-0.9-0.1c-1.5,0-2.8,0.9-2.8,2.8c0,2.2,1.7,3.8,3.7,4.4L39.5,572.6L39.5,572.6z"/>
<path fill="#231F20" d="M34.7,567.3v-1.6l1.8,0.5c-1.1-1-2-2.2-2-3.8c0-2.1,1.3-3.5,3.4-3.5c0.5,0,1.1,0.1,1.7,0.3l6.1,1.6v1.6
	l-6.2-1.7c-0.4-0.1-0.9-0.2-1.2-0.2c-1.5,0-2.3,0.9-2.3,2.5c0,1.7,1.5,3.4,3.6,4l6.2,1.7v1.6L34.7,567.3z"/>
<path fill="#231F20" d="M34.7,554.6V553l11,3v1.6L34.7,554.6z M30.4,553.6v-1.9l1.8,0.5l0,1.9L30.4,553.6z"/>
<path fill="#231F20" d="M34.7,549.7V548l2.9,0.7c-1.9-1.3-3.2-3-3.1-5.2l1.8,0.5l0,0.1c0,2.4,1.8,4.8,5.1,5.7l4.3,1.2v1.6
	L34.7,549.7z"/>
<path fill="#231F20" d="M34.7,529.9v-1.6l1.8,0.5c-1.1-1-2-2-2-3.7c0-1.9,1.2-2.8,2.5-3.1c-1.5-1-2.5-2.5-2.5-4.4
	c0-2,1.4-3.4,3.4-3.4c0.5,0,1.1,0.1,1.7,0.3l6.1,1.6v1.6l-6.2-1.7c-0.4-0.1-0.9-0.1-1.2-0.1c-1.4,0-2.3,0.9-2.3,2.3
	c0,1.6,1.5,3.3,3.6,3.8l6.2,1.6v1.6l-6.2-1.7c-0.4-0.1-0.9-0.2-1.2-0.2c-1.4,0-2.3,0.9-2.3,2.3c0,1.6,1.5,3.3,3.6,3.8l6.2,1.7v1.6
	L34.7,529.9z"/>
<path fill="#231F20" d="M42.9,513.1c-2.5,0-4-2.1-4-4.9c0-1.5,0.3-2.9,0.6-3.9l-0.3-0.1c-0.3-0.1-0.7-0.1-1-0.1c-1.4,0-2.2,1-2.2,3
	c0,1.2,0.2,2.1,0.6,3.1l-1.4,0.3c-0.4-1.1-0.7-2.2-0.7-3.6c0-2.8,1.3-4.3,3.4-4.3c0.5,0,1,0.1,1.5,0.2l6.2,1.7v1.6l-1.7-0.5
	c1.2,1,2,2.4,2,4.1C45.9,511.5,44.8,513.1,42.9,513.1z M41.4,504.8l-0.8-0.2c-0.3,1-0.5,2.2-0.5,3.6c0,2,1.1,3.3,2.6,3.3
	c1.2,0,2-0.9,2-2.3C44.6,507.2,43.3,505.3,41.4,504.8z"/>
<path fill="#231F20" d="M30.1,497.1v-1.6l15.6,4.2v1.6L30.1,497.1z"/>
<path fill="#231F20" d="M42.9,496.3c-2.5,0-4-2.1-4-4.9c0-1.5,0.3-2.9,0.6-3.9l-0.3-0.1c-0.3-0.1-0.7-0.1-1-0.1c-1.4,0-2.2,1-2.2,3
	c0,1.2,0.2,2.1,0.6,3.1l-1.4,0.3c-0.4-1.1-0.7-2.2-0.7-3.6c0-2.8,1.3-4.3,3.4-4.3c0.5,0,1,0.1,1.5,0.2l6.2,1.7v1.6l-1.7-0.5
	c1.2,1,2,2.4,2,4.1C45.9,494.6,44.8,496.3,42.9,496.3z M41.4,487.9l-0.8-0.2c-0.3,1-0.5,2.2-0.5,3.6c0,2,1.1,3.3,2.6,3.3
	c1.2,0,2-0.9,2-2.3C44.6,490.4,43.3,488.5,41.4,487.9z"/>
<path fill="#231F20" d="M34.7,481.5l0-1.6l11,3v1.6L34.7,481.5z M30.4,480.4v-1.9l1.8,0.5l0,1.9L30.4,480.4z"/>
<path fill="#231F20" d="M44,480l-1.1-1.1c1.2-1.2,1.6-2.5,1.6-3.8c0-1.3-0.7-2.4-1.8-2.4c-0.7,0-1.3,0.5-1.9,2.1
	c-0.8,2-1.5,3.1-3,3.1c-1.9,0-3.4-1.6-3.4-4.2c0-1.6,0.7-3.2,1.5-4.1l1.1,1c-0.7,0.9-1.3,2.1-1.3,3.3c0,1.6,0.8,2.4,1.7,2.4
	c0.7,0,1.2-0.4,1.9-2.2c0.8-2,1.6-3,3-3c2,0,3.5,1.9,3.5,4.2C45.9,476.9,45.3,478.7,44,480z"/>
<path fill="#231F20" d="M41.2,467.1c2,0,3.3-1.3,3.3-3.3c0-1.4-0.5-2.4-1.3-3.4l1.1-0.9c0.9,1.1,1.6,2.4,1.6,4.3
	c0,2.9-1.9,4.9-4.7,4.9c-3.4,0-6.8-2.7-6.8-6.4c0-2.8,1.9-4.3,4.2-4.3c0.7,0,1.5,0.1,2.1,0.4v8.6C40.9,467.1,41,467.1,41.2,467.1z
	 M39.5,459.8c-0.2-0.1-0.5-0.1-0.9-0.1c-1.5,0-2.8,0.9-2.8,2.8c0,2.2,1.7,3.8,3.7,4.4L39.5,459.8L39.5,459.8z"/>
<path fill="#231F20" d="M-10.5,697.7c0.9,0,1.2-0.5,1.2-1.2c0-0.4-0.1-0.7-0.2-1h0.9c0.2,0.4,0.3,0.8,0.3,1.3c0,1.1-0.6,2-2,2h-4.3
	v1h-0.9v-1h-2.1v-1.1h2.1v-2.2h0.9v2.2L-10.5,697.7L-10.5,697.7z"/>
<path fill="#231F20" d="M-9.2,691c0-1-0.4-1.7-1-2.2l0.6-0.7c0.8,0.7,1.3,1.6,1.3,2.9c0,1.9-1.5,3.5-3.7,3.5c-2,0-3.7-1.4-3.7-3.4
	c0-2.1,1.7-3.3,3.7-3.3c0.1,0,0.2,0,0.3,0v5.6C-10.1,693.4-9.2,692.3-9.2,691z M-12.4,689c-1.3,0.1-2.4,0.8-2.4,2.3
	c0,1.2,1,2.2,2.4,2.3V689z"/>
<path fill="#231F20" d="M-8.5,685.4v1.1h-7.1v-1.1h1.2c-0.8-0.5-1.4-1.2-1.4-2.4c0-1.7,1.1-2.7,2.8-2.7h4.4l0,1.1h-4.1
	c-1.3,0-2.1,0.7-2.1,2c0,1.2,0.9,2.1,2.2,2.1H-8.5z"/>
<path fill="#231F20" d="M-8.5,672.7h-1.4c0.8,0.6,1.6,1.4,1.6,2.7c0,1.7-1.3,3.4-3.7,3.4c-2.3,0-3.7-1.7-3.7-3.4
	c0-1.3,0.7-2.2,1.5-2.7h-4.3v-1.1h10V672.7z M-14.7,675.2c0,1.4,1,2.5,2.7,2.5c1.7,0,2.7-1.1,2.7-2.5c0-1.3-1.1-2.6-2.7-2.6
	C-13.7,672.6-14.7,673.9-14.7,675.2z"/>
<path fill="#231F20" d="M-8.5,668.6v1.1h-7.1v-1.1h1.8c-1.2-0.5-2-1.5-2-2.9h1.1v0.1c0,1.5,1.1,2.8,3.2,2.8L-8.5,668.6L-8.5,668.6z"
	/>
<path fill="#231F20" d="M-9.2,661.6c0-1-0.4-1.7-1-2.2l0.6-0.7c0.8,0.7,1.3,1.6,1.3,2.9c0,1.9-1.5,3.5-3.7,3.5c-2,0-3.7-1.4-3.7-3.4
	c0-2.1,1.7-3.3,3.7-3.3c0.1,0,0.2,0,0.3,0v5.6C-10.1,664-9.2,662.9-9.2,661.6z M-12.4,659.6c-1.3,0.1-2.4,0.8-2.4,2.3
	c0,1.2,1,2.2,2.4,2.3V659.6z"/>
<path fill="#231F20" d="M-8.3,654.7c0,1-0.4,2.1-1,2.9l-0.8-0.5c0.6-0.8,0.9-1.6,0.9-2.4c0-0.8-0.4-1.5-1.1-1.5h0
	c-0.7,0-1,0.8-1.2,1.8c-0.3,1.1-0.7,2.3-2,2.3h0c-1.2,0-2-1-2-2.4c0-0.9,0.3-1.8,0.8-2.5l0.8,0.5c-0.4,0.7-0.7,1.4-0.7,2.1
	c0,0.8,0.4,1.4,1,1.4h0c0.7,0,0.9-0.9,1.2-1.8c0.3-1.1,0.8-2.3,2-2.3h0C-9.1,652.1-8.3,653.2-8.3,654.7z"/>
<path fill="#231F20" d="M-8.3,648.3c0,1-0.4,2.1-1,2.9l-0.8-0.5c0.6-0.8,0.9-1.6,0.9-2.4c0-0.8-0.4-1.5-1.1-1.5h0
	c-0.7,0-1,0.8-1.2,1.8c-0.3,1.1-0.7,2.3-2,2.3h0c-1.2,0-2-1-2-2.4c0-0.9,0.3-1.8,0.8-2.5l0.8,0.5c-0.4,0.7-0.7,1.4-0.7,2.1
	c0,0.8,0.4,1.4,1,1.4h0c0.7,0,0.9-0.9,1.2-1.8c0.3-1.1,0.8-2.3,2-2.3h0C-9.1,645.8-8.3,646.9-8.3,648.3z"/>
<path fill="#231F20" d="M-9.2,641.1c0-1-0.4-1.6-1-2.2l0.6-0.7c0.8,0.7,1.3,1.6,1.3,2.9c0,1.9-1.5,3.5-3.7,3.5c-2,0-3.7-1.4-3.7-3.4
	c0-2.1,1.7-3.3,3.7-3.3c0.1,0,0.2,0,0.3,0v5.6C-10.1,643.4-9.2,642.3-9.2,641.1z M-12.4,639c-1.3,0.1-2.4,0.8-2.4,2.3
	c0,1.2,1,2.2,2.4,2.3V639z"/>
<path fill="#231F20" d="M-15.5,615.2v-1h7.1v1h-1.2c0.8,0.5,1.4,1.2,1.4,2.4c0,1.7-1.1,2.7-2.8,2.7h-4.4v-1.1h4.1
	c1.3,0,2.1-0.7,2.1-2c0-1.2-0.9-2.1-2.2-2.1L-15.5,615.2L-15.5,615.2z"/>
<path fill="#231F20" d="M-9.2,609c0-1-0.4-1.7-1-2.2l0.6-0.7c0.8,0.7,1.3,1.6,1.3,2.9c0,1.9-1.5,3.5-3.7,3.5c-2,0-3.7-1.4-3.7-3.4
	c0-2.1,1.7-3.3,3.7-3.3c0.1,0,0.2,0,0.3,0v5.6C-10.1,611.4-9.2,610.3-9.2,609z M-12.4,607c-1.3,0.1-2.4,0.8-2.4,2.3
	c0,1.2,1,2.2,2.4,2.3V607z M-16.6,609.9l-2-1.3l0.5-1.1l1.5,1.5L-16.6,609.9L-16.6,609.9z"/>
<path fill="#231F20" d="M-10.5,603c0.9,0,1.2-0.5,1.2-1.2c0-0.4-0.1-0.7-0.2-1h0.9c0.2,0.4,0.3,0.8,0.3,1.3c0,1.1-0.6,2-2,2h-4.3
	l0,1h-0.9v-1h-2.1V603l2.1,0v-2.2h0.9v2.2L-10.5,603L-10.5,603z"/>
<path fill="#231F20" d="M-14.2,598.8l-0.9,0.3c-0.4-0.8-0.6-1.5-0.6-2.6c0-1.9,1-3,2.8-3h4.3v1h-1.1c0.6,0.5,1.2,1.3,1.2,2.6
	c0,1.3-0.7,2.6-2.2,2.6c-1.5,0-2.3-1.2-2.3-3c0-0.9,0.1-1.5,0.3-2.2h-0.2c-1.3,0-1.9,0.8-1.9,2.1C-14.7,597.5-14.5,598.2-14.2,598.8
	z M-10.6,598.7c0.9,0,1.4-0.8,1.4-1.8c0-1.3-0.8-2.4-1.9-2.4h-0.7c-0.2,0.5-0.3,1.2-0.3,2.1C-12.1,598-11.5,598.7-10.6,598.7z"/>
<path fill="#231F20" d="M-17.1,591.6h-1.2v-1.2h1.2V591.6z M-8.5,591.6h-7.1v-1.1h7.1V591.6z"/>
<path fill="#231F20" d="M-8.5,587.4v1h-7.1v-1h1.2c-0.8-0.5-1.4-1.2-1.4-2.4c0-1.7,1.1-2.7,2.8-2.7h4.4l0,1.1h-4.1
	c-1.3,0-2.1,0.7-2.1,2c0,1.2,0.9,2.1,2.2,2.1H-8.5z"/>
<path fill="#231F20" d="M-9.2,577.2c0-1-0.4-1.7-1-2.2l0.6-0.7c0.8,0.7,1.3,1.6,1.3,2.9c0,1.9-1.5,3.5-3.7,3.5c-2,0-3.7-1.4-3.7-3.4
	c0-2.1,1.7-3.3,3.7-3.3c0.1,0,0.2,0,0.3,0l0,5.6C-10.1,579.6-9.2,578.5-9.2,577.2z M-12.4,575.2c-1.3,0.1-2.4,0.8-2.4,2.3
	c0,1.2,1,2.2,2.4,2.3V575.2z"/>
<path fill="#231F20" d="M-17.1,565.1h-1.2v-1.2h1.2V565.1z M-8.5,565l-7.1,0v-1h7.1V565z"/>
<path fill="#231F20" d="M-8.5,560.8v1h-7.1v-1h1.2c-0.8-0.5-1.4-1.2-1.4-2.4c0-1.7,1.1-2.7,2.8-2.7h4.4v1.1h-4.1
	c-1.3,0-2.1,0.7-2.1,2c0,1.2,0.9,2.1,2.2,2.1H-8.5z"/>
<path fill="#231F20" d="M-9.2,550.7c0-1-0.4-1.7-1-2.2l0.6-0.7c0.8,0.7,1.3,1.6,1.3,2.9c0,1.9-1.5,3.5-3.7,3.5c-2,0-3.7-1.4-3.7-3.4
	c0-2.1,1.7-3.3,3.7-3.3c0.1,0,0.2,0,0.3,0v5.6C-10.1,553-9.2,551.9-9.2,550.7z M-12.4,548.6c-1.3,0.1-2.4,0.8-2.4,2.3
	c0,1.2,1,2.2,2.4,2.3V548.6z M-16.6,551.5l-2-1.3l0.5-1.1l1.5,1.5L-16.6,551.5z"/>
<path fill="#231F20" d="M-6.3,542.9c0,1.2-0.3,2.3-1,3.2l-0.8-0.5c0.6-0.8,0.9-1.7,0.9-2.7c0-1.6-0.9-2.6-2.5-2.6h-0.8
	c0.8,0.6,1.5,1.5,1.5,2.8c0,1.7-1.3,3.3-3.3,3.3c-2.1,0-3.3-1.6-3.3-3.3c0-1.3,0.7-2.2,1.4-2.8h-1.3v-1.1h5.8
	C-7.4,539.3-6.3,540.7-6.3,542.9z M-14.8,542.9c0,1.3,0.9,2.4,2.4,2.4c1.4,0,2.4-1.1,2.4-2.4c0-1.3-1-2.6-2.4-2.6
	C-13.8,540.3-14.8,541.6-14.8,542.9z"/>
<path fill="#231F20" d="M-14.2,536.9l-0.9,0.3c-0.4-0.8-0.6-1.5-0.6-2.6c0-1.9,1-3,2.8-3h4.3v1h-1.1c0.6,0.5,1.2,1.3,1.2,2.6
	c0,1.3-0.7,2.6-2.2,2.6c-1.5,0-2.3-1.2-2.3-3c0-0.9,0.1-1.5,0.3-2.2h-0.2c-1.3,0-1.9,0.8-1.9,2.1C-14.7,535.6-14.5,536.2-14.2,536.9
	z M-10.6,536.8c0.9,0,1.4-0.8,1.4-1.8c0-1.3-0.8-2.4-1.9-2.4h-0.7c-0.2,0.5-0.3,1.2-0.3,2.1C-12.1,536-11.5,536.8-10.6,536.8z"/>
<path fill="#231F20" d="M-8.5,529.7h-10v-1.1h10L-8.5,529.7z"/>
<path fill="#231F20" d="M-17.1,526.5h-1.2v-1.2h1.2V526.5z M-8.5,526.4h-7.1v-1.1h7.1V526.4z"/>
<path fill="#231F20" d="M-10.5,521.8c0.9,0,1.2-0.5,1.2-1.2c0-0.4-0.1-0.7-0.2-1h0.9c0.2,0.4,0.3,0.8,0.3,1.3c0,1.1-0.6,2-2,2h-4.3
	v1h-0.9v-1l-2.1,0v-1.1h2.1v-2.2h0.9l0,2.2L-10.5,521.8L-10.5,521.8z"/>
<path fill="#231F20" d="M-9.2,515c0-1-0.4-1.7-1-2.2l0.6-0.7c0.8,0.7,1.3,1.6,1.3,2.9c0,1.9-1.5,3.5-3.7,3.5c-2,0-3.7-1.4-3.7-3.4
	c0-2.1,1.7-3.3,3.7-3.3c0.1,0,0.2,0,0.3,0v5.6C-10.1,517.3-9.2,516.2-9.2,515z M-12.4,512.9c-1.3,0.1-2.4,0.8-2.4,2.3
	c0,1.2,1,2.2,2.4,2.3V512.9z M-16.6,515.8l-2-1.3l0.5-1.1l1.5,1.5L-16.6,515.8L-16.6,515.8z"/>
<path fill="#231F20" d="M-8.3,499.1c0,1.3-0.7,2.2-1.5,2.7h3.5v1.1h-9.2v-1.1h1.4c-0.8-0.6-1.6-1.4-1.6-2.7c0-1.7,1.3-3.4,3.7-3.4
	C-9.7,495.7-8.3,497.4-8.3,499.1z M-14.7,499.3c0,1.3,1.1,2.6,2.7,2.6c1.7,0,2.7-1.2,2.7-2.6c0-1.4-1-2.5-2.7-2.5
	C-13.7,496.8-14.7,497.9-14.7,499.3z"/>
<path fill="#231F20" d="M-9.2,491c0-1-0.4-1.7-1-2.2l0.6-0.7c0.8,0.7,1.3,1.6,1.3,2.9c0,1.9-1.5,3.5-3.7,3.5c-2,0-3.7-1.4-3.7-3.4
	c0-2.1,1.7-3.3,3.7-3.3c0.1,0,0.2,0,0.3,0v5.6C-10.1,493.3-9.2,492.2-9.2,491z M-12.4,488.9c-1.3,0.1-2.4,0.8-2.4,2.3
	c0,1.2,1,2.2,2.4,2.3V488.9z"/>
<path fill="#231F20" d="M-15.5,481.3v-1h7.1l0,1h-1.2c0.8,0.5,1.4,1.2,1.4,2.4c0,1.7-1.1,2.7-2.8,2.7h-4.4v-1.1h4.1
	c1.3,0,2.1-0.7,2.1-2c0-1.2-0.9-2.1-2.2-2.1H-15.5z"/>
<path fill="#231F20" d="M-8.5,477.2v1h-7.1v-1h1.8c-1.2-0.5-2-1.5-2-2.9h1.1v0.1c0,1.5,1.1,2.8,3.2,2.8H-8.5z"/>
<path fill="#231F20" d="M-15.7,457.5c0-1.6,1.1-2.6,2.8-2.6h4.4l0,1.1h-4.1c-1.4,0-2.1,0.7-2.1,1.8c0,1.1,0.8,2,2.2,2h4.1l0,1h-4.2
	c-1.3,0-2.1,0.7-2.1,1.8c0,1.1,0.9,2,2.2,2l4,0v1.1l-7.1,0v-1h1.2c-0.7-0.5-1.3-1.1-1.3-2.3c0-1.1,0.6-1.9,1.4-2.3
	C-15.1,459.5-15.7,458.7-15.7,457.5z"/>
<path fill="#231F20" d="M-14.2,452.5l-0.9,0.3c-0.4-0.8-0.6-1.5-0.6-2.6c0-1.9,1-3,2.8-3h4.3v1h-1.1c0.6,0.5,1.2,1.3,1.2,2.6
	c0,1.3-0.7,2.6-2.2,2.6c-1.5,0-2.3-1.2-2.3-3c0-0.9,0.1-1.5,0.3-2.2h-0.2c-1.3,0-1.9,0.8-1.9,2.1C-14.7,451.2-14.5,451.9-14.2,452.5
	z M-10.6,452.4c0.9,0,1.4-0.8,1.4-1.8c0-1.3-0.8-2.4-1.9-2.4h-0.7c-0.2,0.5-0.3,1.2-0.3,2.1C-12.1,451.7-11.5,452.4-10.6,452.4z"/>
<path fill="#231F20" d="M-8.5,445.3h-10v-1.1h10V445.3z"/>
<path fill="#231F20" d="M-14.2,441.7L-15,442c-0.4-0.8-0.6-1.5-0.6-2.6c0-1.9,1-3,2.8-3h4.3v1h-1.1c0.6,0.5,1.2,1.3,1.2,2.6
	c0,1.3-0.7,2.6-2.2,2.6c-1.5,0-2.3-1.2-2.3-3c0-0.9,0.1-1.5,0.3-2.2h-0.2c-1.3,0-1.9,0.8-1.9,2.1C-14.7,440.4-14.5,441.1-14.2,441.7
	z M-10.6,441.6c0.9,0,1.4-0.8,1.4-1.8c0-1.3-0.8-2.4-1.9-2.4h-0.7c-0.2,0.5-0.3,1.2-0.3,2.1C-12.1,440.9-11.5,441.6-10.6,441.6z"/>
<path fill="#231F20" d="M-17.1,434.5l-1.2,0v-1.2h1.2V434.5z M-8.5,434.5h-7.1v-1.1h7.1L-8.5,434.5z"/>
<path fill="#231F20" d="M-8.3,429c0,1-0.4,2.1-1,2.9l-0.8-0.5c0.6-0.8,0.9-1.6,0.9-2.4c0-0.8-0.4-1.5-1.1-1.5h0
	c-0.7,0-1,0.8-1.2,1.8c-0.3,1.1-0.7,2.3-2,2.3h0c-1.2,0-2-1-2-2.4c0-0.9,0.3-1.8,0.8-2.5l0.8,0.5c-0.4,0.7-0.7,1.4-0.7,2.1
	c0,0.8,0.4,1.4,1,1.4h0c0.7,0,0.9-0.9,1.2-1.8c0.3-1.1,0.8-2.3,2-2.3h0C-9.1,426.5-8.3,427.6-8.3,429z"/>
<path fill="#231F20" d="M-9.2,421.7c0-1-0.4-1.7-1-2.2l0.6-0.7c0.8,0.7,1.3,1.6,1.3,2.9c0,1.9-1.5,3.5-3.7,3.5c-2,0-3.7-1.4-3.7-3.4
	c0-2.1,1.7-3.3,3.7-3.3c0.1,0,0.2,0,0.3,0v5.6C-10.1,424.1-9.2,423-9.2,421.7z M-12.4,419.7c-1.3,0.1-2.4,0.8-2.4,2.3
	c0,1.2,1,2.2,2.4,2.3V419.7z"/>
<path fill="#231F20" d="M89.4,698.7l-1.7,0.6c-0.7-1.5-1.2-3-1.2-5.1c0-3.8,1.9-5.9,5.6-5.9h8.5v2h-2.1c1.3,1,2.4,2.6,2.4,5
	c0,2.6-1.5,5.2-4.4,5.2c-3,0-4.5-2.4-4.5-6c0-1.8,0.2-3,0.6-4.3h-0.5c-2.5,0-3.8,1.5-3.8,4.1C88.3,696.1,88.8,697.4,89.4,698.7z
	 M96.5,698.5c1.8,0,2.8-1.6,2.8-3.5c0-2.6-1.6-4.7-3.8-4.7h-1.3c-0.3,1-0.6,2.4-0.6,4.1C93.6,697,94.7,698.5,96.5,698.5z"/>
<path fill="#231F20" d="M100.6,684.4H81v-2.1h19.7V684.4z"/>
<path fill="#231F20" d="M83.6,678.2h-2.3v-2.4h2.3L83.6,678.2z M100.6,678H86.7v-2.1h13.9V678z"/>
<path fill="#231F20" d="M96.7,669c1.7,0,2.3-0.9,2.3-2.3c0-0.7-0.1-1.3-0.5-2h1.8c0.4,0.7,0.6,1.5,0.6,2.5c0,2.2-1.1,3.9-3.9,3.9
	h-8.4v1.9h-1.8v-1.9h-4.2V669h4.2v-4.4h1.8v4.4L96.7,669L96.7,669z"/>
<path fill="#231F20" d="M99.1,655.5c0-1.9-0.8-3.3-2-4.4l1.2-1.3c1.6,1.4,2.6,3.1,2.6,5.7c0,3.8-2.9,6.9-7.3,6.9
	c-4,0-7.3-2.8-7.3-6.7c0-4.1,3.3-6.5,7.4-6.5c0.2,0,0.4,0,0.6,0v11C97.4,660.1,99.1,657.9,99.1,655.5z M92.9,651.4
	c-2.5,0.2-4.7,1.7-4.7,4.4c0,2.4,2,4.3,4.7,4.5V651.4z M84.6,657.1l-3.9-2.6l1-2.2l2.9,3L84.6,657.1z"/>
<path fill="#231F20" d="M99.1,632.8c0-1.9-0.8-3.3-2-4.4l1.2-1.3c1.6,1.4,2.6,3.1,2.6,5.7c0,3.8-2.9,6.9-7.3,6.9
	c-4,0-7.3-2.8-7.3-6.7c0-4.1,3.3-6.5,7.4-6.5c0.2,0,0.4,0,0.6,0v11C97.4,637.4,99.1,635.2,99.1,632.8z M92.9,628.7
	c-2.5,0.2-4.7,1.7-4.7,4.4c0,2.4,2,4.3,4.7,4.5L92.9,628.7z"/>
<path fill="#231F20" d="M100.6,621.6v2.1H86.7v-2.1h2.4c-1.5-0.9-2.7-2.4-2.7-4.8c0-3.4,2.3-5.3,5.6-5.3l8.6,0v2.1h-8.1
	c-2.6,0-4.2,1.4-4.2,3.9c0,2.4,1.8,4.2,4.4,4.2H100.6z"/>
<path fill="#231F20" d="M100.6,605.7v2.1H86.7v-2.1h2.4c-1.5-0.9-2.7-2.4-2.7-4.8c0-3.4,2.3-5.3,5.6-5.3h8.6v2.1h-8.1
	c-2.6,0-4.2,1.4-4.2,3.9c0,2.4,1.8,4.2,4.4,4.2L100.6,605.7L100.6,605.7z"/>
<path fill="#231F20" d="M86.7,581.9v-2h13.9v2h-2.4c1.5,0.9,2.7,2.4,2.7,4.8c0,3.4-2.3,5.3-5.6,5.3h-8.6V590h8.1
	c2.6,0,4.2-1.4,4.2-3.8c0-2.4-1.8-4.2-4.4-4.2H86.7L86.7,581.9z"/>
<path fill="#231F20" d="M101.1,569.1c2.9,1.2,3.9,2.5,3.9,4.6c0,1.2-0.2,2-0.7,3l-1.6-0.7c0.4-0.7,0.5-1.3,0.5-2.2
	c0-1.2-0.6-2-2.6-2.9l-13.9,6.3V575l11.6-5.1l-11.6-4.5v-2.2L101.1,569.1z"/>
<path fill="#231F20" d="M99.1,555.3c0-1.9-0.8-3.3-2-4.4l1.2-1.3c1.6,1.4,2.6,3.1,2.6,5.7c0,3.8-2.9,6.9-7.3,6.9
	c-4,0-7.3-2.8-7.3-6.7c0-4.1,3.3-6.5,7.4-6.5c0.2,0,0.4,0,0.6,0v11C97.4,559.9,99.1,557.8,99.1,555.3z M92.9,551.3
	c-2.5,0.2-4.7,1.7-4.7,4.4c0,2.4,2,4.3,4.7,4.5V551.3z"/>
<path fill="#231F20" d="M86.7,536.3v-2h13.9l0,2h-2.4c1.5,0.9,2.7,2.4,2.7,4.8c0,3.4-2.3,5.3-5.6,5.3h-8.6l0-2.1h8.1
	c2.6,0,4.2-1.4,4.2-3.9c0-2.4-1.8-4.2-4.4-4.2L86.7,536.3L86.7,536.3z"/>
<path fill="#231F20" d="M100.6,518.2v2.4l-5.7,4.3l5.7,4.3l0,2.3l-7.1-5.5l-6.8,5.3V529l5.4-4.1l-5.4-4.1v-2.3l6.8,5.3L100.6,518.2z
	"/>
<path fill="#231F20" d="M100.9,503.5c0,2-0.8,4.2-2,5.8l-1.5-1.1c1.1-1.5,1.8-3.2,1.8-4.8c0-1.7-0.9-2.9-2.2-2.9h-0.1
	c-1.4,0-1.9,1.6-2.5,3.5c-0.6,2.2-1.4,4.6-3.9,4.6h-0.1c-2.4,0-4-2-4-4.7c0-1.7,0.6-3.6,1.5-5l1.6,0.9c-0.8,1.3-1.3,2.8-1.3,4.1
	c0,1.6,0.9,2.7,2,2.7l0.1,0c1.3,0,1.8-1.7,2.4-3.6c0.6-2.1,1.5-4.5,4-4.5h0.1C99.4,498.5,100.9,500.7,100.9,503.5z"/>
<path fill="#231F20" d="M100.9,489c0,4.2-3.3,7.2-7.2,7.2c-4,0-7.3-3.1-7.3-7.3c0-4.2,3.3-7.2,7.2-7.2
	C97.6,481.7,100.9,484.8,100.9,489z M88.2,489c0,3,2.4,5.1,5.4,5.1s5.4-2.2,5.4-5.1c0-3-2.4-5.1-5.4-5.1
	C90.7,483.8,88.2,486.1,88.2,489z"/>
<path fill="#231F20" d="M86.7,468.7l0-2h13.9l0,2h-2.4c1.5,0.9,2.7,2.4,2.7,4.8c0,3.4-2.3,5.3-5.6,5.3h-8.6v-2.1h8.1
	c2.6,0,4.2-1.4,4.2-3.9c0-2.4-1.8-4.2-4.4-4.2L86.7,468.7L86.7,468.7z"/>
<path fill="#231F20" d="M86.7,452.4v-2.2l14,6.1v1.8l-14,6v-2.3l11.6-4.7L86.7,452.4z"/>
<path fill="#231F20" d="M99.1,442.2c0-1.9-0.8-3.3-2-4.4l1.2-1.3c1.6,1.4,2.6,3.1,2.6,5.7c0,3.8-2.9,6.9-7.3,6.9
	c-4,0-7.3-2.8-7.3-6.7c0-4.1,3.3-6.5,7.4-6.5c0.2,0,0.4,0,0.6,0v11C97.4,446.8,99.1,444.7,99.1,442.2z M92.9,438.2
	c-2.5,0.2-4.7,1.7-4.7,4.4c0,2.4,2,4.3,4.7,4.5V438.2z"/>
<path fill="#231F20" d="M100.6,431v2.1H86.7V431h2.4c-1.5-0.9-2.7-2.4-2.7-4.8c0-3.4,2.3-5.3,5.6-5.3h8.6v2.1l-8.1,0
	c-2.6,0-4.2,1.4-4.2,3.8c0,2.4,1.8,4.2,4.4,4.2H100.6z"/>
<path fill="#231F20" d="M83.6,417.1l-2.3,0v-2.4h2.3L83.6,417.1z M100.6,417H86.7v-2.1h13.9V417z"/>
<path fill="#231F20" d="M100.6,408.7v2.1H86.7l0-2.1l3.6,0c-2.3-1-4-3-3.9-5.7h2.2v0.2c0,3,2.2,5.5,6.4,5.5H100.6z"/>
<path fill="#231F20" d="M86.4,369.8c0-3.2,2.2-5.2,5.6-5.2h8.6v2.1h-8.1c-2.7,0-4.2,1.3-4.2,3.6c0,2.1,1.6,3.9,4.3,3.9l8,0v2l-8.2,0
	c-2.6,0-4.1,1.4-4.1,3.6c0,2.2,1.8,3.9,4.4,3.9h7.9v2.1H86.7v-2.1l2.3,0c-1.4-0.9-2.6-2.2-2.6-4.5c0-2.3,1.2-3.7,2.8-4.5
	C87.6,373.7,86.4,372.2,86.4,369.8z"/>
<path fill="#231F20" d="M89.4,360l-1.7,0.6c-0.7-1.5-1.2-3-1.2-5.1c0-3.8,1.9-5.9,5.6-5.9h8.5v2l-2.1,0c1.3,1,2.4,2.6,2.4,5
	c0,2.6-1.5,5.2-4.4,5.2c-3,0-4.5-2.4-4.5-5.9c0-1.8,0.2-3,0.6-4.3l-0.5,0c-2.5,0-3.8,1.5-3.8,4.1C88.3,357.4,88.8,358.7,89.4,360z
	 M96.5,359.7c1.8,0,2.8-1.6,2.8-3.5c0-2.6-1.6-4.7-3.8-4.7h-1.3c-0.3,1-0.6,2.4-0.6,4.1C93.6,358.3,94.7,359.7,96.5,359.7z"/>
<path fill="#231F20" d="M100.6,345.7l-19.7,0l0-2.1h19.7L100.6,345.7L100.6,345.7z"/>
<path fill="#231F20" d="M89.4,338.7l-1.7,0.6c-0.7-1.5-1.2-3-1.2-5.1c0-3.8,1.9-5.9,5.6-5.9h8.5v2h-2.1c1.3,1,2.4,2.6,2.4,5
	c0,2.6-1.5,5.2-4.4,5.2c-3,0-4.5-2.4-4.5-5.9c0-1.8,0.2-3,0.6-4.3h-0.5c-2.5,0-3.8,1.5-3.8,4.1C88.3,336.1,88.8,337.4,89.4,338.7z
	 M96.5,338.4c1.8,0,2.8-1.6,2.8-3.5c0-2.6-1.6-4.7-3.8-4.7h-1.3c-0.3,1-0.6,2.4-0.6,4.1C93.6,337,94.7,338.4,96.5,338.4z"/>
<path fill="#231F20" d="M83.6,324.5h-2.3v-2.4h2.3V324.5z M100.6,324.4H86.7v-2.1h13.9V324.4z"/>
<path fill="#231F20" d="M100.9,313.5c0,2-0.8,4.2-2,5.8l-1.5-1.1c1.1-1.5,1.8-3.2,1.8-4.8c0-1.7-0.9-2.9-2.2-2.9h-0.1
	c-1.4,0-1.9,1.6-2.5,3.5c-0.6,2.2-1.4,4.6-3.9,4.6h-0.1c-2.4,0-4-2-4-4.7c0-1.7,0.6-3.6,1.5-5l1.6,0.9c-0.8,1.3-1.3,2.8-1.3,4.1
	c0,1.6,0.9,2.7,2,2.7l0.1,0c1.3,0,1.8-1.7,2.4-3.6c0.6-2.2,1.5-4.5,4-4.5h0.1C99.4,308.6,100.9,310.8,100.9,313.5z"/>
<path fill="#231F20" d="M99.1,299.3c0-1.9-0.8-3.3-2-4.4l1.2-1.3c1.6,1.4,2.6,3.1,2.6,5.7c0,3.8-2.9,6.9-7.3,6.9
	c-4,0-7.3-2.8-7.3-6.7c0-4.1,3.3-6.5,7.4-6.5c0.2,0,0.4,0,0.6,0v11C97.4,303.9,99.1,301.7,99.1,299.3z M92.9,295.2
	c-2.5,0.2-4.7,1.7-4.7,4.4c0,2.4,2,4.3,4.7,4.5V295.2z"/>
<g>
	<path fill="#231F20" d="M1.1,741.3c0.1,0,0.2,0,0.4,0"/>
	<path fill="#231F20" d="M5.4,727c0,2.4-2,4.2-4.3,4.2c-2.4,0-4.3-1.8-4.3-4.2c0-1.6,0.7-2.6,1.5-3.3l0.9,0.8
		c-0.7,0.7-1.3,1.4-1.3,2.5c0,1.7,1.4,3,3.2,3c1.8,0,3.2-1.3,3.2-3c0-1.1-0.5-1.9-1.2-2.5l0.7-0.8C4.7,724.4,5.4,725.4,5.4,727z"/>
	<path fill="#231F20" d="M-1.5,721.5l-1,0.4c-0.4-0.9-0.7-1.8-0.7-3c0-2.3,1.2-3.5,3.3-3.5h5.1v1.2H3.9c0.8,0.6,1.4,1.5,1.4,3
		c0,1.5-0.9,3.1-2.6,3.1c-1.8,0-2.7-1.4-2.7-3.5c0-1.1,0.1-1.8,0.4-2.6H0.1c-1.5,0-2.3,0.9-2.3,2.5C-2.1,719.9-1.9,720.7-1.5,721.5z
		 M2.7,721.3c1.1,0,1.7-1,1.7-2.1c0-1.5-0.9-2.8-2.2-2.8H1.3c-0.2,0.6-0.4,1.4-0.4,2.4C1,720.5,1.6,721.3,2.7,721.3z"/>
	<path fill="#231F20" d="M5.2,713H-6.5v-1.2H5.2V713z"/>
	<path fill="#231F20" d="M-3.3,699.8c0-1.9,1.3-3.1,3.3-3.1h5.1v1.2H0.3c-1.6,0-2.5,0.8-2.5,2.1c0,1.2,0.9,2.3,2.6,2.3h4.8v1.2H0.3
		c-1.6,0-2.5,0.8-2.5,2.1s1.1,2.3,2.6,2.3h4.7v1.2h-8.3V708h1.4c-0.8-0.5-1.6-1.3-1.6-2.7c0-1.3,0.7-2.2,1.7-2.7
		C-2.6,702.1-3.3,701.2-3.3,699.8z"/>
	<path fill="#231F20" d="M4.3,690.7c0-1.1-0.5-1.9-1.2-2.6l0.7-0.8c0.9,0.8,1.6,1.8,1.6,3.4c0,2.3-1.7,4.1-4.3,4.1
		c-2.4,0-4.3-1.7-4.3-4c0-2.5,2-3.9,4.4-3.9c0.1,0,0.2,0,0.4,0v6.6C3.3,693.5,4.3,692.2,4.3,690.7z M0.6,688.3
		c-1.5,0.1-2.8,1-2.8,2.6c0,1.4,1.2,2.5,2.8,2.7V688.3z"/>
	<path fill="#231F20" d="M-3.3,667c0-1.9,1.3-3.1,3.3-3.1h5.1v1.2H0.3c-1.6,0-2.5,0.8-2.5,2.2c0,1.2,0.9,2.3,2.6,2.3h4.8v1.2H0.3
		c-1.6,0-2.5,0.8-2.5,2.1c0,1.3,1.1,2.3,2.6,2.3h4.7v1.2h-8.3v-1.2h1.4c-0.8-0.5-1.6-1.3-1.6-2.7c0-1.3,0.7-2.2,1.7-2.7
		C-2.6,669.3-3.3,668.4-3.3,667z"/>
	<path fill="#231F20" d="M5.4,657.8c1.7,0.7,2.3,1.5,2.3,2.8c0,0.7-0.1,1.2-0.4,1.8l-1-0.4c0.2-0.4,0.3-0.8,0.3-1.3
		c0-0.7-0.4-1.2-1.6-1.7l-8.3,3.8v-1.4l6.9-3l-6.9-2.7v-1.3L5.4,657.8z"/>
	<path fill="#231F20" d="M5.3,650.4c0,1.2-0.5,2.5-1.2,3.4l-0.9-0.6c0.7-0.9,1.1-1.9,1.1-2.9c0-1-0.5-1.7-1.3-1.7h0
		c-0.8,0-1.2,1-1.5,2.1c-0.4,1.3-0.8,2.7-2.3,2.7h0c-1.4,0-2.4-1.2-2.4-2.8c0-1,0.4-2.1,0.9-3l0.9,0.6c-0.5,0.8-0.8,1.7-0.8,2.5
		c0,1,0.5,1.6,1.2,1.6h0c0.8,0,1.1-1,1.4-2.1c0.4-1.3,0.9-2.7,2.4-2.7h0C4.4,647.4,5.3,648.7,5.3,650.4z"/>
	<path fill="#231F20" d="M2.8,644c1,0,1.4-0.6,1.4-1.4c0-0.4-0.1-0.8-0.3-1.2H5c0.2,0.4,0.4,0.9,0.4,1.5c0,1.3-0.7,2.3-2.3,2.3h-5
		v1.2h-1.1v-1.2h-2.5V644h2.5v-2.6H-2v2.6L2.8,644L2.8,644z"/>
	<path fill="#231F20" d="M4.3,635.9c0-1.1-0.5-1.9-1.2-2.6l0.7-0.8c0.9,0.8,1.6,1.8,1.6,3.4c0,2.3-1.7,4.1-4.3,4.1
		c-2.4,0-4.3-1.7-4.3-4c0-2.5,2-3.9,4.4-3.9c0.1,0,0.2,0,0.4,0v6.6C3.3,638.7,4.3,637.4,4.3,635.9z M0.6,633.5
		c-1.5,0.1-2.8,1-2.8,2.6c0,1.4,1.2,2.5,2.8,2.7V633.5z M-6.1,638.4l-0.6-1.3l2.3-1.5v1L-6.1,638.4z"/>
	<path fill="#231F20" d="M5.2,629.3v1.2h-8.3v-1.2H-1c-1.4-0.6-2.4-1.8-2.3-3.4h1.3v0.1c0,1.8,1.3,3.3,3.8,3.3L5.2,629.3L5.2,629.3z
		"/>
	<path fill="#231F20" d="M4.3,621.1c0-1.1-0.5-1.9-1.2-2.6l0.7-0.8c0.9,0.8,1.6,1.8,1.6,3.4c0,2.3-1.7,4.1-4.3,4.1
		c-2.4,0-4.3-1.7-4.3-4c0-2.5,2-3.9,4.4-3.9c0.1,0,0.2,0,0.4,0v6.6C3.3,623.8,4.3,622.6,4.3,621.1z M0.6,618.7
		c-1.5,0.1-2.8,1-2.8,2.6c0,1.4,1.2,2.5,2.8,2.7V618.7z"/>
	<path fill="#231F20" d="M-3.1,602.5H-2v2.6h7.2v1.2H-2v1.1h-1.1v-1.1h-0.7c-1.8,0-2.8-0.9-2.8-2.5c0-0.6,0.1-1,0.2-1.4h1.1
		c-0.1,0.5-0.2,0.8-0.2,1.2c0,1,0.6,1.4,1.8,1.4h0.7V602.5z"/>
	<path fill="#231F20" d="M4.3,597.8c0-1.1-0.5-1.9-1.2-2.6l0.7-0.8c0.9,0.8,1.6,1.8,1.6,3.4c0,2.3-1.7,4.1-4.3,4.1
		c-2.4,0-4.3-1.7-4.3-4c0-2.5,2-3.9,4.4-3.9c0.1,0,0.2,0,0.4,0v6.6C3.3,600.6,4.3,599.3,4.3,597.8z M0.6,595.4
		c-1.5,0.1-2.8,1-2.8,2.6c0,1.4,1.2,2.5,2.8,2.7V595.4z"/>
	<path fill="#231F20" d="M5.3,589.7c0,1.2-0.5,2.5-1.2,3.4l-0.9-0.6c0.7-0.9,1.1-1.9,1.1-2.9c0-1-0.5-1.7-1.3-1.7h0
		c-0.8,0-1.2,1-1.5,2.1c-0.4,1.3-0.8,2.7-2.3,2.7h0c-1.4,0-2.4-1.2-2.4-2.8c0-1,0.4-2.1,0.9-3l0.9,0.6c-0.5,0.8-0.8,1.7-0.8,2.5
		c0,1,0.5,1.6,1.2,1.6h0c0.8,0,1.1-1,1.4-2.1c0.4-1.3,0.9-2.7,2.4-2.7h0C4.4,586.7,5.3,588,5.3,589.7z"/>
	<path fill="#231F20" d="M2.8,583.3c1,0,1.4-0.6,1.4-1.4c0-0.4-0.1-0.8-0.3-1.2H5c0.2,0.4,0.4,0.9,0.4,1.5c0,1.3-0.7,2.3-2.3,2.3h-5
		v1.2h-1.1v-1.2h-2.5v-1.2h2.5v-2.6H-2v2.6H2.8L2.8,583.3z"/>
	<path fill="#231F20" d="M-4.9,578.9h-1.4v-1.4h1.4L-4.9,578.9L-4.9,578.9z M5.2,578.8h-8.3v-1.2h8.3V578.8z"/>
	<path fill="#231F20" d="M-3.1,570.8H-2v2.6h7.2v1.2H-2v1.1h-1.1v-1.1h-0.7c-1.8,0-2.8-0.9-2.8-2.5c0-0.6,0.1-1,0.2-1.4h1.1
		c-0.1,0.4-0.2,0.8-0.2,1.2c0,1,0.6,1.4,1.8,1.4h0.7V570.8z"/>
	<path fill="#231F20" d="M5.2,559.5v1.2h-8.3v-1.2h1.4c-0.9-0.5-1.6-1.4-1.6-2.8c0-2,1.3-3.2,3.3-3.2h5.1v1.2H0.3
		c-1.5,0-2.5,0.8-2.5,2.3c0,1.4,1,2.5,2.6,2.5L5.2,559.5L5.2,559.5z"/>
	<path fill="#231F20" d="M5.4,547.5c0,2.5-2,4.3-4.3,4.3s-4.3-1.8-4.3-4.3c0-2.5,2-4.3,4.3-4.3C3.4,543.2,5.4,545,5.4,547.5z
		 M-2.2,547.5c0,1.8,1.4,3,3.2,3c1.8,0,3.2-1.3,3.2-3.1c0-1.8-1.4-3-3.2-3C-0.8,544.4-2.2,545.8-2.2,547.5z"/>
	<path fill="#231F20" d="M5.3,538.6c0,1.2-0.5,2.5-1.2,3.4l-0.9-0.6c0.7-0.9,1.1-1.9,1.1-2.9c0-1-0.5-1.7-1.3-1.7h0
		c-0.8,0-1.2,1-1.5,2.1c-0.4,1.3-0.8,2.7-2.3,2.7h0c-1.4,0-2.4-1.2-2.4-2.8c0-1,0.4-2.1,0.9-3l0.9,0.6c-0.5,0.8-0.8,1.6-0.8,2.5
		c0,1,0.5,1.6,1.2,1.6h0c0.8,0,1.1-1,1.4-2.1c0.4-1.3,0.9-2.7,2.4-2.7h0C4.4,535.6,5.3,536.9,5.3,538.6z"/>
	<path fill="#231F20" d="M2.8,532.2c1,0,1.4-0.6,1.4-1.4c0-0.4-0.1-0.8-0.3-1.2H5c0.2,0.4,0.4,0.9,0.4,1.5c0,1.3-0.7,2.3-2.3,2.3h-5
		v1.2h-1.1v-1.2h-2.5v-1.2h2.5v-2.6H-2v2.6H2.8z"/>
	<path fill="#231F20" d="M-1.5,527.3l-1,0.4c-0.4-0.9-0.7-1.8-0.7-3c0-2.3,1.2-3.5,3.3-3.5h5.1v1.2H3.9c0.8,0.6,1.4,1.5,1.4,3
		c0,1.5-0.9,3.1-2.6,3.1c-1.8,0-2.7-1.4-2.7-3.5c0-1.1,0.1-1.8,0.4-2.6H0.1c-1.5,0-2.3,0.9-2.3,2.5C-2.1,525.8-1.9,526.6-1.5,527.3z
		 M2.7,527.2c1.1,0,1.7-1,1.7-2.1c0-1.5-0.9-2.8-2.2-2.8H1.3c-0.2,0.6-0.4,1.4-0.4,2.4C1,526.3,1.6,527.2,2.7,527.2z"/>
	<path fill="#231F20" d="M5.2,518.8H-6.5v-1.2H5.2V518.8z"/>
	<path fill="#231F20" d="M7.8,511.4c0,1.4-0.4,2.7-1.2,3.8l-1-0.6c0.7-0.9,1.1-2,1.1-3.2c0-1.8-1-3-3-3h-1c1,0.7,1.7,1.7,1.7,3.3
		c0,2-1.5,3.9-3.9,3.9c-2.4,0-3.9-1.9-3.9-3.9c0-1.6,0.8-2.6,1.7-3.2h-1.5v-1.2h6.8C6.4,507.2,7.8,508.9,7.8,511.4z M-2.2,511.5
		c0,1.6,1.1,2.9,2.8,2.9c1.7,0,2.8-1.3,2.8-2.9c0-1.6-1.1-3-2.8-3C-1.1,508.4-2.2,509.9-2.2,511.5z"/>
	<path fill="#231F20" d="M-4.9,504.8h-1.4v-1.4h1.4L-4.9,504.8L-4.9,504.8z M5.2,504.8h-8.3v-1.2h8.3V504.8z"/>
	<path fill="#231F20" d="M4.3,497.4c0-1.1-0.5-1.9-1.2-2.6l0.7-0.8c0.9,0.8,1.6,1.8,1.6,3.4c0,2.3-1.7,4.1-4.3,4.1
		c-2.4,0-4.3-1.7-4.3-4c0-2.5,2-3.9,4.4-3.9c0.1,0,0.2,0,0.4,0v6.6C3.3,500.1,4.3,498.8,4.3,497.4z M0.6,495c-1.5,0.1-2.8,1-2.8,2.6
		c0,1.4,1.2,2.5,2.8,2.7V495z"/>
	<path fill="#231F20" d="M5.3,478.7c0,1.5-0.8,2.5-1.8,3.2h4.2v1.2H-3.1v-1.2h1.7c-1-0.7-1.8-1.7-1.8-3.2c0-2,1.6-4,4.3-4
		C3.7,474.8,5.3,476.7,5.3,478.7z M-2.2,478.9c0,1.5,1.3,3,3.2,3c1.9,0,3.2-1.5,3.2-3c0-1.6-1.2-2.9-3.2-2.9
		C-0.9,476-2.2,477.4-2.2,478.9z"/>
	<path fill="#231F20" d="M5.2,472.8H-6.5v-1.2H5.2V472.8z"/>
	<path fill="#231F20" d="M-1.5,468.6l-1,0.4c-0.4-0.9-0.7-1.8-0.7-3c0-2.3,1.2-3.5,3.3-3.5h5.1v1.2H3.9c0.8,0.6,1.4,1.5,1.4,3
		c0,1.5-0.9,3.1-2.6,3.1c-1.8,0-2.7-1.4-2.7-3.5c0-1.1,0.1-1.8,0.4-2.6H0.1c-1.5,0-2.3,0.9-2.3,2.5C-2.1,467-1.9,467.8-1.5,468.6z
		 M2.7,468.4c1.1,0,1.7-1,1.7-2.1c0-1.5-0.9-2.8-2.2-2.8H1.3C1.1,464.2,1,465,1,466C1,467.6,1.6,468.4,2.7,468.4z"/>
	<path fill="#231F20" d="M2.8,458.6c1,0,1.4-0.6,1.4-1.4c0-0.4-0.1-0.8-0.3-1.2H5c0.2,0.4,0.4,0.9,0.4,1.5c0,1.3-0.7,2.3-2.3,2.3h-5
		v1.2h-1.1v-1.2h-2.5v-1.2h2.5v-2.6H-2v2.6L2.8,458.6L2.8,458.6z"/>
	<path fill="#231F20" d="M4.3,450.8c0-1.1-0.5-1.9-1.2-2.6l0.7-0.8c0.9,0.8,1.6,1.8,1.6,3.4c0,2.3-1.7,4.1-4.3,4.1
		c-2.4,0-4.3-1.7-4.3-4c0-2.5,2-3.9,4.4-3.9c0.1,0,0.2,0,0.4,0v6.6C3.3,453.5,4.3,452.2,4.3,450.8z M0.6,448.3
		c-1.5,0.1-2.8,1-2.8,2.6c0,1.4,1.2,2.5,2.8,2.7V448.3z"/>
	<path fill="#231F20" d="M2.8,434.8c1,0,1.4-0.6,1.4-1.4c0-0.4-0.1-0.8-0.3-1.2H5c0.2,0.4,0.4,0.9,0.4,1.5c0,1.3-0.7,2.3-2.3,2.3h-5
		v1.2h-1.1v-1.2h-2.5v-1.2h2.5v-2.6H-2v2.6L2.8,434.8L2.8,434.8z"/>
	<path fill="#231F20" d="M4.3,427c0-1.1-0.5-1.9-1.2-2.6l0.7-0.8c0.9,0.8,1.6,1.8,1.6,3.4c0,2.3-1.7,4.1-4.3,4.1
		c-2.4,0-4.3-1.7-4.3-4c0-2.5,2-3.9,4.4-3.9c0.1,0,0.2,0,0.4,0v6.6C3.3,429.7,4.3,428.5,4.3,427z M0.6,424.6c-1.5,0.1-2.8,1-2.8,2.6
		c0,1.4,1.2,2.5,2.8,2.7V424.6z"/>
	<path fill="#231F20" d="M5.2,420.3v1.2h-8.3v-1.2h1.4c-0.9-0.5-1.6-1.4-1.6-2.8c0-2,1.3-3.2,3.3-3.2h5.1v1.2H0.3
		c-1.5,0-2.5,0.8-2.5,2.3c0,1.4,1,2.5,2.6,2.5L5.2,420.3L5.2,420.3z"/>
	<path fill="#231F20" d="M5.2,405.4H3.5c1,0.7,1.8,1.7,1.8,3.2c0,2-1.6,4-4.3,4c-2.7,0-4.3-2-4.3-4c0-1.5,0.8-2.5,1.8-3.2h-5v-1.2
		H5.2L5.2,405.4L5.2,405.4z M-2.2,408.4c0,1.6,1.2,2.9,3.2,2.9c2,0,3.2-1.3,3.2-2.9c0-1.5-1.3-3-3.2-3
		C-0.9,405.4-2.2,406.8-2.2,408.4z"/>
	<path fill="#231F20" d="M5.2,400.6v1.2h-8.3v-1.2H-1c-1.4-0.6-2.4-1.8-2.3-3.4h1.3v0.1c0,1.8,1.3,3.3,3.8,3.3H5.2z"/>
	<path fill="#231F20" d="M4.3,392.4c0-1.1-0.5-1.9-1.2-2.6l0.7-0.8c0.9,0.8,1.6,1.8,1.6,3.4c0,2.3-1.7,4.1-4.3,4.1
		c-2.4,0-4.3-1.7-4.3-4c0-2.5,2-3.9,4.4-3.9c0.1,0,0.2,0,0.4,0v6.6C3.3,395.2,4.3,393.9,4.3,392.4z M0.6,390c-1.5,0.1-2.8,1-2.8,2.6
		c0,1.4,1.2,2.5,2.8,2.7V390z"/>
	<path fill="#231F20" d="M5.3,384.2c0,1.2-0.5,2.5-1.2,3.4L3.2,387c0.7-0.9,1.1-1.9,1.1-2.9c0-1-0.5-1.7-1.3-1.7h0
		c-0.8,0-1.2,1-1.5,2.1c-0.4,1.3-0.8,2.7-2.3,2.7h0c-1.4,0-2.4-1.2-2.4-2.8c0-1,0.4-2.1,0.9-3l0.9,0.6c-0.5,0.8-0.8,1.7-0.8,2.5
		c0,1,0.5,1.6,1.2,1.6h0c0.8,0,1.1-1,1.4-2.1c0.4-1.3,0.9-2.7,2.4-2.7h0C4.4,381.3,5.3,382.6,5.3,384.2z"/>
	<path fill="#231F20" d="M5.3,376.8c0,1.2-0.5,2.5-1.2,3.4l-0.9-0.6c0.7-0.9,1.1-1.9,1.1-2.9c0-1-0.5-1.7-1.3-1.7h0
		c-0.8,0-1.2,1-1.5,2.1c-0.4,1.3-0.8,2.7-2.3,2.7h0c-1.4,0-2.4-1.2-2.4-2.8c0-1,0.4-2.1,0.9-3l0.9,0.6c-0.5,0.8-0.8,1.7-0.8,2.5
		c0,1,0.5,1.6,1.2,1.6h0c0.8,0,1.1-1,1.4-2.1c0.4-1.3,0.9-2.7,2.4-2.7h0C4.4,373.9,5.3,375.2,5.3,376.8z"/>
	<path fill="#231F20" d="M4.3,368.3c0-1.1-0.5-1.9-1.2-2.6l0.7-0.8c0.9,0.8,1.6,1.8,1.6,3.4c0,2.3-1.7,4.1-4.3,4.1
		c-2.4,0-4.3-1.7-4.3-4c0-2.5,2-3.9,4.4-3.9c0.1,0,0.2,0,0.4,0v6.6C3.3,371.1,4.3,369.8,4.3,368.3z M0.6,365.9
		c-1.5,0.1-2.8,1-2.8,2.6c0,1.4,1.2,2.5,2.8,2.7V365.9z"/>
	<path fill="#231F20" d="M-3.1,347.9v-1.3l8.4,3.6v1.1l-8.4,3.6v-1.4l6.9-2.8L-3.1,347.9z"/>
	<path fill="#231F20" d="M-4.9,345h-1.4v-1.4h1.4L-4.9,345L-4.9,345z M5.2,344.9h-8.3v-1.2h8.3V344.9z"/>
	<path fill="#231F20" d="M4.3,337.6c0-1.1-0.5-1.9-1.2-2.6l0.7-0.8c0.9,0.8,1.6,1.8,1.6,3.4c0,2.3-1.7,4.1-4.3,4.1
		c-2.4,0-4.3-1.7-4.3-4c0-2.5,2-3.9,4.4-3.9c0.1,0,0.2,0,0.4,0v6.6C3.3,340.3,4.3,339,4.3,337.6z M0.6,335.1c-1.5,0.1-2.8,1-2.8,2.6
		c0,1.4,1.2,2.5,2.8,2.7V335.1z"/>
	<path fill="#231F20" d="M-3.1,326.2V325h8.3v1.2H3.7c0.9,0.6,1.6,1.4,1.6,2.8c0,2-1.3,3.2-3.3,3.2h-5.1V331h4.8
		c1.5,0,2.5-0.8,2.5-2.3c0-1.4-1-2.5-2.6-2.5L-3.1,326.2L-3.1,326.2z"/>
	<path fill="#231F20" d="M5.2,315.4v1.4l-3.4,2.6l3.4,2.6v1.4L1,320.1l-4.1,3.1v-1.4l3.2-2.5l-3.2-2.5v-1.4l4,3.1L5.2,315.4z"/>
	<path fill="#231F20" d="M-3.1,308.1h8.8c1.5,0,2.1,0.8,2.1,2c0,0.3,0,0.5-0.1,0.8h-1c0-0.2,0-0.4,0-0.6c0-0.6-0.3-0.9-1.1-0.9h-8.8
		L-3.1,308.1L-3.1,308.1z M-4.9,309.4h-1.4V308h1.4L-4.9,309.4L-4.9,309.4z"/>
	<path fill="#231F20" d="M4.3,301.9c0-1.1-0.5-1.9-1.2-2.6l0.7-0.8c0.9,0.8,1.6,1.8,1.6,3.4c0,2.3-1.7,4.1-4.3,4.1
		c-2.4,0-4.3-1.7-4.3-4c0-2.5,2-3.9,4.4-3.9c0.1,0,0.2,0,0.4,0v6.6C3.3,304.7,4.3,303.4,4.3,301.9z M0.6,299.5
		c-1.5,0.1-2.8,1-2.8,2.6c0,1.4,1.2,2.5,2.8,2.7V299.5z"/>
	<path fill="#231F20" d="M-3.1,290.6v-1.2h8.3v1.2H3.7c0.9,0.6,1.6,1.4,1.6,2.8c0,2-1.3,3.2-3.3,3.2h-5.1v-1.2h4.8
		c1.5,0,2.5-0.8,2.5-2.3c0-1.4-1-2.5-2.6-2.5L-3.1,290.6L-3.1,290.6z"/>
</g>
<path fill="#231F20" d="M12.9,690c0-1.4,0.9-2.2,2.4-2.2H19v0.9h-3.5c-1.1,0-1.8,0.6-1.8,1.5c0,0.9,0.7,1.6,1.8,1.6H19v0.9h-3.5
	c-1.1,0-1.8,0.6-1.8,1.5c0,0.9,0.8,1.6,1.9,1.6H19v0.9h-5.9v-0.9h1c-0.6-0.4-1.1-0.9-1.1-1.9c0-1,0.5-1.6,1.2-1.9
	C13.5,691.7,12.9,691,12.9,690z"/>
<path fill="#231F20" d="M14.2,685.8l-0.7,0.3c-0.3-0.7-0.5-1.3-0.5-2.1c0-1.6,0.8-2.5,2.4-2.5H19v0.8h-0.9c0.5,0.4,1,1.1,1,2.1
	c0,1.1-0.6,2.2-1.9,2.2c-1.3,0-1.9-1-1.9-2.5c0-0.8,0.1-1.3,0.3-1.8h-0.2c-1.1,0-1.6,0.7-1.6,1.8C13.8,684.7,13.9,685.3,14.2,685.8z
	 M17.2,685.7c0.8,0,1.2-0.7,1.2-1.5c0-1.1-0.7-2-1.6-2h-0.6c-0.1,0.4-0.3,1-0.3,1.7C16,685.1,16.5,685.7,17.2,685.7z"/>
<path fill="#231F20" d="M17.3,678.7c0.7,0,1-0.4,1-1c0-0.3-0.1-0.5-0.2-0.9h0.8c0.2,0.3,0.3,0.6,0.3,1.1c0,0.9-0.5,1.7-1.7,1.7h-3.6
	v0.8h-0.8v-0.8h-1.8v-0.9h1.8v-1.9h0.8v1.9L17.3,678.7L17.3,678.7z"/>
<path fill="#231F20" d="M11.8,675.6h-1v-1h1L11.8,675.6L11.8,675.6z M19,675.5h-5.9v-0.9H19V675.5z"/>
<path fill="#231F20" d="M20.8,668.1h-3c0.7,0.5,1.3,1.2,1.3,2.3c0,1.4-1.1,2.8-3.1,2.8c-1.9,0-3.1-1.4-3.1-2.8
	c0-1.1,0.6-1.8,1.3-2.3h-1.1v-0.9h7.7L20.8,668.1L20.8,668.1z M13.7,670.2c0,1.1,0.8,2.1,2.3,2.1c1.4,0,2.3-1,2.3-2.1
	c0-1.1-0.9-2.1-2.3-2.1C14.6,668.1,13.7,669.1,13.7,670.2z"/>
<path fill="#231F20" d="M13.1,661.4v-0.9H19v0.9h-1c0.6,0.4,1.2,1,1.2,2c0,1.4-1,2.3-2.4,2.3h-3.7v-0.9h3.5c1.1,0,1.8-0.6,1.8-1.6
	c0-1-0.7-1.8-1.9-1.8L13.1,661.4L13.1,661.4z"/>
<path fill="#231F20" d="M18.3,656.2c0-0.8-0.3-1.4-0.8-1.9l0.5-0.5c0.7,0.6,1.1,1.3,1.1,2.4c0,1.6-1.2,2.9-3.1,2.9
	c-1.7,0-3.1-1.2-3.1-2.8c0-1.7,1.4-2.8,3.1-2.8c0.1,0,0.2,0,0.3,0v4.7C17.6,658.2,18.3,657.2,18.3,656.2z M15.7,654.5
	c-1.1,0.1-2,0.7-2,1.9c0,1,0.9,1.8,2,1.9V654.5z"/>
<path fill="#231F20" d="M19.1,643.4c0,1.7-1.4,3-3.1,3c-1.7,0-3.1-1.3-3.1-3c0-1.1,0.5-1.8,1.1-2.4l0.6,0.6c-0.5,0.5-0.9,1-0.9,1.8
	c0,1.2,1,2.1,2.3,2.1c1.3,0,2.3-0.9,2.3-2.2c0-0.8-0.4-1.3-0.9-1.8L18,641C18.6,641.6,19.1,642.3,19.1,643.4z"/>
<path fill="#231F20" d="M14.2,639.5l-0.7,0.3c-0.3-0.7-0.5-1.3-0.5-2.1c0-1.6,0.8-2.5,2.4-2.5H19v0.8h-0.9c0.5,0.4,1,1.1,1,2.1
	c0,1.1-0.6,2.2-1.9,2.2c-1.3,0-1.9-1-1.9-2.5c0-0.8,0.1-1.3,0.3-1.8h-0.2c-1.1,0-1.6,0.6-1.6,1.8C13.8,638.4,13.9,638.9,14.2,639.5z
	 M17.2,639.4c0.8,0,1.2-0.7,1.2-1.5c0-1.1-0.7-2-1.6-2h-0.6c-0.1,0.4-0.3,1-0.3,1.7C16,638.7,16.5,639.4,17.2,639.4z"/>
<path fill="#231F20" d="M19,633.4h-8.3v-0.9H19V633.4z"/>
<path fill="#231F20" d="M12.9,624c0-1.4,0.9-2.2,2.4-2.2H19v0.9h-3.5c-1.1,0-1.8,0.6-1.8,1.5c0,0.9,0.7,1.6,1.8,1.6H19v0.9h-3.5
	c-1.1,0-1.8,0.6-1.8,1.5c0,0.9,0.8,1.6,1.9,1.6H19v0.9h-5.9v-0.9h1c-0.6-0.4-1.1-0.9-1.1-1.9c0-1,0.5-1.6,1.2-1.9
	C13.5,625.6,12.9,625,12.9,624z"/>
<path fill="#231F20" d="M18.3,617.6c0-0.8-0.3-1.4-0.8-1.9l0.5-0.5c0.7,0.6,1.1,1.3,1.1,2.4c0,1.6-1.2,2.9-3.1,2.9
	c-1.7,0-3.1-1.2-3.1-2.8c0-1.7,1.4-2.8,3.1-2.8c0.1,0,0.2,0,0.3,0v4.7C17.6,619.5,18.3,618.6,18.3,617.6z M15.7,615.8
	c-1.1,0.1-2,0.7-2,1.9c0,1,0.9,1.8,2,1.9V615.8z"/>
<path fill="#231F20" d="M19,596.4h-4.9c-1.2,0-1.8,0.5-1.8,1.5c0,0.9,0.6,1.5,1.8,1.5H19v2.5h-4.9c-1.2,0-1.8,0.5-1.8,1.4
	c0,0.9,0.6,1.5,1.8,1.5H19v2.5h-8.7v-2.5h1.2c-0.7-0.6-1.4-1.3-1.4-2.6c0-1.1,0.5-2,1.4-2.5c-0.9-0.8-1.4-1.7-1.4-2.9
	c0-1.8,1.1-3,3.2-3H19V596.4z"/>
<path fill="#231F20" d="M19.2,587.5c1.8,0.7,2.4,1.4,2.4,2.9c0,0.9-0.2,1.6-0.6,2.2l-1.8-0.8c0.2-0.3,0.3-0.7,0.3-1.1
	c0-0.4-0.1-0.7-0.6-0.9l-8.8,3.4v-2.6l5.9-2l-5.9-1.9v-2.6L19.2,587.5z"/>
<path fill="#231F20" d="M19.1,580.3c0,1.2-0.4,2.6-1.3,3.7l-1.6-1.1c0.7-0.9,1-1.9,1-2.8c0-0.7-0.3-1-0.7-1h0c-0.5,0-0.7,0.8-1,1.8
	c-0.4,1.2-0.9,2.6-2.6,2.6h0c-1.8,0-2.8-1.4-2.8-3.2c0-1.1,0.4-2.3,1-3.3l1.7,0.9c-0.5,0.9-0.8,1.7-0.8,2.4c0,0.6,0.3,0.9,0.6,0.9h0
	c0.5,0,0.7-0.8,1-1.8c0.4-1.2,1-2.6,2.6-2.6h0C18.3,577,19.1,578.4,19.1,580.3z"/>
<path fill="#231F20" d="M19.1,572.8c0,1.5-0.6,2.5-2.6,2.5h-4.1v1h-2.1v-1H8v-2.5h2.2v-2.1h2.1v2.1h3.7c0.6,0,0.8-0.2,0.8-0.8
	c0-0.5-0.1-0.9-0.3-1.2h2C18.9,571.4,19.1,572,19.1,572.8z"/>
<path fill="#231F20" d="M15.5,561.3v6.1c1.1-0.2,1.7-1,1.7-2.1c0-0.8-0.3-1.4-0.9-2.1l1.3-1.4c1,0.8,1.6,2,1.6,3.6
	c0,2.6-1.8,4.6-4.5,4.6h0c-2.5,0-4.5-1.8-4.5-4.3c0-2.9,2.3-4.3,4.7-4.3h0C15.1,561.3,15.2,561.3,15.5,561.3z M9.3,566.5l-2,2.1
	l-0.9-2.1l2.9-1.8V566.5z M12.1,565.5c0,1,0.7,1.7,1.9,1.9v-3.7C12.8,563.8,12.1,564.5,12.1,565.5z"/>
<path fill="#231F20" d="M12.7,554.7c0,1.6,1,2.7,3.1,2.7H19v2.5h-8.7v-2.5H12c-1.2-0.5-2-1.3-1.9-2.8h2.6L12.7,554.7L12.7,554.7z"/>
<path fill="#231F20" d="M15.5,545.6v6.1c1.1-0.2,1.7-1,1.7-2.1c0-0.8-0.3-1.4-0.9-2.1l1.3-1.4c1,0.8,1.6,2,1.6,3.6
	c0,2.6-1.8,4.6-4.5,4.6h0c-2.5,0-4.5-1.8-4.5-4.3c0-2.9,2.3-4.3,4.7-4.3h0C15.1,545.5,15.2,545.6,15.5,545.6z M12.1,549.8
	c0,1,0.7,1.7,1.9,1.9V548C12.8,548.1,12.1,548.8,12.1,549.8z"/>
<path fill="#231F20" d="M19,537.1v0.9h-5.9v-0.9h1c-0.6-0.4-1.2-1-1.2-2c0-1.4,1-2.3,2.4-2.3H19v0.9h-3.5c-1.1,0-1.8,0.6-1.8,1.6
	c0,1,0.7,1.8,1.9,1.8H19z"/>
<path fill="#231F20" d="M19.1,528.5c0,1.8-1.4,3.1-3.1,3.1s-3.1-1.3-3.1-3.1c0-1.8,1.4-3.1,3.1-3.1
	C17.7,525.4,19.1,526.7,19.1,528.5z M13.7,528.5c0,1.3,1,2.2,2.3,2.2s2.3-0.9,2.3-2.2c0-1.3-1-2.2-2.3-2.2
	C14.7,526.3,13.7,527.3,13.7,528.5z"/>
<path fill="#231F20" d="M19.1,522.1c0,0.8-0.3,1.8-0.9,2.4l-0.6-0.4c0.5-0.6,0.8-1.3,0.8-2c0-0.7-0.4-1.2-0.9-1.2h0
	c-0.6,0-0.8,0.7-1,1.5c-0.3,0.9-0.6,2-1.7,2h0c-1,0-1.7-0.8-1.7-2c0-0.7,0.3-1.5,0.7-2.1l0.7,0.4c-0.4,0.5-0.6,1.2-0.6,1.7
	c0,0.7,0.4,1.1,0.9,1.1h0c0.6,0,0.8-0.7,1-1.5c0.3-0.9,0.6-1.9,1.7-1.9h0C18.4,520,19.1,521,19.1,522.1z"/>
<path fill="#231F20" d="M17.3,517.6c0.7,0,1-0.4,1-1c0-0.3-0.1-0.5-0.2-0.9h0.8c0.2,0.3,0.3,0.6,0.3,1.1c0,0.9-0.5,1.7-1.7,1.7h-3.6
	v0.8h-0.8v-0.8h-1.8v-0.9h1.8v-1.9h0.8v1.9H17.3z"/>
<path fill="#231F20" d="M14.2,514.1l-0.7,0.3c-0.3-0.7-0.5-1.3-0.5-2.1c0-1.6,0.8-2.5,2.4-2.5H19v0.8h-0.9c0.5,0.4,1,1.1,1,2.1
	c0,1.1-0.6,2.2-1.9,2.2c-1.3,0-1.9-1-1.9-2.5c0-0.8,0.1-1.3,0.3-1.8h-0.2c-1.1,0-1.6,0.7-1.6,1.8C13.8,513,13.9,513.6,14.2,514.1z
	 M17.2,514c0.8,0,1.2-0.7,1.2-1.5c0-1.1-0.7-2-1.6-2h-0.6c-0.1,0.4-0.3,1-0.3,1.7C16,513.4,16.5,514,17.2,514z"/>
<path fill="#231F20" d="M19,508.1h-8.3v-0.9H19V508.1z"/>
<path fill="#231F20" d="M20.8,502.8c0,1-0.3,1.9-0.8,2.7l-0.7-0.4c0.5-0.7,0.8-1.4,0.8-2.3c0-1.3-0.7-2.2-2.1-2.2h-0.7
	c0.7,0.5,1.2,1.2,1.2,2.3c0,1.4-1.1,2.8-2.8,2.8c-1.7,0-2.8-1.4-2.8-2.8c0-1.1,0.5-1.8,1.2-2.3h-1.1v-0.9h4.9
	C19.9,499.8,20.8,501,20.8,502.8z M13.7,502.8c0,1.1,0.8,2,2,2c1.2,0,2-0.9,2-2c0-1.1-0.8-2.2-2-2.2
	C14.5,500.7,13.7,501.7,13.7,502.8z"/>
<path fill="#231F20" d="M11.8,498.1h-1v-1h1L11.8,498.1L11.8,498.1z M19,498h-5.9v-0.9H19V498z"/>
<path fill="#231F20" d="M18.3,492.8c0-0.8-0.3-1.4-0.8-1.9l0.5-0.5c0.7,0.6,1.1,1.3,1.1,2.4c0,1.6-1.2,2.9-3.1,2.9
	c-1.7,0-3.1-1.2-3.1-2.8c0-1.7,1.4-2.8,3.1-2.8c0.1,0,0.2,0,0.3,0v4.7C17.6,494.8,18.3,493.8,18.3,492.8z M15.7,491.1
	c-1.1,0.1-2,0.7-2,1.9c0,1,0.9,1.8,2,1.9V491.1z"/>
<path fill="#231F20" d="M19.1,479.5c0,1.1-0.6,1.8-1.3,2.3h3v0.9h-7.7v-0.9h1.2c-0.7-0.5-1.3-1.2-1.3-2.3c0-1.4,1.1-2.8,3.1-2.8
	C18,476.7,19.1,478.1,19.1,479.5z M13.7,479.7c0,1.1,0.9,2.1,2.3,2.1c1.4,0,2.3-1,2.3-2.1c0-1.1-0.8-2.1-2.3-2.1
	C14.6,477.6,13.7,478.5,13.7,479.7z"/>
<path fill="#231F20" d="M19,475.3h-8.3v-0.9H19V475.3z"/>
<path fill="#231F20" d="M14.2,472.3l-0.7,0.3c-0.3-0.6-0.5-1.3-0.5-2.1c0-1.6,0.8-2.5,2.4-2.5H19v0.8h-0.9c0.5,0.4,1,1.1,1,2.1
	c0,1.1-0.6,2.2-1.9,2.2c-1.3,0-1.9-1-1.9-2.5c0-0.8,0.1-1.3,0.3-1.8h-0.2c-1.1,0-1.6,0.7-1.6,1.8C13.8,471.2,13.9,471.7,14.2,472.3z
	 M17.2,472.2c0.8,0,1.2-0.7,1.2-1.5c0-1.1-0.7-2-1.6-2h-0.6c-0.1,0.4-0.3,1-0.3,1.7C16,471.6,16.5,472.2,17.2,472.2z"/>
<path fill="#231F20" d="M17.3,465.2c0.7,0,1-0.4,1-1c0-0.3-0.1-0.5-0.2-0.9h0.8c0.2,0.3,0.3,0.6,0.3,1.1c0,0.9-0.5,1.7-1.7,1.7h-3.6
	v0.8h-0.8V466h-1.8v-0.9h1.8v-1.9h0.8v1.9L17.3,465.2L17.3,465.2z"/>
<path fill="#231F20" d="M18.3,459.6c0-0.8-0.3-1.4-0.8-1.9l0.5-0.5c0.7,0.6,1.1,1.3,1.1,2.4c0,1.6-1.2,2.9-3.1,2.9
	c-1.7,0-3.1-1.2-3.1-2.8c0-1.7,1.4-2.8,3.1-2.8c0.1,0,0.2,0,0.3,0v4.7C17.6,461.5,18.3,460.6,18.3,459.6z M15.7,457.9
	c-1.1,0.1-2,0.7-2,1.9c0,1,0.9,1.8,2,1.9V457.9z"/>
<path fill="#231F20" d="M17.3,448.2c0.7,0,1-0.4,1-1c0-0.3-0.1-0.5-0.2-0.9h0.8c0.2,0.3,0.3,0.6,0.3,1.1c0,0.9-0.5,1.7-1.7,1.7h-3.6
	v0.8h-0.8v-0.8h-1.8v-0.9h1.8v-1.9h0.8v1.9H17.3z"/>
<path fill="#231F20" d="M18.3,442.7c0-0.8-0.3-1.4-0.8-1.9l0.5-0.5c0.7,0.6,1.1,1.3,1.1,2.4c0,1.6-1.2,2.9-3.1,2.9
	c-1.7,0-3.1-1.2-3.1-2.8c0-1.7,1.4-2.8,3.1-2.8c0.1,0,0.2,0,0.3,0v4.7C17.6,444.6,18.3,443.7,18.3,442.7z M15.7,440.9
	c-1.1,0.1-2,0.7-2,1.9c0,1,0.9,1.8,2,1.9V440.9z"/>
<path fill="#231F20" d="M19,437.9v0.9h-5.9v-0.9h1c-0.6-0.4-1.2-1-1.2-2c0-1.4,1-2.3,2.4-2.3H19v0.9h-3.5c-1.1,0-1.8,0.6-1.8,1.6
	c0,1,0.7,1.8,1.9,1.8H19z"/>
<path fill="#231F20" d="M19,427.3h-1.2c0.7,0.5,1.3,1.2,1.3,2.3c0,1.4-1.1,2.8-3.1,2.8c-1.9,0-3.1-1.4-3.1-2.8
	c0-1.1,0.6-1.8,1.3-2.3h-3.6v-0.9H19V427.3z M13.7,429.4c0,1.1,0.8,2.1,2.3,2.1c1.4,0,2.3-1,2.3-2.1c0-1.1-0.9-2.1-2.3-2.1
	C14.6,427.3,13.7,428.3,13.7,429.4z"/>
<path fill="#231F20" d="M19,423.9v0.9h-5.9v-0.9h1.5c-1-0.4-1.7-1.3-1.6-2.4h0.9v0.1c0,1.3,0.9,2.3,2.7,2.3L19,423.9L19,423.9z"/>
<path fill="#231F20" d="M18.3,418c0-0.8-0.3-1.4-0.8-1.9l0.5-0.5c0.7,0.6,1.1,1.3,1.1,2.4c0,1.6-1.2,2.9-3.1,2.9
	c-1.7,0-3.1-1.2-3.1-2.8c0-1.7,1.4-2.8,3.1-2.8c0.1,0,0.2,0,0.3,0v4.7C17.6,420,18.3,419.1,18.3,418z M15.7,416.3
	c-1.1,0.1-2,0.7-2,1.9c0,1,0.9,1.8,2,1.9V416.3z"/>
<path fill="#231F20" d="M19.1,412.2c0,0.8-0.3,1.8-0.9,2.4l-0.6-0.4c0.5-0.6,0.8-1.4,0.8-2c0-0.7-0.4-1.2-0.9-1.2h0
	c-0.6,0-0.8,0.7-1,1.5c-0.3,0.9-0.6,2-1.7,2h0c-1,0-1.7-0.8-1.7-2c0-0.7,0.3-1.5,0.7-2.1l0.7,0.4c-0.4,0.5-0.6,1.2-0.6,1.7
	c0,0.7,0.4,1.1,0.9,1.1h0c0.6,0,0.8-0.7,1-1.5c0.3-0.9,0.6-1.9,1.7-1.9h0C18.4,410.1,19.1,411,19.1,412.2z"/>
<path fill="#231F20" d="M19.1,406.9c0,0.8-0.3,1.8-0.9,2.4l-0.6-0.4c0.5-0.6,0.8-1.3,0.8-2c0-0.7-0.4-1.2-0.9-1.2h0
	c-0.6,0-0.8,0.7-1,1.5c-0.3,0.9-0.6,2-1.7,2h0c-1,0-1.7-0.8-1.7-2c0-0.7,0.3-1.5,0.7-2.1l0.7,0.4c-0.4,0.5-0.6,1.2-0.6,1.8
	c0,0.7,0.4,1.1,0.9,1.1h0c0.6,0,0.8-0.7,1-1.5c0.3-0.9,0.6-1.9,1.7-1.9h0C18.4,404.8,19.1,405.7,19.1,406.9z"/>
<path fill="#231F20" d="M18.3,400.9c0-0.8-0.3-1.4-0.8-1.9l0.5-0.5c0.7,0.6,1.1,1.3,1.1,2.4c0,1.6-1.2,2.9-3.1,2.9
	c-1.7,0-3.1-1.2-3.1-2.8c0-1.8,1.4-2.8,3.1-2.8c0.1,0,0.2,0,0.3,0v4.7C17.6,402.8,18.3,401.9,18.3,400.9z M15.7,399.1
	c-1.1,0.1-2,0.7-2,1.9c0,1,0.9,1.8,2,1.9V399.1z"/>
<path fill="#231F20" d="M20.8,386h-3c0.7,0.5,1.3,1.2,1.3,2.3c0,1.4-1.1,2.8-3.1,2.8c-1.9,0-3.1-1.4-3.1-2.8c0-1.1,0.6-1.8,1.3-2.3
	h-1.1v-0.9h7.7L20.8,386L20.8,386z M13.7,388.1c0,1.1,0.8,2.1,2.3,2.1c1.4,0,2.3-1,2.3-2.1c0-1.1-0.9-2.1-2.3-2.1
	C14.6,385.9,13.7,387,13.7,388.1z"/>
<path fill="#231F20" d="M13.1,379.2v-0.9H19v0.9h-1c0.6,0.4,1.2,1,1.2,2c0,1.4-1,2.3-2.4,2.3h-3.7v-0.9h3.5c1.1,0,1.8-0.6,1.8-1.6
	c0-1-0.7-1.8-1.9-1.8H13.1z"/>
<path fill="#231F20" d="M18.3,374c0-0.8-0.3-1.4-0.8-1.9l0.5-0.6c0.7,0.6,1.1,1.3,1.1,2.4c0,1.6-1.2,2.9-3.1,2.9
	c-1.7,0-3.1-1.2-3.1-2.8c0-1.7,1.4-2.8,3.1-2.8c0.1,0,0.2,0,0.3,0v4.7C17.6,376,18.3,375.1,18.3,374z M15.7,372.3
	c-1.1,0.1-2,0.7-2,1.9c0,1,0.9,1.8,2,1.9V372.3z M12.2,374.7l-1.7-1.1l0.4-0.9l1.2,1.3V374.7z"/>
<path fill="#231F20" d="M17.3,369c0.7,0,1-0.4,1-1c0-0.3-0.1-0.5-0.2-0.9h0.8c0.2,0.3,0.3,0.6,0.3,1.1c0,0.9-0.5,1.7-1.7,1.7h-3.6
	v0.8h-0.8v-0.8h-1.8V369h1.8v-1.9h0.8v1.9L17.3,369L17.3,369z"/>
<path fill="#231F20" d="M14.2,365.5l-0.7,0.3c-0.3-0.7-0.5-1.3-0.5-2.1c0-1.6,0.8-2.5,2.4-2.5H19v0.8h-0.9c0.5,0.4,1,1.1,1,2.1
	c0,1.1-0.6,2.2-1.9,2.2c-1.3,0-1.9-1-1.9-2.5c0-0.8,0.1-1.3,0.3-1.8h-0.2c-1.1,0-1.6,0.7-1.6,1.8C13.8,364.4,13.9,364.9,14.2,365.5z
	 M17.2,365.4c0.8,0,1.2-0.7,1.2-1.5c0-1.1-0.7-2-1.6-2h-0.6c-0.1,0.4-0.3,1-0.3,1.7C16,364.8,16.5,365.4,17.2,365.4z"/>
<path fill="#231F20" d="M11.8,359.5h-1v-1h1L11.8,359.5L11.8,359.5z M19,359.4h-5.9v-0.9H19V359.4z"/>
<path fill="#231F20" d="M19,355.9v0.9h-5.9v-0.9h1c-0.6-0.4-1.2-1-1.2-2c0-1.4,1-2.3,2.4-2.3H19v0.9h-3.5c-1.1,0-1.8,0.6-1.8,1.6
	c0,1,0.7,1.8,1.9,1.8H19z"/>
<path fill="#231F20" d="M18.3,347.4c0-0.8-0.3-1.4-0.8-1.9L18,345c0.7,0.6,1.1,1.3,1.1,2.4c0,1.6-1.2,2.9-3.1,2.9
	c-1.7,0-3.1-1.2-3.1-2.8c0-1.7,1.4-2.8,3.1-2.8c0.1,0,0.2,0,0.3,0v4.7C17.6,349.4,18.3,348.5,18.3,347.4z M15.7,345.7
	c-1.1,0.1-2,0.7-2,1.9c0,1,0.9,1.8,2,1.9V345.7z"/>
<path fill="#231F20" d="M11.8,337.2h-1v-1h1L11.8,337.2L11.8,337.2z M19,337.2h-5.9v-0.9H19V337.2z"/>
<path fill="#231F20" d="M19,333.7v0.9h-5.9v-0.9h1c-0.6-0.4-1.2-1-1.2-2c0-1.4,1-2.3,2.4-2.3H19v0.9h-3.5c-1.1,0-1.8,0.6-1.8,1.6
	c0,1,0.7,1.8,1.9,1.8L19,333.7L19,333.7z"/>
<path fill="#231F20" d="M18.3,325.2c0-0.8-0.3-1.4-0.8-1.9l0.5-0.5c0.7,0.6,1.1,1.3,1.1,2.4c0,1.6-1.2,2.9-3.1,2.9
	c-1.7,0-3.1-1.2-3.1-2.8c0-1.7,1.4-2.8,3.1-2.8c0.1,0,0.2,0,0.3,0v4.7C17.6,327.1,18.3,326.2,18.3,325.2z M15.7,323.5
	c-1.1,0.1-2,0.7-2,1.9c0,1,0.9,1.8,2,1.9V323.5z M12.2,325.9l-1.7-1.1l0.4-0.9l1.2,1.3V325.9z"/>
<path fill="#231F20" d="M20.8,318.7c0,1-0.3,1.9-0.8,2.7l-0.7-0.4c0.5-0.7,0.8-1.4,0.8-2.3c0-1.3-0.7-2.1-2.1-2.1h-0.7
	c0.7,0.5,1.2,1.2,1.2,2.3c0,1.4-1.1,2.8-2.8,2.8c-1.7,0-2.8-1.4-2.8-2.8c0-1.1,0.5-1.8,1.2-2.3h-1.1v-0.9h4.9
	C19.9,315.7,20.8,316.9,20.8,318.7z M13.7,318.7c0,1.1,0.8,2,2,2c1.2,0,2-0.9,2-2c0-1.1-0.8-2.2-2-2.2
	C14.5,316.5,13.7,317.6,13.7,318.7z"/>
<path fill="#231F20" d="M14.2,313.7l-0.7,0.3c-0.3-0.7-0.5-1.3-0.5-2.1c0-1.6,0.8-2.5,2.4-2.5H19v0.8h-0.9c0.5,0.4,1,1.1,1,2.1
	c0,1.1-0.6,2.2-1.9,2.2c-1.3,0-1.9-1-1.9-2.5c0-0.8,0.1-1.3,0.3-1.8h-0.2c-1.1,0-1.6,0.6-1.6,1.8C13.8,312.6,13.9,313.1,14.2,313.7z
	 M17.2,313.6c0.8,0,1.2-0.7,1.2-1.5c0-1.1-0.7-2-1.6-2h-0.6c-0.1,0.4-0.3,1-0.3,1.7C16,313,16.5,313.6,17.2,313.6z"/>
<path fill="#231F20" d="M19,307.6h-8.3v-0.9H19V307.6z"/>
<path fill="#231F20" d="M11.8,304.9h-1v-1h1L11.8,304.9L11.8,304.9z M19,304.9h-5.9V304H19V304.9z"/>
<path fill="#231F20" d="M17.3,301.1c0.7,0,1-0.4,1-1c0-0.3-0.1-0.5-0.2-0.9h0.8c0.2,0.3,0.3,0.6,0.3,1.1c0,0.9-0.5,1.7-1.7,1.7h-3.6
	v0.8h-0.8v-0.8h-1.8v-0.9h1.8v-1.9h0.8v1.9L17.3,301.1L17.3,301.1z"/>
<path fill="#231F20" d="M18.3,295.3c0-0.8-0.3-1.4-0.8-1.9l0.5-0.5c0.7,0.6,1.1,1.3,1.1,2.4c0,1.6-1.2,2.9-3.1,2.9
	c-1.7,0-3.1-1.2-3.1-2.8c0-1.7,1.4-2.8,3.1-2.8c0.1,0,0.2,0,0.3,0v4.7C17.6,297.3,18.3,296.3,18.3,295.3z M15.7,293.6
	c-1.1,0.1-2,0.7-2,1.9c0,1,0.9,1.8,2,1.9V293.6z M12.2,296l-1.7-1.1l0.4-0.9l1.2,1.3V296z"/>
<path fill="#231F20" d="M19.1,282c0,1.1-0.6,1.8-1.3,2.3h3v0.9h-7.7v-0.9h1.2c-0.7-0.5-1.3-1.2-1.3-2.3c0-1.4,1.1-2.8,3.1-2.8
	C18,279.2,19.1,280.6,19.1,282z M13.7,282.2c0,1.1,0.9,2.1,2.3,2.1c1.4,0,2.3-1,2.3-2.1c0-1.1-0.8-2.1-2.3-2.1
	C14.6,280.1,13.7,281,13.7,282.2z"/>
<path fill="#231F20" d="M18.3,275.2c0-0.8-0.3-1.4-0.8-1.9l0.5-0.5c0.7,0.6,1.1,1.3,1.1,2.4c0,1.6-1.2,2.9-3.1,2.9
	c-1.7,0-3.1-1.2-3.1-2.8c0-1.7,1.4-2.8,3.1-2.8c0.1,0,0.2,0,0.3,0v4.7C17.6,277.2,18.3,276.3,18.3,275.2z M15.7,273.5
	c-1.1,0.1-2,0.7-2,1.9c0,1,0.9,1.8,2,1.9V273.5z"/>
<path fill="#231F20" d="M13.1,267.2v-0.9H19v0.9h-1c0.6,0.4,1.2,1,1.2,2c0,1.4-1,2.3-2.4,2.3h-3.7v-0.9h3.5c1.1,0,1.8-0.6,1.8-1.6
	c0-1-0.7-1.8-1.9-1.8H13.1z"/>
<path fill="#231F20" d="M19,263.7v0.9h-5.9v-0.9h1.5c-1-0.4-1.7-1.3-1.6-2.4h0.9v0.1c0,1.3,0.9,2.3,2.7,2.3H19z"/>
<path fill="#231F20" d="M12.9,247.2c0-1.4,0.9-2.2,2.4-2.2H19v0.9h-3.5c-1.1,0-1.8,0.6-1.8,1.5c0,0.9,0.7,1.6,1.8,1.6H19v0.9h-3.5
	c-1.1,0-1.8,0.6-1.8,1.5c0,0.9,0.8,1.6,1.9,1.6H19v0.9h-5.9v-0.9h1c-0.6-0.4-1.1-0.9-1.1-1.9c0-1,0.5-1.6,1.2-1.9
	C13.5,248.9,12.9,248.3,12.9,247.2z"/>
<path fill="#231F20" d="M14.2,243.1l-0.7,0.3c-0.3-0.7-0.5-1.3-0.5-2.1c0-1.6,0.8-2.5,2.4-2.5H19v0.8h-0.9c0.5,0.4,1,1.1,1,2.1
	c0,1.1-0.6,2.2-1.9,2.2c-1.3,0-1.9-1-1.9-2.5c0-0.8,0.1-1.3,0.3-1.8h-0.2c-1.1,0-1.6,0.7-1.6,1.8C13.8,242,13.9,242.5,14.2,243.1z
	 M17.2,243c0.8,0,1.2-0.7,1.2-1.5c0-1.1-0.7-2-1.6-2h-0.6c-0.1,0.4-0.3,1-0.3,1.7C16,242.3,16.5,243,17.2,243z"/>
<path fill="#231F20" d="M19,237h-8.3v-0.9H19V237z"/>
<path fill="#231F20" d="M14.2,234l-0.7,0.3c-0.3-0.7-0.5-1.3-0.5-2.2c0-1.6,0.8-2.5,2.4-2.5H19v0.8h-0.9c0.5,0.4,1,1.1,1,2.1
	c0,1.1-0.6,2.2-1.9,2.2c-1.3,0-1.9-1-1.9-2.5c0-0.8,0.1-1.3,0.3-1.8h-0.2c-1.1,0-1.6,0.6-1.6,1.8C13.8,232.9,13.9,233.5,14.2,234z
	 M17.2,233.9c0.8,0,1.2-0.7,1.2-1.5c0-1.1-0.7-2-1.6-2h-0.6c-0.1,0.4-0.3,1-0.3,1.7C16,233.3,16.5,233.9,17.2,233.9z"/>
<path fill="#231F20" d="M11.8,228h-1v-1h1L11.8,228L11.8,228z M19,227.9h-5.9v-0.9H19V227.9z"/>
</svg>
