<?xml version="1.0" encoding="utf-8"?>
<!-- Generator: Adobe Illustrator 15.0.0, SVG Export Plug-In . SVG Version: 6.00 Build 0)  -->
<!DOCTYPE svg PUBLIC "-//W3C//DTD SVG 1.1//EN" "http://www.w3.org/Graphics/SVG/1.1/DTD/svg11.dtd">
<svg version="1.1" id="Layer_1" xmlns="http://www.w3.org/2000/svg" xmlns:xlink="http://www.w3.org/1999/xlink" x="0px" y="0px"
	 width="1024px" height="768px" viewBox="0 0 1024 768" enable-background="new 0 0 1024 768" xml:space="preserve">
<g>
	<path d="M505.232,440.877c1.154-5.292,3.088-7.734,6.751-7.734c4.104,0,6.751,3.393,6.751,8.108c0,3.766-1.255,6.853-3.8,9.701
		l-1.967-1.662c2.239-2.477,3.357-4.852,3.357-8.142c0-3.188-1.662-5.292-4.07-5.292c-2.238,0-3.494,1.188-4.545,6.176
		c-1.188,5.46-2.952,7.971-6.887,7.971c-3.799,0-6.514-3.29-6.514-7.802c0-3.46,0.984-5.938,2.918-8.346l2.068,1.56
		c-1.797,2.206-2.577,4.411-2.577,6.854c0,3.087,1.696,5.054,3.866,5.054C502.858,447.322,504.113,446.101,505.232,440.877z"/>
	<path d="M518.802,416.657c0,7.226-5.665,12.075-12.246,12.075c-6.58,0-12.313-4.918-12.313-12.143
		c0-7.226,5.665-12.076,12.246-12.076S518.802,409.432,518.802,416.657z M496.719,416.657c0,5.427,4.342,9.295,9.77,9.295
		c5.427,0,9.837-3.935,9.837-9.362s-4.342-9.294-9.77-9.294S496.719,411.229,496.719,416.657z"/>
	<path d="M508.252,379.445c6.92,0,10.517,3.969,10.517,9.905c0,5.869-3.597,9.871-10.312,9.871h-13.807v-2.679h13.637
		c5.123,0,8.006-2.714,8.006-7.261c0-4.376-2.646-7.157-7.836-7.157h-13.807v-2.68H508.252z"/>
	<path d="M494.649,355.225v-2.884l23.916,10.211v2.375l-23.916,10.211v-2.985l20.455-8.446L494.649,355.225z"/>
	<path d="M497.091,330.496v14.485h8.108v-12.96h2.442v12.96h8.311v-14.654h2.443v17.333h-23.746v-17.164H497.091z"/>
	<path d="M494.649,307.464v-2.612h23.746v2.137l-19.473,15.332h19.473v2.613h-23.746v-2.511l19.031-14.959H494.649z"/>
	<path d="M494.649,295.218h23.746v2.679h-23.746V295.218z"/>
	<path d="M518.396,271.913l-9.228,6.887v6.783h9.228v2.682h-23.746v-10.211c0-5.225,2.815-8.582,7.09-8.582
		c3.969,0,6.275,2.713,6.954,6.445l9.702-7.293V271.913z M497.126,278.257v7.326h9.633v-7.291c0-3.563-1.832-6.107-4.918-6.107
		C498.89,272.185,497.126,274.425,497.126,278.257z"/>
</g>
<path fill="#231F20" d="M475.879,537.877c0-0.884-0.362-1.507-0.909-2.029l0.535-0.599c0.722,0.647,1.207,1.434,1.207,2.653
	c0,1.769-1.354,3.21-3.359,3.21c-1.867,0-3.362-1.303-3.36-3.086c-0.001-1.902,1.519-2.998,3.41-3.001c0.087,0,0.187,0,0.3,0.016
	l-0.001,5.103C475.094,540.007,475.879,539.013,475.879,537.877z M472.992,535.997c-1.171,0.102-2.192,0.774-2.192,2.055
	c0,1.12,0.933,1.965,2.19,2.092L472.992,535.997z M469.157,538.626l-1.805-1.185l0.461-0.996l1.344,1.407V538.626z"/>
<path fill="#231F20" d="M474.733,532.362c0.784,0,1.071-0.436,1.071-1.08c0-0.324-0.062-0.598-0.224-0.932l0.822-0.002
	c0.174,0.336,0.273,0.696,0.273,1.158c0,1.03-0.509,1.814-1.817,1.817l-3.883-0.003v0.897h-0.846v-0.897l-1.941,0.003v-0.962
	l1.941,0.003v-2.042l0.846,0.003v2.036H474.733z"/>
<path fill="#231F20" d="M471.361,528.567l-0.785,0.286c-0.322-0.71-0.535-1.404-0.535-2.339c0-1.754,0.896-2.74,2.589-2.74h3.934
	v0.923h-0.972c0.585,0.448,1.107,1.194,1.107,2.33c0,1.191-0.67,2.401-2.016,2.401c-1.369,0-2.091-1.121-2.091-2.75
	c0-0.823,0.112-1.409,0.274-1.979l-0.224-0.003c-1.157,0-1.755,0.709-1.755,1.918C470.888,527.377,471.087,527.972,471.361,528.567z
	 M474.646,528.455c0.822,0.002,1.295-0.745,1.295-1.617c0-1.182-0.722-2.153-1.744-2.153l-0.622,0.003
	c-0.137,0.471-0.274,1.107-0.274,1.89C473.303,527.783,473.827,528.455,474.646,528.455z"/>
<path fill="#231F20" d="M468.722,522.021h-1.059v-1.096h1.059V522.021z M476.564,521.96l-6.436,0.003v-0.962l6.436,0.003V521.96z"/>
<path fill="#231F20" d="M476.564,518.129v0.956l-6.436,0.002v-0.961l1.121,0.003c-0.698-0.426-1.258-1.096-1.257-2.207
	c-0.001-1.551,1.045-2.461,2.576-2.461h3.996l0.001,0.954h-3.76c-1.194,0-1.94,0.647-1.941,1.783c0,1.105,0.809,1.928,2.016,1.928
	L476.564,518.129z"/>
<path fill="#231F20" d="M475.879,508.891c0-0.881-0.362-1.506-0.908-2.029l0.534-0.598c0.724,0.647,1.207,1.435,1.207,2.654
	c0,1.766-1.356,3.21-3.358,3.208c-1.868,0-3.361-1.308-3.363-3.082c0-1.909,1.52-3.005,3.411-3.005c0.087,0,0.187,0,0.299,0.013
	v5.103C475.094,511.018,475.879,510.023,475.879,508.891z M472.991,507.011c-1.17,0.101-2.19,0.774-2.19,2.055
	c0,1.123,0.933,1.965,2.19,2.089V507.011z"/>
<path fill="#231F20" d="M468.723,497.803h-1.059l-0.001-1.096h1.059L468.723,497.803z M476.564,497.74l-6.436,0.002v-0.961h6.436
	V497.74z"/>
<path fill="#231F20" d="M476.564,493.907v0.959h-6.436v-0.959h1.121c-0.697-0.423-1.258-1.096-1.257-2.204
	c-0.001-1.558,1.045-2.463,2.576-2.463h3.996v0.956h-3.759c-1.195,0-1.941,0.647-1.941,1.78c0.001,1.108,0.809,1.931,2.016,1.931
	H476.564z"/>
<path fill="#231F20" d="M475.879,484.672c0-0.884-0.362-1.506-0.909-2.029l0.535-0.599c0.722,0.647,1.207,1.433,1.207,2.652
	c0,1.767-1.356,3.211-3.359,3.211c-1.867,0-3.362-1.308-3.362-3.086c0-1.905,1.52-3.001,3.411-3.001c0.087,0,0.187,0,0.3,0.013
	l-0.001,5.103C475.094,486.799,475.88,485.805,475.879,484.672z M472.991,482.792c-1.17,0.099-2.19,0.771-2.19,2.054
	c0,1.121,0.933,1.966,2.19,2.09V482.792z M469.157,485.42l-1.805-1.184l0.461-0.997l1.344,1.407V485.42z"/>
<path fill="#231F20" d="M478.58,477.601c0,1.071-0.299,2.067-0.897,2.927l-0.747-0.436c0.536-0.732,0.822-1.557,0.823-2.476
	c-0.001-1.42-0.786-2.34-2.291-2.342l-0.76,0.002c0.747,0.562,1.357,1.346,1.357,2.524c0,1.546-1.146,3.025-3.024,3.025
	c-1.892,0-3.05-1.494-3.049-3.025c-0.001-1.204,0.597-1.99,1.294-2.514l-1.158,0.002v-0.961h5.315
	C477.521,474.331,478.58,475.623,478.58,477.601z M470.838,477.616c0,1.217,0.834,2.227,2.178,2.227
	c1.319,0,2.203-1.032,2.203-2.227c0-1.22-0.873-2.366-2.191-2.363C471.696,475.25,470.838,476.396,470.838,477.616z"/>
<path fill="#231F20" d="M471.361,472.127l-0.785,0.286c-0.324-0.708-0.535-1.407-0.535-2.338c0-1.758,0.896-2.74,2.589-2.74
	l3.934,0.003v0.919h-0.972c0.585,0.45,1.107,1.197,1.107,2.325c0,1.198-0.67,2.407-2.016,2.404c-1.369,0-2.091-1.12-2.091-2.752
	c0-0.822,0.112-1.403,0.274-1.978l-0.224,0.002c-1.157-0.002-1.755,0.709-1.755,1.913
	C470.888,470.931,471.087,471.529,471.361,472.127z M474.646,472.018c0.822-0.003,1.295-0.751,1.295-1.621
	c0-1.182-0.722-2.15-1.744-2.152h-0.622c-0.137,0.473-0.274,1.107-0.274,1.89C473.302,471.343,473.826,472.018,474.646,472.018z"/>
<path fill="#231F20" d="M476.564,465.517h-9.087v-0.956h9.087V465.517z"/>
<path fill="#231F20" d="M468.722,462.618h-1.059v-1.095h1.059V462.618z M476.564,462.555h-6.436v-0.959h6.436V462.555z"/>
<path fill="#231F20" d="M474.733,458.386c0.784,0,1.071-0.436,1.071-1.08c0-0.324-0.062-0.597-0.224-0.936h0.822
	c0.174,0.337,0.273,0.698,0.273,1.158c0,1.032-0.509,1.816-1.817,1.818l-3.883-0.002v0.896h-0.846v-0.896l-1.941,0.002v-0.961
	l1.941,0.003v-2.042l0.846,0.002v2.037H474.733z"/>
<path fill="#231F20" d="M475.88,452.127c-0.001-0.885-0.363-1.507-0.91-2.03l0.535-0.595c0.722,0.645,1.207,1.432,1.207,2.649
	c0,1.766-1.354,3.211-3.359,3.211c-1.867,0-3.36-1.308-3.36-3.086c-0.001-1.903,1.519-2.999,3.41-2.999
	c0.087-0.003,0.187-0.003,0.299,0.013v5.104C475.094,454.256,475.88,453.258,475.88,452.127z M472.992,450.246
	c-1.171,0.101-2.192,0.774-2.192,2.057c0,1.12,0.933,1.963,2.19,2.091L472.992,450.246z M469.157,452.876l-1.805-1.186l0.461-0.996
	l1.344,1.408V452.876z"/>
<path fill="#231F20" d="M476.699,437.641c0,1.193-0.646,1.966-1.368,2.464h3.224v0.959h-8.426v-0.959h1.295
	c-0.772-0.523-1.433-1.28-1.433-2.466c0-1.542,1.221-3.074,3.349-3.071C475.456,434.564,476.701,436.085,476.699,437.641z
	 M470.851,437.812c0,1.196,0.996,2.329,2.489,2.329c1.505,0,2.502-1.133,2.502-2.329c0.001-1.242-0.922-2.262-2.489-2.264
	C471.821,435.551,470.851,436.598,470.851,437.812z"/>
<path fill="#231F20" d="M475.879,430.274c0-0.885-0.362-1.51-0.909-2.031l0.535-0.597c0.724,0.645,1.207,1.432,1.207,2.652
	c0,1.769-1.356,3.208-3.359,3.208c-1.867,0-3.362-1.303-3.362-3.086c0-1.902,1.52-3,3.411-3c0.087,0.003,0.187,0,0.299,0.016v5.102
	C475.094,432.401,475.879,431.404,475.879,430.274z M472.991,428.393c-1.17,0.098-2.19,0.771-2.19,2.054
	c0,1.123,0.933,1.97,2.19,2.092V428.393z"/>
<path fill="#231F20" d="M470.128,421.486v-0.948l6.436,0.002v0.944l-1.121,0.002c0.697,0.434,1.256,1.096,1.256,2.205
	c0.001,1.552-1.044,2.46-2.576,2.463l-3.995-0.003v-0.956l3.758-0.003c1.195,0.003,1.943-0.645,1.943-1.775
	c0-1.099-0.81-1.933-2.016-1.933L470.128,421.486z"/>
<path fill="#231F20" d="M476.564,417.738v0.958h-6.436v-0.956l1.68-0.002c-1.07-0.471-1.842-1.405-1.792-2.625h1.033v0.074
	c0,1.404,1.008,2.551,2.949,2.551H476.564z"/>
<path fill="#231F20" d="M469.991,399.754c0-1.479,0.998-2.39,2.589-2.39h3.984v0.961l-3.759-0.002c-1.245,0-1.941,0.621-1.941,1.669
	c0,0.972,0.722,1.778,1.991,1.778h3.71v0.946h-3.785c-1.207,0-1.916,0.635-1.916,1.656c0.001,1.02,0.845,1.794,2.028,1.791
	l3.672,0.003v0.956h-6.436v-0.959h1.083c-0.635-0.423-1.221-0.996-1.221-2.077c0.001-1.046,0.561-1.719,1.283-2.066
	C470.564,401.559,469.991,400.874,469.991,399.754z"/>
<path fill="#231F20" d="M471.361,395.229l-0.785,0.281c-0.322-0.708-0.535-1.403-0.535-2.34c0-1.753,0.896-2.737,2.589-2.737
	l3.934-0.002v0.922l-0.972,0.003c0.585,0.445,1.107,1.192,1.107,2.328c0,1.193-0.67,2.398-2.016,2.4
	c-1.369,0-2.091-1.12-2.091-2.749c0-0.825,0.112-1.41,0.274-1.979h-0.224c-1.157,0-1.755,0.706-1.755,1.915
	C470.888,394.032,471.087,394.63,471.361,395.229z M474.646,395.115c0.822-0.002,1.295-0.749,1.295-1.621
	c0-1.183-0.722-2.153-1.744-2.151h-0.622c-0.137,0.471-0.273,1.105-0.274,1.893C473.302,394.44,473.826,395.115,474.646,395.115z"/>
<path fill="#231F20" d="M476.564,388.614h-9.087v-0.959l9.087,0.003V388.614z"/>
<path fill="#231F20" d="M471.361,385.368l-0.785,0.286c-0.324-0.711-0.535-1.407-0.535-2.343c0-1.752,0.896-2.734,2.589-2.734
	l3.934-0.002v0.921l-0.972,0.003c0.585,0.449,1.107,1.193,1.107,2.324c0,1.198-0.67,2.403-2.016,2.405
	c-1.369-0.002-2.091-1.123-2.091-2.755c0-0.822,0.112-1.401,0.274-1.975h-0.224c-1.157,0-1.755,0.707-1.755,1.916
	C470.888,384.172,471.088,384.769,471.361,385.368z M474.646,385.255c0.824,0,1.295-0.744,1.295-1.619
	c0-1.18-0.722-2.15-1.744-2.148h-0.622c-0.137,0.471-0.273,1.105-0.273,1.888C473.302,384.582,473.826,385.255,474.646,385.255z"/>
<path fill="#231F20" d="M468.722,378.821h-1.059v-1.096h1.059V378.821z M476.564,378.759l-6.436-0.002V377.8l6.436,0.003V378.759z"
	/>
<path fill="#231F20" d="M476.688,373.755c0,0.923-0.36,1.943-0.946,2.664l-0.685-0.486c0.523-0.695,0.822-1.465,0.822-2.224
	c0-0.774-0.399-1.335-1.021-1.333h-0.025c-0.647-0.002-0.896,0.757-1.132,1.604c-0.286,1.01-0.635,2.128-1.818,2.128h-0.025
	c-1.107,0.003-1.84-0.921-1.841-2.188c0-0.787,0.274-1.658,0.711-2.318l0.721,0.436c-0.386,0.598-0.623,1.285-0.623,1.905
	c0,0.761,0.398,1.244,0.933,1.244h0.025c0.61,0,0.847-0.799,1.108-1.654c0.299-0.996,0.685-2.067,1.842-2.067h0.024
	C475.979,371.465,476.689,372.473,476.688,373.755z"/>
<path fill="#231F20" d="M475.879,367.16c0-0.881-0.362-1.507-0.909-2.029l0.535-0.599c0.722,0.65,1.207,1.434,1.207,2.65
	c0,1.769-1.356,3.213-3.359,3.213c-1.867,0-3.362-1.308-3.362-3.086c0-1.904,1.52-3,3.411-3c0.087,0,0.187,0,0.299,0.015v5.101
	C475.094,369.288,475.879,368.291,475.879,367.16z M472.991,365.282c-1.17,0.098-2.19,0.77-2.19,2.05
	c0,1.121,0.933,1.968,2.19,2.093V365.282z"/>
<path fill="#231F20" d="M511.479,537.212c0-0.812-0.333-1.384-0.836-1.865l0.492-0.548c0.663,0.595,1.11,1.315,1.109,2.438
	c0,1.624-1.247,2.951-3.09,2.951c-1.717,0-3.09-1.201-3.09-2.837c0-1.751,1.396-2.759,3.137-2.759c0.079,0,0.171,0,0.274,0.012
	v4.692C510.758,539.17,511.479,538.256,511.479,537.212z M508.823,535.486c-1.074,0.089-2.014,0.708-2.014,1.888
	c0,1.029,0.859,1.809,2.014,1.923V535.486z M505.299,537.899l-1.659-1.085l0.424-0.918l1.235,1.293V537.899z"/>
<path fill="#231F20" d="M512.235,523.893c0,1.099-0.596,1.805-1.26,2.265h2.965v0.881h-7.749v-0.881h1.19
	c-0.709-0.481-1.316-1.179-1.316-2.265c0-1.421,1.122-2.827,3.078-2.827C511.089,521.065,512.235,522.46,512.235,523.893z
	 M506.855,524.052c0,1.099,0.915,2.139,2.288,2.139c1.385,0,2.301-1.04,2.301-2.139c0-1.146-0.848-2.082-2.289-2.082
	C507.749,521.97,506.855,522.932,506.855,524.052z"/>
<path fill="#231F20" d="M511.479,517.116c0-0.812-0.333-1.386-0.836-1.866l0.492-0.552c0.663,0.597,1.109,1.318,1.11,2.438
	c-0.001,1.627-1.247,2.955-3.091,2.955c-1.717,0-3.09-1.203-3.09-2.839c0-1.751,1.396-2.758,3.137-2.758c0.079,0,0.172,0,0.274,0.01
	v4.693C510.758,519.073,511.479,518.156,511.479,517.116z M508.823,515.387c-1.074,0.093-2.014,0.71-2.014,1.889
	c0,1.03,0.859,1.807,2.014,1.923V515.387z"/>
<path fill="#231F20" d="M506.191,509.036v-0.872h5.917v0.872h-1.029c0.641,0.397,1.156,1.005,1.156,2.024
	c0,1.43-0.963,2.267-2.371,2.267h-3.673v-0.883h3.456c1.1,0,1.785-0.595,1.785-1.635c0-1.009-0.743-1.773-1.854-1.773H506.191z"/>
<path fill="#231F20" d="M512.109,505.589l-0.001,0.881h-5.917v-0.881h1.546c-0.985-0.436-1.693-1.293-1.649-2.414h0.95v0.067
	c0,1.292,0.928,2.347,2.713,2.347H512.109z"/>
<path fill="#231F20" d="M506.065,489.051c0-1.362,0.916-2.196,2.381-2.196h3.662v0.878h-3.457c-1.143,0-1.785,0.573-1.785,1.535
	c0,0.894,0.664,1.637,1.832,1.637h3.41v0.871h-3.479c-1.11,0-1.763,0.583-1.763,1.521c0,0.937,0.779,1.646,1.865,1.646h3.377v0.882
	h-5.917v-0.882h0.996c-0.583-0.389-1.122-0.914-1.122-1.909c0-0.963,0.516-1.58,1.18-1.901
	C506.593,490.71,506.065,490.079,506.065,489.051z"/>
<path fill="#231F20" d="M507.325,484.884l-0.721,0.261c-0.299-0.649-0.492-1.292-0.492-2.148c0-1.614,0.822-2.519,2.379-2.519h3.618
	l-0.001,0.847h-0.891c0.537,0.411,1.018,1.099,1.018,2.14c0,1.099-0.619,2.209-1.854,2.209c-1.259,0-1.921-1.031-1.923-2.529
	c0-0.756,0.104-1.293,0.252-1.819h-0.207c-1.064,0-1.611,0.653-1.613,1.761C506.89,483.786,507.073,484.333,507.325,484.884z
	 M510.346,484.779c0.756,0,1.19-0.685,1.19-1.487c0-1.085-0.664-1.979-1.604-1.979h-0.57c-0.126,0.435-0.25,1.019-0.252,1.74
	C509.11,484.161,509.591,484.779,510.346,484.779z"/>
<path fill="#231F20" d="M512.109,478.808h-8.354v-0.883h8.354L512.109,478.808z"/>
<path fill="#231F20" d="M507.326,475.817l-0.722,0.264c-0.299-0.652-0.492-1.292-0.492-2.15c0-1.614,0.822-2.52,2.379-2.52h3.617
	l0.001,0.848h-0.893c0.538,0.413,1.019,1.098,1.019,2.14c0,1.101-0.619,2.209-1.854,2.209c-1.26,0-1.924-1.029-1.924-2.528
	c0-0.758,0.104-1.295,0.252-1.82h-0.206c-1.065,0-1.614,0.652-1.612,1.763C506.892,474.72,507.073,475.27,507.326,475.817z
	 M510.346,475.716c0.756,0,1.19-0.688,1.19-1.489c0-1.086-0.664-1.979-1.604-1.979h-0.57c-0.125,0.434-0.252,1.02-0.252,1.738
	C509.11,475.099,509.593,475.716,510.346,475.716z"/>
<path fill="#231F20" d="M504.899,469.798h-0.973v-1.007h0.973V469.798z M512.108,469.741h-5.917v-0.883h5.917V469.741z"/>
<path fill="#231F20" d="M512.223,465.141c0,0.847-0.331,1.785-0.868,2.448l-0.631-0.445c0.481-0.641,0.756-1.351,0.756-2.051
	c0-0.709-0.366-1.223-0.939-1.223h-0.022c-0.595,0-0.823,0.698-1.041,1.475c-0.265,0.929-0.585,1.958-1.671,1.958h-0.023
	c-1.018,0-1.694-0.848-1.694-2.016c0-0.719,0.253-1.521,0.653-2.127l0.663,0.401c-0.354,0.549-0.571,1.179-0.57,1.751
	c0,0.697,0.364,1.143,0.856,1.143h0.023c0.561,0,0.777-0.731,1.018-1.521c0.275-0.917,0.631-1.9,1.695-1.9h0.022
	C511.569,463.033,512.223,463.959,512.223,465.141z"/>
<path fill="#231F20" d="M511.479,459.073c0-0.812-0.333-1.385-0.836-1.866l0.493-0.547c0.662,0.595,1.108,1.314,1.108,2.435
	c0,1.627-1.247,2.954-3.09,2.954c-1.717,0-3.09-1.202-3.09-2.839c0-1.75,1.396-2.757,3.137-2.757c0.079,0,0.171,0,0.274,0.013v4.689
	C510.758,461.03,511.479,460.114,511.479,459.073z M508.823,457.344c-1.074,0.094-2.014,0.711-2.014,1.892
	c0,1.028,0.859,1.808,2.014,1.92V457.344z"/>
<g>
	<path fill="#231F20" d="M526.858,579.225c0.539,0.002,0.736-0.299,0.736-0.745c0-0.222-0.043-0.408-0.154-0.64h0.566
		c0.118,0.231,0.188,0.479,0.188,0.797c0,0.71-0.352,1.247-1.25,1.247h-2.67v0.617h-0.582v-0.617h-1.334v-0.659h1.334v-1.402h0.582
		v1.402H526.858z"/>
	<path fill="#231F20" d="M527.646,575.053c0-0.607-0.248-1.035-0.623-1.397l0.367-0.408c0.495,0.446,0.829,0.983,0.829,1.82
		c0,1.217-0.933,2.209-2.31,2.209c-1.283-0.002-2.311-0.898-2.31-2.121c-0.001-1.31,1.044-2.062,2.344-2.062
		c0.06,0,0.128,0,0.206,0.007v3.511C527.106,576.515,527.646,575.829,527.646,575.053z M525.661,573.76
		c-0.805,0.068-1.506,0.531-1.506,1.412c0.002,0.771,0.642,1.351,1.506,1.438V573.76z"/>
	<path fill="#231F20" d="M528.117,571.493v0.658h-4.425v-0.66h0.771c-0.479-0.289-0.864-0.752-0.864-1.514
		c0-1.069,0.721-1.694,1.771-1.694h2.747v0.657l-2.585,0.003c-0.821-0.003-1.334,0.445-1.334,1.223c0,0.763,0.557,1.327,1.386,1.327
		H528.117z"/>
	<path fill="#231F20" d="M528.117,563.543h-0.891c0.53,0.359,0.983,0.88,0.983,1.694c0,1.061-0.838,2.112-2.301,2.112
		c-1.455,0-2.311-1.052-2.311-2.112c0-0.822,0.445-1.351,0.941-1.694h-2.668v-0.66h6.245V563.543z M524.188,565.118
		c0,0.855,0.635,1.556,1.711,1.556c1.053,0,1.721-0.72,1.721-1.556c0-0.819-0.684-1.599-1.721-1.602
		C524.874,563.517,524.188,564.299,524.188,565.118z"/>
	<path fill="#231F20" d="M528.117,560.965v0.663l-4.423-0.003l-0.002-0.657l1.155-0.003c-0.735-0.323-1.265-0.964-1.231-1.802h0.709
		v0.049c0.002,0.967,0.694,1.756,2.029,1.756L528.117,560.965z"/>
	<path fill="#231F20" d="M527.646,556.614c0-0.607-0.248-1.035-0.623-1.395l0.367-0.411c0.495,0.444,0.829,0.983,0.829,1.82
		c0,1.217-0.933,2.21-2.31,2.21c-1.283,0-2.311-0.899-2.311-2.122c0-1.31,1.045-2.061,2.345-2.062c0.06,0,0.128,0,0.206,0.007v3.511
		C527.106,558.076,527.646,557.391,527.646,556.614z M525.661,555.321c-0.805,0.068-1.504,0.531-1.506,1.412
		c0,0.771,0.642,1.353,1.506,1.438V555.321z"/>
	<path fill="#231F20" d="M528.202,552.248c0,0.635-0.248,1.338-0.65,1.834l-0.471-0.334c0.359-0.479,0.564-1.009,0.564-1.532
		c0-0.53-0.273-0.916-0.701-0.916l-0.018,0.002c-0.445-0.002-0.615,0.521-0.777,1.101c-0.197,0.695-0.438,1.465-1.25,1.465h-0.017
		c-0.763,0-1.267-0.635-1.267-1.506c0-0.539,0.188-1.139,0.488-1.591l0.495,0.298c-0.265,0.413-0.427,0.884-0.427,1.309
		c0.001,0.523,0.273,0.855,0.641,0.855h0.018c0.419,0.002,0.582-0.545,0.762-1.136c0.205-0.686,0.471-1.42,1.266-1.42h0.018
		C527.715,550.675,528.204,551.369,528.202,552.248z"/>
	<path fill="#231F20" d="M528.202,548.288c0,0.633-0.248,1.335-0.65,1.83l-0.471-0.332c0.359-0.479,0.564-1.01,0.564-1.533
		c0-0.53-0.273-0.913-0.699-0.913h-0.02c-0.445,0-0.615,0.522-0.777,1.104c-0.197,0.692-0.438,1.462-1.25,1.462l-0.017,0.002
		c-0.763,0-1.267-0.632-1.267-1.507c0-0.541,0.188-1.139,0.488-1.592l0.496,0.299c-0.266,0.412-0.428,0.883-0.428,1.308
		c0,0.523,0.273,0.857,0.641,0.857l0.018,0.003c0.419-0.003,0.582-0.552,0.762-1.142c0.205-0.683,0.471-1.42,1.266-1.42h0.018
		C527.715,546.714,528.202,547.406,528.202,548.288z"/>
	<path fill="#231F20" d="M527.646,543.756c0-0.607-0.248-1.039-0.623-1.398l0.367-0.408c0.495,0.446,0.829,0.984,0.829,1.821
		c0,1.215-0.933,2.209-2.31,2.209c-1.283-0.003-2.311-0.898-2.311-2.125c0-1.308,1.045-2.06,2.345-2.06c0.06,0,0.128,0,0.206,0.008
		v3.507C527.106,545.218,527.646,544.532,527.646,543.756z M525.661,542.46c-0.805,0.069-1.506,0.531-1.506,1.415
		c0,0.769,0.642,1.351,1.506,1.437V542.46z"/>
	<path fill="#231F20" d="M523.692,532.871v-0.713l4.458,1.927l0.001,0.582l-4.459,1.918l0.002-0.729l3.669-1.49L523.692,532.871z"/>
	<path fill="#231F20" d="M522.727,531.319h-0.728v-0.75h0.728V531.319z M528.117,531.279l-4.425-0.002v-0.658h4.425V531.279z"/>
	<path fill="#231F20" d="M527.646,527.349c0-0.604-0.248-1.032-0.623-1.392l0.367-0.411c0.495,0.446,0.829,0.983,0.829,1.82
		c0,1.217-0.933,2.209-2.31,2.209c-1.283,0-2.311-0.898-2.31-2.121c-0.001-1.31,1.044-2.062,2.344-2.062c0.06,0,0.128,0,0.206,0.007
		v3.511C527.106,528.813,527.646,528.128,527.646,527.349z M525.662,526.059c-0.806,0.068-1.507,0.531-1.505,1.413
		c0,0.77,0.64,1.35,1.504,1.438L525.662,526.059z"/>
	<path fill="#231F20" d="M523.692,521.312l0.002-0.652l4.423,0.002v0.647l-0.771,0.003c0.479,0.296,0.864,0.749,0.864,1.514
		c0,1.066-0.719,1.691-1.771,1.691h-2.746v-0.657h2.585c0.82,0,1.334-0.445,1.334-1.224c0-0.755-0.556-1.327-1.386-1.327
		L523.692,521.312z"/>
	<path fill="#231F20" d="M528.117,515.551v0.763l-1.806,1.367l1.806,1.378v0.736l-2.251-1.735l-2.174,1.665v-0.751l1.712-1.309
		l-1.712-1.308v-0.739l2.158,1.679L528.117,515.551z"/>
	<path fill="#231F20" d="M523.692,511.626l4.681-0.002c0.78,0,1.137,0.41,1.137,1.078c0,0.154-0.007,0.264-0.042,0.41h-0.539
		c0.018-0.104,0.025-0.23,0.025-0.324c0-0.301-0.179-0.507-0.59-0.507h-4.672V511.626z M522.727,512.325h-0.728v-0.752h0.728
		V512.325z"/>
	<path fill="#231F20" d="M527.646,508.355c0-0.606-0.248-1.036-0.623-1.396l0.367-0.41c0.495,0.445,0.829,0.984,0.829,1.823
		c0,1.213-0.931,2.207-2.31,2.207c-1.283,0-2.311-0.898-2.311-2.12c0-1.312,1.045-2.064,2.345-2.062c0.06,0,0.128-0.003,0.206,0.007
		v3.507C527.106,509.818,527.646,509.133,527.646,508.355z M525.661,507.063c-0.805,0.068-1.506,0.529-1.506,1.412
		c0,0.771,0.642,1.353,1.506,1.437V507.063z"/>
	<path fill="#231F20" d="M523.692,502.313v-0.65l4.425,0.002v0.65l-0.771-0.002c0.479,0.301,0.864,0.754,0.865,1.515
		c-0.001,1.07-0.72,1.692-1.772,1.695l-2.746-0.003v-0.654l2.585-0.003c0.82,0,1.334-0.443,1.334-1.223
		c0-0.754-0.556-1.327-1.386-1.325L523.692,502.313z"/>
	<path fill="#231F20" d="M522.727,495.673h-0.728v-0.749h0.728V495.673z M528.117,495.63h-4.425v-0.656h4.425V495.63z"/>
	<path fill="#231F20" d="M528.117,492.996v0.66h-4.425v-0.66h0.771c-0.478-0.291-0.864-0.753-0.864-1.513
		c0-1.07,0.721-1.695,1.771-1.692h2.747v0.657h-2.585c-0.821,0-1.334,0.443-1.334,1.223c0,0.759,0.557,1.325,1.386,1.325H528.117z"
		/>
	<path fill="#231F20" d="M527.646,486.649c0-0.609-0.248-1.039-0.623-1.396l0.367-0.412c0.495,0.448,0.829,0.986,0.829,1.824
		c0,1.215-0.933,2.206-2.31,2.206c-1.283,0-2.311-0.898-2.311-2.12c0.001-1.309,1.046-2.064,2.345-2.064c0.06,0,0.128,0,0.206,0.01
		v3.507C527.106,488.109,527.646,487.427,527.646,486.649z M525.661,485.356c-0.805,0.068-1.506,0.531-1.506,1.412
		c0.002,0.769,0.643,1.351,1.506,1.438V485.356z M523.026,487.16l-1.24-0.812l0.315-0.686l0.925,0.967V487.16z"/>
	<path fill="#231F20" d="M529.503,481.788c0,0.735-0.205,1.419-0.617,2.01l-0.513-0.299c0.368-0.505,0.563-1.068,0.563-1.704
		c0-0.976-0.539-1.606-1.573-1.606h-0.522c0.514,0.385,0.934,0.922,0.934,1.736c0,1.062-0.787,2.077-2.08,2.077
		c-1.3,0-2.096-1.025-2.096-2.077c0-0.832,0.41-1.369,0.891-1.729h-0.795l-0.002-0.66h3.653
		C528.775,479.539,529.503,480.428,529.503,481.788z M524.181,481.795c0,0.84,0.574,1.532,1.498,1.532
		c0.906,0,1.514-0.71,1.514-1.532c0-0.837-0.6-1.624-1.505-1.624C524.772,480.169,524.181,480.958,524.181,481.795z"/>
	<path fill="#231F20" d="M524.54,478.021l-0.539,0.199c-0.222-0.49-0.367-0.969-0.367-1.608c0-1.207,0.617-1.885,1.779-1.885h2.704
		v0.635h-0.668c0.402,0.306,0.761,0.822,0.761,1.599c0,0.822-0.462,1.651-1.386,1.651c-0.94,0.003-1.438-0.771-1.438-1.891
		c0-0.562,0.077-0.967,0.188-1.359h-0.153c-0.796,0-1.206,0.488-1.206,1.317C524.216,477.202,524.353,477.611,524.54,478.021z
		 M526.8,477.945c0.563,0.002,0.889-0.514,0.889-1.111c0-0.814-0.496-1.479-1.197-1.479l-0.428-0.002
		c-0.096,0.326-0.188,0.762-0.188,1.303C525.875,477.484,526.236,477.945,526.8,477.945z"/>
	<path fill="#231F20" d="M528.117,473.479h-6.245v-0.657h6.245V473.479z"/>
	<path fill="#231F20" d="M522.727,471.486h-0.728v-0.753l0.728-0.002V471.486z M528.117,471.441h-4.425v-0.657h4.425V471.441z"/>
	<path fill="#231F20" d="M526.858,468.577c0.539,0,0.736-0.301,0.736-0.747c0-0.222-0.043-0.408-0.154-0.641h0.565
		c0.119,0.232,0.188,0.479,0.188,0.796c0,0.709-0.352,1.25-1.25,1.25h-2.67v0.615h-0.58v-0.615h-1.334v-0.66h1.334l-0.002-1.403
		l0.582,0.003v1.4L526.858,468.577z"/>
	<path fill="#231F20" d="M527.646,464.271c0-0.607-0.248-1.033-0.623-1.392l0.367-0.41c0.495,0.442,0.829,0.983,0.829,1.819
		c0,1.216-0.933,2.21-2.31,2.21c-1.283-0.003-2.31-0.899-2.311-2.122c0-1.308,1.045-2.062,2.345-2.062c0.06,0,0.128,0,0.206,0.008
		v3.509C527.106,465.735,527.646,465.051,527.646,464.271z M525.661,462.98c-0.805,0.067-1.504,0.53-1.504,1.41
		c-0.002,0.772,0.64,1.354,1.504,1.439V462.98z M523.026,464.786l-1.24-0.814l0.315-0.684l0.925,0.969V464.786z"/>
	<path fill="#231F20" d="M528.21,454.313c0,0.819-0.444,1.351-0.941,1.694h2.217v0.657l-5.793,0.003v-0.66h0.89
		c-0.528-0.359-0.983-0.883-0.983-1.694c0-1.061,0.84-2.115,2.301-2.112C527.354,452.198,528.21,453.243,528.21,454.313z
		 M524.188,454.433c0,0.819,0.686,1.599,1.713,1.599c1.035,0,1.719-0.779,1.719-1.599c0.001-0.855-0.633-1.557-1.711-1.559
		C524.856,452.876,524.188,453.593,524.188,454.433z"/>
	<path fill="#231F20" d="M527.646,449.247c0-0.607-0.248-1.035-0.623-1.395l0.367-0.41c0.495,0.445,0.829,0.985,0.829,1.822
		c0,1.214-0.933,2.207-2.31,2.207c-1.283,0-2.311-0.899-2.311-2.122c0-1.308,1.045-2.06,2.346-2.062c0.059,0,0.127,0,0.205,0.01
		v3.507C527.106,450.709,527.646,450.025,527.646,449.247z M525.661,447.954c-0.805,0.07-1.506,0.531-1.506,1.413
		c0,0.77,0.642,1.352,1.506,1.438V447.954z"/>
	<path fill="#231F20" d="M523.692,443.205v-0.649h4.425v0.652l-0.771-0.003c0.479,0.302,0.864,0.755,0.864,1.514
		c0,1.072-0.719,1.694-1.771,1.697l-2.746-0.003v-0.657h2.585c0.82,0,1.334-0.443,1.334-1.223c0-0.756-0.556-1.325-1.386-1.325
		L523.692,443.205z"/>
	<path fill="#231F20" d="M528.117,440.63v0.66h-4.425v-0.657l1.156-0.003c-0.736-0.323-1.266-0.966-1.232-1.806h0.709v0.053
		c0,0.967,0.694,1.756,2.029,1.756L528.117,440.63z"/>
	<path fill="#231F20" d="M527.646,431.38c0-0.605-0.248-1.034-0.623-1.392l0.367-0.412c0.495,0.443,0.829,0.984,0.829,1.823
		c0,1.213-0.933,2.207-2.31,2.207c-1.283,0-2.31-0.899-2.311-2.123c0-1.31,1.045-2.062,2.346-2.062c0.059,0,0.127,0,0.205,0.01
		v3.507C527.106,432.845,527.646,432.161,527.646,431.38z M525.661,430.09c-0.805,0.07-1.504,0.53-1.506,1.411
		c0,0.77,0.642,1.351,1.506,1.438V430.09z"/>
	<path fill="#231F20" d="M528.117,427.82v0.66h-4.425v-0.657h0.771c-0.478-0.294-0.864-0.755-0.864-1.515
		c0-1.071,0.721-1.696,1.771-1.696h2.747v0.66h-2.585c-0.82,0-1.334,0.443-1.334,1.223c0,0.76,0.557,1.325,1.386,1.325H528.117z"/>
	<path fill="#231F20" d="M523.692,420.318v-0.709l4.458,1.922v0.583l-4.458,1.915v-0.727l3.672-1.487L523.692,420.318z"/>
	<path fill="#231F20" d="M524.54,418.744l-0.539,0.197c-0.221-0.488-0.367-0.967-0.367-1.608c0-1.207,0.615-1.885,1.779-1.882h2.704
		v0.634h-0.668c0.402,0.307,0.761,0.819,0.761,1.599c0,0.819-0.462,1.65-1.386,1.65c-0.94,0-1.438-0.77-1.438-1.89
		c0-0.564,0.077-0.969,0.188-1.359h-0.153c-0.796,0-1.206,0.485-1.206,1.314C524.216,417.923,524.353,418.334,524.54,418.744z
		 M526.8,418.668c0.563,0,0.889-0.514,0.889-1.114c0-0.812-0.496-1.479-1.197-1.479l-0.428,0.002
		c-0.096,0.321-0.188,0.76-0.188,1.301C525.875,418.203,526.236,418.668,526.8,418.668z"/>
	<path fill="#231F20" d="M528.117,413.602v0.66l-6.245-0.003v-0.657l2.591,0.002c-0.479-0.291-0.864-0.754-0.864-1.517
		c0.001-1.068,0.721-1.693,1.771-1.69h2.747v0.655h-2.585c-0.821,0-1.334,0.445-1.334,1.225c0,0.759,0.557,1.325,1.386,1.325
		H528.117z"/>
	<path fill="#231F20" d="M522.727,409.185h-0.728v-0.751h0.728V409.185z M528.117,409.146l-4.423-0.003l-0.002-0.657h4.425V409.146z
		"/>
	<path fill="#231F20" d="M528.202,405.706c0,0.63-0.247,1.332-0.65,1.827l-0.471-0.332c0.359-0.479,0.564-1.009,0.564-1.532
		c0-0.531-0.273-0.914-0.701-0.914h-0.018c-0.445,0-0.615,0.522-0.777,1.105c-0.197,0.693-0.438,1.46-1.25,1.46h-0.017
		c-0.763,0-1.267-0.633-1.267-1.505c0-0.541,0.188-1.139,0.488-1.592l0.496,0.299c-0.266,0.412-0.428,0.883-0.428,1.311
		c0,0.521,0.273,0.854,0.641,0.857l0.018-0.003c0.419,0,0.582-0.548,0.763-1.138c0.204-0.686,0.47-1.421,1.265-1.421h0.018
		C527.716,404.129,528.202,404.821,528.202,405.706z"/>
	<path fill="#231F20" d="M528.202,401.743c0,0.633-0.247,1.333-0.65,1.831l-0.471-0.334c0.359-0.48,0.564-1.012,0.564-1.531
		c0-0.53-0.273-0.917-0.701-0.917h-0.018c-0.445,0-0.615,0.523-0.777,1.105c-0.197,0.692-0.438,1.462-1.25,1.462h-0.017
		c-0.761,0-1.267-0.633-1.267-1.506c0-0.538,0.188-1.139,0.488-1.593l0.495,0.303c-0.265,0.407-0.426,0.878-0.427,1.309
		c0,0.521,0.273,0.854,0.641,0.854h0.018c0.419,0,0.582-0.547,0.762-1.138c0.205-0.686,0.471-1.42,1.266-1.42h0.018
		C527.715,400.169,528.202,400.862,528.202,401.743z"/>
	<path fill="#231F20" d="M524.54,398.901l-0.539,0.197c-0.222-0.488-0.367-0.967-0.367-1.608c0-1.206,0.615-1.884,1.779-1.882
		l2.704-0.002v0.635h-0.668c0.402,0.306,0.761,0.819,0.761,1.599c0,0.822-0.462,1.651-1.386,1.654
		c-0.939-0.003-1.438-0.772-1.438-1.893c0-0.566,0.077-0.967,0.188-1.36h-0.153c-0.796,0-1.206,0.485-1.206,1.317
		C524.216,398.08,524.353,398.492,524.54,398.901z M526.8,398.826c0.563,0,0.889-0.513,0.889-1.113c0-0.812-0.496-1.481-1.197-1.481
		l-0.428,0.002c-0.096,0.324-0.188,0.761-0.188,1.298C525.875,398.363,526.235,398.824,526.8,398.826z"/>
	<path fill="#231F20" d="M528.117,393.759v0.66h-4.425v-0.658l0.771-0.002c-0.479-0.29-0.864-0.751-0.864-1.515
		c0-1.068,0.721-1.694,1.771-1.692h2.747v0.658h-2.585c-0.821,0-1.334,0.444-1.334,1.224c0,0.762,0.557,1.325,1.386,1.325H528.117z"
		/>
	<path fill="#231F20" d="M526.858,388.473c0.539,0,0.736-0.301,0.736-0.747c0-0.222-0.043-0.409-0.154-0.64h0.565
		c0.119,0.23,0.188,0.479,0.188,0.794c0,0.711-0.352,1.25-1.25,1.25h-2.67v0.616h-0.58v-0.616h-1.334v-0.66h1.334l-0.002-1.401
		h0.582v1.401L526.858,388.473z"/>
	<path fill="#231F20" d="M523.599,371.642c0-1.016,0.686-1.644,1.781-1.644l2.737,0.003v0.657l-2.585,0.003
		c-0.855-0.003-1.334,0.425-1.334,1.142c0,0.667,0.498,1.224,1.369,1.226l2.55-0.002v0.65l-2.603,0.002
		c-0.828-0.002-1.316,0.436-1.316,1.136c0,0.706,0.582,1.232,1.395,1.232l2.524,0.003v0.654h-4.425v-0.657l0.746,0.003
		c-0.438-0.294-0.84-0.688-0.839-1.432c0-0.717,0.384-1.18,0.881-1.42C523.993,372.882,523.6,372.411,523.599,371.642z"/>
	<path fill="#231F20" d="M524.54,368.528l-0.539,0.194c-0.222-0.488-0.367-0.966-0.367-1.606c0-1.209,0.615-1.884,1.779-1.884h2.704
		v0.633h-0.668c0.402,0.306,0.761,0.821,0.761,1.599c0,0.822-0.462,1.652-1.386,1.652c-0.94,0-1.438-0.77-1.438-1.889
		c0.001-0.568,0.077-0.969,0.188-1.362h-0.153c-0.796,0-1.206,0.488-1.206,1.317C524.216,367.704,524.353,368.114,524.54,368.528z
		 M526.8,368.448c0.563,0.002,0.889-0.514,0.889-1.111c0-0.814-0.496-1.482-1.197-1.482l-0.428,0.003
		c-0.096,0.324-0.188,0.761-0.188,1.3C525.875,367.987,526.235,368.448,526.8,368.448z"/>
	<path fill="#231F20" d="M528.117,363.983h-6.245v-0.658h6.245V363.983z"/>
	<path fill="#231F20" d="M524.54,361.749l-0.539,0.195c-0.222-0.488-0.367-0.966-0.367-1.605c0-1.208,0.615-1.883,1.781-1.883h2.702
		v0.633h-0.668c0.402,0.309,0.761,0.821,0.761,1.598c0,0.822-0.462,1.652-1.386,1.652c-0.94,0-1.438-0.77-1.438-1.888
		c0-0.568,0.077-0.966,0.189-1.362l-0.154,0.002c-0.796-0.002-1.206,0.485-1.206,1.315
		C524.216,360.929,524.353,361.337,524.54,361.749z M526.8,361.671c0.563,0,0.889-0.511,0.889-1.11c0-0.812-0.496-1.479-1.197-1.479
		h-0.428c-0.096,0.326-0.188,0.759-0.188,1.3C525.875,361.21,526.235,361.671,526.8,361.671z"/>
	<path fill="#231F20" d="M522.727,357.249h-0.728v-0.754l0.728,0.003V357.249z M528.117,357.206l-4.425,0.002v-0.66h4.425V357.206z"
		/>
	<path fill="#231F20" d="M528.202,353.766c0,0.636-0.248,1.335-0.65,1.834l-0.471-0.337c0.359-0.479,0.564-1.009,0.564-1.532
		c0-0.529-0.273-0.913-0.701-0.913h-0.018c-0.445,0-0.615,0.521-0.777,1.103c-0.197,0.692-0.437,1.462-1.25,1.462h-0.016
		c-0.764,0-1.268-0.632-1.268-1.504c0-0.54,0.188-1.139,0.488-1.592l0.495,0.299c-0.265,0.414-0.427,0.883-0.426,1.311
		c-0.001,0.523,0.272,0.857,0.64,0.854h0.018c0.419,0.003,0.582-0.549,0.762-1.136c0.205-0.688,0.471-1.422,1.266-1.42h0.018
		C527.715,352.192,528.202,352.888,528.202,353.766z"/>
	<path fill="#231F20" d="M527.646,349.23c0-0.607-0.248-1.034-0.623-1.392l0.367-0.412c0.495,0.443,0.829,0.984,0.829,1.824
		c0,1.212-0.931,2.203-2.31,2.203c-1.283,0.002-2.31-0.896-2.311-2.119c0-1.31,1.045-2.062,2.345-2.062c0.06,0,0.128,0,0.206,0.01
		v3.504C527.106,350.694,527.646,350.013,527.646,349.23z M525.661,347.94c-0.805,0.07-1.506,0.531-1.506,1.409
		c0,0.772,0.642,1.353,1.506,1.437V347.94z"/>
</g>
<path fill="#231F20" d="M488.244,543.933c-0.471,0-0.994-0.079-1.413-0.183l-7.9-2.12l-0.001,1.857l-1.778-0.471v-1.882
	l-4.081-1.099v-1.99l4.081,1.098v-4.264l1.778,0.472v4.266l7.798,2.092c0.312,0.053,0.705,0.105,0.992,0.105
	c0.942,0,1.386-0.708,1.386-1.858c0.001-0.603-0.131-1.23-0.419-1.963l1.833,0.498c0.287,0.708,0.393,1.36,0.393,2.145
	C490.913,542.571,489.997,543.932,488.244,543.933z"/>
<path fill="#231F20" d="M479.152,532.821v-2.015l13.525,3.636v2.016L479.152,532.821z M473.972,531.563l-0.001-2.302l2.224,0.604
	v2.301L473.972,531.563z"/>
<path fill="#231F20" d="M490.349,519.033c1.467,1.309,2.643,2.953,2.643,5.128c0,3.062-2.303,5.363-5.73,5.363
	c-4.787,0-8.397-3.638-8.397-7.587c0-2.772,1.543-4.341,3.323-5.076l-3.035-0.81v-2.015l18.757,4.996v2.015L490.349,519.033z
	 M484.829,517.569c-2.355,0-4.187,1.7-4.187,4.187c0.001,3.218,2.982,5.648,6.437,5.648c2.51,0,4.132-1.571,4.132-3.817
	C491.212,520.577,488.125,517.569,484.829,517.569z"/>
<path fill="#231F20" d="M488.779,512.729c-0.629,0-1.386-0.156-2.093-0.339l-7.533-1.99l-0.001-2.014l7.665,2.066
	c0.445,0.132,1.073,0.185,1.52,0.185c1.776,0,2.823-1.15,2.823-3.01c0.001-2.092-1.804-4.211-4.395-4.892l-7.613-2.042l0.001-2.012
	l13.524,3.608v2.016l-2.197-0.604c1.387,1.229,2.485,2.671,2.485,4.735C492.965,511.028,491.343,512.729,488.779,512.729z"/>
<path fill="#231F20" d="M487.157,495.594c2.459,0,4.083-1.569,4.081-4.079c0-1.754-0.602-2.933-1.595-4.159l1.333-1.05
	c1.127,1.336,2.016,2.932,2.016,5.312c0,3.584-2.328,5.99-5.756,5.99c-4.133,0-8.371-3.347-8.369-7.875
	c0-3.428,2.353-5.23,5.178-5.23c0.917,0,1.78,0.182,2.564,0.471v10.596C486.791,495.594,486.974,495.594,487.157,495.594z
	 M485.091,486.595c-0.236-0.077-0.577-0.129-1.046-0.129c-1.857,0-3.481,1.046-3.481,3.374c0,2.668,2.041,4.708,4.528,5.44
	L485.091,486.595z"/>
<path fill="#231F20" d="M490.993,472.515l-1.065-1.065c1.151-1.193,1.62-2.515,1.62-3.838c0-1.257-0.725-2.429-1.833-2.429
	c-0.725,0-1.256,0.491-1.876,2.088c-0.767,1.982-1.492,3.113-3.027,3.113c-1.875,0-3.389-1.621-3.389-4.18
	c0-1.619,0.725-3.153,1.513-4.069l1.129,0.959c-0.746,0.916-1.279,2.067-1.278,3.261c-0.001,1.556,0.832,2.388,1.747,2.388
	c0.726,0,1.172-0.448,1.875-2.197c0.79-1.981,1.599-3.003,3.028-3.003c2.045,0,3.474,1.875,3.474,4.219
	C492.911,469.467,492.272,471.234,490.993,472.515z"/>
<path fill="#231F20" d="M487.987,461.303c-3.432,0-6.565-2.962-6.565-6.481c0-3.025,2.067-5.028,4.924-5.028
	c3.517,0,6.587,3.046,6.587,6.501C492.933,459.319,490.844,461.303,487.987,461.303z M486.409,451.478
	c-2.237-0.003-3.538,1.404-3.538,3.451c0,2.537,2.516,4.713,5.073,4.713c2.238,0,3.517-1.407,3.517-3.455
	C491.462,453.714,489.032,451.478,486.409,451.478z"/>
<path fill="#231F20" d="M489.5,448.045c-0.511,0-1.13-0.127-1.705-0.277l-6.138-1.62v-1.642l6.244,1.683
	c0.363,0.108,0.874,0.149,1.237,0.149c1.45,0,2.302-0.937,2.302-2.45c0-1.706-1.471-3.432-3.582-3.988l-6.202-1.661v-1.64
	l11.021,2.939v1.643l-1.792-0.491c1.13,1.001,2.024,2.175,2.024,3.858C492.911,446.659,491.59,448.045,489.5,448.045z"/>
<path fill="#231F20" d="M481.657,434.871l-0.001-1.726l9.144-1.237l-9.143-6.099l-0.001-1.852l11.107,7.695v1.449L481.657,434.871z"
	/>
<path fill="#231F20" d="M488.179,422.979c2.004,0,3.325-1.281,3.325-3.328c0-1.428-0.489-2.387-1.3-3.388l1.087-0.854
	c0.917,1.088,1.642,2.388,1.642,4.328c0,2.919-1.896,4.882-4.69,4.882c-3.368,0-6.821-2.729-6.821-6.419
	c0-2.791,1.917-4.261,4.221-4.261c0.746,0,1.449,0.146,2.089,0.383v8.633C487.88,422.979,488.031,422.979,488.179,422.979z
	 M486.495,415.644c-0.191-0.062-0.468-0.107-0.853-0.107c-1.514,0-2.836,0.855-2.836,2.753c0,2.174,1.664,3.835,3.688,4.433V415.644
	z"/>
<path fill="#231F20" d="M481.656,410.315v-1.641l1.791,0.468c-1.129-1-2.025-2.151-2.025-3.835c0-2.133,1.322-3.517,3.411-3.517
	c0.51,0,1.129,0.126,1.705,0.276l6.139,1.619v1.641l-6.246-1.661c-0.363-0.106-0.873-0.172-1.235-0.172
	c-1.45,0-2.303,0.94-2.303,2.474c0,1.707,1.471,3.432,3.56,3.984l6.225,1.664v1.642L481.656,410.315z"/>
<path fill="#231F20" d="M481.656,397.612v-1.643l11.021,2.965v1.641L481.656,397.612z M477.436,396.588v-1.875l1.812,0.491
	l0.001,1.874L477.436,396.588z"/>
<path fill="#231F20" d="M481.656,392.687v-1.641l2.878,0.748c-1.917-1.344-3.198-3.049-3.07-5.246l1.771,0.471l0.001,0.105
	c-0.001,2.41,1.767,4.797,5.093,5.692l4.348,1.171v1.642L481.656,392.687z"/>
<path fill="#231F20" d="M481.656,372.929v-1.641l1.791,0.469c-1.129-1.002-2.025-2.049-2.025-3.668c0-1.854,1.214-2.834,2.496-3.132
	c-1.516-0.981-2.496-2.474-2.496-4.435c0-1.982,1.364-3.369,3.411-3.369c0.51,0,1.129,0.149,1.705,0.299l6.139,1.642v1.642
	l-6.246-1.685c-0.363-0.106-0.872-0.149-1.235-0.149c-1.428,0-2.303,0.854-2.303,2.281c0,1.619,1.513,3.283,3.56,3.816l6.225,1.641
	v1.642l-6.246-1.664c-0.361-0.104-0.873-0.168-1.235-0.168c-1.428,0-2.303,0.873-2.303,2.3c0,1.622,1.513,3.264,3.56,3.816
	l6.225,1.663v1.642L481.656,372.929z"/>
<path fill="#231F20" d="M489.862,356.11c-2.47,0-3.986-2.068-3.986-4.902c0-1.472,0.299-2.855,0.598-3.923l-0.256-0.065
	c-0.319-0.084-0.725-0.148-1.022-0.148c-1.428,0-2.238,0.98-2.239,2.986c0.001,1.171,0.235,2.133,0.576,3.111l-1.364,0.275
	c-0.405-1.085-0.661-2.216-0.661-3.643c0-2.772,1.28-4.328,3.411-4.328c0.469,0,1.002,0.105,1.513,0.235l6.246,1.661v1.6
	l-1.727-0.469c1.173,1.023,1.961,2.366,1.961,4.114C492.911,354.469,491.823,356.11,489.862,356.11z M488.35,347.776l-0.767-0.215
	c-0.278,0.959-0.491,2.217-0.491,3.582c0.001,1.963,1.066,3.305,2.579,3.305c1.173,0,1.962-0.917,1.962-2.346
	C491.633,350.249,490.29,348.31,488.35,347.776z"/>
<path fill="#231F20" d="M477.115,340.08v-1.639l15.562,4.177v1.641L477.115,340.08z"/>
<path fill="#231F20" d="M489.862,339.271c-2.472,0-3.986-2.068-3.986-4.902c0-1.472,0.299-2.855,0.598-3.922l-0.256-0.064
	c-0.319-0.086-0.725-0.149-1.022-0.149c-1.428,0-2.239,0.981-2.239,2.985c0,1.171,0.235,2.13,0.576,3.111l-1.364,0.279
	c-0.405-1.089-0.661-2.22-0.661-3.646c0-2.771,1.279-4.328,3.411-4.328c0.47,0,1.002,0.106,1.513,0.236l6.246,1.661v1.599
	l-1.727-0.468c1.173,1.022,1.961,2.365,1.961,4.114C492.911,337.63,491.823,339.271,489.862,339.271z M488.351,330.937l-0.768-0.213
	c-0.276,0.959-0.491,2.219-0.491,3.58c0,1.96,1.066,3.306,2.579,3.306c1.173,0,1.962-0.916,1.962-2.347
	C491.633,333.41,490.29,331.47,488.351,330.937z"/>
<path fill="#231F20" d="M481.657,324.456l-0.001-1.643l11.021,2.965v1.642L481.657,324.456z M477.436,323.433v-1.876l1.813,0.491
	l-0.001,1.875L477.436,323.433z"/>
<path fill="#231F20" d="M490.993,322.965l-1.065-1.067c1.151-1.191,1.62-2.515,1.62-3.835c0-1.257-0.725-2.431-1.833-2.431
	c-0.725,0-1.257,0.49-1.876,2.09c-0.766,1.982-1.492,3.111-3.027,3.111c-1.875,0-3.389-1.619-3.389-4.178
	c0-1.621,0.725-3.156,1.513-4.072l1.129,0.959c-0.746,0.916-1.279,2.07-1.279,3.264c0,1.556,0.832,2.388,1.748,2.388
	c0.726,0,1.172-0.448,1.875-2.197c0.79-1.981,1.599-3.006,3.028-3.006c2.045,0,3.474,1.875,3.474,4.222
	C492.911,319.915,492.272,321.687,490.993,322.965z"/>
<path fill="#231F20" d="M488.179,310.132c2.004,0,3.325-1.277,3.325-3.325c0-1.427-0.489-2.388-1.3-3.39l1.087-0.852
	c0.917,1.086,1.642,2.387,1.642,4.326c0,2.922-1.896,4.883-4.69,4.883c-3.368,0-6.821-2.728-6.821-6.417
	c0-2.792,1.917-4.264,4.221-4.264c0.746,0,1.451,0.149,2.089,0.383v8.636C487.88,310.132,488.029,310.132,488.179,310.132z
	 M486.495,302.8c-0.191-0.064-0.469-0.107-0.852-0.107c-1.515,0-2.837,0.855-2.837,2.75c0,2.175,1.664,3.838,3.688,4.437V302.8z"/>
<path fill="#231F20" d="M436.516,540.701c0.859,0,1.174-0.478,1.174-1.188c0-0.353-0.068-0.655-0.247-1.022h0.902
	c0.191,0.367,0.3,0.765,0.3,1.27c0,1.134-0.559,1.993-1.993,1.993h-4.26v0.982h-0.928v-0.982h-2.13v-1.052h2.13v-2.238h0.928v2.238
	H436.516z"/>
<path fill="#231F20" d="M437.771,534.041c0-0.972-0.396-1.654-0.996-2.227l0.587-0.655c0.791,0.711,1.324,1.569,1.324,2.91
	c0,1.938-1.488,3.521-3.687,3.521c-2.048,0-3.687-1.435-3.687-3.388c0-2.087,1.668-3.289,3.741-3.289c0.096,0,0.205,0,0.329,0.015
	v5.596C436.912,536.376,437.771,535.285,437.771,534.041z M434.603,531.979c-1.283,0.109-2.402,0.847-2.402,2.251
	c0,1.231,1.024,2.16,2.402,2.294V531.979z"/>
<path fill="#231F20" d="M438.523,528.36v1.051h-7.06v-1.051h1.228c-0.764-0.466-1.378-1.203-1.378-2.419
	c0-1.705,1.147-2.702,2.827-2.702h4.385l-0.001,1.052h-4.125c-1.312,0-2.13,0.709-2.13,1.952c0,1.216,0.887,2.117,2.212,2.117
	H438.523z"/>
<path fill="#231F20" d="M438.523,515.673h-1.42c0.846,0.575,1.57,1.407,1.57,2.705c0,1.694-1.337,3.372-3.673,3.372
	c-2.322,0-3.687-1.678-3.687-3.372c0-1.311,0.709-2.158,1.502-2.705h-4.261v-1.052h9.969V515.673z M432.254,518.186
	c0,1.365,1.011,2.486,2.732,2.486c1.679,0,2.745-1.146,2.745-2.486c0-1.311-1.094-2.553-2.745-2.553
	C433.347,515.633,432.254,516.875,432.254,518.186z"/>
<path fill="#231F20" d="M438.523,511.563v1.051h-7.06v-1.051h1.844c-1.175-0.519-2.021-1.542-1.967-2.882h1.133v0.083
	c0,1.543,1.106,2.799,3.237,2.799H438.523z"/>
<path fill="#231F20" d="M437.771,504.616c0-0.971-0.396-1.653-0.996-2.226l0.587-0.655c0.791,0.71,1.324,1.568,1.324,2.909
	c0,1.938-1.488,3.521-3.687,3.521c-2.048,0-3.687-1.433-3.687-3.385c0-2.09,1.667-3.292,3.741-3.292c0.097,0,0.205,0,0.329,0.015
	v5.599C436.912,506.951,437.771,505.86,437.771,504.616z M434.603,502.555c-1.283,0.109-2.402,0.847-2.402,2.251
	c0.001,1.231,1.024,2.16,2.402,2.297V502.555z"/>
<path fill="#231F20" d="M438.659,497.65c0,1.012-0.396,2.132-1.038,2.924l-0.751-0.532c0.573-0.766,0.9-1.611,0.9-2.443
	c0-0.847-0.436-1.462-1.119-1.462h-0.028c-0.71,0-0.982,0.832-1.241,1.761c-0.315,1.105-0.696,2.336-1.994,2.336h-0.027
	c-1.216,0-2.021-1.011-2.021-2.404c0-0.86,0.3-1.814,0.778-2.54l0.792,0.479c-0.423,0.655-0.682,1.407-0.682,2.09
	c0,0.832,0.437,1.365,1.023,1.365h0.027c0.669,0,0.929-0.875,1.217-1.816c0.326-1.093,0.75-2.267,2.02-2.267h0.028
	C437.88,495.14,438.659,496.246,438.659,497.65z"/>
<path fill="#231F20" d="M438.659,491.329c0,1.011-0.395,2.129-1.038,2.921l-0.751-0.532c0.573-0.763,0.9-1.608,0.9-2.443
	c0-0.847-0.436-1.462-1.119-1.462h-0.026c-0.711,0-0.983,0.835-1.243,1.764c-0.314,1.105-0.698,2.333-1.994,2.333h-0.027
	c-1.216,0-2.021-1.008-2.021-2.403c0-0.858,0.3-1.814,0.778-2.538l0.792,0.476c-0.422,0.658-0.682,1.407-0.682,2.09
	c0,0.835,0.437,1.368,1.023,1.368h0.027c0.669,0,0.928-0.875,1.216-1.818c0.329-1.091,0.752-2.267,2.021-2.267h0.027
	C437.88,488.816,438.659,489.922,438.659,491.329z"/>
<path fill="#231F20" d="M437.771,484.091c0-0.969-0.396-1.65-0.996-2.224l0.588-0.657c0.79,0.713,1.323,1.571,1.323,2.909
	c0,1.939-1.488,3.523-3.687,3.523c-2.048,0-3.687-1.435-3.687-3.387c0-2.09,1.667-3.29,3.741-3.29c0.097,0,0.205,0,0.329,0.012v5.6
	C436.912,486.428,437.771,485.335,437.771,484.091z M434.603,482.029c-1.283,0.109-2.401,0.847-2.402,2.254
	c0,1.229,1.024,2.157,2.402,2.294V482.029z"/>
<path fill="#231F20" d="M431.463,458.216v-1.038h7.06v1.038h-1.229c0.765,0.479,1.379,1.201,1.379,2.416
	c0,1.709-1.147,2.705-2.826,2.705h-4.384v-1.051h4.124c1.312,0,2.129-0.712,2.129-1.953c0-1.202-0.887-2.117-2.21-2.117H431.463z"/>
<path fill="#231F20" d="M437.771,452.045c0-0.972-0.396-1.654-0.995-2.228l0.586-0.655c0.791,0.71,1.324,1.57,1.324,2.909
	c0,1.938-1.488,3.522-3.687,3.522c-2.048,0-3.687-1.433-3.687-3.386c0-2.09,1.667-3.292,3.741-3.292c0.096,0,0.205,0,0.329,0.016
	v5.599C436.912,454.378,437.771,453.287,437.771,452.045z M434.603,449.981c-1.283,0.11-2.402,0.848-2.401,2.252
	c-0.001,1.23,1.024,2.159,2.401,2.297V449.981z M430.397,452.863l-1.98-1.298l0.506-1.093l1.475,1.545V452.863z"/>
<path fill="#231F20" d="M436.516,445.994c0.859,0,1.175-0.478,1.174-1.188c0-0.355-0.068-0.654-0.247-1.022h0.902
	c0.191,0.368,0.3,0.765,0.3,1.268c0,1.134-0.559,1.994-1.992,1.994h-4.26l-0.001,0.984h-0.928v-0.984h-2.13v-1.051l2.13-0.002
	v-2.236h0.928v2.238H436.516z"/>
<path fill="#231F20" d="M432.814,441.828l-0.859,0.316c-0.354-0.779-0.587-1.545-0.587-2.568c0-1.925,0.981-3.004,2.838-3.004h4.316
	v1.012h-1.065c0.642,0.49,1.214,1.31,1.214,2.553c0,1.31-0.737,2.635-2.212,2.635c-1.501,0-2.293-1.23-2.293-3.018
	c0-0.902,0.122-1.543,0.3-2.17h-0.245c-1.271,0-1.925,0.776-1.927,2.102C432.296,440.518,432.514,441.173,432.814,441.828z
	 M436.419,441.705c0.902,0,1.419-0.821,1.419-1.773c0-1.298-0.792-2.365-1.911-2.363h-0.682c-0.151,0.519-0.301,1.216-0.301,2.075
	C434.946,440.969,435.518,441.705,436.419,441.705z"/>
<path fill="#231F20" d="M429.92,434.646h-1.16v-1.202h1.16V434.646z M438.523,434.578h-7.06v-1.052h7.06V434.578z"/>
<path fill="#231F20" d="M438.523,430.374v1.05h-7.06v-1.05h1.228c-0.764-0.467-1.378-1.204-1.378-2.42
	c0-1.705,1.147-2.702,2.827-2.702h4.385l-0.001,1.052h-4.125c-1.312,0-2.13,0.709-2.13,1.953c0,1.215,0.887,2.117,2.212,2.117
	H438.523z"/>
<path fill="#231F20" d="M437.771,420.238c0-0.972-0.396-1.651-0.995-2.224l0.586-0.655c0.791,0.71,1.324,1.568,1.324,2.909
	c0,1.938-1.488,3.521-3.687,3.521c-2.048,0-3.687-1.435-3.687-3.388c0-2.087,1.667-3.289,3.741-3.289c0.096,0,0.205,0,0.33,0.016
	l-0.001,5.596C436.912,422.575,437.771,421.484,437.771,420.238z M434.603,418.179c-1.283,0.106-2.402,0.848-2.402,2.252
	c0,1.229,1.024,2.159,2.402,2.294V418.179z"/>
<path fill="#231F20" d="M429.92,408.075h-1.16v-1.204h1.16V408.075z M438.523,408.005l-7.06-0.003v-1.049h7.06V408.005z"/>
<path fill="#231F20" d="M438.523,403.801v1.05h-7.06v-1.05h1.228c-0.764-0.466-1.378-1.204-1.378-2.419
	c0-1.707,1.147-2.702,2.827-2.702h4.384v1.051h-4.125c-1.31,0-2.13,0.71-2.13,1.953c0,1.216,0.887,2.117,2.212,2.117H438.523z"/>
<path fill="#231F20" d="M437.771,393.669c0-0.972-0.396-1.654-0.996-2.228l0.588-0.655c0.792,0.71,1.323,1.57,1.323,2.906
	c0,1.94-1.488,3.525-3.687,3.525c-2.046,0-3.687-1.437-3.687-3.387c0-2.09,1.668-3.291,3.741-3.291c0.096,0,0.205,0,0.329,0.013
	v5.599C436.912,396.002,437.771,394.909,437.771,393.669z M434.603,391.605c-1.283,0.11-2.402,0.848-2.402,2.252
	c0,1.23,1.024,2.159,2.402,2.294V391.605z M430.397,394.486l-1.98-1.296l0.506-1.094l1.475,1.542L430.397,394.486z"/>
<path fill="#231F20" d="M440.735,385.908c0,1.177-0.328,2.269-0.984,3.213l-0.819-0.479c0.588-0.807,0.901-1.709,0.901-2.718
	c0-1.557-0.861-2.568-2.512-2.568h-0.833c0.82,0.616,1.489,1.475,1.489,2.772c0,1.694-1.257,3.318-3.319,3.318
	c-2.075,0-3.345-1.64-3.345-3.318c0-1.325,0.655-2.184,1.42-2.757h-1.27v-1.054h5.831
	C439.574,382.318,440.735,383.74,440.735,385.908z M432.242,385.925c0,1.337,0.914,2.443,2.388,2.443
	c1.448,0,2.417-1.134,2.417-2.443c0-1.34-0.955-2.595-2.403-2.595C433.183,383.33,432.242,384.585,432.242,385.925z"/>
<path fill="#231F20" d="M432.814,379.903l-0.859,0.313c-0.356-0.777-0.587-1.543-0.587-2.568c0-1.925,0.981-3.004,2.838-3.004h4.316
	v1.012h-1.065c0.642,0.49,1.214,1.31,1.214,2.553c0,1.31-0.737,2.635-2.212,2.635c-1.501,0-2.293-1.228-2.293-3.016
	c0-0.902,0.122-1.545,0.3-2.172h-0.245c-1.271,0-1.927,0.776-1.927,2.102C432.295,378.593,432.514,379.248,432.814,379.903z
	 M436.419,379.78c0.902,0,1.419-0.818,1.419-1.775c0-1.297-0.792-2.364-1.911-2.364h-0.682c-0.151,0.521-0.301,1.217-0.301,2.077
	C434.945,379.043,435.518,379.78,436.419,379.78z"/>
<path fill="#231F20" d="M438.524,372.652h-9.971v-1.052h9.969L438.524,372.652z"/>
<path fill="#231F20" d="M429.92,369.469h-1.16v-1.2h1.16V369.469z M438.523,369.402h-7.06v-1.052h7.06V369.402z"/>
<path fill="#231F20" d="M436.516,364.826c0.859,0,1.174-0.478,1.174-1.188c0-0.353-0.068-0.654-0.247-1.022h0.902
	c0.191,0.368,0.3,0.765,0.3,1.271c0,1.133-0.559,1.991-1.993,1.991h-4.26v0.984h-0.928v-0.985l-2.13,0.001v-1.051h2.13v-2.238h0.929
	l-0.001,2.238H436.516z"/>
<path fill="#231F20" d="M437.771,357.961c0-0.972-0.396-1.654-0.996-2.228l0.587-0.655c0.791,0.71,1.324,1.569,1.324,2.906
	c0,1.94-1.488,3.525-3.687,3.522c-2.048,0.003-3.687-1.433-3.687-3.386c0-2.09,1.667-3.289,3.741-3.289c0.097,0,0.205,0,0.329,0.013
	v5.599C436.912,360.294,437.771,359.198,437.771,357.961z M434.603,355.897c-1.283,0.11-2.402,0.847-2.402,2.251
	c0,1.231,1.025,2.16,2.402,2.295V355.897z M430.397,358.778l-1.98-1.297l0.506-1.094l1.475,1.545V358.778z"/>
<path fill="#231F20" d="M438.672,342.064c0,1.311-0.71,2.156-1.501,2.702h3.536v1.052h-9.244v-1.052h1.421
	c-0.849-0.572-1.572-1.404-1.572-2.702c0-1.694,1.338-3.372,3.674-3.372C437.308,338.692,438.672,340.358,438.672,342.064z
	 M432.254,342.257c0,1.311,1.093,2.553,2.732,2.553c1.651,0,2.745-1.242,2.745-2.553c0-1.368-1.011-2.486-2.732-2.486
	C433.321,339.771,432.254,340.917,432.254,342.257z"/>
<path fill="#231F20" d="M437.771,333.98c0-0.969-0.396-1.652-0.995-2.227l0.586-0.655c0.791,0.709,1.324,1.571,1.324,2.909
	c0.001,1.94-1.488,3.521-3.687,3.521c-2.048,0-3.687-1.432-3.687-3.385c0-2.09,1.667-3.291,3.741-3.291c0.096,0,0.206,0,0.329,0.013
	v5.599C436.912,336.315,437.771,335.223,437.771,333.98z M434.603,331.918c-1.283,0.109-2.402,0.846-2.402,2.254
	c0,1.228,1.025,2.156,2.402,2.293V331.918z"/>
<path fill="#231F20" d="M431.463,324.339v-1.036h7.062l-0.001,1.036h-1.229c0.765,0.478,1.379,1.203,1.379,2.418
	c0,1.706-1.147,2.703-2.827,2.703h-4.382v-1.052h4.124c1.312,0,2.129-0.709,2.129-1.953c0-1.199-0.887-2.116-2.212-2.116H431.463z"
	/>
<path fill="#231F20" d="M438.523,320.229v1.05h-7.06v-1.05h1.844c-1.175-0.519-2.021-1.545-1.965-2.882h1.132v0.082
	c0.001,1.545,1.106,2.8,3.237,2.8H438.523z"/>
<path fill="#231F20" d="M431.312,300.498c0-1.626,1.092-2.623,2.84-2.623h4.37l0.001,1.052h-4.126c-1.365,0-2.13,0.682-2.13,1.83
	c0,1.066,0.792,1.953,2.185,1.953h4.07l0.001,1.039h-4.154c-1.324,0-2.102,0.695-2.102,1.815c0,1.118,0.93,1.964,2.227,1.963
	l4.027,0.001v1.052l-7.06-0.002v-1.05h1.188c-0.697-0.463-1.338-1.09-1.338-2.277c0-1.148,0.614-1.887,1.406-2.267
	C431.94,302.479,431.312,301.726,431.312,300.498z"/>
<path fill="#231F20" d="M432.814,295.527l-0.861,0.313c-0.353-0.776-0.586-1.542-0.585-2.565c0-1.928,0.981-3.007,2.838-3.007h4.316
	v1.012h-1.066c0.643,0.49,1.215,1.311,1.215,2.553c0,1.312-0.736,2.636-2.212,2.636c-1.501,0-2.293-1.228-2.293-3.017
	c0-0.902,0.122-1.545,0.3-2.172h-0.245c-1.271,0-1.927,0.779-1.925,2.1C432.296,294.217,432.514,294.872,432.814,295.527z
	 M436.419,295.404c0.902,0,1.419-0.818,1.419-1.778c0-1.294-0.792-2.358-1.911-2.358h-0.682c-0.151,0.516-0.301,1.214-0.301,2.074
	C434.945,294.667,435.518,295.404,436.419,295.404z"/>
<path fill="#231F20" d="M438.523,288.277h-9.969v-1.052h9.969V288.277z"/>
<path fill="#231F20" d="M432.814,284.713l-0.861,0.313c-0.353-0.779-0.586-1.545-0.586-2.567c0-1.927,0.982-3.005,2.839-3.005h4.316
	v1.012h-1.066c0.643,0.491,1.215,1.311,1.215,2.553c0,1.311-0.737,2.636-2.212,2.636c-1.501,0-2.293-1.229-2.293-3.02
	c0-0.898,0.122-1.541,0.3-2.169h-0.244c-1.271,0-1.928,0.777-1.928,2.103C432.295,283.402,432.515,284.058,432.814,284.713z
	 M436.419,284.587c0.902,0,1.419-0.816,1.419-1.772c0-1.298-0.792-2.363-1.911-2.363h-0.682c-0.151,0.521-0.301,1.215-0.301,2.077
	C434.945,283.851,435.518,284.587,436.419,284.587z"/>
<path fill="#231F20" d="M429.92,277.529l-1.16-0.003v-1.198h1.16V277.529z M438.523,277.462h-7.06v-1.054h7.062L438.523,277.462z"/>
<path fill="#231F20" d="M438.659,271.972c0,1.01-0.396,2.13-1.038,2.922l-0.751-0.532c0.573-0.766,0.9-1.611,0.9-2.443
	c0-0.847-0.436-1.462-1.118-1.462h-0.029c-0.71,0-0.982,0.832-1.241,1.761c-0.315,1.105-0.698,2.336-1.994,2.336h-0.027
	c-1.216,0-2.021-1.011-2.021-2.403c0-0.861,0.3-1.815,0.778-2.54l0.792,0.478c-0.422,0.655-0.682,1.407-0.682,2.09
	c0,0.832,0.437,1.365,1.023,1.365h0.027c0.669,0,0.928-0.875,1.217-1.815c0.328-1.094,0.75-2.267,2.02-2.267h0.027
	C437.88,269.46,438.659,270.565,438.659,271.972z"/>
<path fill="#231F20" d="M437.771,264.734c0-0.969-0.396-1.654-0.995-2.227l0.586-0.654c0.791,0.71,1.324,1.571,1.324,2.909
	c0,1.938-1.488,3.521-3.687,3.521c-2.048,0-3.687-1.433-3.687-3.385c0-2.09,1.667-3.292,3.741-3.292c0.096,0,0.205,0,0.329,0.014
	v5.6C436.912,267.069,437.771,265.978,437.771,264.734z M434.603,262.673c-1.283,0.109-2.402,0.847-2.402,2.254
	c0,1.228,1.025,2.157,2.402,2.294V262.673z"/>
<path fill="#231F20" d="M536.358,541.732l-1.695,0.619c-0.702-1.532-1.159-3.045-1.159-5.062c0-3.799,1.938-5.929,5.602-5.929h8.511
	v1.995h-2.102c1.269,0.969,2.4,2.586,2.399,5.036c0,2.586-1.454,5.198-4.364,5.198c-2.963,0-4.525-2.423-4.525-5.952
	c0-1.778,0.243-3.045,0.593-4.282h-0.484c-2.506,0-3.798,1.535-3.798,4.146C535.335,539.147,535.766,540.439,536.358,541.732z
	 M543.47,541.489c1.777,0,2.801-1.614,2.801-3.5c0-2.561-1.562-4.66-3.77-4.66h-1.349c-0.296,1.024-0.593,2.396-0.593,4.095
	C540.56,540.034,541.69,541.489,543.47,541.489z"/>
<path fill="#231F20" d="M547.616,527.432h-19.661v-2.074h19.661V527.432z"/>
<path fill="#231F20" d="M530.649,521.155h-2.289v-2.369h2.288L530.649,521.155z M547.616,521.021h-13.924v-2.072h13.924V521.021z"/>
<path fill="#231F20" d="M543.657,511.999c1.697,0,2.316-0.941,2.316-2.341c0-0.702-0.135-1.295-0.484-2.022h1.777
	c0.377,0.728,0.592,1.51,0.592,2.506c0,2.239-1.104,3.932-3.932,3.932h-8.402v1.938h-1.832v-1.938h-4.201v-2.074h4.201v-4.415h1.832
	v4.415H543.657z"/>
<path fill="#231F20" d="M546.137,498.453c-0.001-1.913-0.782-3.261-1.968-4.392l1.158-1.293c1.562,1.403,2.612,3.099,2.612,5.737
	c0,3.825-2.935,6.948-7.271,6.948c-4.04,0-7.271-2.827-7.272-6.678c0.001-4.122,3.287-6.49,7.38-6.49c0.189,0,0.403,0,0.646,0.024
	v11.044C544.438,503.059,546.136,500.903,546.137,498.453z M539.886,494.386c-2.531,0.217-4.738,1.671-4.738,4.446
	c0,2.423,2.02,4.253,4.738,4.522V494.386z M531.593,500.069l-3.906-2.561l0.996-2.154l2.908,3.043L531.593,500.069z"/>
<path fill="#231F20" d="M546.136,475.775c0-1.913-0.781-3.259-1.967-4.389l1.158-1.296c1.564,1.403,2.612,3.099,2.612,5.739
	c0,3.825-2.935,6.949-7.271,6.949c-4.041,0.002-7.272-2.829-7.272-6.681c0.001-4.119,3.287-6.49,7.38-6.49
	c0.189,0,0.403,0,0.646,0.027v11.041C544.438,480.381,546.136,478.226,546.136,475.775z M539.886,471.708
	c-2.531,0.217-4.738,1.671-4.738,4.446c0,2.423,2.02,4.254,4.74,4.522L539.886,471.708z"/>
<path fill="#231F20" d="M547.616,464.573v2.074h-13.924v-2.074h2.424c-1.51-0.918-2.721-2.372-2.721-4.766
	c0-3.367,2.263-5.335,5.575-5.335l8.646,0.003v2.069h-8.133c-2.586,0-4.202,1.403-4.202,3.853c0,2.397,1.751,4.176,4.364,4.176
	H547.616z"/>
<path fill="#231F20" d="M547.616,448.654v2.075h-13.924v-2.075h2.424c-1.51-0.913-2.72-2.368-2.721-4.767
	c0-3.365,2.263-5.332,5.575-5.332h8.646v2.074h-8.133c-2.586,0-4.202,1.399-4.202,3.851c0,2.398,1.751,4.174,4.363,4.174H547.616z"
	/>
<path fill="#231F20" d="M533.692,424.927v-2.046h13.924v2.046h-2.424c1.51,0.943,2.722,2.37,2.723,4.767
	c0,3.368-2.263,5.335-5.578,5.335h-8.645v-2.075h8.135c2.584,0,4.201-1.399,4.201-3.85c0-2.368-1.75-4.177-4.363-4.177H533.692z"/>
<path fill="#231F20" d="M548.075,412.109c2.881,1.184,3.932,2.531,3.932,4.63c0.002,1.158-0.242,2.021-0.701,2.964l-1.643-0.7
	c0.351-0.674,0.512-1.293,0.512-2.182c0-1.239-0.646-2.021-2.612-2.854l-13.87,6.328v-2.288l11.608-5.066l-11.608-4.468v-2.21
	L548.075,412.109z"/>
<path fill="#231F20" d="M546.137,398.318c-0.001-1.91-0.782-3.257-1.968-4.388l1.158-1.293c1.562,1.399,2.612,3.095,2.612,5.735
	c0,3.823-2.935,6.949-7.271,6.949c-4.042,0-7.273-2.826-7.273-6.681c0-4.118,3.288-6.489,7.38-6.489c0.19,0.003,0.403,0,0.646,0.026
	v11.041C544.438,402.924,546.136,400.77,546.137,398.318z M539.886,394.252c-2.531,0.216-4.738,1.67-4.738,4.445
	c0,2.423,2.02,4.254,4.738,4.522V394.252z"/>
<path fill="#231F20" d="M533.692,379.305v-2.047h13.924l0.001,2.047h-2.423c1.508,0.944,2.72,2.371,2.72,4.769
	c0,3.366-2.263,5.332-5.577,5.332h-8.644l-0.001-2.073h8.135c2.584,0,4.201-1.402,4.201-3.853c0-2.369-1.75-4.175-4.363-4.175
	H533.692z"/>
<path fill="#231F20" d="M547.616,361.181v2.396l-5.683,4.31l5.684,4.336l-0.001,2.316l-7.084-5.468l-6.84,5.253v-2.37l5.389-4.122
	l-5.389-4.119v-2.316l6.787,5.281L547.616,361.181z"/>
<path fill="#231F20" d="M547.886,346.476c0,1.996-0.781,4.201-2.047,5.764l-1.481-1.051c1.132-1.508,1.778-3.178,1.778-4.819
	c0-1.672-0.862-2.88-2.209-2.882h-0.055c-1.4,0-1.938,1.642-2.45,3.472c-0.618,2.185-1.374,4.608-3.931,4.608h-0.057
	c-2.395,0-3.985-1.993-3.985-4.743c0-1.692,0.593-3.579,1.536-5.009l1.563,0.944c-0.835,1.295-1.349,2.774-1.349,4.12
	c0.001,1.645,0.861,2.697,2.02,2.694l0.054,0.003c1.32-0.003,1.833-1.729,2.399-3.588c0.646-2.15,1.479-4.47,3.984-4.47h0.054
	C546.351,341.52,547.886,343.7,547.886,346.476z"/>
<path fill="#231F20" d="M547.939,331.985c0,4.174-3.284,7.218-7.245,7.218c-3.959,0-7.299-3.069-7.299-7.271
	c0-4.174,3.287-7.245,7.244-7.245C544.601,324.688,547.939,327.784,547.939,331.985z M535.228,331.985
	c0,3.016,2.397,5.09,5.414,5.09s5.439-2.209,5.439-5.143c0-3.014-2.396-5.117-5.387-5.117
	C537.651,326.815,535.228,329.052,535.228,331.985z"/>
<path fill="#231F20" d="M533.692,311.733l0.001-2.047h13.924l-0.001,2.047h-2.424c1.508,0.941,2.722,2.368,2.722,4.771
	c0,3.362-2.263,5.33-5.577,5.33h-8.645v-2.076h8.135c2.584,0,4.201-1.399,4.201-3.851c0-2.37-1.751-4.174-4.363-4.174H533.692z"/>
<path fill="#231F20" d="M533.692,295.385v-2.236l14.031,6.061v1.832l-14.031,6.032v-2.289l11.555-4.688L533.692,295.385z"/>
<path fill="#231F20" d="M546.137,285.233c0-1.913-0.781-3.261-1.968-4.392l1.158-1.292c1.562,1.401,2.612,3.098,2.612,5.736
	c0,3.824-2.935,6.949-7.271,6.949c-4.041,0-7.272-2.828-7.272-6.682c0.001-4.118,3.287-6.49,7.38-6.488
	c0.189-0.002,0.403-0.002,0.646,0.025v11.045C544.438,289.839,546.137,287.687,546.137,285.233z M539.886,281.165
	c-2.531,0.215-4.738,1.67-4.738,4.447c0,2.424,2.021,4.253,4.738,4.523V281.165z"/>
<path fill="#231F20" d="M547.616,274.027v2.074h-13.924v-2.074h2.424c-1.51-0.913-2.723-2.368-2.723-4.767
	c0.002-3.365,2.265-5.332,5.577-5.332h8.646v2.074l-8.134,0.002c-2.584-0.002-4.202,1.397-4.202,3.848
	c0,2.401,1.751,4.175,4.364,4.175H547.616z"/>
<path fill="#231F20" d="M530.648,260.135l-2.288-0.003v-2.371h2.289L530.648,260.135z M547.616,259.997h-13.924v-2.074h13.924
	V259.997z"/>
<path fill="#231F20" d="M547.616,251.701v2.075h-13.923l-0.001-2.075l3.637,0.003c-2.317-1.025-3.986-3.047-3.88-5.686h2.237v0.164
	c0,3.041,2.18,5.519,6.381,5.519H547.616z"/>
<path fill="#231F20" d="M533.396,212.784c0-3.205,2.153-5.17,5.603-5.17h8.617v2.072h-8.133c-2.694,0-4.202,1.348-4.202,3.609
	c0.001,2.102,1.562,3.853,4.31,3.853l8.025,0.003v2.044l-8.187,0.003c-2.613-0.003-4.147,1.37-4.148,3.579
	c0,2.21,1.831,3.878,4.39,3.878h7.945v2.076h-13.924v-2.074l2.344-0.002c-1.373-0.916-2.641-2.154-2.641-4.498
	c0-2.262,1.211-3.717,2.775-4.471C534.635,216.69,533.396,215.211,533.396,212.784z"/>
<path fill="#231F20" d="M536.358,202.984l-1.695,0.618c-0.702-1.535-1.16-3.044-1.159-5.062c0-3.799,1.938-5.927,5.602-5.927h8.511
	v1.995l-2.103-0.002c1.269,0.969,2.399,2.585,2.4,5.035c0,2.585-1.454,5.197-4.362,5.197c-2.965,0.003-4.527-2.423-4.525-5.949
	c-0.002-1.778,0.242-3.043,0.592-4.283l-0.485,0.002c-2.506-0.002-3.798,1.531-3.798,4.145
	C535.335,200.397,535.766,201.692,536.358,202.984z M543.47,202.739c1.777,0,2.801-1.615,2.801-3.498
	c0-2.561-1.562-4.662-3.771-4.662h-1.347c-0.296,1.022-0.591,2.398-0.593,4.094C540.56,201.285,541.69,202.739,543.47,202.739z"/>
<path fill="#231F20" d="M547.616,188.681l-19.66,0.002l-0.001-2.074h19.661V188.681z"/>
<path fill="#231F20" d="M536.358,181.652l-1.695,0.62c-0.702-1.533-1.159-3.043-1.159-5.062c0-3.798,1.938-5.926,5.603-5.926h8.51
	v1.992h-2.1c1.266,0.969,2.397,2.586,2.396,5.036c0,2.585-1.453,5.197-4.363,5.197c-2.963,0-4.525-2.423-4.525-5.948
	c0-1.779,0.243-3.045,0.594-4.285h-0.485c-2.506,0-3.798,1.535-3.798,4.148C535.335,179.067,535.767,180.359,536.358,181.652z
	 M543.47,181.411c1.777,0.002,2.801-1.616,2.801-3.502c0-2.559-1.562-4.66-3.771-4.66h-1.347c-0.296,1.023-0.593,2.398-0.593,4.095
	C540.56,179.956,541.689,181.411,543.47,181.411z"/>
<path fill="#231F20" d="M530.648,167.485h-2.288v-2.368h2.288V167.485z M547.616,167.351h-13.924v-2.072h13.924V167.351z"/>
<path fill="#231F20" d="M547.886,156.524c0,1.995-0.781,4.201-2.047,5.766l-1.481-1.051c1.132-1.51,1.778-3.178,1.779-4.822
	c-0.001-1.669-0.863-2.882-2.21-2.882h-0.055c-1.4,0-1.938,1.644-2.45,3.475c-0.618,2.182-1.374,4.605-3.933,4.605h-0.055
	c-2.396,0-3.985-1.993-3.985-4.738c0-1.696,0.594-3.583,1.536-5.011l1.562,0.941c-0.834,1.293-1.347,2.775-1.348,4.123
	c0,1.641,0.861,2.691,2.02,2.693l0.054-0.002c1.32,0.002,1.833-1.723,2.399-3.581c0.645-2.154,1.479-4.47,3.984-4.47h0.054
	C546.351,151.571,547.886,153.753,547.886,156.524z"/>
<path fill="#231F20" d="M546.137,142.251c-0.001-1.91-0.782-3.258-1.968-4.389l1.158-1.293c1.562,1.4,2.612,3.096,2.612,5.736
	c0,3.822-2.935,6.948-7.271,6.948c-4.041,0.001-7.271-2.827-7.272-6.68c0-4.118,3.287-6.491,7.38-6.491c0.189,0,0.403,0,0.646,0.027
	v11.041C544.438,146.855,546.136,144.702,546.137,142.251z M539.886,138.183c-2.531,0.217-4.738,1.672-4.738,4.446
	c0,2.423,2.021,4.255,4.738,4.524V138.183z"/>
<g>
	<path fill="#231F20" d="M448.095,584.306c0.112,0,0.242,0,0.385,0.015 M450.806,584.592"/>
	<path fill="#231F20" d="M452.361,569.978c0,2.423-1.973,4.25-4.315,4.25c-2.358,0-4.348-1.827-4.348-4.25
		c0-1.572,0.659-2.552,1.478-3.321l0.866,0.817c-0.689,0.66-1.252,1.396-1.252,2.52c0,1.685,1.428,2.968,3.226,2.968
		c1.812,0,3.24-1.315,3.24-3.049c0-1.058-0.531-1.875-1.235-2.532l0.737-0.787C451.688,567.426,452.361,568.42,452.361,569.978z"/>
	<path fill="#231F20" d="M445.464,564.476l-1.011,0.367c-0.417-0.913-0.69-1.812-0.69-3.016c0-2.262,1.156-3.528,3.337-3.528h5.068
		v1.186h-1.251c0.753,0.577,1.428,1.541,1.428,3.001c0,1.538-0.867,3.096-2.599,3.096c-1.765,0-2.695-1.444-2.695-3.544
		c0-1.06,0.145-1.813,0.352-2.553h-0.289c-1.492,0-2.261,0.916-2.261,2.47C444.854,562.933,445.111,563.702,445.464,564.476z
		 M449.699,564.331c1.059,0,1.668-0.964,1.668-2.088c0-1.523-0.93-2.773-2.245-2.773h-0.803c-0.176,0.609-0.353,1.427-0.353,2.437
		C447.966,563.464,448.64,564.331,449.699,564.331z"/>
	<path fill="#231F20" d="M452.169,555.954h-11.711v-1.235h11.711V555.954z"/>
	<path fill="#231F20" d="M443.698,542.752c0-1.908,1.284-3.079,3.338-3.079h5.133v1.235h-4.844c-1.604,0-2.503,0.802-2.503,2.149
		c0,1.25,0.931,2.294,2.566,2.294h4.781v1.218h-4.876c-1.556,0-2.471,0.819-2.471,2.135s1.091,2.309,2.615,2.309h4.732v1.235h-8.293
		v-1.235h1.396c-0.818-0.546-1.573-1.282-1.573-2.678c0-1.347,0.723-2.214,1.654-2.664
		C444.437,545.078,443.698,544.196,443.698,542.752z"/>
	<path fill="#231F20" d="M451.288,533.735c0-1.138-0.466-1.942-1.172-2.615l0.69-0.77c0.93,0.835,1.555,1.846,1.555,3.418
		c0,2.275-1.748,4.136-4.33,4.136c-2.407,0-4.333-1.684-4.333-3.977c0-2.453,1.958-3.865,4.396-3.865c0.112,0,0.242,0,0.385,0.014
		v6.579C450.276,536.478,451.288,535.195,451.288,533.735z M447.565,531.312c-1.508,0.129-2.823,0.996-2.823,2.646
		c0,1.444,1.203,2.536,2.823,2.696V531.312z"/>
	<path fill="#231F20" d="M443.698,509.975c0-1.907,1.284-3.078,3.338-3.078h5.133v1.234h-4.844c-1.604,0-2.503,0.803-2.503,2.15
		c0,1.25,0.931,2.294,2.566,2.294h4.781v1.218h-4.876c-1.556,0-2.471,0.819-2.471,2.135c0,1.314,1.091,2.309,2.615,2.309h4.732
		v1.235h-8.293v-1.235h1.396c-0.818-0.546-1.573-1.282-1.573-2.678c0-1.347,0.723-2.214,1.654-2.662
		C444.437,512.301,443.698,511.419,443.698,509.975z"/>
	<path fill="#231F20" d="M452.442,500.815c1.716,0.706,2.342,1.508,2.342,2.76c0,0.69-0.144,1.204-0.417,1.764l-0.979-0.415
		c0.208-0.4,0.305-0.77,0.305-1.301c0-0.736-0.386-1.203-1.556-1.7l-8.262,3.77v-1.363l6.914-3.015l-6.914-2.665v-1.314
		L452.442,500.815z"/>
	<path fill="#231F20" d="M452.33,493.357c0,1.185-0.465,2.503-1.219,3.432l-0.883-0.625c0.674-0.899,1.06-1.893,1.06-2.872
		c0-0.994-0.514-1.715-1.317-1.715h-0.031c-0.834,0-1.156,0.979-1.46,2.069c-0.369,1.297-0.818,2.742-2.343,2.742h-0.031
		c-1.428,0-2.375-1.188-2.375-2.823c0-1.01,0.354-2.135,0.915-2.982l0.931,0.56c-0.499,0.771-0.802,1.651-0.802,2.453
		c0,0.979,0.513,1.604,1.203,1.604h0.032c0.787,0,1.091-1.025,1.428-2.133c0.385-1.282,0.882-2.662,2.373-2.662h0.033
		C451.416,490.405,452.33,491.703,452.33,493.357z"/>
	<path fill="#231F20" d="M449.81,487.004c1.012,0,1.38-0.563,1.38-1.396c0-0.418-0.08-0.772-0.289-1.203h1.06
		c0.224,0.431,0.352,0.896,0.352,1.49c0,1.331-0.657,2.343-2.343,2.343h-5.005v1.156h-1.09v-1.156h-2.502v-1.234h2.502v-2.631h1.09
		v2.631H449.81z"/>
	<path fill="#231F20" d="M451.288,478.934c0-1.138-0.466-1.94-1.172-2.615l0.69-0.77c0.93,0.835,1.555,1.845,1.555,3.418
		c0,2.276-1.748,4.139-4.33,4.139c-2.407,0-4.333-1.687-4.333-3.979c0-2.453,1.958-3.867,4.396-3.867c0.112,0,0.242,0,0.385,0.016
		v6.578C450.276,481.676,451.288,480.394,451.288,478.934z M447.565,476.511c-1.508,0.129-2.823,0.996-2.823,2.646
		c0,1.444,1.203,2.536,2.823,2.695V476.511z M440.892,481.354l-0.593-1.282l2.326-1.525v0.997L440.892,481.354z"/>
	<path fill="#231F20" d="M452.169,472.259v1.234h-8.293v-1.234h2.167c-1.381-0.61-2.375-1.813-2.311-3.385h1.333v0.097
		c0,1.813,1.299,3.288,3.8,3.288H452.169z"/>
	<path fill="#231F20" d="M451.288,464.098c0-1.139-0.466-1.943-1.172-2.616l0.69-0.771c0.93,0.835,1.555,1.847,1.555,3.418
		c0,2.276-1.748,4.138-4.33,4.138c-2.407,0-4.333-1.685-4.333-3.979c0-2.452,1.958-3.865,4.396-3.865c0.112,0,0.242,0,0.385,0.015
		v6.579C450.276,466.84,451.288,465.556,451.288,464.098z M447.565,461.674c-1.508,0.129-2.823,0.995-2.823,2.646
		c0,1.445,1.203,2.535,2.823,2.696V461.674z"/>
	<path fill="#231F20" d="M443.907,445.519h1.059v2.615h7.203v1.236h-7.203v1.138h-1.074v-1.138h-0.721
		c-1.813,0-2.776-0.918-2.776-2.504c0-0.577,0.063-0.964,0.209-1.364h1.075c-0.129,0.45-0.209,0.787-0.209,1.202
		c0,0.964,0.578,1.444,1.764,1.444h0.673V445.519z"/>
	<path fill="#231F20" d="M451.288,440.849c0-1.139-0.466-1.94-1.172-2.611l0.69-0.773c0.93,0.835,1.555,1.846,1.555,3.417
		c0,2.279-1.748,4.141-4.33,4.141c-2.407,0-4.333-1.685-4.333-3.979c0-2.456,1.958-3.868,4.396-3.868c0.112,0,0.242,0,0.385,0.018
		v6.578C450.276,443.593,451.288,442.308,451.288,440.849z M447.565,438.428c-1.508,0.128-2.823,0.994-2.823,2.648
		c0,1.441,1.203,2.532,2.823,2.694V438.428z"/>
	<path fill="#231F20" d="M452.33,432.667c0,1.188-0.465,2.503-1.219,3.433l-0.883-0.625c0.674-0.897,1.06-1.894,1.06-2.873
		c0-0.993-0.514-1.715-1.317-1.715h-0.031c-0.834,0-1.156,0.979-1.46,2.069c-0.369,1.3-0.818,2.742-2.343,2.742h-0.031
		c-1.428,0-2.375-1.185-2.375-2.821c0-1.012,0.354-2.135,0.915-2.984l0.931,0.561c-0.499,0.772-0.802,1.653-0.802,2.455
		c0,0.979,0.513,1.605,1.203,1.605h0.032c0.787,0,1.091-1.027,1.428-2.135c0.385-1.283,0.882-2.663,2.373-2.663h0.033
		C451.416,429.716,452.33,431.016,452.33,432.667z"/>
	<path fill="#231F20" d="M449.81,426.313c1.012,0,1.38-0.56,1.38-1.395c0-0.417-0.08-0.77-0.289-1.203h1.06
		c0.224,0.434,0.352,0.899,0.352,1.492c0,1.332-0.657,2.342-2.343,2.342h-5.005v1.154h-1.09v-1.154h-2.502v-1.236h2.502v-2.63h1.09
		v2.63H449.81z"/>
	<path fill="#231F20" d="M442.063,421.87H440.7v-1.411h1.363V421.87z M452.169,421.79h-8.293v-1.234h8.293V421.79z"/>
	<path fill="#231F20" d="M443.907,413.769h1.059v2.615h7.203v1.234h-7.203v1.139h-1.074v-1.139h-0.721
		c-1.813,0-2.776-0.913-2.776-2.502c0-0.576,0.063-0.963,0.209-1.363h1.075c-0.129,0.448-0.209,0.787-0.209,1.204
		c0,0.961,0.578,1.444,1.764,1.444h0.673V413.769z"/>
	<path fill="#231F20" d="M452.169,402.537v1.236h-8.293v-1.236h1.444c-0.899-0.544-1.622-1.409-1.622-2.839
		c0-2.005,1.349-3.175,3.321-3.175h5.149v1.235h-4.844c-1.541,0-2.503,0.834-2.503,2.294c0,1.427,1.043,2.484,2.599,2.484H452.169z"
		/>
	<path fill="#231F20" d="M452.361,390.506c0,2.487-1.957,4.298-4.315,4.298c-2.358,0-4.348-1.827-4.348-4.328
		c0-2.488,1.958-4.315,4.317-4.315C450.373,386.16,452.361,388.005,452.361,390.506z M444.79,390.506
		c0,1.798,1.428,3.033,3.226,3.033c1.795,0,3.24-1.315,3.24-3.063c0-1.799-1.429-3.049-3.209-3.049
		C446.234,387.427,444.79,388.758,444.79,390.506z"/>
	<path fill="#231F20" d="M452.33,381.587c0,1.186-0.465,2.5-1.219,3.432l-0.883-0.625c0.674-0.899,1.06-1.894,1.06-2.872
		c0-0.994-0.514-1.716-1.317-1.716h-0.031c-0.834,0-1.156,0.979-1.46,2.069c-0.369,1.298-0.818,2.742-2.343,2.742h-0.031
		c-1.428,0-2.375-1.187-2.375-2.823c0-1.01,0.354-2.133,0.915-2.982l0.931,0.561c-0.499,0.77-0.802,1.65-0.802,2.453
		c0,0.979,0.513,1.605,1.203,1.605h0.032c0.787,0,1.091-1.027,1.428-2.133c0.385-1.283,0.882-2.663,2.373-2.663h0.033
		C451.416,378.635,452.33,379.933,452.33,381.587z"/>
	<path fill="#231F20" d="M449.81,375.232c1.012,0,1.38-0.56,1.38-1.394c0-0.42-0.08-0.772-0.289-1.204h1.06
		c0.224,0.432,0.352,0.897,0.352,1.492c0,1.33-0.657,2.342-2.343,2.342h-5.005v1.154h-1.09v-1.154h-2.502v-1.236h2.502v-2.629h1.09
		v2.629H449.81z"/>
	<path fill="#231F20" d="M445.464,370.339l-1.011,0.371c-0.417-0.916-0.69-1.814-0.69-3.016c0-2.265,1.156-3.529,3.337-3.529h5.068
		v1.185h-1.251c0.753,0.578,1.428,1.542,1.428,3.002c0,1.538-0.867,3.096-2.599,3.096c-1.765,0-2.695-1.444-2.695-3.546
		c0-1.06,0.145-1.812,0.352-2.552h-0.289c-1.492,0-2.261,0.915-2.261,2.471C444.854,368.8,445.111,369.569,445.464,370.339z
		 M449.699,370.194c1.059,0,1.668-0.962,1.668-2.085c0-1.524-0.93-2.774-2.245-2.774h-0.803c-0.176,0.61-0.353,1.428-0.353,2.438
		C447.966,369.33,448.64,370.194,449.699,370.194z"/>
	<path fill="#231F20" d="M452.169,361.82h-11.711v-1.235h11.711V361.82z"/>
	<path fill="#231F20" d="M454.768,354.44c0,1.38-0.385,2.662-1.156,3.771l-0.962-0.562c0.69-0.947,1.06-2.006,1.06-3.193
		c0-1.828-1.011-3.015-2.952-3.015h-0.978c0.963,0.721,1.749,1.731,1.749,3.256c0,1.99-1.476,3.897-3.899,3.897
		c-2.437,0-3.93-1.925-3.93-3.897c0-1.557,0.771-2.567,1.669-3.241h-1.492v-1.234h6.849
		C453.405,350.222,454.768,351.891,454.768,354.44z M444.79,354.456c0,1.574,1.076,2.871,2.808,2.871c1.7,0,2.839-1.33,2.839-2.871
		c0-1.571-1.123-3.046-2.823-3.046C445.898,351.41,444.79,352.885,444.79,354.456z"/>
	<path fill="#231F20" d="M442.063,347.831H440.7v-1.412h1.363V347.831z M452.169,347.751h-8.293v-1.235h8.293V347.751z"/>
	<path fill="#231F20" d="M451.288,340.386c0-1.138-0.466-1.939-1.172-2.612l0.69-0.772c0.93,0.835,1.555,1.846,1.555,3.418
		c0,2.277-1.748,4.139-4.33,4.139c-2.407,0-4.333-1.684-4.333-3.977c0-2.456,1.958-3.865,4.396-3.865c0.112,0,0.242,0,0.385,0.014
		v6.576C450.276,343.131,451.288,341.849,451.288,340.386z M447.565,337.966c-1.508,0.127-2.823,0.994-2.823,2.646
		c0,1.441,1.203,2.533,2.823,2.693V337.966z"/>
	<path fill="#231F20" d="M452.346,321.714c0,1.539-0.835,2.533-1.766,3.176h4.156v1.234h-10.861v-1.234h1.668
		c-0.995-0.676-1.846-1.654-1.846-3.176c0-1.99,1.573-3.963,4.317-3.963C450.742,317.751,452.346,319.709,452.346,321.714z
		 M444.807,321.938c0,1.538,1.283,2.998,3.208,2.998c1.94,0,3.224-1.46,3.224-2.998c0-1.604-1.188-2.92-3.208-2.92
		C446.057,319.019,444.807,320.366,444.807,321.938z"/>
	<path fill="#231F20" d="M452.169,315.761h-11.711v-1.234h11.711V315.761z"/>
	<path fill="#231F20" d="M445.464,311.571l-1.011,0.372c-0.417-0.917-0.69-1.813-0.69-3.017c0-2.265,1.156-3.529,3.337-3.529h5.068
		v1.186h-1.251c0.753,0.577,1.428,1.541,1.428,3.001c0,1.54-0.867,3.096-2.599,3.096c-1.765,0-2.695-1.444-2.695-3.546
		c0-1.059,0.145-1.812,0.352-2.551h-0.289c-1.492,0-2.261,0.914-2.261,2.471C444.854,310.033,445.111,310.802,445.464,311.571z
		 M449.699,311.427c1.059,0,1.668-0.961,1.668-2.084c0-1.525-0.93-2.775-2.245-2.775h-0.803c-0.176,0.61-0.353,1.428-0.353,2.439
		C447.966,310.562,448.64,311.427,449.699,311.427z"/>
	<path fill="#231F20" d="M449.81,301.579c1.012,0,1.38-0.561,1.38-1.395c0-0.418-0.08-0.77-0.289-1.203h1.06
		c0.224,0.434,0.352,0.896,0.352,1.492c0,1.33-0.657,2.341-2.343,2.341h-5.005v1.155h-1.09v-1.155h-2.502v-1.235h2.502v-2.63h1.09
		v2.63H449.81z"/>
	<path fill="#231F20" d="M451.288,293.753c0-1.141-0.466-1.942-1.172-2.615l0.69-0.771c0.93,0.837,1.555,1.846,1.555,3.42
		c0,2.276-1.748,4.138-4.33,4.138c-2.407,0-4.333-1.685-4.333-3.979c0-2.456,1.958-3.865,4.396-3.865c0.112,0,0.242,0,0.385,0.015
		v6.578C450.276,296.495,451.288,295.213,451.288,293.753z M447.565,291.33c-1.508,0.128-2.823,0.993-2.823,2.647
		c0,1.445,1.203,2.535,2.823,2.695V291.33z"/>
	<path fill="#231F20" d="M449.81,277.821c1.012,0,1.38-0.561,1.38-1.398c0-0.415-0.08-0.77-0.289-1.202h1.06
		c0.224,0.433,0.352,0.898,0.352,1.495c0,1.328-0.657,2.34-2.343,2.34h-5.005v1.156h-1.09v-1.156h-2.502v-1.234h2.502v-2.631h1.09
		v2.631H449.81z"/>
	<path fill="#231F20" d="M451.288,269.993c0-1.139-0.466-1.941-1.172-2.613l0.69-0.771c0.93,0.834,1.555,1.846,1.555,3.416
		c0,2.279-1.748,4.14-4.33,4.14c-2.407,0-4.333-1.683-4.333-3.978c0-2.455,1.958-3.865,4.396-3.865c0.112,0,0.242,0,0.385,0.016
		v6.574C450.276,272.737,451.288,271.454,451.288,269.993z M447.565,267.571c-1.508,0.127-2.823,0.994-2.823,2.648
		c0,1.441,1.203,2.532,2.823,2.691V267.571z"/>
	<path fill="#231F20" d="M452.169,263.318v1.235h-8.293v-1.235h1.444c-0.899-0.546-1.622-1.411-1.622-2.84
		c0-2.002,1.349-3.175,3.321-3.175h5.149v1.234h-4.844c-1.541,0-2.503,0.834-2.503,2.294c0,1.427,1.043,2.486,2.599,2.486H452.169z"
		/>
	<path fill="#231F20" d="M452.169,248.417H450.5c0.995,0.674,1.846,1.651,1.846,3.175c0,1.99-1.573,3.964-4.315,3.964
		c-2.727,0-4.333-1.974-4.333-3.964c0-1.538,0.836-2.534,1.766-3.175h-5.006v-1.236h11.711V248.417z M444.807,251.368
		c0,1.604,1.186,2.918,3.208,2.918c1.972,0,3.224-1.347,3.224-2.918c0-1.541-1.284-3-3.224-3
		C446.09,248.368,444.807,249.827,444.807,251.368z"/>
	<path fill="#231F20" d="M452.169,243.586v1.235h-8.293v-1.235h2.167c-1.381-0.61-2.375-1.812-2.311-3.385h1.333v0.096
		c0,1.813,1.299,3.289,3.8,3.289H452.169z"/>
	<path fill="#231F20" d="M451.288,235.425c0-1.141-0.466-1.942-1.172-2.615l0.69-0.77c0.93,0.834,1.555,1.846,1.555,3.416
		c0,2.278-1.748,4.138-4.33,4.138c-2.407,0-4.333-1.683-4.333-3.977c0-2.456,1.958-3.866,4.396-3.866c0.112,0,0.242,0,0.385,0.016
		v6.578C450.276,238.167,451.288,236.884,451.288,235.425z M447.565,233.001c-1.508,0.13-2.823,0.996-2.823,2.648
		c0,1.442,1.203,2.533,2.823,2.695V233.001z"/>
	<path fill="#231F20" d="M452.33,227.241c0,1.188-0.465,2.502-1.219,3.432l-0.883-0.625c0.674-0.898,1.06-1.893,1.06-2.872
		c0-0.994-0.514-1.716-1.317-1.716h-0.031c-0.834,0-1.156,0.979-1.46,2.07c-0.369,1.3-0.818,2.743-2.343,2.743h-0.031
		c-1.428,0-2.375-1.188-2.375-2.824c0-1.01,0.354-2.134,0.915-2.983l0.931,0.562c-0.499,0.771-0.802,1.653-0.802,2.454
		c0,0.979,0.513,1.604,1.203,1.604h0.032c0.787,0,1.091-1.026,1.428-2.134c0.385-1.283,0.882-2.662,2.373-2.662h0.033
		C451.416,224.29,452.33,225.589,452.33,227.241z"/>
	<path fill="#231F20" d="M452.33,219.813c0,1.187-0.465,2.502-1.219,3.432l-0.883-0.625c0.674-0.898,1.06-1.893,1.06-2.871
		c0-0.994-0.514-1.716-1.317-1.716h-0.031c-0.834,0-1.156,0.979-1.46,2.069c-0.369,1.299-0.818,2.742-2.343,2.742h-0.031
		c-1.428,0-2.375-1.188-2.375-2.824c0-1.008,0.354-2.132,0.915-2.982l0.931,0.561c-0.499,0.771-0.802,1.653-0.802,2.455
		c0,0.979,0.513,1.604,1.203,1.604h0.032c0.787,0,1.091-1.026,1.428-2.133c0.385-1.284,0.882-2.662,2.373-2.662h0.033
		C451.416,216.862,452.33,218.161,452.33,219.813z"/>
	<path fill="#231F20" d="M451.288,211.31c0-1.139-0.466-1.939-1.172-2.615l0.69-0.769c0.93,0.835,1.555,1.846,1.555,3.417
		c0,2.277-1.748,4.138-4.33,4.138c-2.407,0-4.333-1.685-4.333-3.978c0-2.454,1.958-3.866,4.396-3.866c0.112,0,0.242,0,0.385,0.017
		v6.576C450.276,214.054,451.288,212.77,451.288,211.31z M447.565,208.888c-1.508,0.129-2.823,0.996-2.823,2.646
		c0,1.445,1.203,2.535,2.823,2.695V208.888z"/>
	<path fill="#231F20" d="M443.875,190.903v-1.331l8.358,3.608v1.092l-8.358,3.592v-1.363l6.882-2.792L443.875,190.903z"/>
	<path fill="#231F20" d="M442.063,187.999H440.7v-1.412h1.363V187.999z M452.169,187.919h-8.293v-1.235h8.293V187.919z"/>
	<path fill="#231F20" d="M451.288,180.556c0-1.14-0.466-1.941-1.172-2.615l0.69-0.771c0.93,0.835,1.555,1.847,1.555,3.418
		c0,2.277-1.748,4.139-4.33,4.139c-2.407,0-4.333-1.684-4.333-3.979c0-2.453,1.958-3.865,4.396-3.865c0.112,0,0.242,0,0.385,0.016
		v6.576C450.276,183.299,451.288,182.015,451.288,180.556z M447.565,178.134c-1.508,0.127-2.823,0.993-2.823,2.646
		c0,1.443,1.203,2.533,2.823,2.693V178.134z"/>
	<path fill="#231F20" d="M443.875,169.228v-1.219h8.293v1.219h-1.444c0.899,0.561,1.622,1.412,1.622,2.84
		c0,2.005-1.348,3.176-3.322,3.176h-5.149v-1.234h4.844c1.541,0,2.503-0.836,2.503-2.295c0-1.411-1.042-2.486-2.599-2.486H443.875z"
		/>
	<path fill="#231F20" d="M452.169,158.431v1.428l-3.385,2.566l3.385,2.583v1.38l-4.219-3.257l-4.074,3.129v-1.413l3.208-2.453
		l-3.208-2.455v-1.379l4.042,3.145L452.169,158.431z"/>
	<path fill="#231F20" d="M443.875,151.067h8.774c1.459,0,2.134,0.769,2.134,2.021c0,0.288-0.016,0.497-0.081,0.77h-1.01
		c0.031-0.191,0.047-0.433,0.047-0.609c0-0.562-0.336-0.946-1.107-0.946h-8.758V151.067z M442.063,152.382H440.7v-1.412h1.363
		V152.382z"/>
	<path fill="#231F20" d="M451.288,144.938c0-1.139-0.466-1.941-1.172-2.615l0.69-0.77c0.93,0.834,1.555,1.844,1.555,3.416
		c0,2.279-1.748,4.139-4.33,4.139c-2.407,0-4.333-1.684-4.333-3.978c0-2.454,1.958-3.866,4.396-3.866c0.112,0,0.242,0,0.385,0.016
		v6.578C450.276,147.682,451.288,146.398,451.288,144.938z M447.565,142.516c-1.508,0.129-2.823,0.994-2.823,2.647
		c0,1.443,1.203,2.535,2.823,2.695V142.516z"/>
	<path fill="#231F20" d="M443.875,133.612v-1.221h8.293v1.221h-1.444c0.899,0.561,1.622,1.41,1.622,2.839
		c0,2.005-1.348,3.176-3.322,3.176h-5.149v-1.235h4.844c1.541,0,2.503-0.834,2.503-2.294c0-1.411-1.042-2.485-2.599-2.485H443.875z"
		/>
</g>
<path fill="#231F20" d="M459.937,532.998c0-1.359,0.915-2.196,2.377-2.196h3.657v0.881h-3.452c-1.143,0-1.783,0.572-1.783,1.532
	c0,0.892,0.664,1.633,1.829,1.633h3.406v0.871h-3.474c-1.109,0-1.76,0.582-1.76,1.519c0,0.938,0.777,1.646,1.863,1.646h3.372v0.881
	h-5.908v-0.881h0.994c-0.583-0.39-1.121-0.914-1.121-1.908c0-0.959,0.514-1.578,1.178-1.897
	C460.462,534.654,459.937,534.027,459.937,532.998z"/>
<path fill="#231F20" d="M461.194,528.839l-0.72,0.262c-0.297-0.65-0.493-1.291-0.493-2.148c0-1.609,0.824-2.515,2.378-2.515h3.611
	v0.847h-0.892c0.538,0.411,1.018,1.099,1.018,2.139c0,1.095-0.617,2.205-1.852,2.205c-1.256,0-1.919-1.029-1.919-2.526
	c0-0.755,0.103-1.291,0.251-1.817h-0.205c-1.063,0-1.612,0.651-1.612,1.76C460.76,527.742,460.943,528.29,461.194,528.839z
	 M464.211,528.734c0.755,0,1.188-0.685,1.188-1.484c0-1.087-0.662-1.976-1.6-1.976h-0.572c-0.125,0.435-0.251,1.017-0.251,1.736
	C462.977,528.118,463.457,528.734,464.211,528.734z"/>
<path fill="#231F20" d="M464.291,521.721c0.722,0,0.983-0.4,0.983-0.994c0-0.298-0.057-0.549-0.206-0.857h0.755
	c0.16,0.309,0.251,0.641,0.251,1.062c0,0.949-0.469,1.67-1.669,1.67h-3.565v0.823h-0.776v-0.823h-1.783v-0.88h1.783v-1.874h0.776
	v1.874H464.291z"/>
<path fill="#231F20" d="M458.771,518.556H457.8v-1.007h0.972V518.556z M465.971,518.498h-5.908v-0.882h5.908V518.498z"/>
<path fill="#231F20" d="M467.8,511.117h-3.017c0.708,0.478,1.313,1.176,1.313,2.26c0,1.42-1.12,2.825-3.074,2.825
	c-1.943,0-3.086-1.405-3.086-2.825c0-1.097,0.595-1.803,1.258-2.26h-1.131v-0.881h7.737V511.117z M460.725,513.218
	c0,1.143,0.846,2.081,2.286,2.081c1.406,0,2.296-0.959,2.296-2.081c0-1.097-0.913-2.135-2.296-2.135
	C461.64,511.083,460.725,512.121,460.725,513.218z"/>
<path fill="#231F20" d="M460.063,504.364v-0.871h5.908v0.871h-1.028c0.639,0.396,1.153,1.005,1.153,2.022
	c0,1.427-0.959,2.261-2.365,2.261h-3.668v-0.879h3.451c1.096,0,1.783-0.596,1.783-1.635c0-1.007-0.742-1.77-1.851-1.77H460.063z"/>
<path fill="#231F20" d="M465.343,499.197c0-0.811-0.331-1.383-0.834-1.864l0.491-0.549c0.664,0.596,1.109,1.314,1.109,2.436
	c0,1.624-1.246,2.948-3.085,2.948c-1.714,0-3.086-1.199-3.086-2.833c0-1.748,1.394-2.755,3.132-2.755c0.08,0,0.171,0,0.273,0.011
	v4.686C464.623,501.151,465.343,500.236,465.343,499.197z M462.691,497.472c-1.074,0.092-2.012,0.708-2.012,1.885
	c0,1.029,0.857,1.806,2.012,1.92V497.472z"/>
<path fill="#231F20" d="M466.108,486.375c0,1.727-1.406,3.028-3.074,3.028c-1.68,0-3.098-1.302-3.098-3.028
	c0-1.12,0.469-1.817,1.052-2.366l0.617,0.583c-0.491,0.471-0.892,0.996-0.892,1.796c0,1.199,1.018,2.114,2.297,2.114
	c1.292,0,2.309-0.938,2.309-2.173c0-0.751-0.376-1.337-0.879-1.806l0.526-0.559C465.628,484.558,466.108,485.267,466.108,486.375z"
	/>
<path fill="#231F20" d="M461.194,482.457l-0.72,0.264c-0.297-0.653-0.493-1.293-0.493-2.15c0-1.61,0.824-2.515,2.378-2.515h3.611
	v0.847h-0.892c0.538,0.41,1.018,1.099,1.018,2.138c0,1.096-0.617,2.203-1.852,2.203c-1.256,0-1.919-1.027-1.919-2.524
	c0-0.753,0.103-1.292,0.251-1.816h-0.205c-1.063,0-1.612,0.65-1.612,1.759C460.76,481.358,460.943,481.908,461.194,482.457z
	 M464.211,482.355c0.755,0,1.188-0.688,1.188-1.487c0-1.085-0.662-1.979-1.6-1.979h-0.572c-0.125,0.437-0.251,1.021-0.251,1.738
	C462.977,481.735,463.457,482.355,464.211,482.355z"/>
<path fill="#231F20" d="M465.971,476.388h-8.342v-0.88h8.342V476.388z"/>
<path fill="#231F20" d="M459.937,466.981c0-1.358,0.915-2.192,2.377-2.192h3.657v0.881h-3.452c-1.143,0-1.783,0.569-1.783,1.528
	c0,0.896,0.664,1.637,1.829,1.637h3.406v0.867h-3.474c-1.109,0-1.76,0.584-1.76,1.521c0,0.936,0.777,1.644,1.863,1.644h3.372v0.881
	h-5.908v-0.881h0.994c-0.583-0.387-1.121-0.911-1.121-1.907c0-0.959,0.514-1.576,1.178-1.897
	C460.462,468.64,459.937,468.012,459.937,466.981z"/>
<path fill="#231F20" d="M465.343,460.561c0-0.811-0.331-1.383-0.834-1.86l0.491-0.549c0.664,0.592,1.109,1.312,1.109,2.432
	c0,1.624-1.246,2.949-3.085,2.949c-1.714,0-3.086-1.199-3.086-2.833c0-1.749,1.394-2.755,3.132-2.755c0.08,0,0.171,0,0.273,0.011
	v4.686C464.623,462.515,465.343,461.602,465.343,460.561z M462.691,458.835c-1.074,0.092-2.012,0.709-2.012,1.885
	c0,1.029,0.857,1.807,2.012,1.921V458.835z"/>
<path fill="#231F20" d="M465.971,439.422h-4.874c-1.174,0-1.777,0.521-1.777,1.45c0,0.928,0.603,1.498,1.777,1.498h4.874v2.479
	h-4.874c-1.174,0-1.777,0.521-1.777,1.449c0,0.932,0.603,1.501,1.777,1.501h4.874v2.478h-8.736v-2.478h1.238
	c-0.733-0.569-1.401-1.32-1.401-2.574c0-1.142,0.504-2.005,1.386-2.462c-0.898-0.766-1.386-1.678-1.386-2.868
	c0-1.842,1.108-2.953,3.211-2.953h5.688V439.422z"/>
<path fill="#231F20" d="M466.184,430.491c1.776,0.67,2.445,1.386,2.445,2.87c0,0.896-0.229,1.565-0.604,2.2l-1.793-0.831
	c0.196-0.326,0.342-0.734,0.342-1.061c0-0.424-0.13-0.651-0.57-0.862l-8.77,3.422v-2.625l5.949-1.989l-5.949-1.904v-2.578
	L466.184,430.491z"/>
<path fill="#231F20" d="M466.134,423.339c0,1.223-0.407,2.589-1.32,3.747l-1.63-1.058c0.685-0.946,1.043-1.94,1.043-2.756
	c0-0.718-0.26-1.042-0.651-1.042h-0.033c-0.538,0-0.716,0.847-1.011,1.809c-0.359,1.223-0.928,2.608-2.624,2.608h-0.032
	c-1.778,0-2.771-1.435-2.771-3.197c0-1.107,0.375-2.312,1.01-3.259l1.711,0.946c-0.505,0.862-0.814,1.729-0.814,2.363
	c0,0.604,0.261,0.911,0.604,0.911h0.032c0.49,0,0.717-0.831,1.043-1.777c0.407-1.22,0.995-2.639,2.592-2.639h0.032
	C465.254,419.996,466.134,421.446,466.134,423.339z"/>
<path fill="#231F20" d="M466.118,415.841c0,1.516-0.602,2.542-2.624,2.542h-4.14v1.043h-2.12v-1.043h-2.233v-2.478h2.233v-2.054
	h2.12v2.054h3.732c0.57,0,0.848-0.243,0.848-0.797c0-0.458-0.115-0.865-0.31-1.224h1.989
	C465.923,414.408,466.118,415.01,466.118,415.841z"/>
<path fill="#231F20" d="M462.467,404.317v6.079c1.125-0.244,1.711-1.026,1.711-2.133c0-0.834-0.26-1.438-0.896-2.119l1.255-1.42
	c1.011,0.816,1.63,1.989,1.63,3.57c0,2.623-1.843,4.563-4.516,4.563h-0.033c-2.494,0-4.547-1.777-4.547-4.32
	c0-2.917,2.265-4.252,4.743-4.252h0.033C462.092,404.286,462.239,404.302,462.467,404.317z M456.273,409.469l-1.956,2.085
	l-0.928-2.135l2.884-1.843V409.469z M459.061,408.538c0,1.027,0.733,1.696,1.858,1.892v-3.731
	C459.81,406.845,459.061,407.495,459.061,408.538z"/>
<path fill="#231F20" d="M459.664,397.718c0,1.645,0.995,2.656,3.081,2.656h3.227v2.478h-8.736v-2.478h1.761
	c-1.207-0.505-1.989-1.32-1.924-2.786h2.592V397.718z"/>
<path fill="#231F20" d="M462.467,388.575v6.08c1.125-0.244,1.711-1.027,1.711-2.135c0-0.832-0.26-1.437-0.896-2.12l1.255-1.417
	c1.011,0.813,1.63,1.989,1.63,3.57c0,2.624-1.843,4.563-4.516,4.563h-0.033c-2.494,0-4.547-1.777-4.547-4.321
	c0-2.916,2.265-4.254,4.743-4.254h0.033C462.092,388.542,462.239,388.561,462.467,388.575z M459.061,392.796
	c0,1.028,0.733,1.697,1.858,1.893v-3.732C459.81,391.104,459.061,391.753,459.061,392.796z"/>
<path fill="#231F20" d="M465.971,380.071v0.878h-5.908v-0.878h1.028c-0.64-0.39-1.154-1.006-1.154-2.025
	c0-1.427,0.96-2.262,2.366-2.262h3.668v0.882h-3.452c-1.097,0-1.783,0.593-1.783,1.634c0,1.017,0.743,1.771,1.852,1.771H465.971z"/>
<path fill="#231F20" d="M466.108,371.499c0,1.771-1.394,3.063-3.074,3.063c-1.68,0-3.098-1.306-3.098-3.087
	c0-1.772,1.394-3.074,3.075-3.074C464.692,368.401,466.108,369.717,466.108,371.499z M460.714,371.499
	c0,1.28,1.018,2.158,2.297,2.158c1.279,0,2.309-0.936,2.309-2.182c0-1.278-1.017-2.172-2.286-2.172
	C461.742,369.304,460.714,370.253,460.714,371.499z"/>
<path fill="#231F20" d="M466.086,365.146c0,0.847-0.332,1.783-0.869,2.447l-0.629-0.449c0.48-0.64,0.755-1.348,0.755-2.045
	c0-0.705-0.366-1.221-0.938-1.221h-0.022c-0.593,0-0.822,0.695-1.04,1.475c-0.262,0.924-0.582,1.952-1.668,1.952h-0.022
	c-1.018,0-1.692-0.845-1.692-2.011c0-0.721,0.252-1.521,0.651-2.125l0.664,0.4c-0.355,0.549-0.572,1.177-0.572,1.749
	c0,0.694,0.366,1.142,0.857,1.142h0.023c0.561,0,0.777-0.731,1.017-1.521c0.275-0.912,0.628-1.896,1.691-1.896h0.023
	C465.434,363.042,466.086,363.969,466.086,365.146z"/>
<path fill="#231F20" d="M464.291,360.62c0.722,0,0.983-0.398,0.983-0.994c0-0.295-0.057-0.549-0.206-0.857h0.755
	c0.16,0.309,0.251,0.64,0.251,1.064c0,0.948-0.469,1.666-1.669,1.666h-3.565v0.823h-0.776v-0.823h-1.783v-0.879h1.783v-1.875h0.776
	v1.875H464.291z"/>
<path fill="#231F20" d="M461.194,357.134l-0.72,0.266c-0.297-0.652-0.493-1.291-0.493-2.148c0-1.613,0.824-2.514,2.378-2.514h3.611
	v0.843h-0.892c0.538,0.413,1.018,1.099,1.018,2.139c0,1.097-0.617,2.205-1.852,2.205c-1.256,0-1.919-1.029-1.919-2.526
	c0-0.753,0.103-1.291,0.251-1.817h-0.205c-1.063,0-1.612,0.651-1.612,1.763C460.76,356.038,460.943,356.586,461.194,357.134z
	 M464.211,357.032c0.755,0,1.188-0.686,1.188-1.486c0-1.085-0.662-1.976-1.6-1.976h-0.572c-0.125,0.435-0.251,1.017-0.251,1.735
	C462.977,356.417,463.457,357.032,464.211,357.032z"/>
<path fill="#231F20" d="M465.971,351.066h-8.342v-0.878h8.342V351.066z"/>
<path fill="#231F20" d="M467.823,345.811c0,0.982-0.274,1.897-0.823,2.687l-0.685-0.4c0.491-0.674,0.754-1.43,0.754-2.273
	c0-1.305-0.72-2.151-2.102-2.151h-0.698c0.686,0.517,1.246,1.236,1.246,2.321c0,1.416-1.051,2.777-2.777,2.777
	c-1.737,0-2.8-1.371-2.8-2.777c0-1.107,0.549-1.829,1.189-2.308h-1.062v-0.881h4.88
	C466.852,342.805,467.823,343.995,467.823,345.811z M460.714,345.823c0,1.119,0.766,2.044,2,2.044c1.211,0,2.023-0.948,2.023-2.044
	c0-1.121-0.8-2.172-2.012-2.172C461.502,343.651,460.714,344.702,460.714,345.823z"/>
<path fill="#231F20" d="M458.771,341.103H457.8v-1.006h0.972V341.103z M465.971,341.046h-5.908v-0.881h5.908V341.046z"/>
<path fill="#231F20" d="M465.343,335.801c0-0.812-0.331-1.384-0.834-1.864l0.491-0.548c0.664,0.597,1.109,1.313,1.109,2.437
	c0,1.622-1.246,2.947-3.085,2.947c-1.714,0-3.086-1.199-3.086-2.836c0-1.748,1.394-2.752,3.132-2.752c0.08,0,0.171,0,0.273,0.011
	v4.687C464.623,337.756,465.343,336.841,465.343,335.801z M462.691,334.075c-1.074,0.092-2.012,0.709-2.012,1.885
	c0,1.029,0.857,1.807,2.012,1.922V334.075z"/>
<path fill="#231F20" d="M466.097,322.5c0,1.096-0.594,1.806-1.257,2.263h2.96v0.879h-7.737v-0.879h1.188
	c-0.708-0.48-1.314-1.178-1.314-2.263c0-1.419,1.121-2.822,3.075-2.822C464.954,319.678,466.097,321.071,466.097,322.5z
	 M460.725,322.659c0,1.099,0.915,2.135,2.286,2.135c1.383,0,2.296-1.036,2.296-2.135c0-1.145-0.845-2.08-2.285-2.08
	C461.617,320.579,460.725,321.539,460.725,322.659z"/>
<path fill="#231F20" d="M465.971,318.259h-8.342v-0.879h8.342V318.259z"/>
<path fill="#231F20" d="M461.194,315.276l-0.72,0.264c-0.297-0.65-0.493-1.291-0.493-2.148c0-1.613,0.824-2.514,2.378-2.514h3.611
	v0.844h-0.892c0.538,0.414,1.018,1.098,1.018,2.138c0,1.099-0.617,2.206-1.852,2.206c-1.256,0-1.919-1.027-1.919-2.524
	c0-0.756,0.103-1.292,0.251-1.819h-0.205c-1.063,0-1.612,0.653-1.612,1.762C460.76,314.181,460.943,314.728,461.194,315.276z
	 M464.211,315.175c0.755,0,1.188-0.686,1.188-1.487c0-1.085-0.662-1.977-1.6-1.977h-0.572c-0.125,0.435-0.251,1.017-0.251,1.738
	C462.977,314.558,463.457,315.175,464.211,315.175z"/>
<path fill="#231F20" d="M464.291,308.159c0.722,0,0.983-0.398,0.983-0.992c0-0.299-0.057-0.549-0.206-0.857h0.755
	c0.16,0.309,0.251,0.638,0.251,1.061c0,0.949-0.469,1.67-1.669,1.67h-3.565v0.821h-0.776v-0.821h-1.783v-0.881h1.783v-1.873h0.776
	v1.873H464.291z"/>
<path fill="#231F20" d="M465.343,302.585c0-0.813-0.331-1.382-0.834-1.863l0.491-0.549c0.664,0.594,1.109,1.314,1.109,2.436
	c0,1.621-1.246,2.948-3.085,2.948c-1.714,0-3.086-1.202-3.086-2.837c0-1.748,1.394-2.753,3.132-2.753c0.08,0,0.171,0,0.273,0.013
	v4.686C464.623,304.538,465.343,303.625,465.343,302.585z M462.691,300.858c-1.074,0.092-2.012,0.71-2.012,1.886
	c0,1.028,0.857,1.806,2.012,1.921V300.858z"/>
<path fill="#231F20" d="M464.291,291.237c0.722,0,0.983-0.4,0.983-0.993c0-0.298-0.057-0.55-0.206-0.858h0.755
	c0.16,0.309,0.251,0.642,0.251,1.062c0,0.948-0.469,1.67-1.669,1.67h-3.565v0.823h-0.776v-0.823h-1.783v-0.881h1.783v-1.874h0.776
	v1.874H464.291z"/>
<path fill="#231F20" d="M465.343,285.663c0-0.814-0.331-1.384-0.834-1.864l0.491-0.548c0.664,0.596,1.109,1.313,1.109,2.436
	c0,1.62-1.246,2.947-3.085,2.947c-1.714,0-3.086-1.199-3.086-2.836c0-1.748,1.394-2.754,3.132-2.754c0.08,0,0.171,0,0.273,0.014
	v4.686C464.623,287.618,465.343,286.702,465.343,285.663z M462.691,283.937c-1.074,0.092-2.012,0.709-2.012,1.885
	c0,1.029,0.857,1.807,2.012,1.922V283.937z"/>
<path fill="#231F20" d="M465.971,280.909v0.881h-5.908v-0.881h1.028c-0.64-0.39-1.154-1.008-1.154-2.023
	c0-1.43,0.96-2.264,2.366-2.264h3.668v0.881h-3.452c-1.097,0-1.783,0.594-1.783,1.634c0,1.017,0.743,1.772,1.852,1.772H465.971z"/>
<path fill="#231F20" d="M465.971,270.292h-1.188c0.708,0.479,1.313,1.176,1.313,2.264c0,1.416-1.12,2.822-3.074,2.822
	c-1.943,0-3.086-1.406-3.086-2.822c0-1.099,0.595-1.807,1.258-2.264h-3.565v-0.881h8.342V270.292z M460.725,272.394
	c0,1.145,0.846,2.08,2.286,2.08c1.406,0,2.296-0.959,2.296-2.08c0-1.096-0.913-2.135-2.296-2.135
	C461.64,270.259,460.725,271.298,460.725,272.394z"/>
<path fill="#231F20" d="M465.971,266.853v0.881h-5.908v-0.881h1.542c-0.982-0.434-1.692-1.291-1.646-2.412h0.949v0.07
	c0,1.291,0.926,2.342,2.709,2.342H465.971z"/>
<path fill="#231F20" d="M465.343,261.037c0-0.81-0.331-1.382-0.834-1.86l0.491-0.549c0.664,0.593,1.109,1.312,1.109,2.433
	c0,1.623-1.246,2.948-3.085,2.948c-1.714,0-3.086-1.199-3.086-2.832c0-1.748,1.394-2.756,3.132-2.756c0.08,0,0.171,0,0.273,0.011
	v4.687C464.623,262.992,465.343,262.077,465.343,261.037z M462.691,259.312c-1.074,0.092-2.012,0.708-2.012,1.886
	c0,1.028,0.857,1.805,2.012,1.92V259.312z"/>
<path fill="#231F20" d="M466.086,255.209c0,0.847-0.332,1.783-0.869,2.447l-0.629-0.444c0.48-0.642,0.755-1.352,0.755-2.047
	c0-0.708-0.366-1.224-0.938-1.224h-0.022c-0.593,0-0.822,0.698-1.04,1.475c-0.262,0.925-0.582,1.955-1.668,1.955h-0.022
	c-1.018,0-1.692-0.847-1.692-2.013c0-0.719,0.252-1.52,0.651-2.125l0.664,0.4c-0.355,0.549-0.572,1.176-0.572,1.748
	c0,0.697,0.366,1.143,0.857,1.143h0.023c0.561,0,0.777-0.732,1.017-1.52c0.275-0.914,0.628-1.896,1.691-1.896h0.023
	C465.434,253.108,466.086,254.032,466.086,255.209z"/>
<path fill="#231F20" d="M466.086,249.919c0,0.848-0.332,1.783-0.869,2.447l-0.629-0.447c0.48-0.641,0.755-1.349,0.755-2.047
	c0-0.707-0.366-1.223-0.938-1.223h-0.022c-0.593,0-0.822,0.697-1.04,1.477c-0.262,0.925-0.582,1.955-1.668,1.955h-0.022
	c-1.018,0-1.692-0.847-1.692-2.013c0-0.722,0.252-1.521,0.651-2.125l0.664,0.397c-0.355,0.549-0.572,1.18-0.572,1.752
	c0,0.695,0.366,1.142,0.857,1.142h0.023c0.561,0,0.777-0.731,1.017-1.521c0.275-0.915,0.628-1.897,1.691-1.897h0.023
	C465.434,247.815,466.086,248.74,466.086,249.919z"/>
<path fill="#231F20" d="M465.343,243.864c0-0.812-0.331-1.383-0.834-1.864l0.491-0.548c0.664,0.593,1.109,1.314,1.109,2.436
	c0,1.62-1.246,2.947-3.085,2.947c-1.714,0-3.086-1.201-3.086-2.834c0-1.75,1.394-2.753,3.132-2.753c0.08,0,0.171,0,0.273,0.011
	v4.684C464.623,245.816,465.343,244.901,465.343,243.864z M462.691,242.137c-1.074,0.092-2.012,0.71-2.012,1.886
	c0,1.031,0.857,1.807,2.012,1.92V242.137z"/>
<path fill="#231F20" d="M467.8,228.962h-3.017c0.708,0.48,1.313,1.176,1.313,2.263c0,1.417-1.12,2.822-3.074,2.822
	c-1.943,0-3.086-1.405-3.086-2.822c0-1.097,0.595-1.806,1.258-2.263h-1.131v-0.881h7.737V228.962z M460.725,231.065
	c0,1.142,0.846,2.08,2.286,2.08c1.406,0,2.296-0.961,2.296-2.08c0-1.098-0.913-2.138-2.296-2.138
	C461.64,228.928,460.725,229.968,460.725,231.065z"/>
<path fill="#231F20" d="M460.063,222.208v-0.867h5.908v0.867h-1.028c0.639,0.4,1.153,1.006,1.153,2.022
	c0,1.431-0.959,2.265-2.365,2.265h-3.668v-0.882h3.451c1.096,0,1.783-0.593,1.783-1.634c0-1.006-0.742-1.771-1.851-1.771H460.063z"
	/>
<path fill="#231F20" d="M465.343,217.044c0-0.812-0.331-1.383-0.834-1.863l0.491-0.55c0.664,0.594,1.109,1.315,1.109,2.437
	c0,1.622-1.246,2.947-3.085,2.947c-1.714,0-3.086-1.199-3.086-2.835c0-1.745,1.394-2.752,3.132-2.752c0.08,0,0.171,0,0.273,0.01
	v4.687C464.623,218.999,465.343,218.083,465.343,217.044z M462.691,215.316c-1.074,0.091-2.012,0.71-2.012,1.888
	c0,1.029,0.857,1.806,2.012,1.92V215.316z M459.171,217.729l-1.657-1.085l0.423-0.914l1.234,1.291V217.729z"/>
<path fill="#231F20" d="M464.291,211.981c0.722,0,0.983-0.4,0.983-0.994c0-0.297-0.057-0.548-0.206-0.856h0.755
	c0.16,0.309,0.251,0.638,0.251,1.062c0,0.949-0.469,1.669-1.669,1.669h-3.565v0.821h-0.776v-0.821h-1.783v-0.88h1.783v-1.875h0.776
	v1.875H464.291z"/>
<path fill="#231F20" d="M461.194,208.495l-0.72,0.264c-0.297-0.651-0.493-1.291-0.493-2.148c0-1.613,0.824-2.514,2.378-2.514h3.611
	v0.844h-0.892c0.538,0.412,1.018,1.098,1.018,2.139c0,1.098-0.617,2.205-1.852,2.205c-1.256,0-1.919-1.029-1.919-2.524
	c0-0.755,0.103-1.292,0.251-1.819h-0.205c-1.063,0-1.612,0.653-1.612,1.762C460.76,207.397,460.943,207.946,461.194,208.495z
	 M464.211,208.393c0.755,0,1.188-0.687,1.188-1.483c0-1.088-0.662-1.979-1.6-1.979h-0.572c-0.125,0.435-0.251,1.017-0.251,1.738
	C462.977,207.776,463.457,208.393,464.211,208.393z"/>
<path fill="#231F20" d="M458.771,202.486H457.8v-1.007h0.972V202.486z M465.971,202.429h-5.908v-0.881h5.908V202.429z"/>
<path fill="#231F20" d="M465.971,198.908v0.882h-5.908v-0.882h1.028c-0.64-0.389-1.154-1.007-1.154-2.022
	c0-1.43,0.96-2.264,2.366-2.264h3.668v0.881h-3.452c-1.097,0-1.783,0.594-1.783,1.633c0,1.018,0.743,1.772,1.852,1.772H465.971z"/>
<path fill="#231F20" d="M465.343,190.43c0-0.812-0.331-1.384-0.834-1.864l0.491-0.548c0.664,0.594,1.109,1.315,1.109,2.434
	c0,1.622-1.246,2.948-3.085,2.948c-1.714,0-3.086-1.2-3.086-2.833c0-1.749,1.394-2.755,3.132-2.755c0.08,0,0.171,0,0.273,0.01v4.689
	C464.623,192.382,465.343,191.47,465.343,190.43z M462.691,188.702c-1.074,0.092-2.012,0.709-2.012,1.887
	c0,1.028,0.857,1.807,2.012,1.922V188.702z"/>
<path fill="#231F20" d="M458.771,180.248H457.8v-1.007h0.972V180.248z M465.971,180.19h-5.908v-0.881h5.908V180.19z"/>
<path fill="#231F20" d="M465.971,176.67v0.881h-5.908v-0.881h1.028c-0.64-0.388-1.154-1.004-1.154-2.022
	c0-1.428,0.96-2.262,2.366-2.262h3.668v0.879h-3.452c-1.097,0-1.783,0.596-1.783,1.636c0,1.017,0.743,1.77,1.852,1.77H465.971z"/>
<path fill="#231F20" d="M465.343,168.191c0-0.813-0.331-1.382-0.834-1.863l0.491-0.549c0.664,0.597,1.109,1.314,1.109,2.436
	c0,1.62-1.246,2.948-3.085,2.948c-1.714,0-3.086-1.199-3.086-2.836c0-1.748,1.394-2.754,3.132-2.754c0.08,0,0.171,0,0.273,0.013
	v4.687C464.623,170.146,465.343,169.231,465.343,168.191z M462.691,166.466c-1.074,0.092-2.012,0.709-2.012,1.885
	c0,1.029,0.857,1.807,2.012,1.922V166.466z M459.171,168.876l-1.657-1.084l0.423-0.916l1.234,1.292V168.876z"/>
<path fill="#231F20" d="M467.823,161.702c0,0.979-0.274,1.895-0.823,2.684l-0.685-0.399c0.491-0.675,0.754-1.431,0.754-2.274
	c0-1.304-0.72-2.147-2.102-2.147h-0.698c0.686,0.515,1.246,1.233,1.246,2.32c0,1.417-1.051,2.775-2.777,2.775
	c-1.737,0-2.8-1.372-2.8-2.775c0-1.11,0.549-1.829,1.189-2.311h-1.062v-0.88h4.88C466.852,158.694,467.823,159.884,467.823,161.702z
	 M460.714,161.712c0,1.119,0.766,2.044,2,2.044c1.211,0,2.023-0.946,2.023-2.044c0-1.121-0.8-2.172-2.012-2.172
	C461.502,159.54,460.714,160.591,460.714,161.712z"/>
<path fill="#231F20" d="M461.194,156.675l-0.72,0.262c-0.297-0.652-0.493-1.292-0.493-2.149c0-1.611,0.824-2.515,2.378-2.515h3.611
	v0.848h-0.892c0.538,0.41,1.018,1.095,1.018,2.135c0,1.098-0.617,2.207-1.852,2.207c-1.256,0-1.919-1.028-1.919-2.525
	c0-0.754,0.103-1.293,0.251-1.816h-0.205c-1.063,0-1.612,0.65-1.612,1.759C460.76,155.577,460.943,156.125,461.194,156.675z
	 M464.211,156.569c0.755,0,1.188-0.685,1.188-1.484c0-1.086-0.662-1.979-1.6-1.979h-0.572c-0.125,0.436-0.251,1.018-0.251,1.738
	C462.977,155.952,463.457,156.569,464.211,156.569z"/>
<path fill="#231F20" d="M465.971,150.605h-8.342v-0.881h8.342V150.605z"/>
<path fill="#231F20" d="M458.771,147.942H457.8v-1.005h0.972V147.942z M465.971,147.885h-5.908v-0.881h5.908V147.885z"/>
<path fill="#231F20" d="M464.291,144.058c0.722,0,0.983-0.398,0.983-0.994c0-0.297-0.057-0.549-0.206-0.857h0.755
	c0.16,0.309,0.251,0.641,0.251,1.063c0,0.948-0.469,1.667-1.669,1.667h-3.565v0.824h-0.776v-0.824h-1.783v-0.879h1.783v-1.874h0.776
	v1.874H464.291z"/>
<path fill="#231F20" d="M465.343,138.309c0-0.81-0.331-1.382-0.834-1.863l0.491-0.548c0.664,0.596,1.109,1.313,1.109,2.436
	c0,1.622-1.246,2.947-3.085,2.947c-1.714,0-3.086-1.199-3.086-2.833c0-1.749,1.394-2.756,3.132-2.756c0.08,0,0.171,0,0.273,0.012
	v4.687C464.623,140.264,465.343,139.349,465.343,138.309z M462.691,136.584c-1.074,0.091-2.012,0.708-2.012,1.884
	c0,1.031,0.857,1.807,2.012,1.922V136.584z M459.171,138.993l-1.657-1.084l0.423-0.915l1.234,1.292V138.993z"/>
<path fill="#231F20" d="M466.097,125.009c0,1.096-0.594,1.807-1.257,2.262h2.96v0.879h-7.737v-0.879h1.188
	c-0.708-0.479-1.314-1.178-1.314-2.262c0-1.417,1.121-2.823,3.075-2.823C464.954,122.186,466.097,123.579,466.097,125.009z
	 M460.725,125.168c0,1.098,0.915,2.138,2.286,2.138c1.383,0,2.296-1.04,2.296-2.138c0-1.144-0.845-2.081-2.285-2.081
	C461.617,123.087,460.725,124.047,460.725,125.168z"/>
<path fill="#231F20" d="M465.343,118.243c0-0.812-0.331-1.383-0.834-1.861l0.491-0.55c0.664,0.594,1.109,1.313,1.109,2.434
	c0,1.623-1.246,2.949-3.085,2.949c-1.714,0-3.086-1.201-3.086-2.835c0-1.748,1.394-2.754,3.132-2.754c0.08,0,0.171,0,0.273,0.012
	v4.686C464.623,120.197,465.343,119.282,465.343,118.243z M462.691,116.517c-1.074,0.092-2.012,0.71-2.012,1.886
	c0,1.028,0.857,1.807,2.012,1.921V116.517z"/>
<path fill="#231F20" d="M460.063,110.175v-0.869h5.908v0.869h-1.028c0.639,0.4,1.153,1.006,1.153,2.023
	c0,1.428-0.959,2.262-2.365,2.262h-3.668v-0.881h3.451c1.096,0,1.783-0.594,1.783-1.633c0-1.007-0.742-1.771-1.851-1.771H460.063z"
	/>
<path fill="#231F20" d="M465.971,106.736v0.879h-5.908v-0.879h1.542c-0.982-0.436-1.692-1.292-1.646-2.411h0.949v0.068
	c0,1.29,0.926,2.343,2.709,2.343H465.971z"/>
<path fill="#231F20" d="M459.937,90.222c0-1.359,0.915-2.193,2.377-2.193h3.657v0.879h-3.452c-1.143,0-1.783,0.572-1.783,1.532
	c0,0.892,0.664,1.635,1.829,1.635h3.406v0.868h-3.474c-1.109,0-1.76,0.584-1.76,1.52c0,0.938,0.777,1.646,1.863,1.646h3.372v0.881
	h-5.908v-0.881h0.994c-0.583-0.389-1.121-0.915-1.121-1.908c0-0.959,0.514-1.577,1.178-1.898
	C460.462,91.88,459.937,91.252,459.937,90.222z"/>
<path fill="#231F20" d="M461.194,86.062l-0.72,0.265c-0.297-0.652-0.493-1.293-0.493-2.15c0-1.61,0.824-2.514,2.378-2.514h3.611
	v0.847h-0.892c0.538,0.41,1.018,1.097,1.018,2.137c0,1.097-0.617,2.204-1.852,2.204c-1.256,0-1.919-1.027-1.919-2.524
	c0-0.755,0.103-1.291,0.251-1.816h-0.205c-1.063,0-1.612,0.65-1.612,1.759C460.76,84.966,460.943,85.515,461.194,86.062z
	 M464.211,85.961c0.755,0,1.188-0.687,1.188-1.485c0-1.086-0.662-1.979-1.6-1.979h-0.572c-0.125,0.436-0.251,1.018-0.251,1.738
	C462.977,85.343,463.457,85.961,464.211,85.961z"/>
<path fill="#231F20" d="M465.971,79.995h-8.342v-0.881h8.342V79.995z"/>
<path fill="#231F20" d="M461.194,77.014l-0.72,0.263c-0.297-0.652-0.493-1.293-0.493-2.15c0-1.609,0.824-2.514,2.378-2.514h3.611
	v0.848h-0.892c0.538,0.411,1.018,1.096,1.018,2.137c0,1.097-0.617,2.206-1.852,2.206c-1.256,0-1.919-1.03-1.919-2.526
	c0-0.754,0.103-1.292,0.251-1.816h-0.205c-1.063,0-1.612,0.65-1.612,1.758C460.76,75.916,460.943,76.464,461.194,77.014z
	 M464.211,76.911c0.755,0,1.188-0.688,1.188-1.486c0-1.085-0.662-1.978-1.6-1.978h-0.572c-0.125,0.435-0.251,1.017-0.251,1.738
	C462.977,76.293,463.457,76.911,464.211,76.911z"/>
<path fill="#231F20" d="M458.771,71.002H457.8v-1.006h0.972V71.002z M465.971,70.944h-5.908v-0.879h5.908V70.944z"/>
</svg>
