<?xml version="1.0" encoding="utf-8"?>
<!-- Generator: Adobe Illustrator 19.1.0, SVG Export Plug-In . SVG Version: 6.00 Build 0)  -->
<svg version="1.1" id="Calque_1" xmlns="http://www.w3.org/2000/svg" xmlns:xlink="http://www.w3.org/1999/xlink" x="0px" y="0px"
	 viewBox="0 0 1024 768" style="enable-background:new 0 0 1024 768;" xml:space="preserve">
<style type="text/css">
	.st0{fill:#C386DF;enable-background:new    ;}
	.st1{fill:#FFFFFF;}
</style>
<g>
	<path class="st0" d="M245.4,598.2c13.1-37.4,26.1-74.7,39.3-112.1c1.1-3.2,1-5.7-0.8-8.7c-37.3-60.6-49-126-35.5-195.7
		c29.8-154.2,188.8-250.4,340-206.1c134.3,39.3,216.1,172.9,189.9,310.2c-23.5,122.9-127.9,213.5-253,219
		c-57,2.5-109.8-11.7-158-42.4c-3.5-2.2-6.3-2.4-10.1-0.9c-35.8,13.8-71.8,27.5-107.6,41.2c-1.6,0.6-3.3,1.2-6.1,2.1
		C244.3,601.7,244.8,599.9,245.4,598.2z"/>
	<path class="st1" d="M506.2,410.6c10.5,0,20.7-0.1,30.8,0.1c1.3,0,3.1,1.1,3.9,2.3c21.5,30.9,69.4,33.1,93.9,0.4
		c0.9-1.3,2.8-2.6,4.2-2.6c10.1-0.2,20.3-0.1,30.5-0.1c-5.4,26.3-41.6,53.6-73.2,56.1C547.7,470.6,516,437.8,506.2,410.6z"/>
	<path class="st1" d="M504.2,397.9c19.7-19.7,39.7-39.7,59.4-59.4c-6.5-6.5-13.3-13.3-20.5-20.5c-12.8,12.8-25.8,25.9-39.1,39.2
		c-13-13.1-25.8-25.9-38.9-39c-7.3,6.9-14.3,13.5-20.9,19.7C464.4,358.1,484.4,378.1,504.2,397.9z"/>
	<path class="st1" d="M666.5,398.6c19.6-19.6,39.5-39.5,59-59c-6.6-6.6-13.4-13.4-20.2-20.2C693,331.8,680,344.8,667,357.9
		c-13.8-13.8-26.8-26.8-39.5-39.6c-7.5,7.5-14.3,14.3-20.7,20.6C626.5,358.6,646.5,378.6,666.5,398.6z"/>
</g>
</svg>
