<?xml version="1.0" encoding="utf-8"?>
<!-- Generator: Adobe Illustrator 19.1.0, SVG Export Plug-In . SVG Version: 6.00 Build 0)  -->
<svg version="1.1" id="Calque_1" xmlns="http://www.w3.org/2000/svg" xmlns:xlink="http://www.w3.org/1999/xlink" x="0px" y="0px"
	 viewBox="0 0 1024 768" style="enable-background:new 0 0 1024 768;" xml:space="preserve">
<style type="text/css">
	.st0{fill:#FFB744;}
	.st1{fill:#FFFFFF;}
</style>
<g>
	<path class="st0" d="M245.6,598.3c13.1-37.4,26.1-74.8,39.3-112.1c1.2-3.5,0.9-6-1-9.2c-37.2-60.6-49.1-126.2-35.2-195.7
		C279.8,126.2,437.4,31.3,589,75.7C724.9,115.6,806.4,252,777.4,391.1c-24,115.1-122.1,202.7-238.4,212.8
		c-62.2,5.4-119.7-8.4-172.4-42c-2.9-1.8-5.2-2.1-8.3-0.9c-30.9,11.9-61.8,23.7-92.7,35.5c-6.9,2.6-13.9,5.3-22,8.3
		C244.5,601.8,245,600,245.6,598.3z"/>
	<path class="st1" d="M562.5,413.7c-5.1,20.8-15.1,30.5-31.3,30.4c-16.4,0-25.8-9-31.2-30.4c-4.6,0-9.4,0-14.1,0
		c-4.8,0-9.6,0-14.4,0c-3.6,16.1,10.2,41,28.6,52c20.7,12.4,53.3,13.1,76.7-11.4c24.4,24.5,54.7,23.3,74.6,12.5
		c19.4-10.5,33.3-33.9,31.1-52.9c-9.5,0-19.1,0-29.1,0c-0.4,2.2-0.8,4.4-1.3,6.6c-3.2,14.3-16.5,24.1-31.8,23.4
		c-14.1-0.6-26.4-11.8-28.1-25.9c-0.4-3.7-1.6-4.7-5.2-4.6C579,413.8,570.9,413.7,562.5,413.7z"/>
	<path class="st1" d="M653.9,317.7c13.4,13.4,26.3,26.4,38.7,38.9c7.3-7.2,14.1-14.1,20.7-20.6c-19.4-19.5-39.4-39.5-59-59.1
		c-19.6,19.6-39.6,39.6-59.1,59.1c6.4,6.3,13.2,13.2,20.2,20.2C627.8,343.9,640.7,331,653.9,317.7z"/>
	<path class="st1" d="M530.7,357.2c7.7-7.6,14.5-14.4,20.9-20.9c-19.7-19.8-39.7-39.7-59.3-59.3c-19.5,19.5-39.4,39.5-59,59
		c6.2,6.2,13.1,13.1,20.1,20.1c12.2-12.3,25.1-25.3,38-38.2C504.9,331.3,518,344.5,530.7,357.2z"/>
</g>
</svg>
