<?xml version="1.0" encoding="utf-8"?>
<!-- Generator: Adobe Illustrator 19.1.0, SVG Export Plug-In . SVG Version: 6.00 Build 0)  -->
<svg version="1.1" id="Calque_1" xmlns="http://www.w3.org/2000/svg" xmlns:xlink="http://www.w3.org/1999/xlink" x="0px" y="0px"
	 viewBox="0 0 1024 768" style="enable-background:new 0 0 1024 768;" xml:space="preserve">
<style type="text/css">
	.st0{enable-background:new    ;}
	.st1{fill:#C386DF;}
</style>
<g class="st0">
	<g>
		<path class="st1" d="M463.9,291.9c-17,0-29.9,13.2-29.8,30.3c0.1,16.4,13.7,29.8,30.1,29.7c16.5-0.1,29.8-13.4,29.8-30
			C494.1,305.1,480.8,291.8,463.9,291.9z"/>
		<path class="st1" d="M505.3,351.9c-10.6,0-18.6,8.4-18.5,19.3c0.1,10.2,8.2,18,18.7,17.8c10-0.1,18.4-8.5,18.5-18.5
			C524.1,360.3,515.7,351.9,505.3,351.9z"/>
		<path class="st1" d="M529.3,315.1c-6.3,0-11.8,5.4-12,11.7c-0.2,6.5,5.3,12.1,11.9,12.2c6.8,0.1,12.1-5.1,12.1-11.9
			C541.3,320.6,535.9,315.1,529.3,315.1z"/>
	</g>
	<g>
		<path class="st1" d="M641.8,291.9c-16.6,0.1-29.6,13.4-29.6,30.1c0.1,16.5,14,30.2,30.5,29.9c16.6-0.3,29.6-13.6,29.5-30.3
			C672.1,304.7,658.8,291.7,641.8,291.9z"/>
		<path class="st1" d="M683.9,351.9c-10.6-0.1-18.8,8-18.8,18.9c0,10.3,7.9,18.1,18.3,18.2c10.3,0,18.8-8.4,18.8-18.6
			C702.2,360.2,694,352,683.9,351.9z"/>
		<path class="st1" d="M707.7,315.1c-6.5-0.1-12.1,5.5-12.1,12.1c0,6.6,5.5,12,12.1,11.9c6.7-0.1,11.9-5.4,11.7-12.2
			C719.4,320.5,714.1,315.2,707.7,315.1z"/>
	</g>
	<path class="st1" d="M566.7,70.2c-146.6-29.2-288.6,64.7-318,211.1c-14,69.5-2.1,135.1,35.1,195.7c1.9,3.1,2.3,5.6,1.1,9.2
		c-13.2,37.3-26.2,74.7-39.3,112.1c-0.6,1.7-1.1,3.5-2,6.4c2.8-1,4.4-1.5,6.1-2.1c36-13.8,72.1-27.5,108.1-41.4
		c3.4-1.3,6-1.1,9.2,0.9c48.3,30.8,101.3,45.2,158.5,42.7c125.2-5.5,229.4-95.9,253-219C806.3,240.3,711.5,99.1,566.7,70.2z
		 M486.2,414.9c-43.5,0-79.7-36-79.9-79.5c-0.2-43.7,35.9-80.1,79.6-80.3c43.7-0.1,80.1,36,80.1,79.7
		C566.1,378.5,529.9,414.8,486.2,414.9z M573.1,497c-16.9,0.2-30.3-12.9-30.5-29.8c-0.2-16.6,13-30,29.5-30.2
		c17-0.2,30.3,12.8,30.4,29.8C602.6,483.5,589.7,496.8,573.1,497z M662.8,414.9c-43.8,0.2-79.9-35.8-80-79.7
		c-0.1-43.9,35.9-80,79.7-80c43.6,0,79.6,35.9,79.7,79.5C742.4,378.5,706.6,414.7,662.8,414.9z"/>
</g>
</svg>
