<?xml version="1.0" encoding="utf-8"?>
<!-- Generator: Adobe Illustrator 19.1.0, SVG Export Plug-In . SVG Version: 6.00 Build 0)  -->
<svg version="1.1" id="Calque_1" xmlns="http://www.w3.org/2000/svg" xmlns:xlink="http://www.w3.org/1999/xlink" x="0px" y="0px"
	 viewBox="0 0 1024 768" style="enable-background:new 0 0 1024 768;" xml:space="preserve">
<style type="text/css">
	.st0{enable-background:new    ;}
	.st1{fill:#FFB744;}
	.st2{fill:#FFFFFF;}
</style>
<g class="st0">
	<path class="st1" d="M245.6,598.3c13.1-37.4,26.1-74.8,39.3-112.1c1.2-3.5,0.9-6-1-9.2c-37.2-60.6-49.1-126.2-35.2-195.7
		C279.8,126.2,437.4,31.3,589,75.8C724.9,115.6,806.4,252,777.4,391.1c-24,115.1-122.1,202.7-238.4,212.8
		c-62.2,5.4-119.7-8.4-172.4-42c-3.1-2-5.6-1.9-8.7-0.7c-36,13.8-72.1,27.6-108.1,41.4c-1.7,0.6-3.3,1.2-6.1,2.2
		C244.5,601.8,245,600,245.6,598.3z"/>
	<path class="st2" d="M473.9,413.9c-36.8-5.7-65.4-37.4-67.5-75.4c-2-37.3,24-71.9,61-81.1c18.3-4.5,36.1-2.7,53.1,5.5
		c24.1,11.6,38.3,31.1,43.9,56.9c6.8,0,13.1,0,19.4,0c9.7-43.8,50.2-70.3,91-63.6c38.4,6.2,67.4,40.5,67.1,79.3
		c-0.4,39.1-30,73.1-67.9,78.6c-39.6,5.7-80.8-18.4-90.2-63.8c-6.3,0-12.6,0-19.3,0C555.8,392.2,515.8,420.3,473.9,413.9z
		 M485.9,285.1c-27.5,0.2-49.8,22.9-49.5,50.3c0.3,27.1,23.1,49.5,50.1,49.4c27.5-0.1,49.8-22.7,49.6-50.2
		C536,307.2,513.4,284.9,485.9,285.1z M662.2,384.9c27.3,0.3,50-21.8,50.2-49c0.2-28.1-21.7-50.6-49.4-50.7
		c-27.5-0.2-49.7,21.9-50,49.7C612.7,362.1,634.8,384.6,662.2,384.9z"/>
	<path class="st2" d="M663,481.7c0-9.9,0-19.5,0-29.4c-59.8,0-119.4,0-179.4,0c0,9.6,0,19.3,0,29.4
		C543.2,481.7,602.9,481.7,663,481.7z"/>
</g>
</svg>
