<?xml version="1.0" encoding="utf-8"?>
<!-- Generator: Adobe Illustrator 19.1.0, SVG Export Plug-In . SVG Version: 6.00 Build 0)  -->
<svg version="1.1" id="Calque_1" xmlns="http://www.w3.org/2000/svg" xmlns:xlink="http://www.w3.org/1999/xlink" x="0px" y="0px"
	 viewBox="0 0 1024 768" style="enable-background:new 0 0 1024 768;" xml:space="preserve">
<style type="text/css">
	.st0{fill:#C386DF;enable-background:new    ;}
	.st1{fill:#FFFFFF;}
</style>
<g>
	<path class="st0" d="M245.7,598.1c13.1-37.4,26.1-74.7,39.3-112.1c1.2-3.3,0.9-5.7-0.9-8.7c-37.3-60.6-49-126.1-35.4-195.7
		C280.2,119.8,451.8,24.2,606.7,81.5c126.2,46.7,198,177,170.7,309.7c-24.9,120.6-132,210.3-255.1,213.6
		c-56.2,1.5-108.1-12.6-155.5-42.9c-3-1.9-5.4-2.3-8.7-1c-19.4,7.6-38.8,14.9-58.2,22.3c-18.3,7-36.6,14-56.3,21.5
		C244.5,601.8,245,599.9,245.7,598.1z"/>
	<path class="st1" d="M614.6,347c1.6,0,3.2,0,4.8,0c30.5,0,60.9,0.1,91.4-0.1c2.6,0,5.8-1.3,7.7-3.1c8.8-8.3,17.3-17.1,25.5-25.3
		c-7.1-7-14-13.9-21.6-21.4c-5.4,5.7-11.3,12.2-17.3,18.6c-21.3-19.8-41.9-24.2-63-13.7C625.2,310.4,613,330,614.6,347z"/>
	<path class="st1" d="M430.9,296.1c-7.4,8-14,15.1-20.9,22.6c8.5,8.5,17.7,17.8,27.1,27c0.8,0.8,2.4,1.3,3.6,1.3
		c32.5,0,64.9,0,97.4,0c0.3,0,0.6-0.2,0.9-0.3c2.5-14.6-8.7-34.3-24.6-43.4c-20.7-11.8-41.1-8-64.8,12.1
		C443.4,309,437.4,302.9,430.9,296.1z"/>
	<path class="st1" d="M657.8,422.7c-10.4,0-20.7-0.1-31,0.1c-1.3,0-2.8,1.5-3.7,2.6c-24.2,31.6-69.1,31.6-93.6-0.1
		c-1-1.2-2.8-2.5-4.3-2.5c-10-0.2-20-0.1-30-0.1c2.5,24.8,41.3,53.7,74.9,56.2C607.8,481.6,650,454.7,657.8,422.7z"/>
</g>
</svg>
