<?xml version="1.0" encoding="utf-8"?>
<!-- Generator: Adobe Illustrator 19.1.0, SVG Export Plug-In . SVG Version: 6.00 Build 0)  -->
<svg version="1.1" id="Calque_1" xmlns="http://www.w3.org/2000/svg" xmlns:xlink="http://www.w3.org/1999/xlink" x="0px" y="0px"
	 viewBox="0 0 1024 768" style="enable-background:new 0 0 1024 768;" xml:space="preserve">
<style type="text/css">
	.st0{fill:#FFFFFF;}
	.st1{enable-background:new    ;}
	.st2{fill:#194021;enable-background:new    ;}
</style>
<g>
	<path class="st0" d="M277.4,293.2c-0.4,1.9-1,3.8-1.2,5.7c-8.6,62.7,5.3,120,41.1,172.1c2.4,3.4,2.7,6.2,1.3,10
		c-7.6,21.8-15,43.7-22.5,65.6c-0.6,1.7-1,3.4-1.7,6c2.4-0.8,4.1-1.4,5.7-2c20.9-7.9,41.7-15.6,62.5-23.7c3.6-1.4,6-1,9,1.2
		c29.8,22.4,63.1,36.9,99.9,43.1c67.7,11.4,129.6-3.1,184.6-43.9c50.9-37.8,81.6-88.6,93.5-150.8c0.1-0.7,0.2-1.3,0.3-2
		c0.3-2.1,0.6-4.3,1-7.4c-1.6,1.7-2.6,2.7-3.5,3.8c-14.4,16.4-32.2,27-54.2,28.7c-21.9,1.7-40.6-6.4-56.2-21.2
		c-21-19.9-31-44.9-32.9-73.4c-0.3-4.9-2-6.9-6.4-8.2c-10.2-3.1-20.3-3.2-30.6-0.8c-3.1,0.7-4.2,1.9-4.5,5.2
		c-3.9,44.6-26.4,76.2-68.4,91.6c-63.8,23.4-132.6-22.1-137.5-89.7c-0.2-3.2-0.4-6.3-0.7-9.9C329.7,293.2,303.7,293.2,277.4,293.2z
		 M289.3,264.1c23.5,0,47-0.1,70.5,0.1c3.5,0,5.7-0.9,7.9-3.8c11.6-15,27.2-23,46.1-23.2c29.8-0.4,59.7-0.4,89.5,0
		c20.9,0.3,37.4,9.7,49.1,27c2.2,3.2,3.9,3.8,7.6,2.9c15.2-3.6,30.4-3.3,45.4,1.4c0.9,0.3,1.9,0.4,2,0.4c4.8-6.4,8.9-12.7,14-18.1
		c8.2-8.7,18.5-13.2,30.8-13c26,0.3,52,0.2,78,0.3c0.3,0,0.6-0.2,0.9-0.3C704.3,170.6,624.5,93.6,509.9,95.1
		c-115.4,1.5-200.9,82.8-225.7,169C286,264.1,287.6,264.1,289.3,264.1z"/>
	<path class="st0" d="M629.1,516.5c-34.2,21.6-78.3,20.2-111-3.4c-34-24.5-45.7-62.4-41.5-96.9c66.6,0,133.2,0,199.7,0
		C680.5,456.5,664.5,494.3,629.1,516.5z"/>
</g>
<g class="st1">
	<path class="st2" d="M251.8,591.9c-0.6,1.7-1.1,3.4-2,6.4c7.9-3,14.7-5.6,21.5-8.1c30.5-11.6,61-23.2,91.4-35c3-1.2,5.2-1,7.9,0.8
		c51.1,33.5,107.4,47,168,41.2c115.6-11.1,209.8-96.4,232.7-209.9c28.8-142.7-63.9-282.4-206.2-310.7
		c-143.1-28.4-281.5,63.1-310.3,206c-13.6,67.5-2.1,131.2,33.7,190.1c2.2,3.7,2.7,6.7,1.2,10.8C277,519.5,264.5,555.7,251.8,591.9z
		 M629.1,516.5c-34.2,21.6-78.3,20.2-111-3.4c-34-24.5-45.7-62.4-41.5-96.9c66.6,0,133.2,0,199.7,0
		C680.5,456.5,664.5,494.3,629.1,516.5z M744.1,374.5c-13.8,14.3-30.5,23.4-50.8,25c-21.9,1.7-40.6-6.4-56.2-21.2
		c-21-19.9-31-44.9-32.9-73.4c-0.3-4.9-2-6.9-6.4-8.2c-10.2-3.1-20.3-3.2-30.6-0.8c-3.1,0.7-4.2,1.9-4.5,5.2
		c-3.9,44.6-26.4,76.2-68.4,91.6c-63.8,23.4-132.6-22.1-137.5-89.7c-0.2-3.2-0.4-6.3-0.7-9.9c-24.7,0-49,0-73.5,0
		c1.7-9.9,4.1-19.6,7-29.1c23.4,0,46.8-0.1,70.2,0.1c3.5,0,5.7-0.9,7.9-3.8c11.6-15,27.2-23,46.1-23.2c29.8-0.4,59.7-0.4,89.5,0
		c20.9,0.3,37.4,9.7,49.1,27c2.2,3.2,3.9,3.8,7.6,2.9c15.2-3.6,30.4-3.3,45.4,1.4c0.9,0.3,1.9,0.4,2,0.4c4.8-6.4,8.9-12.7,14-18.1
		c8.2-8.7,18.5-13.2,30.8-13c24.8,0.2,49.6,0.2,74.4,0.3C747.4,281.3,753.5,327.1,744.1,374.5z"/>
	<path class="st2" d="M724.1,368.4c-7.7,5.9-15.9,10.1-25.1,12.2c-1.3,0.3-3.7-1.1-4.5-2.3c-3.2-4.9-5.9-10-8.8-15.1
		c-17.8-30.8-35.7-61.6-53.4-92.4c-0.9-1.5-1.3-4.6-0.5-5.4c6.3-6.5,13.6-11.3,23.3-10.1c1.7,0.2,3.8,1.3,4.6,2.7
		C681.1,294.5,702.4,331.1,724.1,368.4z"/>
	<path class="st2" d="M386.6,266.1c8.6-8.2,18.3-11.8,29.5-11.4c4.7,0.1,9.3,0.3,14-0.1c3.6-0.2,5.6,1,7.5,4.2
		c20.6,35.6,41.3,71,62.1,106.5c0.8,1.4,1.5,2.8,2.4,4.5c-14,7.6-28.5,11.7-44.2,11.4c-3.6-0.1-5.6-1.1-7.4-4.3
		c-20.4-35.5-40.9-70.9-61.4-106.3C388.2,269.2,387.5,267.7,386.6,266.1z"/>
	<path class="st2" d="M644.9,446.3c-1.4,27.2-34.8,54.9-66.8,55.6c-33.4,0.7-67.2-26-69.9-55.6C553.8,446.3,599.3,446.3,644.9,446.3
		z"/>
</g>
</svg>
