<?xml version="1.0" encoding="utf-8"?>
<!-- Generator: Adobe Illustrator 19.1.0, SVG Export Plug-In . SVG Version: 6.00 Build 0)  -->
<svg version="1.1" id="Calque_1" xmlns="http://www.w3.org/2000/svg" xmlns:xlink="http://www.w3.org/1999/xlink" x="0px" y="0px"
	 viewBox="0 0 1024 768" style="enable-background:new 0 0 1024 768;" xml:space="preserve">
<style type="text/css">
	.st0{fill:#005DA5;}
	.st1{fill:#FFFFFF;}
</style>
<g>
	<path class="st0" d="M245.5,598.4c13.1-37.4,26.1-74.8,39.3-112.1c1.2-3.4,1.1-6-0.9-9.2c-37.6-61.5-49.4-127.7-34.7-198.1
		C279.8,131.7,426.5,37.9,572.8,71.6C715.6,104.5,805.4,241.8,778.4,386c-23,122.8-130,214.7-254.8,218.8
		c-56.7,1.9-109.1-12.4-156.9-42.9c-3.1-2-5.5-2.1-8.7-0.8c-23.7,9.2-47.5,18.2-71.3,27.3c-14,5.3-27.9,10.7-43.1,16.5
		C244.4,601.8,244.9,600.1,245.5,598.4z"/>
	<path class="st1" d="M669.7,410.7c-10.4,0-20.7-0.1-31,0.1c-1.3,0-2.9,1.4-3.8,2.6c-24.3,31.7-69.1,31.6-93.6-0.1
		c-0.8-1.1-2.2-2.5-3.3-2.5c-10.4-0.2-20.9-0.1-31.4-0.1c8.1,30.9,45.8,56.5,82.3,56.3C624.3,466.8,662.3,440.5,669.7,410.7z"/>
	<path class="st1" d="M498.8,346.3c16.9-0.3,29.7-13.7,29.4-30.8c-0.3-16.5-14.2-29.6-30.6-29.2c-17,0.5-29.7,13.9-29.4,30.9
		C468.6,333.8,482.1,346.6,498.8,346.3z"/>
	<path class="st1" d="M672.8,346.3c16.9-0.3,29.8-13.8,29.4-30.7c-0.4-16.5-14.1-29.6-30.5-29.2c-16.9,0.5-29.8,13.9-29.4,30.8
		C642.5,333.5,656.3,346.6,672.8,346.3z"/>
</g>
</svg>
