<?xml version="1.0" encoding="utf-8"?>
<!-- Generator: Adobe Illustrator 19.1.0, SVG Export Plug-In . SVG Version: 6.00 Build 0)  -->
<svg version="1.1" id="Calque_1" xmlns="http://www.w3.org/2000/svg" xmlns:xlink="http://www.w3.org/1999/xlink" x="0px" y="0px"
	 viewBox="0 0 1024 768" style="enable-background:new 0 0 1024 768;" xml:space="preserve">
<style type="text/css">
	.st0{fill:#C386DF;enable-background:new    ;}
	.st1{fill:#FFFFFF;}
</style>
<g>
	<path class="st0" d="M245.6,598c13.1-37.4,26.1-74.7,39.3-112.1c1.2-3.3,0.8-5.7-1-8.7c-37.2-60.6-49-126.1-35.3-195.7
		C277.7,133.2,425.6,37.7,572.8,71.6C715.6,104.4,805.5,241.9,778.4,386c-23.1,122.8-129.5,214.4-254.2,218.8
		c-56.9,2-109.5-12.2-157.5-42.9c-3-1.9-5.5-2.1-8.7-0.9c-22,8.5-44.1,16.9-66.2,25.4c-15.7,6-31.3,12-48.3,18.5
		C244.5,601.7,245,599.9,245.6,598z"/>
	<path class="st1" d="M483.4,440.3c0,10,0,19.6,0,29.4c59.8,0,119.4,0,179.4,0c0-9.6,0-19.4,0-29.4
		C603.2,440.3,543.5,440.3,483.4,440.3z"/>
	<path class="st1" d="M423.5,320.3c0,10,0,19.6,0,29.4c38.1,0,76,0,114.2,0c0-9.9,0-19.5,0-29.4
		C499.6,320.3,461.7,320.3,423.5,320.3z"/>
	<path class="st1" d="M625.1,320.4c0,9.8,0,19.4,0,29.3c33.2,0,66.3,0,99.7,0c0-9.7,0-19.3,0-29.3
		C691.8,320.4,658.8,320.4,625.1,320.4z"/>
</g>
</svg>
