<?xml version="1.0" encoding="utf-8"?>
<!-- Generator: Adobe Illustrator 19.1.0, SVG Export Plug-In . SVG Version: 6.00 Build 0)  -->
<svg version="1.1" id="Calque_1" xmlns="http://www.w3.org/2000/svg" xmlns:xlink="http://www.w3.org/1999/xlink" x="0px" y="0px"
	 viewBox="0 0 1024 768" style="enable-background:new 0 0 1024 768;" xml:space="preserve">
<style type="text/css">
	.st0{fill:#FA7571;}
	.st1{fill:#FFFFFF;}
</style>
<g>
	<path class="st0" d="M245.5,598.5c13.1-37.4,26.1-74.8,39.3-112.1c1.2-3.4,1.1-6-0.9-9.2c-37.2-60.6-49.1-126.1-35.3-195.7
		C277.9,133.1,425.7,37.7,572.8,71.6C715.6,104.5,805.4,241.8,778.4,386c-23,122.7-129.5,214.4-254.2,218.8
		c-56.9,2-109.4-12.2-157.5-42.9c-3-1.9-5.5-2.1-8.7-0.8c-23.7,9.2-47.5,18.2-71.3,27.3c-14,5.3-27.9,10.7-43.1,16.5
		C244.4,601.9,244.9,600.1,245.5,598.5z"/>
	<path class="st1" d="M605.1,328.4c20.3,20.3,40.2,40.3,59.9,59.9c6.4-6.4,13.2-13.2,20.3-20.3c-12.6-12.6-25.6-25.6-38.6-38.5
		c13.3-13.3,26.2-26.2,39.2-39.1c-7.8-7.2-15.1-13.9-21.2-19.6C645.6,289.2,625.2,308.9,605.1,328.4z"/>
	<path class="st1" d="M487.9,268.7c-0.4,0.4-1.5,1.4-2.6,2.4c-5.8,5.7-11.6,11.4-17.4,17.2c13.4,13.3,26.4,26.4,39.9,39.8
		c-13.6,13.6-26.7,26.6-39.5,39.3c7.1,7,13.9,13.8,20.4,20.3c19.6-19.6,39.6-39.5,59.2-59.1C528.2,309,508.1,289,487.9,268.7z"/>
	<path class="st1" d="M602.5,466.8c-0.1-17-13.4-30-30.4-29.8c-16.6,0.2-29.7,13.6-29.6,30.2c0.2,16.9,13.6,30,30.5,29.8
		C589.7,496.8,602.6,483.6,602.5,466.8z"/>
</g>
</svg>
