<?xml version="1.0" encoding="utf-8"?>
<!-- Generator: Adobe Illustrator 19.1.0, SVG Export Plug-In . SVG Version: 6.00 Build 0)  -->
<svg version="1.1" id="Calque_1" xmlns="http://www.w3.org/2000/svg" xmlns:xlink="http://www.w3.org/1999/xlink" x="0px" y="0px"
	 viewBox="0 0 1024 768" style="enable-background:new 0 0 1024 768;" xml:space="preserve">
<style type="text/css">
	.st0{fill:#FFB744;}
	.st1{fill:#FFFFFF;}
</style>
<g>
	<path class="st0" d="M245.5,598.5c13.1-37.4,26.1-74.8,39.3-112.1c1.2-3.4,1.1-6-0.9-9.2c-37.2-60.6-49.1-126.1-35.3-195.7
		C277.9,133.1,425.7,37.7,572.8,71.6C715.6,104.5,805.4,241.8,778.4,386c-23,122.7-129.5,214.4-254.2,218.8
		c-56.9,2-109.4-12.2-157.5-42.9c-3-1.9-5.5-2.1-8.7-0.8c-23.7,9.2-47.5,18.2-71.3,27.3c-14,5.3-27.9,10.7-43.1,16.5
		C244.4,601.9,244.9,600.1,245.5,598.5z"/>
	<path class="st1" d="M674.3,414.3c-65.6,0-130.4,0-195.9,0c0.9,31.6,12.8,57.8,37.9,76.8c32.9,24.9,69,28.3,105.6,9.2
		C655.8,482.7,672.3,453,674.3,414.3z"/>
	<path class="st1" d="M665.2,388.1c6.6-6.6,13.3-13.3,20.2-20.2c-13-12.7-26.1-25.6-39.5-38.7c14-13.8,27.1-26.8,39.8-39.3
		c-7.4-7.3-14.2-14.1-20.6-20.5c-19.4,19.4-39.4,39.5-59.2,59.2C625.2,348.1,645.2,368.1,665.2,388.1z"/>
	<path class="st1" d="M468,367.4c7.3,7.3,14.1,14.1,20.7,20.7c19.8-19.7,39.8-39.7,59.5-59.4c-19.8-19.8-39.8-39.8-59.4-59.4
		c-6.3,6.3-13.1,13.2-20.1,20.2c12.5,12.4,25.5,25.5,38.7,38.7C494,341.6,481,354.5,468,367.4z"/>
</g>
</svg>
