<?xml version="1.0" encoding="utf-8"?>
<!-- Generator: Adobe Illustrator 19.1.0, SVG Export Plug-In . SVG Version: 6.00 Build 0)  -->
<svg version="1.1" id="Calque_1" xmlns="http://www.w3.org/2000/svg" xmlns:xlink="http://www.w3.org/1999/xlink" x="0px" y="0px"
	 viewBox="0 0 1024 768" style="enable-background:new 0 0 1024 768;" xml:space="preserve">
<style type="text/css">
	.st0{fill:#115DA5;}
	.st1{fill:#FFFFFF;}
</style>
<g>
	<path class="st0" d="M245.4,598.3c12.9-37.1,25.8-74.1,39-111.1c1.5-4.2,1-7.3-1.3-11.1c-36.8-60.4-48.5-125.7-34.6-194.9
		C278,134.7,419.9,41,566.5,70.1c145.8,29,240.9,172.2,211.3,318.4c-23.5,116.3-120,203.7-238.5,215.1c-62.1,6-119.7-7.9-172.1-42.2
		c-2.8-1.9-5.1-2-8.1-0.8c-31.2,12-62.4,23.9-93.7,35.8c-6.9,2.6-13.9,5.3-22,8.3C244.3,601.8,244.8,600,245.4,598.3z"/>
	<path class="st1" d="M660,346.3c16.5,0.1,30-13.1,30.1-29.5c0.1-16.7-13.3-30.3-29.9-30.4c-16.5-0.1-30.2,13.6-30.1,30.2
		C630.2,333,643.5,346.2,660,346.3z"/>
	<path class="st1" d="M486.1,346.3c16.7,0,30.1-13.4,30-30.2c-0.1-16.4-13.6-29.8-30-29.8c-16.6,0-30.1,13.7-30,30.3
		C456.2,333.1,469.6,346.3,486.1,346.3z"/>
</g>
</svg>
