<?xml version="1.0" encoding="utf-8"?>
<!-- Generator: Adobe Illustrator 19.1.0, SVG Export Plug-In . SVG Version: 6.00 Build 0)  -->
<svg version="1.1" id="Calque_1" xmlns="http://www.w3.org/2000/svg" xmlns:xlink="http://www.w3.org/1999/xlink" x="0px" y="0px"
	 viewBox="0 0 1024 768" style="enable-background:new 0 0 1024 768;" xml:space="preserve">
<style type="text/css">
	.st0{fill:#C386DF;enable-background:new    ;}
</style>
<path class="st0" d="M777.1,279c-8.2-41.1-26.1-77.2-52-109.8C685.4,119.1,635,86,572.6,71.6c-122.7-28.5-251,34.5-303.8,148.8
	c-11,23.9-18.6,48.8-22.5,74.8c-4.1,27-4,54.2,0.3,81.1c4.2,26.3,10.8,52.1,23,76.1c4.2,8.3,8.8,16.4,13.6,24.4
	c2,3.3,2.5,5.9,1.1,9.6c-13.2,37.3-26.2,74.7-39.3,112.1c-0.6,1.7-1.1,3.4-2,6.4c14.7-5.7,28.2-11,41.6-16.2
	c24.9-9.8,49.9-19.5,74.8-29.4c3.1-1.2,5.3-1,8.2,0.9c33.8,22,70.5,36.6,110.9,40.7c16.9,1.7,33.8,2.1,50.8,3
	c2.6,0.1,5.3-0.7,7.9-0.7c0,0-24-8.9-32.9-28.9c0-0.2,0-0.3,0-0.4l-0.4,0.1c0-0.6,0.2-1.1,0.1-1.3c-9.7-14.3-13-30.2-12.7-47.4
	c0.5-27,0.2-54,0-81c0-2.7-1.1-5.8-2.6-8.2c-7.3-11.1-13.1-22.7-16.4-36.5c8.1,0,15.8,0.5,23.5-0.1c6.3-0.5,9.2,1.5,12.1,7.5
	c14.1,28.6,37.5,43.7,69.5,43.5c30-0.2,55.9-19.2,67.2-47.5c0.5-1.3,2.3-3.1,3.5-3.1c9.6-0.3,19.3-0.1,29.5-0.1
	c-0.3,1.8-0.4,3.2-0.8,4.5c-3.6,13.3-10,25.3-18.2,36.4c-1.2,1.6-2.2,3.8-2.2,5.8c-0.1,25.5-0.1,51-0.1,76.5c0,0.8,0.1,1.6,0.2,3.2
	l-2.6,0.8c1.9-0.3,2.9-0.5,2.9-0.5s-1.8,36.8-5.4,40c66.5-40.5,108.3-98.7,124.9-174.8C784.7,354.1,784.6,316.7,777.1,279z
	 M530.8,356.7c-12.7-12.7-25.7-25.7-39.2-39.3c-13.4,13.5-26.3,26.5-38.5,38.7c-7-7-13.9-13.9-20.1-20.1c19.6-19.6,39.5-39.5,59-59
	c19.6,19.6,39.5,39.5,59.3,59.3C544.8,342.8,538,349.6,530.8,356.7z M692.8,356.6c-12.6-12.7-25.5-25.6-39.2-39.3
	c-13.4,13.4-26.4,26.5-38.9,39c-6.9-6.9-13.7-13.7-19.7-19.6c19.7-19.7,39.8-39.8,59-59c19.4,19.4,39.4,39.4,58.9,58.9
	C706.5,342.8,699.8,349.6,692.8,356.6z"/>
<path class="st0" d="M592.8,481.4c0,14.1,0,29.1,0,44.5c-10,0-19.7,0-29.9,0c0-14.7,0-29.5,0-43.5c-13.7-4.6-26.8-9-40.2-13.5
	c-0.1,0.8-0.2,2.4-0.2,4c0,19.7-0.1,39.3,0,59c0.1,24.8,17.4,42.1,42.1,42.1c9.6,0,19.4,0.4,28.9-0.8c18.3-2.3,33-17.7,33.6-36.1
	c0.8-22.4,0.2-44.9,0.2-67.5C615.7,473.5,604.5,477.3,592.8,481.4z"/>
</svg>
