<?xml version="1.0" encoding="utf-8"?>
<!-- Generator: Adobe Illustrator 19.1.0, SVG Export Plug-In . SVG Version: 6.00 Build 0)  -->
<svg version="1.1" id="Calque_1" xmlns="http://www.w3.org/2000/svg" xmlns:xlink="http://www.w3.org/1999/xlink" x="0px" y="0px"
	 viewBox="0 0 1024 768" style="enable-background:new 0 0 1024 768;" xml:space="preserve">
<style type="text/css">
	.st0{fill:#FA7571;}
	.st1{fill:#FFFFFF;}
</style>
<g>
	<path class="st0" d="M245.6,598.3c13.1-37.4,26.1-74.8,39.3-112.1c1.2-3.5,0.9-6-1-9.2c-37.2-60.6-49.1-126.2-35.2-195.7
		C279.8,126.2,437.4,31.3,589,75.7C724.9,115.6,806.4,252,777.4,391.1c-24,115.1-122.1,202.7-238.4,212.8
		c-62.2,5.4-119.7-8.4-172.4-42c-2.9-1.8-5.2-2.1-8.3-0.9c-30.9,11.9-61.8,23.7-92.7,35.5c-6.9,2.6-13.9,5.3-22,8.3
		C244.5,601.8,245,600,245.6,598.3z"/>
	<path class="st1" d="M512.1,402c-13.4,0-26.5,0-40.3,0c2.2,36.9,17.6,66.2,48.5,85.7c36.7,23.2,75.1,23.7,112.4,1.4
		c32.3-19.3,48.3-49.2,50.6-87.1c-12.2,0-23.7,0-35.9,0c-1.3,10.2-5.7,18.8-14.8,24.5c-5.7,3.6-11.9,5-18.6,4.3
		c-14.3-1.5-24.6-12.3-27.1-28.8c-5,0-10,0-15,0c-4.3,19.1-15.1,29.1-30.9,28.9C525.4,430.8,516.1,421.5,512.1,402z"/>
	<path class="st1" d="M595.2,336.6c6.1,6.1,12.9,12.9,19.9,19.8c12.6-12.6,25.6-25.6,38.6-38.6c13.4,13.4,26.4,26.5,39.1,39.3
		c7.4-7.4,14.2-14.2,20.6-20.6c-19.6-19.6-39.6-39.6-59.1-59.1C635.1,296.8,615,316.8,595.2,336.6z"/>
	<path class="st1" d="M432.6,336.5c6.6,6.5,13.3,13.2,19.9,19.9c12.8-12.9,25.8-25.9,38.6-38.8c13.7,13.7,26.7,26.8,39.3,39.5
		c7.6-7.6,14.4-14.4,20.6-20.6c-19.5-19.5-39.5-39.5-59.2-59.2C472.7,296.5,452.7,316.4,432.6,336.5z"/>
</g>
</svg>
