<?xml version="1.0" encoding="utf-8"?>
<!-- Generator: Adobe Illustrator 19.1.0, SVG Export Plug-In . SVG Version: 6.00 Build 0)  -->
<svg version="1.1" id="Calque_1" xmlns="http://www.w3.org/2000/svg" xmlns:xlink="http://www.w3.org/1999/xlink" x="0px" y="0px"
	 viewBox="0 0 1024 768" style="enable-background:new 0 0 1024 768;" xml:space="preserve">
<style type="text/css">
	.st0{fill:#F77471;}
	.st1{fill:#FFFFFF;}
</style>
<g>
	<path class="st0" d="M245.4,598.7c13.1-37.4,26.1-74.8,39.3-112.1c1.3-3.6,1.1-6.3-0.9-9.6c-37.2-60.7-49.1-126.2-35.1-195.7
		c29.7-146.6,171.6-240.4,318.1-211c145,29.1,239.4,169.8,211.6,315.6C754.9,509,649.7,600,524.8,604.9
		c-56.9,2.2-109.5-11.9-157.5-42.5c-3.5-2.2-6.3-2.4-10.1-0.9c-35.8,13.8-71.8,27.5-107.6,41.2c-1.6,0.6-3.3,1.1-6,2
		C244.4,601.8,244.9,600.2,245.4,598.7z"/>
	<path class="st1" d="M498.2,438.9c-13.4-13.5-26.4-26.4-39-39.1c-7,7-13.8,13.8-20.2,20.2c19.6,19.6,39.6,39.6,59.6,59.6
		C511,467.1,524,454,536.9,441c13.9,14,27,27.2,40.3,40.5c13.7-13.8,26.9-27.1,40.3-40.6c13.8,13.8,26.8,26.9,39.5,39.7
		c20.5-20.5,40.5-40.5,60.3-60.2c-6.5-6.4-13.3-13.2-20.4-20.2c-12.4,12.6-25.4,25.7-38.7,39.2c-13.7-13.7-26.7-26.7-39.7-39.9
		C605,413,591.8,426.2,578.1,440c-13.4-14.1-26.3-27.7-38.8-40.8C524.9,413,511.8,425.7,498.2,438.9z"/>
	<path class="st1" d="M507.3,316.2c-13.8,13.8-26.8,26.7-39.2,39c6.7,7.3,13.3,14.5,19.6,21.3c20.5-20.5,40.5-40.5,59.8-59.7
		c-19.4-20-39.2-40.4-58.8-60.5c-7.1,7.1-13.9,13.9-20.8,20.9C480.5,289.7,493.6,302.6,507.3,316.2z"/>
	<path class="st1" d="M686.2,278.2c-8-8-14.8-14.8-21.3-21.4c-19.7,19.7-39.6,39.7-59.3,59.3c19.7,19.7,39.7,39.7,59.2,59.2
		c6.3-6.2,13.1-13,20-19.8c-12.4-12.4-25.3-25.3-38.4-38.4C660,303.7,673.2,290.9,686.2,278.2z"/>
</g>
</svg>
