<?xml version="1.0" encoding="utf-8"?>
<!-- Generator: Adobe Illustrator 19.1.0, SVG Export Plug-In . SVG Version: 6.00 Build 0)  -->
<svg version="1.1" id="Calque_1" xmlns="http://www.w3.org/2000/svg" xmlns:xlink="http://www.w3.org/1999/xlink" x="0px" y="0px"
	 viewBox="0 0 1024 768" style="enable-background:new 0 0 1024 768;" xml:space="preserve">
<style type="text/css">
	.st0{fill:#005DA5;}
	.st1{fill:#FFFFFF;}
</style>
<g>
	<path class="st0" d="M245.3,598.4c13.1-37.4,26.1-74.8,39.3-112.1c1.2-3.5,1-6-1-9.2c-37.2-60.6-49.2-126.2-35.2-195.7
		c29.1-144.8,169.4-241.1,318.4-211C713.5,100,807.3,242.3,777.7,388.5c-23.5,116.3-120,203.7-238.5,215.1c-61.9,6-119.4-8-172-41.3
		c-3.5-2.2-6.2-2.6-10.1-1.1c-35.8,13.9-71.8,27.5-107.6,41.2c-1.7,0.6-3.4,1.2-6.2,2.2C244.3,601.8,244.8,600.1,245.3,598.4z"/>
	<path class="st1" d="M486,414.9c-43.5,0-79.6-36.1-79.8-79.6c-0.2-43.7,36-80.1,79.7-80.2c43.7-0.1,80,36.1,80,79.8
		C566,378.6,529.7,414.9,486,414.9z M485.7,285.1c-27.5,0.2-49.8,22.9-49.5,50.3c0.3,27.1,23,49.5,50.1,49.4
		c27.5-0.1,49.8-22.6,49.7-50.2C535.8,307.2,513.2,284.9,485.7,285.1z"/>
	<path class="st1" d="M662.5,255.1c43.6,0,79.5,35.9,79.7,79.5c0.1,43.9-35.7,80.1-79.5,80.2c-43.8,0.1-79.9-35.9-79.9-79.8
		C582.7,291.2,618.7,255.1,662.5,255.1z M662,384.9c27.3,0.3,50-21.8,50.2-49c0.2-28.1-21.7-50.6-49.4-50.7
		c-27.5-0.2-49.7,21.9-49.9,49.7C612.5,362.1,634.6,384.6,662,384.9z"/>
	<path class="st1" d="M602.4,467.1c0-16.8-12.9-29.9-29.6-30.1c-16.9-0.1-30.3,13.1-30.3,29.9c-0.1,16.6,13.1,30,29.7,30.1
		C589.1,497.1,602.3,484,602.4,467.1z"/>
</g>
</svg>
